G04 #@! TF.GenerationSoftware,KiCad,Pcbnew,(7.0.0-0)*
G04 #@! TF.CreationDate,2023-05-10T16:18:41+02:00*
G04 #@! TF.ProjectId,Filter-forest-v3,46696c74-6572-42d6-966f-726573742d76,rev?*
G04 #@! TF.SameCoordinates,Original*
G04 #@! TF.FileFunction,Copper,L2,Bot*
G04 #@! TF.FilePolarity,Positive*
%FSLAX46Y46*%
G04 Gerber Fmt 4.6, Leading zero omitted, Abs format (unit mm)*
G04 Created by KiCad (PCBNEW (7.0.0-0)) date 2023-05-10 16:18:41*
%MOMM*%
%LPD*%
G01*
G04 APERTURE LIST*
G04 Aperture macros list*
%AMRoundRect*
0 Rectangle with rounded corners*
0 $1 Rounding radius*
0 $2 $3 $4 $5 $6 $7 $8 $9 X,Y pos of 4 corners*
0 Add a 4 corners polygon primitive as box body*
4,1,4,$2,$3,$4,$5,$6,$7,$8,$9,$2,$3,0*
0 Add four circle primitives for the rounded corners*
1,1,$1+$1,$2,$3*
1,1,$1+$1,$4,$5*
1,1,$1+$1,$6,$7*
1,1,$1+$1,$8,$9*
0 Add four rect primitives between the rounded corners*
20,1,$1+$1,$2,$3,$4,$5,0*
20,1,$1+$1,$4,$5,$6,$7,0*
20,1,$1+$1,$6,$7,$8,$9,0*
20,1,$1+$1,$8,$9,$2,$3,0*%
G04 Aperture macros list end*
%ADD10C,0.300000*%
G04 #@! TA.AperFunction,NonConductor*
%ADD11C,0.300000*%
G04 #@! TD*
G04 #@! TA.AperFunction,NonConductor*
%ADD12C,0.200000*%
G04 #@! TD*
G04 #@! TA.AperFunction,ComponentPad*
%ADD13R,2.600000X2.600000*%
G04 #@! TD*
G04 #@! TA.AperFunction,ComponentPad*
%ADD14O,2.600000X2.600000*%
G04 #@! TD*
G04 #@! TA.AperFunction,ComponentPad*
%ADD15C,0.610000*%
G04 #@! TD*
G04 #@! TA.AperFunction,ComponentPad*
%ADD16C,2.500000*%
G04 #@! TD*
G04 #@! TA.AperFunction,ComponentPad*
%ADD17C,3.500000*%
G04 #@! TD*
G04 #@! TA.AperFunction,ComponentPad*
%ADD18C,5.600000*%
G04 #@! TD*
G04 #@! TA.AperFunction,ComponentPad*
%ADD19C,0.600000*%
G04 #@! TD*
G04 #@! TA.AperFunction,SMDPad,CuDef*
%ADD20R,4.200000X1.350000*%
G04 #@! TD*
G04 #@! TA.AperFunction,ComponentPad*
%ADD21RoundRect,0.249999X0.790001X1.550001X-0.790001X1.550001X-0.790001X-1.550001X0.790001X-1.550001X0*%
G04 #@! TD*
G04 #@! TA.AperFunction,ComponentPad*
%ADD22O,2.080000X3.600000*%
G04 #@! TD*
G04 #@! TA.AperFunction,SMDPad,CuDef*
%ADD23RoundRect,0.250000X-0.600000X-0.600000X0.600000X-0.600000X0.600000X0.600000X-0.600000X0.600000X0*%
G04 #@! TD*
G04 #@! TA.AperFunction,ComponentPad*
%ADD24C,2.610000*%
G04 #@! TD*
G04 #@! TA.AperFunction,ComponentPad*
%ADD25O,1.800000X1.000000*%
G04 #@! TD*
G04 #@! TA.AperFunction,ViaPad*
%ADD26C,0.800000*%
G04 #@! TD*
G04 #@! TA.AperFunction,Conductor*
%ADD27C,0.200000*%
G04 #@! TD*
G04 #@! TA.AperFunction,Conductor*
%ADD28C,0.400000*%
G04 #@! TD*
G04 #@! TA.AperFunction,Conductor*
%ADD29C,1.000000*%
G04 #@! TD*
G04 #@! TA.AperFunction,Profile*
%ADD30C,0.100000*%
G04 #@! TD*
G04 APERTURE END LIST*
D10*
D11*
X120105631Y-135671071D02*
X121105631Y-135671071D01*
X121105631Y-135671071D02*
X120462774Y-137171071D01*
X121962774Y-135671071D02*
X122105631Y-135671071D01*
X122105631Y-135671071D02*
X122248488Y-135742500D01*
X122248488Y-135742500D02*
X122319917Y-135813928D01*
X122319917Y-135813928D02*
X122391345Y-135956785D01*
X122391345Y-135956785D02*
X122462774Y-136242500D01*
X122462774Y-136242500D02*
X122462774Y-136599642D01*
X122462774Y-136599642D02*
X122391345Y-136885357D01*
X122391345Y-136885357D02*
X122319917Y-137028214D01*
X122319917Y-137028214D02*
X122248488Y-137099642D01*
X122248488Y-137099642D02*
X122105631Y-137171071D01*
X122105631Y-137171071D02*
X121962774Y-137171071D01*
X121962774Y-137171071D02*
X121819917Y-137099642D01*
X121819917Y-137099642D02*
X121748488Y-137028214D01*
X121748488Y-137028214D02*
X121677059Y-136885357D01*
X121677059Y-136885357D02*
X121605631Y-136599642D01*
X121605631Y-136599642D02*
X121605631Y-136242500D01*
X121605631Y-136242500D02*
X121677059Y-135956785D01*
X121677059Y-135956785D02*
X121748488Y-135813928D01*
X121748488Y-135813928D02*
X121819917Y-135742500D01*
X121819917Y-135742500D02*
X121962774Y-135671071D01*
X123105630Y-137028214D02*
X123177059Y-137099642D01*
X123177059Y-137099642D02*
X123105630Y-137171071D01*
X123105630Y-137171071D02*
X123034202Y-137099642D01*
X123034202Y-137099642D02*
X123105630Y-137028214D01*
X123105630Y-137028214D02*
X123105630Y-137171071D01*
X123748488Y-135813928D02*
X123819916Y-135742500D01*
X123819916Y-135742500D02*
X123962774Y-135671071D01*
X123962774Y-135671071D02*
X124319916Y-135671071D01*
X124319916Y-135671071D02*
X124462774Y-135742500D01*
X124462774Y-135742500D02*
X124534202Y-135813928D01*
X124534202Y-135813928D02*
X124605631Y-135956785D01*
X124605631Y-135956785D02*
X124605631Y-136099642D01*
X124605631Y-136099642D02*
X124534202Y-136313928D01*
X124534202Y-136313928D02*
X123677059Y-137171071D01*
X123677059Y-137171071D02*
X124605631Y-137171071D01*
X125891345Y-136171071D02*
X125891345Y-137171071D01*
X125534202Y-135599642D02*
X125177059Y-136671071D01*
X125177059Y-136671071D02*
X126105630Y-136671071D01*
X126962773Y-135671071D02*
X127105630Y-135671071D01*
X127105630Y-135671071D02*
X127248487Y-135742500D01*
X127248487Y-135742500D02*
X127319916Y-135813928D01*
X127319916Y-135813928D02*
X127391344Y-135956785D01*
X127391344Y-135956785D02*
X127462773Y-136242500D01*
X127462773Y-136242500D02*
X127462773Y-136599642D01*
X127462773Y-136599642D02*
X127391344Y-136885357D01*
X127391344Y-136885357D02*
X127319916Y-137028214D01*
X127319916Y-137028214D02*
X127248487Y-137099642D01*
X127248487Y-137099642D02*
X127105630Y-137171071D01*
X127105630Y-137171071D02*
X126962773Y-137171071D01*
X126962773Y-137171071D02*
X126819916Y-137099642D01*
X126819916Y-137099642D02*
X126748487Y-137028214D01*
X126748487Y-137028214D02*
X126677058Y-136885357D01*
X126677058Y-136885357D02*
X126605630Y-136599642D01*
X126605630Y-136599642D02*
X126605630Y-136242500D01*
X126605630Y-136242500D02*
X126677058Y-135956785D01*
X126677058Y-135956785D02*
X126748487Y-135813928D01*
X126748487Y-135813928D02*
X126819916Y-135742500D01*
X126819916Y-135742500D02*
X126962773Y-135671071D01*
X128748487Y-136171071D02*
X128748487Y-137171071D01*
X128391344Y-135599642D02*
X128034201Y-136671071D01*
X128034201Y-136671071D02*
X128962772Y-136671071D01*
X130434200Y-137171071D02*
X130434200Y-136171071D01*
X130434200Y-136313928D02*
X130505629Y-136242500D01*
X130505629Y-136242500D02*
X130648486Y-136171071D01*
X130648486Y-136171071D02*
X130862772Y-136171071D01*
X130862772Y-136171071D02*
X131005629Y-136242500D01*
X131005629Y-136242500D02*
X131077058Y-136385357D01*
X131077058Y-136385357D02*
X131077058Y-137171071D01*
X131077058Y-136385357D02*
X131148486Y-136242500D01*
X131148486Y-136242500D02*
X131291343Y-136171071D01*
X131291343Y-136171071D02*
X131505629Y-136171071D01*
X131505629Y-136171071D02*
X131648486Y-136242500D01*
X131648486Y-136242500D02*
X131719915Y-136385357D01*
X131719915Y-136385357D02*
X131719915Y-137171071D01*
X132434200Y-137171071D02*
X132434200Y-136171071D01*
X132434200Y-136313928D02*
X132505629Y-136242500D01*
X132505629Y-136242500D02*
X132648486Y-136171071D01*
X132648486Y-136171071D02*
X132862772Y-136171071D01*
X132862772Y-136171071D02*
X133005629Y-136242500D01*
X133005629Y-136242500D02*
X133077058Y-136385357D01*
X133077058Y-136385357D02*
X133077058Y-137171071D01*
X133077058Y-136385357D02*
X133148486Y-136242500D01*
X133148486Y-136242500D02*
X133291343Y-136171071D01*
X133291343Y-136171071D02*
X133505629Y-136171071D01*
X133505629Y-136171071D02*
X133648486Y-136242500D01*
X133648486Y-136242500D02*
X133719915Y-136385357D01*
X133719915Y-136385357D02*
X133719915Y-137171071D01*
D12*
X91864000Y-126478000D02*
X91864000Y-139006420D01*
X162104404Y-126478000D02*
X162104404Y-139006420D01*
X91864000Y-138420000D02*
X162104404Y-138420000D01*
X91864000Y-138420000D02*
X162104404Y-138420000D01*
X91864000Y-138420000D02*
X92990504Y-137833579D01*
X91864000Y-138420000D02*
X92990504Y-139006421D01*
X162104404Y-138420000D02*
X160977900Y-139006421D01*
X162104404Y-138420000D02*
X160977900Y-137833579D01*
D10*
D11*
X176071071Y-86668284D02*
X176071071Y-86382570D01*
X176071071Y-86382570D02*
X175999642Y-86239713D01*
X175999642Y-86239713D02*
X175928214Y-86168284D01*
X175928214Y-86168284D02*
X175713928Y-86025427D01*
X175713928Y-86025427D02*
X175428214Y-85953998D01*
X175428214Y-85953998D02*
X174856785Y-85953998D01*
X174856785Y-85953998D02*
X174713928Y-86025427D01*
X174713928Y-86025427D02*
X174642500Y-86096856D01*
X174642500Y-86096856D02*
X174571071Y-86239713D01*
X174571071Y-86239713D02*
X174571071Y-86525427D01*
X174571071Y-86525427D02*
X174642500Y-86668284D01*
X174642500Y-86668284D02*
X174713928Y-86739713D01*
X174713928Y-86739713D02*
X174856785Y-86811141D01*
X174856785Y-86811141D02*
X175213928Y-86811141D01*
X175213928Y-86811141D02*
X175356785Y-86739713D01*
X175356785Y-86739713D02*
X175428214Y-86668284D01*
X175428214Y-86668284D02*
X175499642Y-86525427D01*
X175499642Y-86525427D02*
X175499642Y-86239713D01*
X175499642Y-86239713D02*
X175428214Y-86096856D01*
X175428214Y-86096856D02*
X175356785Y-86025427D01*
X175356785Y-86025427D02*
X175213928Y-85953998D01*
X176071071Y-84525427D02*
X176071071Y-85382570D01*
X176071071Y-84953999D02*
X174571071Y-84953999D01*
X174571071Y-84953999D02*
X174785357Y-85096856D01*
X174785357Y-85096856D02*
X174928214Y-85239713D01*
X174928214Y-85239713D02*
X174999642Y-85382570D01*
X175928214Y-83882571D02*
X175999642Y-83811142D01*
X175999642Y-83811142D02*
X176071071Y-83882571D01*
X176071071Y-83882571D02*
X175999642Y-83953999D01*
X175999642Y-83953999D02*
X175928214Y-83882571D01*
X175928214Y-83882571D02*
X176071071Y-83882571D01*
X176071071Y-83096856D02*
X176071071Y-82811142D01*
X176071071Y-82811142D02*
X175999642Y-82668285D01*
X175999642Y-82668285D02*
X175928214Y-82596856D01*
X175928214Y-82596856D02*
X175713928Y-82453999D01*
X175713928Y-82453999D02*
X175428214Y-82382570D01*
X175428214Y-82382570D02*
X174856785Y-82382570D01*
X174856785Y-82382570D02*
X174713928Y-82453999D01*
X174713928Y-82453999D02*
X174642500Y-82525428D01*
X174642500Y-82525428D02*
X174571071Y-82668285D01*
X174571071Y-82668285D02*
X174571071Y-82953999D01*
X174571071Y-82953999D02*
X174642500Y-83096856D01*
X174642500Y-83096856D02*
X174713928Y-83168285D01*
X174713928Y-83168285D02*
X174856785Y-83239713D01*
X174856785Y-83239713D02*
X175213928Y-83239713D01*
X175213928Y-83239713D02*
X175356785Y-83168285D01*
X175356785Y-83168285D02*
X175428214Y-83096856D01*
X175428214Y-83096856D02*
X175499642Y-82953999D01*
X175499642Y-82953999D02*
X175499642Y-82668285D01*
X175499642Y-82668285D02*
X175428214Y-82525428D01*
X175428214Y-82525428D02*
X175356785Y-82453999D01*
X175356785Y-82453999D02*
X175213928Y-82382570D01*
X175071071Y-81096857D02*
X176071071Y-81096857D01*
X174499642Y-81453999D02*
X175571071Y-81811142D01*
X175571071Y-81811142D02*
X175571071Y-80882571D01*
X175213928Y-80096857D02*
X175142500Y-80239714D01*
X175142500Y-80239714D02*
X175071071Y-80311143D01*
X175071071Y-80311143D02*
X174928214Y-80382571D01*
X174928214Y-80382571D02*
X174856785Y-80382571D01*
X174856785Y-80382571D02*
X174713928Y-80311143D01*
X174713928Y-80311143D02*
X174642500Y-80239714D01*
X174642500Y-80239714D02*
X174571071Y-80096857D01*
X174571071Y-80096857D02*
X174571071Y-79811143D01*
X174571071Y-79811143D02*
X174642500Y-79668286D01*
X174642500Y-79668286D02*
X174713928Y-79596857D01*
X174713928Y-79596857D02*
X174856785Y-79525428D01*
X174856785Y-79525428D02*
X174928214Y-79525428D01*
X174928214Y-79525428D02*
X175071071Y-79596857D01*
X175071071Y-79596857D02*
X175142500Y-79668286D01*
X175142500Y-79668286D02*
X175213928Y-79811143D01*
X175213928Y-79811143D02*
X175213928Y-80096857D01*
X175213928Y-80096857D02*
X175285357Y-80239714D01*
X175285357Y-80239714D02*
X175356785Y-80311143D01*
X175356785Y-80311143D02*
X175499642Y-80382571D01*
X175499642Y-80382571D02*
X175785357Y-80382571D01*
X175785357Y-80382571D02*
X175928214Y-80311143D01*
X175928214Y-80311143D02*
X175999642Y-80239714D01*
X175999642Y-80239714D02*
X176071071Y-80096857D01*
X176071071Y-80096857D02*
X176071071Y-79811143D01*
X176071071Y-79811143D02*
X175999642Y-79668286D01*
X175999642Y-79668286D02*
X175928214Y-79596857D01*
X175928214Y-79596857D02*
X175785357Y-79525428D01*
X175785357Y-79525428D02*
X175499642Y-79525428D01*
X175499642Y-79525428D02*
X175356785Y-79596857D01*
X175356785Y-79596857D02*
X175285357Y-79668286D01*
X175285357Y-79668286D02*
X175213928Y-79811143D01*
X174571071Y-78596857D02*
X174571071Y-78454000D01*
X174571071Y-78454000D02*
X174642500Y-78311143D01*
X174642500Y-78311143D02*
X174713928Y-78239715D01*
X174713928Y-78239715D02*
X174856785Y-78168286D01*
X174856785Y-78168286D02*
X175142500Y-78096857D01*
X175142500Y-78096857D02*
X175499642Y-78096857D01*
X175499642Y-78096857D02*
X175785357Y-78168286D01*
X175785357Y-78168286D02*
X175928214Y-78239715D01*
X175928214Y-78239715D02*
X175999642Y-78311143D01*
X175999642Y-78311143D02*
X176071071Y-78454000D01*
X176071071Y-78454000D02*
X176071071Y-78596857D01*
X176071071Y-78596857D02*
X175999642Y-78739715D01*
X175999642Y-78739715D02*
X175928214Y-78811143D01*
X175928214Y-78811143D02*
X175785357Y-78882572D01*
X175785357Y-78882572D02*
X175499642Y-78954000D01*
X175499642Y-78954000D02*
X175142500Y-78954000D01*
X175142500Y-78954000D02*
X174856785Y-78882572D01*
X174856785Y-78882572D02*
X174713928Y-78811143D01*
X174713928Y-78811143D02*
X174642500Y-78739715D01*
X174642500Y-78739715D02*
X174571071Y-78596857D01*
X176071071Y-76554001D02*
X175071071Y-76554001D01*
X175213928Y-76554001D02*
X175142500Y-76482572D01*
X175142500Y-76482572D02*
X175071071Y-76339715D01*
X175071071Y-76339715D02*
X175071071Y-76125429D01*
X175071071Y-76125429D02*
X175142500Y-75982572D01*
X175142500Y-75982572D02*
X175285357Y-75911144D01*
X175285357Y-75911144D02*
X176071071Y-75911144D01*
X175285357Y-75911144D02*
X175142500Y-75839715D01*
X175142500Y-75839715D02*
X175071071Y-75696858D01*
X175071071Y-75696858D02*
X175071071Y-75482572D01*
X175071071Y-75482572D02*
X175142500Y-75339715D01*
X175142500Y-75339715D02*
X175285357Y-75268286D01*
X175285357Y-75268286D02*
X176071071Y-75268286D01*
X176071071Y-74554001D02*
X175071071Y-74554001D01*
X175213928Y-74554001D02*
X175142500Y-74482572D01*
X175142500Y-74482572D02*
X175071071Y-74339715D01*
X175071071Y-74339715D02*
X175071071Y-74125429D01*
X175071071Y-74125429D02*
X175142500Y-73982572D01*
X175142500Y-73982572D02*
X175285357Y-73911144D01*
X175285357Y-73911144D02*
X176071071Y-73911144D01*
X175285357Y-73911144D02*
X175142500Y-73839715D01*
X175142500Y-73839715D02*
X175071071Y-73696858D01*
X175071071Y-73696858D02*
X175071071Y-73482572D01*
X175071071Y-73482572D02*
X175142500Y-73339715D01*
X175142500Y-73339715D02*
X175285357Y-73268286D01*
X175285357Y-73268286D02*
X176071071Y-73268286D01*
D12*
X162604404Y-34030000D02*
X177906420Y-34030000D01*
X162604404Y-125978000D02*
X177906420Y-125978000D01*
X177320000Y-34030000D02*
X177320000Y-125978000D01*
X177320000Y-34030000D02*
X177320000Y-125978000D01*
X177320000Y-34030000D02*
X177906421Y-35156504D01*
X177320000Y-34030000D02*
X176733579Y-35156504D01*
X177320000Y-125978000D02*
X176733579Y-124851496D01*
X177320000Y-125978000D02*
X177906421Y-124851496D01*
D13*
X94899999Y-86319999D03*
D14*
X94899999Y-101559999D03*
D15*
X113691000Y-48857000D03*
X113691000Y-46647000D03*
D16*
X128660000Y-99710000D03*
D17*
X124260000Y-95410000D03*
X124360000Y-103910000D03*
X132960000Y-95410000D03*
X132960000Y-104010000D03*
D16*
X114510000Y-91880000D03*
D17*
X110110000Y-87580000D03*
X110210000Y-96080000D03*
X118810000Y-87580000D03*
X118810000Y-96180000D03*
D15*
X123341000Y-48807000D03*
X123341000Y-46597000D03*
D18*
X162104404Y-34030000D03*
D16*
X138380000Y-116960000D03*
D17*
X133980000Y-112660000D03*
X134080000Y-121160000D03*
X142680000Y-112660000D03*
X142680000Y-121260000D03*
D18*
X91864000Y-34030000D03*
D19*
X147987500Y-67510800D03*
X143725000Y-67510800D03*
X147412500Y-68294000D03*
X143925000Y-68294000D03*
X147987500Y-69077200D03*
X143725000Y-69077200D03*
X142950000Y-69860400D03*
X147412500Y-69870000D03*
X143925000Y-69870000D03*
X148375000Y-70252000D03*
X141787500Y-70252000D03*
X148375000Y-71035200D03*
X141787500Y-71035200D03*
X149150000Y-71426800D03*
X148375000Y-71818400D03*
X141787500Y-71818400D03*
X143327500Y-72200000D03*
X149150000Y-72210000D03*
X146437500Y-72210000D03*
X145662500Y-72210000D03*
X144887500Y-72210000D03*
X144112500Y-72210000D03*
X148375000Y-72601600D03*
X141787500Y-72601600D03*
X146825000Y-72860000D03*
X146050000Y-72860000D03*
X145275000Y-72860000D03*
X144500000Y-72860000D03*
X143725000Y-72885000D03*
X149150000Y-72993200D03*
X148375000Y-73384800D03*
X141787500Y-73384800D03*
X146437500Y-73510000D03*
X145662500Y-73510000D03*
X144887500Y-73510000D03*
X144112500Y-73510000D03*
X143337500Y-73510000D03*
X149150000Y-73776400D03*
X146825000Y-74160000D03*
X146050000Y-74160000D03*
X145275000Y-74160000D03*
X144500000Y-74160000D03*
X143725000Y-74160000D03*
X148375000Y-74168000D03*
X141787500Y-74168000D03*
X149150000Y-74559600D03*
X146437500Y-74810000D03*
X145662500Y-74810000D03*
X144887500Y-74810000D03*
X144112500Y-74810000D03*
X143337500Y-74810000D03*
X148375000Y-74951200D03*
X141787500Y-74951200D03*
X149150000Y-75342800D03*
X146825000Y-75460000D03*
X146050000Y-75460000D03*
X145275000Y-75460000D03*
X144500000Y-75460000D03*
X143725000Y-75460000D03*
X148375000Y-75734400D03*
X141787500Y-75734400D03*
X149150000Y-76126000D03*
X148375000Y-76517600D03*
X141787500Y-76517600D03*
X149150000Y-76909200D03*
X148375000Y-77300800D03*
X141787500Y-77300800D03*
X144312500Y-77692400D03*
X142950000Y-77692400D03*
X143725000Y-78475600D03*
D16*
X142970000Y-99840000D03*
D17*
X138570000Y-95540000D03*
X138670000Y-104040000D03*
X147270000Y-95540000D03*
X147270000Y-104140000D03*
D20*
X90359999Y-110204999D03*
X90359999Y-115854999D03*
D21*
X152950000Y-40190000D03*
D22*
X147869999Y-40189999D03*
X142789999Y-40189999D03*
X137709999Y-40189999D03*
X132629999Y-40189999D03*
X127549999Y-40189999D03*
X122469999Y-40189999D03*
X117389999Y-40189999D03*
D18*
X91864000Y-125978000D03*
D19*
X143200000Y-61140000D03*
X143200000Y-61690000D03*
X143200000Y-62240000D03*
X143750000Y-61140000D03*
X143750000Y-61690000D03*
D23*
X143750000Y-61690000D03*
D19*
X143750000Y-62240000D03*
X144300000Y-61140000D03*
X144300000Y-61690000D03*
X144300000Y-62240000D03*
D18*
X162104404Y-125978000D03*
D24*
X124146480Y-69926160D03*
X104440000Y-69920000D03*
X104440000Y-65320000D03*
X124146480Y-65326160D03*
D25*
X121929999Y-63929999D03*
X121829999Y-71329999D03*
D24*
X116630000Y-65330000D03*
D25*
X114429999Y-63929999D03*
X114329999Y-71329999D03*
X106929999Y-63929999D03*
X106829999Y-71329999D03*
D26*
X96900000Y-82790000D03*
X115780000Y-73530000D03*
X157640000Y-74160000D03*
X113320000Y-80740000D03*
X162630000Y-73690000D03*
X108180000Y-108250000D03*
X99650000Y-69160000D03*
X158190000Y-57780000D03*
X109770000Y-110940000D03*
X133340000Y-62050000D03*
X109140000Y-72990000D03*
X101990000Y-83110000D03*
X127630000Y-69870000D03*
X109670000Y-106600000D03*
X113920000Y-113210000D03*
X111500000Y-73060000D03*
X108730000Y-101940000D03*
X93555500Y-63418000D03*
X128020000Y-77380000D03*
X139380000Y-49600000D03*
X119340000Y-112820000D03*
X118570000Y-77230000D03*
X151870000Y-60020000D03*
X114720000Y-101530000D03*
X154530000Y-57790000D03*
X119360000Y-102230000D03*
X104970000Y-102800000D03*
X139600000Y-54530000D03*
X95466000Y-66798000D03*
X93670000Y-74500000D03*
X99419373Y-65219873D03*
X106320000Y-77250000D03*
X160350000Y-45440000D03*
X148160000Y-47090000D03*
X133454891Y-79049963D03*
X152820000Y-65815731D03*
X139350000Y-83680000D03*
X150270000Y-79360000D03*
X144360000Y-54630000D03*
X132750000Y-50860000D03*
X132749500Y-57974604D03*
X95333500Y-61998000D03*
X95333500Y-65358000D03*
X138040000Y-62010000D03*
X137995000Y-45695000D03*
X156340000Y-53110000D03*
X139730000Y-58560000D03*
X143660000Y-47470000D03*
X94330001Y-69320001D03*
X137550000Y-67390000D03*
X133620000Y-67670000D03*
X136510000Y-52060000D03*
X145220000Y-56660500D03*
X145230000Y-49570000D03*
X149600000Y-63070000D03*
X155740000Y-55240000D03*
X152942612Y-55145439D03*
X147651198Y-59939696D03*
D27*
X160330000Y-45460000D02*
X160350000Y-45440000D01*
D28*
X149790000Y-45460000D02*
X160330000Y-45460000D01*
X148160000Y-47090000D02*
X149790000Y-45460000D01*
D29*
X146940000Y-40350000D02*
X143130000Y-36540000D01*
X92456000Y-47200854D02*
X92456000Y-84066000D01*
X143130000Y-36540000D02*
X103116854Y-36540000D01*
X147890000Y-40350000D02*
X146940000Y-40350000D01*
X92456000Y-84066000D02*
X94430000Y-86040000D01*
X100288427Y-37711573D02*
X93627573Y-44372427D01*
X93627596Y-44372450D02*
G75*
G03*
X92456000Y-47200854I2828404J-2828450D01*
G01*
X103116854Y-36539968D02*
G75*
G03*
X100288427Y-37711573I46J-4000032D01*
G01*
D27*
X133454891Y-79049963D02*
X139300000Y-73204854D01*
X139300000Y-73204854D02*
X139300000Y-66230000D01*
X139300000Y-66230000D02*
X139714269Y-65815731D01*
X139714269Y-65815731D02*
X152820000Y-65815731D01*
X150021422Y-84830000D02*
X150270000Y-84581422D01*
X139350000Y-83680000D02*
X140500000Y-84830000D01*
X150270000Y-84581422D02*
X150270000Y-79360000D01*
X140500000Y-84830000D02*
X150021422Y-84830000D01*
X144360000Y-46840000D02*
X137710000Y-40190000D01*
X144360000Y-54630000D02*
X144360000Y-46840000D01*
D28*
X132750000Y-45530000D02*
X132750000Y-50860000D01*
D27*
X95156000Y-62028000D02*
X95186000Y-61998000D01*
X132749500Y-57974604D02*
X132750000Y-57974104D01*
X95156000Y-65180500D02*
X95333500Y-65358000D01*
X132750000Y-57974104D02*
X132750000Y-50860000D01*
D28*
X127570000Y-40350000D02*
X132750000Y-45530000D01*
D27*
X95156000Y-62028000D02*
X95156000Y-65180500D01*
X95186000Y-61998000D02*
X95333500Y-61998000D01*
X146610000Y-62840000D02*
X156340000Y-53110000D01*
D28*
X138020000Y-45720000D02*
X138020000Y-61970000D01*
X132650000Y-40350000D02*
X138020000Y-45720000D01*
X138020000Y-61970000D02*
X138060000Y-62010000D01*
D27*
X138040000Y-62010000D02*
X138870000Y-62840000D01*
X138870000Y-62840000D02*
X146610000Y-62840000D01*
D28*
X138020000Y-45720000D02*
X137995000Y-45695000D01*
D27*
X143660000Y-47470000D02*
X143660000Y-54630000D01*
X143660000Y-54630000D02*
X139730000Y-58560000D01*
X135931000Y-67390000D02*
X135651000Y-67670000D01*
X133620000Y-67670000D02*
X126980000Y-61030000D01*
X102620002Y-61030000D02*
X94330001Y-69320001D01*
X135931000Y-52639000D02*
X136510000Y-52060000D01*
X137550000Y-67390000D02*
X135931000Y-67390000D01*
X135931000Y-67390000D02*
X135931000Y-52639000D01*
X126980000Y-61030000D02*
X102620002Y-61030000D01*
X135651000Y-67670000D02*
X133620000Y-67670000D01*
X145230000Y-56650500D02*
X145220000Y-56660500D01*
X145230000Y-49570000D02*
X145230000Y-56650500D01*
X151532889Y-63070000D02*
X149600000Y-63070000D01*
X155740000Y-58862889D02*
X151532889Y-63070000D01*
X155740000Y-55240000D02*
X155740000Y-58862889D01*
X148148355Y-59939696D02*
X147651198Y-59939696D01*
X152942612Y-55145439D02*
X148148355Y-59939696D01*
G04 #@! TA.AperFunction,Conductor*
G36*
X166096304Y-30021496D02*
G01*
X166141691Y-30066883D01*
X166158304Y-30128883D01*
X166158304Y-129819883D01*
X166141691Y-129881883D01*
X166096304Y-129927270D01*
X166034304Y-129943883D01*
X88262500Y-129943883D01*
X88200500Y-129927270D01*
X88155113Y-129881883D01*
X88138500Y-129819883D01*
X88138500Y-116960000D01*
X136744458Y-116960000D01*
X136764594Y-117215855D01*
X136765729Y-117220584D01*
X136765730Y-117220588D01*
X136823369Y-117460673D01*
X136823371Y-117460681D01*
X136824507Y-117465410D01*
X136922721Y-117702521D01*
X136925268Y-117706678D01*
X136925269Y-117706679D01*
X137054271Y-117917190D01*
X137054274Y-117917194D01*
X137056819Y-117921347D01*
X137223497Y-118116503D01*
X137418653Y-118283181D01*
X137637479Y-118417279D01*
X137874590Y-118515493D01*
X138124145Y-118575406D01*
X138380000Y-118595542D01*
X138635855Y-118575406D01*
X138885410Y-118515493D01*
X139122521Y-118417279D01*
X139341347Y-118283181D01*
X139536503Y-118116503D01*
X139703181Y-117921347D01*
X139837279Y-117702521D01*
X139935493Y-117465410D01*
X139995406Y-117215855D01*
X140015542Y-116960000D01*
X139995406Y-116704145D01*
X139935493Y-116454590D01*
X139837279Y-116217479D01*
X139703181Y-115998653D01*
X139536503Y-115803497D01*
X139341347Y-115636819D01*
X139337194Y-115634274D01*
X139337190Y-115634271D01*
X139126679Y-115505269D01*
X139126678Y-115505268D01*
X139122521Y-115502721D01*
X138885410Y-115404507D01*
X138880681Y-115403371D01*
X138880673Y-115403369D01*
X138640588Y-115345730D01*
X138640584Y-115345729D01*
X138635855Y-115344594D01*
X138631004Y-115344212D01*
X138631003Y-115344212D01*
X138384854Y-115324840D01*
X138380000Y-115324458D01*
X138375146Y-115324840D01*
X138128996Y-115344212D01*
X138128993Y-115344212D01*
X138124145Y-115344594D01*
X138119417Y-115345728D01*
X138119411Y-115345730D01*
X137879326Y-115403369D01*
X137879314Y-115403372D01*
X137874590Y-115404507D01*
X137870093Y-115406369D01*
X137870089Y-115406371D01*
X137641983Y-115500855D01*
X137641978Y-115500857D01*
X137637479Y-115502721D01*
X137633326Y-115505265D01*
X137633320Y-115505269D01*
X137422809Y-115634271D01*
X137422798Y-115634278D01*
X137418653Y-115636819D01*
X137414956Y-115639976D01*
X137414947Y-115639983D01*
X137227197Y-115800336D01*
X137227190Y-115800342D01*
X137223497Y-115803497D01*
X137220342Y-115807190D01*
X137220336Y-115807197D01*
X137059983Y-115994947D01*
X137059976Y-115994956D01*
X137056819Y-115998653D01*
X137054278Y-116002798D01*
X137054271Y-116002809D01*
X136925269Y-116213320D01*
X136925265Y-116213326D01*
X136922721Y-116217479D01*
X136824507Y-116454590D01*
X136823372Y-116459314D01*
X136823369Y-116459326D01*
X136765730Y-116699411D01*
X136765728Y-116699417D01*
X136764594Y-116704145D01*
X136744458Y-116960000D01*
X88138500Y-116960000D01*
X88138500Y-99710000D01*
X127024458Y-99710000D01*
X127044594Y-99965855D01*
X127045729Y-99970584D01*
X127045730Y-99970588D01*
X127103369Y-100210673D01*
X127103371Y-100210681D01*
X127104507Y-100215410D01*
X127202721Y-100452521D01*
X127205268Y-100456678D01*
X127205269Y-100456679D01*
X127334271Y-100667190D01*
X127334274Y-100667194D01*
X127336819Y-100671347D01*
X127503497Y-100866503D01*
X127698653Y-101033181D01*
X127917479Y-101167279D01*
X128154590Y-101265493D01*
X128404145Y-101325406D01*
X128660000Y-101345542D01*
X128915855Y-101325406D01*
X129165410Y-101265493D01*
X129402521Y-101167279D01*
X129621347Y-101033181D01*
X129816503Y-100866503D01*
X129983181Y-100671347D01*
X130117279Y-100452521D01*
X130215493Y-100215410D01*
X130275406Y-99965855D01*
X130285311Y-99840000D01*
X141334458Y-99840000D01*
X141354594Y-100095855D01*
X141355729Y-100100584D01*
X141355730Y-100100588D01*
X141413369Y-100340673D01*
X141413371Y-100340681D01*
X141414507Y-100345410D01*
X141512721Y-100582521D01*
X141515268Y-100586678D01*
X141515269Y-100586679D01*
X141644271Y-100797190D01*
X141644274Y-100797194D01*
X141646819Y-100801347D01*
X141813497Y-100996503D01*
X142008653Y-101163181D01*
X142012807Y-101165726D01*
X142012809Y-101165728D01*
X142084961Y-101209943D01*
X142227479Y-101297279D01*
X142464590Y-101395493D01*
X142714145Y-101455406D01*
X142970000Y-101475542D01*
X143225855Y-101455406D01*
X143475410Y-101395493D01*
X143712521Y-101297279D01*
X143931347Y-101163181D01*
X144126503Y-100996503D01*
X144293181Y-100801347D01*
X144427279Y-100582521D01*
X144525493Y-100345410D01*
X144585406Y-100095855D01*
X144605542Y-99840000D01*
X144585406Y-99584145D01*
X144525493Y-99334590D01*
X144427279Y-99097479D01*
X144293181Y-98878653D01*
X144126503Y-98683497D01*
X143931347Y-98516819D01*
X143927194Y-98514274D01*
X143927190Y-98514271D01*
X143716679Y-98385269D01*
X143716678Y-98385268D01*
X143712521Y-98382721D01*
X143475410Y-98284507D01*
X143470681Y-98283371D01*
X143470673Y-98283369D01*
X143230588Y-98225730D01*
X143230584Y-98225729D01*
X143225855Y-98224594D01*
X143221004Y-98224212D01*
X143221003Y-98224212D01*
X142974854Y-98204840D01*
X142970000Y-98204458D01*
X142965146Y-98204840D01*
X142718996Y-98224212D01*
X142718993Y-98224212D01*
X142714145Y-98224594D01*
X142709417Y-98225728D01*
X142709411Y-98225730D01*
X142469326Y-98283369D01*
X142469314Y-98283372D01*
X142464590Y-98284507D01*
X142460093Y-98286369D01*
X142460089Y-98286371D01*
X142231983Y-98380855D01*
X142231978Y-98380857D01*
X142227479Y-98382721D01*
X142223326Y-98385265D01*
X142223320Y-98385269D01*
X142012809Y-98514271D01*
X142012798Y-98514278D01*
X142008653Y-98516819D01*
X142004956Y-98519976D01*
X142004947Y-98519983D01*
X141817197Y-98680336D01*
X141817190Y-98680342D01*
X141813497Y-98683497D01*
X141810342Y-98687190D01*
X141810336Y-98687197D01*
X141649983Y-98874947D01*
X141649976Y-98874956D01*
X141646819Y-98878653D01*
X141644278Y-98882798D01*
X141644271Y-98882809D01*
X141515269Y-99093320D01*
X141515265Y-99093326D01*
X141512721Y-99097479D01*
X141510857Y-99101978D01*
X141510855Y-99101983D01*
X141416371Y-99330089D01*
X141414507Y-99334590D01*
X141413372Y-99339314D01*
X141413369Y-99339326D01*
X141355730Y-99579411D01*
X141355728Y-99579417D01*
X141354594Y-99584145D01*
X141334458Y-99840000D01*
X130285311Y-99840000D01*
X130295542Y-99710000D01*
X130275406Y-99454145D01*
X130215493Y-99204590D01*
X130117279Y-98967479D01*
X129983181Y-98748653D01*
X129816503Y-98553497D01*
X129621347Y-98386819D01*
X129617194Y-98384274D01*
X129617190Y-98384271D01*
X129406679Y-98255269D01*
X129406678Y-98255268D01*
X129402521Y-98252721D01*
X129165410Y-98154507D01*
X129160681Y-98153371D01*
X129160673Y-98153369D01*
X128920588Y-98095730D01*
X128920584Y-98095729D01*
X128915855Y-98094594D01*
X128911004Y-98094212D01*
X128911003Y-98094212D01*
X128664854Y-98074840D01*
X128660000Y-98074458D01*
X128655146Y-98074840D01*
X128408996Y-98094212D01*
X128408993Y-98094212D01*
X128404145Y-98094594D01*
X128399417Y-98095728D01*
X128399411Y-98095730D01*
X128159326Y-98153369D01*
X128159314Y-98153372D01*
X128154590Y-98154507D01*
X128150093Y-98156369D01*
X128150089Y-98156371D01*
X127921983Y-98250855D01*
X127921978Y-98250857D01*
X127917479Y-98252721D01*
X127913326Y-98255265D01*
X127913320Y-98255269D01*
X127702809Y-98384271D01*
X127702798Y-98384278D01*
X127698653Y-98386819D01*
X127694956Y-98389976D01*
X127694947Y-98389983D01*
X127507197Y-98550336D01*
X127507190Y-98550342D01*
X127503497Y-98553497D01*
X127500342Y-98557190D01*
X127500336Y-98557197D01*
X127339983Y-98744947D01*
X127339976Y-98744956D01*
X127336819Y-98748653D01*
X127334278Y-98752798D01*
X127334271Y-98752809D01*
X127205269Y-98963320D01*
X127205265Y-98963326D01*
X127202721Y-98967479D01*
X127200857Y-98971978D01*
X127200855Y-98971983D01*
X127147008Y-99101983D01*
X127104507Y-99204590D01*
X127103372Y-99209314D01*
X127103369Y-99209326D01*
X127045730Y-99449411D01*
X127045728Y-99449417D01*
X127044594Y-99454145D01*
X127024458Y-99710000D01*
X88138500Y-99710000D01*
X88138500Y-91880000D01*
X112874458Y-91880000D01*
X112894594Y-92135855D01*
X112895729Y-92140584D01*
X112895730Y-92140588D01*
X112953369Y-92380673D01*
X112953371Y-92380681D01*
X112954507Y-92385410D01*
X113052721Y-92622521D01*
X113055268Y-92626678D01*
X113055269Y-92626679D01*
X113184271Y-92837190D01*
X113184274Y-92837194D01*
X113186819Y-92841347D01*
X113353497Y-93036503D01*
X113548653Y-93203181D01*
X113767479Y-93337279D01*
X114004590Y-93435493D01*
X114254145Y-93495406D01*
X114510000Y-93515542D01*
X114765855Y-93495406D01*
X115015410Y-93435493D01*
X115252521Y-93337279D01*
X115471347Y-93203181D01*
X115666503Y-93036503D01*
X115833181Y-92841347D01*
X115967279Y-92622521D01*
X116065493Y-92385410D01*
X116125406Y-92135855D01*
X116145542Y-91880000D01*
X116125406Y-91624145D01*
X116065493Y-91374590D01*
X115967279Y-91137479D01*
X115833181Y-90918653D01*
X115666503Y-90723497D01*
X115471347Y-90556819D01*
X115467194Y-90554274D01*
X115467190Y-90554271D01*
X115256679Y-90425269D01*
X115256678Y-90425268D01*
X115252521Y-90422721D01*
X115015410Y-90324507D01*
X115010681Y-90323371D01*
X115010673Y-90323369D01*
X114770588Y-90265730D01*
X114770584Y-90265729D01*
X114765855Y-90264594D01*
X114761004Y-90264212D01*
X114761003Y-90264212D01*
X114514854Y-90244840D01*
X114510000Y-90244458D01*
X114505146Y-90244840D01*
X114258996Y-90264212D01*
X114258993Y-90264212D01*
X114254145Y-90264594D01*
X114249417Y-90265728D01*
X114249411Y-90265730D01*
X114009326Y-90323369D01*
X114009314Y-90323372D01*
X114004590Y-90324507D01*
X114000093Y-90326369D01*
X114000089Y-90326371D01*
X113771983Y-90420855D01*
X113771978Y-90420857D01*
X113767479Y-90422721D01*
X113763326Y-90425265D01*
X113763320Y-90425269D01*
X113552809Y-90554271D01*
X113552798Y-90554278D01*
X113548653Y-90556819D01*
X113544956Y-90559976D01*
X113544947Y-90559983D01*
X113357197Y-90720336D01*
X113357190Y-90720342D01*
X113353497Y-90723497D01*
X113350342Y-90727190D01*
X113350336Y-90727197D01*
X113189983Y-90914947D01*
X113189976Y-90914956D01*
X113186819Y-90918653D01*
X113184278Y-90922798D01*
X113184271Y-90922809D01*
X113055269Y-91133320D01*
X113055265Y-91133326D01*
X113052721Y-91137479D01*
X112954507Y-91374590D01*
X112953372Y-91379314D01*
X112953369Y-91379326D01*
X112895730Y-91619411D01*
X112895728Y-91619417D01*
X112894594Y-91624145D01*
X112874458Y-91880000D01*
X88138500Y-91880000D01*
X88138500Y-84108606D01*
X91751642Y-84108606D01*
X91752993Y-84115982D01*
X91752994Y-84115987D01*
X91762483Y-84167771D01*
X91763610Y-84175171D01*
X91769955Y-84227425D01*
X91769956Y-84227430D01*
X91770860Y-84234872D01*
X91773519Y-84241885D01*
X91773521Y-84241891D01*
X91774450Y-84244340D01*
X91780475Y-84265952D01*
X91780951Y-84268551D01*
X91780954Y-84268560D01*
X91782305Y-84275932D01*
X91785382Y-84282769D01*
X91785383Y-84282772D01*
X91806991Y-84330784D01*
X91809857Y-84337702D01*
X91831182Y-84393930D01*
X91835442Y-84400102D01*
X91835445Y-84400107D01*
X91836937Y-84402268D01*
X91847959Y-84421810D01*
X91849039Y-84424210D01*
X91849044Y-84424219D01*
X91852122Y-84431057D01*
X91856745Y-84436958D01*
X91856747Y-84436961D01*
X91889216Y-84478404D01*
X91893636Y-84484410D01*
X91927817Y-84533929D01*
X91972847Y-84573822D01*
X91978282Y-84578939D01*
X93363181Y-85963837D01*
X93390061Y-86004065D01*
X93399500Y-86051518D01*
X93399500Y-87639748D01*
X93411133Y-87698231D01*
X93455448Y-87764552D01*
X93521769Y-87808867D01*
X93580252Y-87820500D01*
X96213652Y-87820500D01*
X96219748Y-87820500D01*
X96278231Y-87808867D01*
X96344552Y-87764552D01*
X96388867Y-87698231D01*
X96400500Y-87639748D01*
X96400500Y-85000252D01*
X96388867Y-84941769D01*
X96344552Y-84875448D01*
X96278231Y-84831133D01*
X96266253Y-84828750D01*
X96266252Y-84828750D01*
X96225728Y-84820689D01*
X96225723Y-84820688D01*
X96219748Y-84819500D01*
X96213652Y-84819500D01*
X94251518Y-84819500D01*
X94204065Y-84810061D01*
X94163837Y-84783181D01*
X93192819Y-83812162D01*
X93165939Y-83771934D01*
X93156500Y-83724481D01*
X93156500Y-83680000D01*
X138744318Y-83680000D01*
X138745379Y-83688058D01*
X138745379Y-83688059D01*
X138763894Y-83828702D01*
X138763895Y-83828708D01*
X138764956Y-83836762D01*
X138825464Y-83982841D01*
X138921718Y-84108282D01*
X139047159Y-84204536D01*
X139193238Y-84265044D01*
X139350000Y-84285682D01*
X139449062Y-84272640D01*
X139505103Y-84278160D01*
X139552926Y-84307898D01*
X140250844Y-85005816D01*
X140253202Y-85008526D01*
X140256042Y-85014228D01*
X140264530Y-85021966D01*
X140264531Y-85021967D01*
X140290306Y-85045464D01*
X140294447Y-85049419D01*
X140307203Y-85062175D01*
X140311930Y-85065413D01*
X140312623Y-85065988D01*
X140316949Y-85069752D01*
X140330574Y-85082174D01*
X140330575Y-85082175D01*
X140339067Y-85089916D01*
X140349781Y-85094066D01*
X140356251Y-85098072D01*
X140360086Y-85100093D01*
X140367043Y-85103164D01*
X140376520Y-85109657D01*
X140387702Y-85112287D01*
X140402514Y-85115771D01*
X140418916Y-85120849D01*
X140443827Y-85130500D01*
X140455320Y-85130500D01*
X140462789Y-85131896D01*
X140467095Y-85132396D01*
X140474691Y-85132747D01*
X140485881Y-85135379D01*
X140512332Y-85131689D01*
X140529465Y-85130500D01*
X149969566Y-85130500D01*
X149973146Y-85130748D01*
X149979187Y-85132773D01*
X150025501Y-85130632D01*
X150031228Y-85130500D01*
X150043533Y-85130500D01*
X150049266Y-85130500D01*
X150054900Y-85129445D01*
X150055773Y-85129365D01*
X150061494Y-85128967D01*
X150091414Y-85127585D01*
X150101928Y-85122941D01*
X150109330Y-85121201D01*
X150113460Y-85119922D01*
X150120557Y-85117172D01*
X150131855Y-85115061D01*
X150154566Y-85100998D01*
X150169741Y-85092999D01*
X150194187Y-85082206D01*
X150202314Y-85074077D01*
X150208597Y-85069774D01*
X150211977Y-85067096D01*
X150217598Y-85061970D01*
X150227374Y-85055919D01*
X150243475Y-85034595D01*
X150254736Y-85021655D01*
X150445823Y-84830568D01*
X150448522Y-84828220D01*
X150454228Y-84825380D01*
X150485487Y-84791089D01*
X150489402Y-84786989D01*
X150502174Y-84774219D01*
X150505422Y-84769476D01*
X150505965Y-84768823D01*
X150509733Y-84764494D01*
X150522174Y-84750847D01*
X150522173Y-84750847D01*
X150529916Y-84742355D01*
X150534067Y-84731636D01*
X150538070Y-84725173D01*
X150540077Y-84721366D01*
X150543158Y-84714387D01*
X150549656Y-84704903D01*
X150555772Y-84678894D01*
X150560843Y-84662519D01*
X150570500Y-84637595D01*
X150570500Y-84626099D01*
X150571896Y-84618632D01*
X150572396Y-84614327D01*
X150572747Y-84606729D01*
X150575379Y-84595541D01*
X150571689Y-84569089D01*
X150570500Y-84551957D01*
X150570500Y-79947482D01*
X150583288Y-79892638D01*
X150619014Y-79849106D01*
X150698282Y-79788282D01*
X150794536Y-79662841D01*
X150855044Y-79516762D01*
X150875682Y-79360000D01*
X150855044Y-79203238D01*
X150794536Y-79057159D01*
X150698282Y-78931718D01*
X150572841Y-78835464D01*
X150565333Y-78832354D01*
X150434271Y-78778066D01*
X150434268Y-78778065D01*
X150426762Y-78774956D01*
X150418708Y-78773895D01*
X150418702Y-78773894D01*
X150278059Y-78755379D01*
X150270000Y-78754318D01*
X150261941Y-78755379D01*
X150121297Y-78773894D01*
X150121289Y-78773896D01*
X150113238Y-78774956D01*
X150105733Y-78778064D01*
X150105728Y-78778066D01*
X149974666Y-78832354D01*
X149974662Y-78832355D01*
X149967159Y-78835464D01*
X149960714Y-78840408D01*
X149960711Y-78840411D01*
X149848164Y-78926771D01*
X149848160Y-78926774D01*
X149841718Y-78931718D01*
X149836774Y-78938160D01*
X149836771Y-78938164D01*
X149750411Y-79050711D01*
X149750408Y-79050714D01*
X149745464Y-79057159D01*
X149742355Y-79064662D01*
X149742354Y-79064666D01*
X149688066Y-79195728D01*
X149688064Y-79195733D01*
X149684956Y-79203238D01*
X149683896Y-79211289D01*
X149683894Y-79211297D01*
X149666254Y-79345296D01*
X149664318Y-79360000D01*
X149665379Y-79368059D01*
X149683894Y-79508702D01*
X149683895Y-79508708D01*
X149684956Y-79516762D01*
X149688065Y-79524268D01*
X149688066Y-79524271D01*
X149739543Y-79648547D01*
X149748385Y-79708154D01*
X149728084Y-79764891D01*
X149683435Y-79805358D01*
X149624982Y-79820000D01*
X141440000Y-79820000D01*
X140920000Y-79820000D01*
X140920000Y-83840000D01*
X141495881Y-84285682D01*
X141523992Y-84307437D01*
X141561546Y-84355439D01*
X141571693Y-84415535D01*
X141551983Y-84473207D01*
X141507178Y-84514522D01*
X141448100Y-84529500D01*
X140675833Y-84529500D01*
X140628380Y-84520061D01*
X140588152Y-84493181D01*
X139977898Y-83882927D01*
X139948160Y-83835104D01*
X139942640Y-83779062D01*
X139955682Y-83680000D01*
X139935044Y-83523238D01*
X139874536Y-83377159D01*
X139778282Y-83251718D01*
X139652841Y-83155464D01*
X139645333Y-83152354D01*
X139514271Y-83098066D01*
X139514268Y-83098065D01*
X139506762Y-83094956D01*
X139498708Y-83093895D01*
X139498702Y-83093894D01*
X139358059Y-83075379D01*
X139350000Y-83074318D01*
X139341941Y-83075379D01*
X139201297Y-83093894D01*
X139201289Y-83093896D01*
X139193238Y-83094956D01*
X139185733Y-83098064D01*
X139185728Y-83098066D01*
X139054666Y-83152354D01*
X139054662Y-83152355D01*
X139047159Y-83155464D01*
X139040714Y-83160408D01*
X139040711Y-83160411D01*
X138928164Y-83246771D01*
X138928160Y-83246774D01*
X138921718Y-83251718D01*
X138916774Y-83258160D01*
X138916771Y-83258164D01*
X138830411Y-83370711D01*
X138830408Y-83370714D01*
X138825464Y-83377159D01*
X138822355Y-83384662D01*
X138822354Y-83384666D01*
X138768066Y-83515728D01*
X138768064Y-83515733D01*
X138764956Y-83523238D01*
X138763896Y-83531289D01*
X138763894Y-83531297D01*
X138745702Y-83669482D01*
X138744318Y-83680000D01*
X93156500Y-83680000D01*
X93156500Y-79049963D01*
X132849209Y-79049963D01*
X132850270Y-79058022D01*
X132868785Y-79198665D01*
X132868786Y-79198671D01*
X132869847Y-79206725D01*
X132930355Y-79352804D01*
X133026609Y-79478245D01*
X133152050Y-79574499D01*
X133298129Y-79635007D01*
X133454891Y-79655645D01*
X133611653Y-79635007D01*
X133757732Y-79574499D01*
X133883173Y-79478245D01*
X133979427Y-79352804D01*
X134039935Y-79206725D01*
X134060573Y-79049963D01*
X134047531Y-78950899D01*
X134053051Y-78894857D01*
X134082787Y-78847036D01*
X139475823Y-73454000D01*
X139478522Y-73451652D01*
X139484228Y-73448812D01*
X139515487Y-73414521D01*
X139519402Y-73410421D01*
X139532174Y-73397651D01*
X139535422Y-73392908D01*
X139535965Y-73392255D01*
X139539733Y-73387926D01*
X139552174Y-73374279D01*
X139552173Y-73374279D01*
X139559916Y-73365787D01*
X139564067Y-73355068D01*
X139568070Y-73348605D01*
X139570077Y-73344798D01*
X139573158Y-73337819D01*
X139579656Y-73328335D01*
X139585772Y-73302326D01*
X139590843Y-73285951D01*
X139600500Y-73261027D01*
X139600500Y-73249531D01*
X139601896Y-73242064D01*
X139602396Y-73237759D01*
X139602747Y-73230161D01*
X139605379Y-73218973D01*
X139601689Y-73192521D01*
X139600500Y-73175389D01*
X139600500Y-66405833D01*
X139609939Y-66358380D01*
X139636819Y-66318152D01*
X139802421Y-66152550D01*
X139842649Y-66125670D01*
X139890102Y-66116231D01*
X152232518Y-66116231D01*
X152287362Y-66129019D01*
X152330893Y-66164744D01*
X152391718Y-66244013D01*
X152517159Y-66340267D01*
X152663238Y-66400775D01*
X152671296Y-66401835D01*
X152671297Y-66401836D01*
X152741619Y-66411094D01*
X152820000Y-66421413D01*
X152976762Y-66400775D01*
X153122841Y-66340267D01*
X153248282Y-66244013D01*
X153344536Y-66118572D01*
X153405044Y-65972493D01*
X153425682Y-65815731D01*
X153405044Y-65658969D01*
X153344536Y-65512890D01*
X153248282Y-65387449D01*
X153199400Y-65349941D01*
X153129288Y-65296142D01*
X153122841Y-65291195D01*
X153115333Y-65288085D01*
X152984271Y-65233797D01*
X152984268Y-65233796D01*
X152976762Y-65230687D01*
X152968708Y-65229626D01*
X152968702Y-65229625D01*
X152828059Y-65211110D01*
X152820000Y-65210049D01*
X152811941Y-65211110D01*
X152671297Y-65229625D01*
X152671289Y-65229627D01*
X152663238Y-65230687D01*
X152655733Y-65233795D01*
X152655728Y-65233797D01*
X152524666Y-65288085D01*
X152524662Y-65288086D01*
X152517159Y-65291195D01*
X152510714Y-65296139D01*
X152510711Y-65296142D01*
X152398164Y-65382502D01*
X152398160Y-65382505D01*
X152391718Y-65387449D01*
X152386774Y-65393891D01*
X152386771Y-65393895D01*
X152330894Y-65466717D01*
X152287362Y-65502443D01*
X152232518Y-65515231D01*
X139766126Y-65515231D01*
X139762545Y-65514982D01*
X139756505Y-65512958D01*
X139745029Y-65513488D01*
X139745026Y-65513488D01*
X139710190Y-65515099D01*
X139704464Y-65515231D01*
X139686425Y-65515231D01*
X139680799Y-65516282D01*
X139679908Y-65516365D01*
X139674201Y-65516762D01*
X139655751Y-65517615D01*
X139655748Y-65517615D01*
X139644278Y-65518146D01*
X139633772Y-65522784D01*
X139626409Y-65524516D01*
X139622194Y-65525821D01*
X139615126Y-65528559D01*
X139603836Y-65530670D01*
X139594070Y-65536715D01*
X139594063Y-65536719D01*
X139581123Y-65544731D01*
X139565944Y-65552732D01*
X139552013Y-65558883D01*
X139552006Y-65558887D01*
X139541504Y-65563525D01*
X139533384Y-65571643D01*
X139527126Y-65575931D01*
X139523691Y-65578652D01*
X139518082Y-65583764D01*
X139508317Y-65589812D01*
X139501393Y-65598979D01*
X139501391Y-65598982D01*
X139492218Y-65611129D01*
X139480948Y-65624079D01*
X139124187Y-65980840D01*
X139121471Y-65983203D01*
X139115772Y-65986042D01*
X139108039Y-65994523D01*
X139108034Y-65994528D01*
X139084521Y-66020320D01*
X139080575Y-66024452D01*
X139071877Y-66033151D01*
X139071873Y-66033155D01*
X139067826Y-66037203D01*
X139064592Y-66041921D01*
X139064006Y-66042628D01*
X139060259Y-66046934D01*
X139048785Y-66059522D01*
X139040084Y-66069067D01*
X139035935Y-66079773D01*
X139031956Y-66086201D01*
X139029895Y-66090112D01*
X139026834Y-66097043D01*
X139020344Y-66106519D01*
X139017714Y-66117696D01*
X139017711Y-66117705D01*
X139014228Y-66132516D01*
X139009150Y-66148915D01*
X139003651Y-66163109D01*
X139003650Y-66163114D01*
X138999500Y-66173827D01*
X138999500Y-66185317D01*
X138998103Y-66192791D01*
X138997603Y-66197094D01*
X138997251Y-66204697D01*
X138994621Y-66215881D01*
X138996208Y-66227258D01*
X138996208Y-66227262D01*
X138998311Y-66242333D01*
X138999500Y-66259465D01*
X138999500Y-73029020D01*
X138990061Y-73076473D01*
X138963181Y-73116701D01*
X133657817Y-78422064D01*
X133609995Y-78451802D01*
X133553951Y-78457322D01*
X133462950Y-78445342D01*
X133454891Y-78444281D01*
X133446832Y-78445342D01*
X133306188Y-78463857D01*
X133306180Y-78463859D01*
X133298129Y-78464919D01*
X133290624Y-78468027D01*
X133290619Y-78468029D01*
X133159557Y-78522317D01*
X133159553Y-78522318D01*
X133152050Y-78525427D01*
X133145605Y-78530371D01*
X133145602Y-78530374D01*
X133033055Y-78616734D01*
X133033051Y-78616737D01*
X133026609Y-78621681D01*
X133021665Y-78628123D01*
X133021662Y-78628127D01*
X132935302Y-78740674D01*
X132935299Y-78740677D01*
X132930355Y-78747122D01*
X132927246Y-78754625D01*
X132927245Y-78754629D01*
X132872957Y-78885691D01*
X132872955Y-78885696D01*
X132869847Y-78893201D01*
X132868787Y-78901252D01*
X132868785Y-78901260D01*
X132850593Y-79039445D01*
X132849209Y-79049963D01*
X93156500Y-79049963D01*
X93156500Y-69320001D01*
X93724319Y-69320001D01*
X93725380Y-69328060D01*
X93743895Y-69468703D01*
X93743896Y-69468709D01*
X93744957Y-69476763D01*
X93805465Y-69622842D01*
X93901719Y-69748283D01*
X94027160Y-69844537D01*
X94173239Y-69905045D01*
X94330001Y-69925683D01*
X94373168Y-69920000D01*
X102749774Y-69920000D01*
X102750121Y-69924630D01*
X102761116Y-70071361D01*
X102768652Y-70171915D01*
X102824866Y-70418203D01*
X102826561Y-70422521D01*
X102826562Y-70422525D01*
X102915461Y-70649037D01*
X102915464Y-70649043D01*
X102917159Y-70653362D01*
X102919477Y-70657377D01*
X102919480Y-70657383D01*
X103041149Y-70868119D01*
X103041153Y-70868124D01*
X103043470Y-70872138D01*
X103200977Y-71069646D01*
X103386161Y-71241472D01*
X103389982Y-71244077D01*
X103389987Y-71244081D01*
X103565963Y-71364059D01*
X103594887Y-71383779D01*
X103822491Y-71493387D01*
X104063889Y-71567849D01*
X104313689Y-71605500D01*
X104561674Y-71605500D01*
X104566311Y-71605500D01*
X104816111Y-71567849D01*
X105057509Y-71493387D01*
X105285113Y-71383779D01*
X105493839Y-71241472D01*
X105679023Y-71069646D01*
X105836530Y-70872138D01*
X105962841Y-70653362D01*
X106055134Y-70418203D01*
X106111348Y-70171915D01*
X106130226Y-69920000D01*
X106111348Y-69668085D01*
X106055134Y-69421797D01*
X105962841Y-69186638D01*
X105960519Y-69182616D01*
X105838850Y-68971880D01*
X105838848Y-68971878D01*
X105836530Y-68967862D01*
X105679023Y-68770354D01*
X105493839Y-68598528D01*
X105490018Y-68595923D01*
X105490012Y-68595918D01*
X105288943Y-68458832D01*
X105288940Y-68458830D01*
X105285113Y-68456221D01*
X105180133Y-68405665D01*
X105061688Y-68348625D01*
X105061682Y-68348622D01*
X105057509Y-68346613D01*
X105053080Y-68345246D01*
X105053078Y-68345246D01*
X104820541Y-68273517D01*
X104820534Y-68273515D01*
X104816111Y-68272151D01*
X104811535Y-68271461D01*
X104811525Y-68271459D01*
X104570896Y-68235191D01*
X104570895Y-68235190D01*
X104566311Y-68234500D01*
X104313689Y-68234500D01*
X104309105Y-68235190D01*
X104309103Y-68235191D01*
X104068474Y-68271459D01*
X104068462Y-68271461D01*
X104063889Y-68272151D01*
X104059467Y-68273514D01*
X104059458Y-68273517D01*
X103826921Y-68345246D01*
X103826914Y-68345248D01*
X103822491Y-68346613D01*
X103818321Y-68348620D01*
X103818311Y-68348625D01*
X103612396Y-68447789D01*
X103594887Y-68456221D01*
X103591064Y-68458826D01*
X103591056Y-68458832D01*
X103389987Y-68595918D01*
X103389974Y-68595928D01*
X103386161Y-68598528D01*
X103382769Y-68601674D01*
X103382763Y-68601680D01*
X103238081Y-68735926D01*
X103200977Y-68770354D01*
X103198088Y-68773976D01*
X103198084Y-68773981D01*
X103099051Y-68898165D01*
X103043470Y-68967862D01*
X103041156Y-68971868D01*
X103041149Y-68971880D01*
X102919480Y-69182616D01*
X102919474Y-69182627D01*
X102917159Y-69186638D01*
X102915466Y-69190951D01*
X102915461Y-69190962D01*
X102826562Y-69417474D01*
X102826559Y-69417481D01*
X102824866Y-69421797D01*
X102823834Y-69426315D01*
X102823833Y-69426321D01*
X102769683Y-69663565D01*
X102769681Y-69663573D01*
X102768652Y-69668085D01*
X102749774Y-69920000D01*
X94373168Y-69920000D01*
X94486763Y-69905045D01*
X94632842Y-69844537D01*
X94758283Y-69748283D01*
X94854537Y-69622842D01*
X94915045Y-69476763D01*
X94935683Y-69320001D01*
X94922641Y-69220937D01*
X94928161Y-69164895D01*
X94957897Y-69117074D01*
X98748811Y-65326160D01*
X122456254Y-65326160D01*
X122456601Y-65330790D01*
X122474041Y-65563525D01*
X122475132Y-65578075D01*
X122476162Y-65582588D01*
X122476163Y-65582594D01*
X122522654Y-65786282D01*
X122531346Y-65824363D01*
X122533041Y-65828681D01*
X122533042Y-65828685D01*
X122621941Y-66055197D01*
X122621944Y-66055203D01*
X122623639Y-66059522D01*
X122625957Y-66063537D01*
X122625960Y-66063543D01*
X122747629Y-66274279D01*
X122747633Y-66274284D01*
X122749950Y-66278298D01*
X122907457Y-66475806D01*
X123092641Y-66647632D01*
X123096462Y-66650237D01*
X123096467Y-66650241D01*
X123272443Y-66770219D01*
X123301367Y-66789939D01*
X123528971Y-66899547D01*
X123770369Y-66974009D01*
X124020169Y-67011660D01*
X124268154Y-67011660D01*
X124272791Y-67011660D01*
X124522591Y-66974009D01*
X124763989Y-66899547D01*
X124991593Y-66789939D01*
X125200319Y-66647632D01*
X125385503Y-66475806D01*
X125543010Y-66278298D01*
X125669321Y-66059522D01*
X125761614Y-65824363D01*
X125817828Y-65578075D01*
X125836706Y-65326160D01*
X125817828Y-65074245D01*
X125761614Y-64827957D01*
X125669321Y-64592798D01*
X125543010Y-64374022D01*
X125385503Y-64176514D01*
X125200319Y-64004688D01*
X125196498Y-64002083D01*
X125196492Y-64002078D01*
X124995423Y-63864992D01*
X124995420Y-63864990D01*
X124991593Y-63862381D01*
X124837139Y-63788000D01*
X124768168Y-63754785D01*
X124768162Y-63754782D01*
X124763989Y-63752773D01*
X124759560Y-63751406D01*
X124759558Y-63751406D01*
X124527021Y-63679677D01*
X124527014Y-63679675D01*
X124522591Y-63678311D01*
X124518015Y-63677621D01*
X124518005Y-63677619D01*
X124277376Y-63641351D01*
X124277375Y-63641350D01*
X124272791Y-63640660D01*
X124020169Y-63640660D01*
X124015585Y-63641350D01*
X124015583Y-63641351D01*
X123774954Y-63677619D01*
X123774942Y-63677621D01*
X123770369Y-63678311D01*
X123765947Y-63679674D01*
X123765938Y-63679677D01*
X123533401Y-63751406D01*
X123533394Y-63751408D01*
X123528971Y-63752773D01*
X123524801Y-63754780D01*
X123524791Y-63754785D01*
X123306311Y-63860000D01*
X123301367Y-63862381D01*
X123297544Y-63864986D01*
X123297536Y-63864992D01*
X123096467Y-64002078D01*
X123096454Y-64002088D01*
X123092641Y-64004688D01*
X123089249Y-64007834D01*
X123089243Y-64007840D01*
X122910858Y-64173358D01*
X122907457Y-64176514D01*
X122904568Y-64180136D01*
X122904564Y-64180141D01*
X122752842Y-64370395D01*
X122749950Y-64374022D01*
X122747636Y-64378028D01*
X122747629Y-64378040D01*
X122625960Y-64588776D01*
X122625954Y-64588787D01*
X122623639Y-64592798D01*
X122621946Y-64597111D01*
X122621941Y-64597122D01*
X122533042Y-64823634D01*
X122533039Y-64823641D01*
X122531346Y-64827957D01*
X122530314Y-64832475D01*
X122530313Y-64832481D01*
X122476163Y-65069725D01*
X122476161Y-65069733D01*
X122475132Y-65074245D01*
X122474785Y-65078864D01*
X122474785Y-65078870D01*
X122463175Y-65233797D01*
X122456254Y-65326160D01*
X98748811Y-65326160D01*
X102708153Y-61366819D01*
X102748382Y-61339939D01*
X102795835Y-61330500D01*
X126804167Y-61330500D01*
X126851620Y-61339939D01*
X126891848Y-61366819D01*
X132992101Y-67467072D01*
X133021839Y-67514894D01*
X133027359Y-67570937D01*
X133015379Y-67661939D01*
X133014318Y-67670000D01*
X133015379Y-67678059D01*
X133033894Y-67818702D01*
X133033895Y-67818708D01*
X133034956Y-67826762D01*
X133095464Y-67972841D01*
X133191718Y-68098282D01*
X133317159Y-68194536D01*
X133463238Y-68255044D01*
X133620000Y-68275682D01*
X133776762Y-68255044D01*
X133922841Y-68194536D01*
X134048282Y-68098282D01*
X134109106Y-68019013D01*
X134152638Y-67983288D01*
X134207482Y-67970500D01*
X134470138Y-67970500D01*
X134526433Y-67984015D01*
X134570456Y-68021615D01*
X134592611Y-68075102D01*
X134588069Y-68132818D01*
X134557819Y-68182181D01*
X133226319Y-69513681D01*
X133186091Y-69540561D01*
X133138638Y-69550000D01*
X132070000Y-69550000D01*
X132061364Y-69558635D01*
X132061361Y-69558638D01*
X131548638Y-70071361D01*
X131548635Y-70071364D01*
X131540000Y-70080000D01*
X131540000Y-70940000D01*
X131570000Y-70970000D01*
X133547789Y-70970000D01*
X133560000Y-70970000D01*
X136070000Y-68460000D01*
X136070000Y-67814500D01*
X136086613Y-67752500D01*
X136132000Y-67707113D01*
X136194000Y-67690500D01*
X136962518Y-67690500D01*
X137017362Y-67703288D01*
X137060893Y-67739013D01*
X137121718Y-67818282D01*
X137247159Y-67914536D01*
X137393238Y-67975044D01*
X137401296Y-67976104D01*
X137401297Y-67976105D01*
X137455858Y-67983288D01*
X137550000Y-67995682D01*
X137706762Y-67975044D01*
X137852841Y-67914536D01*
X137978282Y-67818282D01*
X138074536Y-67692841D01*
X138135044Y-67546762D01*
X138155682Y-67390000D01*
X138135044Y-67233238D01*
X138074536Y-67087159D01*
X137978282Y-66961718D01*
X137852841Y-66865464D01*
X137845333Y-66862354D01*
X137714271Y-66808066D01*
X137714268Y-66808065D01*
X137706762Y-66804956D01*
X137698708Y-66803895D01*
X137698702Y-66803894D01*
X137558059Y-66785379D01*
X137550000Y-66784318D01*
X137541941Y-66785379D01*
X137401297Y-66803894D01*
X137401289Y-66803896D01*
X137393238Y-66804956D01*
X137385733Y-66808064D01*
X137385728Y-66808066D01*
X137254666Y-66862354D01*
X137254662Y-66862355D01*
X137247159Y-66865464D01*
X137240714Y-66870408D01*
X137240711Y-66870411D01*
X137128164Y-66956771D01*
X137128160Y-66956774D01*
X137121718Y-66961718D01*
X137116774Y-66968160D01*
X137116771Y-66968164D01*
X137060894Y-67040986D01*
X137017362Y-67076712D01*
X136962518Y-67089500D01*
X136355500Y-67089500D01*
X136293500Y-67072887D01*
X136248113Y-67027500D01*
X136231500Y-66965500D01*
X136231500Y-52814833D01*
X136240939Y-52767381D01*
X136267818Y-52727153D01*
X136267817Y-52727153D01*
X136307073Y-52687897D01*
X136354894Y-52658160D01*
X136410937Y-52652640D01*
X136510000Y-52665682D01*
X136666762Y-52645044D01*
X136812841Y-52584536D01*
X136938282Y-52488282D01*
X137034536Y-52362841D01*
X137095044Y-52216762D01*
X137115682Y-52060000D01*
X137095044Y-51903238D01*
X137034536Y-51757159D01*
X136938282Y-51631718D01*
X136812841Y-51535464D01*
X136805333Y-51532354D01*
X136674271Y-51478066D01*
X136674268Y-51478065D01*
X136666762Y-51474956D01*
X136658708Y-51473895D01*
X136658702Y-51473894D01*
X136518059Y-51455379D01*
X136510000Y-51454318D01*
X136501941Y-51455379D01*
X136361297Y-51473894D01*
X136361289Y-51473896D01*
X136353238Y-51474956D01*
X136345733Y-51478064D01*
X136345728Y-51478066D01*
X136214666Y-51532354D01*
X136214662Y-51532355D01*
X136207159Y-51535464D01*
X136200714Y-51540408D01*
X136200711Y-51540411D01*
X136088164Y-51626771D01*
X136088160Y-51626774D01*
X136081718Y-51631718D01*
X136076774Y-51638160D01*
X136076771Y-51638164D01*
X135990411Y-51750711D01*
X135990408Y-51750714D01*
X135985464Y-51757159D01*
X135982355Y-51764662D01*
X135982354Y-51764666D01*
X135928066Y-51895728D01*
X135928064Y-51895733D01*
X135924956Y-51903238D01*
X135923896Y-51911289D01*
X135923894Y-51911297D01*
X135905702Y-52049482D01*
X135904318Y-52060000D01*
X135905379Y-52068059D01*
X135917359Y-52159060D01*
X135911839Y-52215104D01*
X135882101Y-52262926D01*
X135755187Y-52389840D01*
X135752471Y-52392203D01*
X135746772Y-52395042D01*
X135739039Y-52403523D01*
X135739034Y-52403528D01*
X135715521Y-52429320D01*
X135711575Y-52433452D01*
X135702877Y-52442151D01*
X135702873Y-52442155D01*
X135698826Y-52446203D01*
X135695592Y-52450921D01*
X135695006Y-52451628D01*
X135691259Y-52455934D01*
X135678822Y-52469578D01*
X135671084Y-52478067D01*
X135666935Y-52488773D01*
X135662956Y-52495201D01*
X135660895Y-52499112D01*
X135657834Y-52506043D01*
X135651344Y-52515519D01*
X135648714Y-52526696D01*
X135648711Y-52526705D01*
X135645228Y-52541516D01*
X135640150Y-52557915D01*
X135634651Y-52572109D01*
X135634650Y-52572114D01*
X135630500Y-52582827D01*
X135630500Y-52594317D01*
X135629103Y-52601791D01*
X135628603Y-52606094D01*
X135628251Y-52613697D01*
X135625621Y-52624881D01*
X135627208Y-52636258D01*
X135627208Y-52636262D01*
X135629311Y-52651333D01*
X135630500Y-52668465D01*
X135630500Y-63726000D01*
X135613887Y-63788000D01*
X135568500Y-63833387D01*
X135506500Y-63850000D01*
X134620000Y-63850000D01*
X134610000Y-63860000D01*
X134610000Y-63872211D01*
X134610000Y-67245500D01*
X134593387Y-67307500D01*
X134548000Y-67352887D01*
X134486000Y-67369500D01*
X134207482Y-67369500D01*
X134152638Y-67356712D01*
X134109106Y-67320986D01*
X134053228Y-67248164D01*
X134048282Y-67241718D01*
X133922841Y-67145464D01*
X133915333Y-67142354D01*
X133784271Y-67088066D01*
X133784268Y-67088065D01*
X133776762Y-67084956D01*
X133768708Y-67083895D01*
X133768702Y-67083894D01*
X133628059Y-67065379D01*
X133620000Y-67064318D01*
X133611941Y-67065379D01*
X133611939Y-67065379D01*
X133520937Y-67077359D01*
X133464894Y-67071839D01*
X133417072Y-67042101D01*
X127229155Y-60854184D01*
X127226797Y-60851474D01*
X127223958Y-60845772D01*
X127215466Y-60838030D01*
X127215465Y-60838029D01*
X127189681Y-60814524D01*
X127185539Y-60810568D01*
X127176852Y-60801881D01*
X127172797Y-60797826D01*
X127168066Y-60794584D01*
X127167386Y-60794020D01*
X127163067Y-60790262D01*
X127149423Y-60777823D01*
X127149421Y-60777821D01*
X127140933Y-60770084D01*
X127130220Y-60765933D01*
X127123780Y-60761946D01*
X127119902Y-60759902D01*
X127112958Y-60756835D01*
X127103481Y-60750344D01*
X127092302Y-60747714D01*
X127092294Y-60747711D01*
X127077484Y-60744228D01*
X127061086Y-60739150D01*
X127046891Y-60733651D01*
X127046885Y-60733649D01*
X127036173Y-60729500D01*
X127024682Y-60729500D01*
X127017208Y-60728103D01*
X127012905Y-60727603D01*
X127005302Y-60727251D01*
X126994119Y-60724621D01*
X126982741Y-60726208D01*
X126982737Y-60726208D01*
X126967667Y-60728311D01*
X126950535Y-60729500D01*
X102671859Y-60729500D01*
X102668278Y-60729251D01*
X102662238Y-60727227D01*
X102650762Y-60727757D01*
X102650759Y-60727757D01*
X102615923Y-60729368D01*
X102610197Y-60729500D01*
X102592158Y-60729500D01*
X102586532Y-60730551D01*
X102585641Y-60730634D01*
X102579934Y-60731031D01*
X102561484Y-60731884D01*
X102561481Y-60731884D01*
X102550011Y-60732415D01*
X102539505Y-60737053D01*
X102532142Y-60738785D01*
X102527927Y-60740090D01*
X102520859Y-60742828D01*
X102509569Y-60744939D01*
X102499803Y-60750984D01*
X102499796Y-60750988D01*
X102486856Y-60759000D01*
X102471677Y-60767001D01*
X102457746Y-60773152D01*
X102457739Y-60773156D01*
X102447237Y-60777794D01*
X102439117Y-60785912D01*
X102432859Y-60790200D01*
X102429424Y-60792921D01*
X102423815Y-60798033D01*
X102414050Y-60804081D01*
X102407126Y-60813248D01*
X102407124Y-60813251D01*
X102397951Y-60825398D01*
X102386681Y-60838348D01*
X94532927Y-68692102D01*
X94485105Y-68721840D01*
X94429061Y-68727360D01*
X94338060Y-68715380D01*
X94330001Y-68714319D01*
X94321942Y-68715380D01*
X94181298Y-68733895D01*
X94181290Y-68733897D01*
X94173239Y-68734957D01*
X94165734Y-68738065D01*
X94165729Y-68738067D01*
X94034667Y-68792355D01*
X94034663Y-68792356D01*
X94027160Y-68795465D01*
X94020715Y-68800409D01*
X94020712Y-68800412D01*
X93908165Y-68886772D01*
X93908161Y-68886775D01*
X93901719Y-68891719D01*
X93896775Y-68898161D01*
X93896772Y-68898165D01*
X93810412Y-69010712D01*
X93810409Y-69010715D01*
X93805465Y-69017160D01*
X93802356Y-69024663D01*
X93802355Y-69024667D01*
X93748067Y-69155729D01*
X93748065Y-69155734D01*
X93744957Y-69163239D01*
X93743897Y-69171290D01*
X93743895Y-69171298D01*
X93725703Y-69309483D01*
X93724319Y-69320001D01*
X93156500Y-69320001D01*
X93156500Y-65358000D01*
X94727818Y-65358000D01*
X94728879Y-65366059D01*
X94747394Y-65506702D01*
X94747395Y-65506708D01*
X94748456Y-65514762D01*
X94751565Y-65522268D01*
X94751566Y-65522271D01*
X94791216Y-65617993D01*
X94808964Y-65660841D01*
X94905218Y-65786282D01*
X95030659Y-65882536D01*
X95176738Y-65943044D01*
X95333500Y-65963682D01*
X95490262Y-65943044D01*
X95636341Y-65882536D01*
X95761782Y-65786282D01*
X95858036Y-65660841D01*
X95918544Y-65514762D01*
X95939182Y-65358000D01*
X95918544Y-65201238D01*
X95858036Y-65055159D01*
X95761782Y-64929718D01*
X95636341Y-64833464D01*
X95623046Y-64827957D01*
X95533047Y-64790678D01*
X95492819Y-64763798D01*
X95465939Y-64723570D01*
X95456500Y-64676117D01*
X95456500Y-62679883D01*
X95465939Y-62632430D01*
X95492819Y-62592202D01*
X95533047Y-62565322D01*
X95546904Y-62559581D01*
X95636341Y-62522536D01*
X95761782Y-62426282D01*
X95858036Y-62300841D01*
X95918544Y-62154762D01*
X95939182Y-61998000D01*
X95918544Y-61841238D01*
X95858036Y-61695159D01*
X95761782Y-61569718D01*
X95636341Y-61473464D01*
X95628833Y-61470354D01*
X95497771Y-61416066D01*
X95497768Y-61416065D01*
X95490262Y-61412956D01*
X95482208Y-61411895D01*
X95482202Y-61411894D01*
X95341559Y-61393379D01*
X95333500Y-61392318D01*
X95325441Y-61393379D01*
X95184797Y-61411894D01*
X95184789Y-61411896D01*
X95176738Y-61412956D01*
X95169233Y-61416064D01*
X95169228Y-61416066D01*
X95038166Y-61470354D01*
X95038162Y-61470355D01*
X95030659Y-61473464D01*
X95024214Y-61478408D01*
X95024211Y-61478411D01*
X94911664Y-61564771D01*
X94911660Y-61564774D01*
X94905218Y-61569718D01*
X94900274Y-61576160D01*
X94900271Y-61576164D01*
X94813911Y-61688711D01*
X94813908Y-61688714D01*
X94808964Y-61695159D01*
X94805855Y-61702662D01*
X94805854Y-61702666D01*
X94751566Y-61833728D01*
X94751564Y-61833733D01*
X94748456Y-61841238D01*
X94747396Y-61849289D01*
X94747394Y-61849297D01*
X94729202Y-61987482D01*
X94727818Y-61998000D01*
X94728879Y-62006059D01*
X94747394Y-62146702D01*
X94747395Y-62146708D01*
X94748456Y-62154762D01*
X94751565Y-62162268D01*
X94751566Y-62162271D01*
X94754396Y-62169103D01*
X94808964Y-62300841D01*
X94829877Y-62328096D01*
X94848919Y-62363721D01*
X94855500Y-62403580D01*
X94855500Y-64952420D01*
X94848919Y-64992279D01*
X94829877Y-65027903D01*
X94820849Y-65039669D01*
X94813908Y-65048715D01*
X94813906Y-65048718D01*
X94808964Y-65055159D01*
X94805855Y-65062662D01*
X94805854Y-65062666D01*
X94751566Y-65193728D01*
X94751564Y-65193733D01*
X94748456Y-65201238D01*
X94747396Y-65209289D01*
X94747394Y-65209297D01*
X94732619Y-65321530D01*
X94727818Y-65358000D01*
X93156500Y-65358000D01*
X93156500Y-47203916D01*
X93156649Y-47197830D01*
X93165611Y-47015452D01*
X93172093Y-46883535D01*
X93173286Y-46871428D01*
X93173386Y-46870756D01*
X93219014Y-46563173D01*
X93221381Y-46551275D01*
X93297109Y-46248962D01*
X93300633Y-46237349D01*
X93405627Y-45943920D01*
X93410269Y-45932714D01*
X93543515Y-45650994D01*
X93549235Y-45640292D01*
X93709454Y-45372988D01*
X93716212Y-45362876D01*
X93721912Y-45355191D01*
X93901853Y-45112574D01*
X93909553Y-45103192D01*
X94121342Y-44869522D01*
X94125498Y-44865157D01*
X97984945Y-41005710D01*
X116149500Y-41005710D01*
X116149747Y-41008458D01*
X116149748Y-41008473D01*
X116164002Y-41166845D01*
X116164002Y-41166850D01*
X116164502Y-41172395D01*
X116165984Y-41177767D01*
X116165985Y-41177769D01*
X116196011Y-41286568D01*
X116223906Y-41387642D01*
X116226317Y-41392650D01*
X116226320Y-41392656D01*
X116318372Y-41583803D01*
X116320790Y-41588823D01*
X116452039Y-41769472D01*
X116456058Y-41773315D01*
X116456062Y-41773319D01*
X116575266Y-41887289D01*
X116613435Y-41923782D01*
X116799790Y-42046794D01*
X116804915Y-42048984D01*
X116804916Y-42048985D01*
X116917264Y-42097005D01*
X117005115Y-42134554D01*
X117222811Y-42184242D01*
X117445880Y-42194260D01*
X117667153Y-42164286D01*
X117879518Y-42095285D01*
X118076150Y-41989473D01*
X118250728Y-41850251D01*
X118397642Y-41682095D01*
X118512169Y-41490408D01*
X118590629Y-41281353D01*
X118630500Y-41061647D01*
X118630500Y-41005710D01*
X121229500Y-41005710D01*
X121229747Y-41008458D01*
X121229748Y-41008473D01*
X121244002Y-41166845D01*
X121244002Y-41166850D01*
X121244502Y-41172395D01*
X121245984Y-41177767D01*
X121245985Y-41177769D01*
X121276011Y-41286568D01*
X121303906Y-41387642D01*
X121306317Y-41392650D01*
X121306320Y-41392656D01*
X121398372Y-41583803D01*
X121400790Y-41588823D01*
X121532039Y-41769472D01*
X121536058Y-41773315D01*
X121536062Y-41773319D01*
X121655266Y-41887289D01*
X121693435Y-41923782D01*
X121879790Y-42046794D01*
X121884915Y-42048984D01*
X121884916Y-42048985D01*
X121997264Y-42097005D01*
X122085115Y-42134554D01*
X122302811Y-42184242D01*
X122525880Y-42194260D01*
X122747153Y-42164286D01*
X122959518Y-42095285D01*
X123156150Y-41989473D01*
X123330728Y-41850251D01*
X123477642Y-41682095D01*
X123592169Y-41490408D01*
X123670629Y-41281353D01*
X123710500Y-41061647D01*
X123710500Y-41005710D01*
X126309500Y-41005710D01*
X126309747Y-41008458D01*
X126309748Y-41008473D01*
X126324002Y-41166845D01*
X126324002Y-41166850D01*
X126324502Y-41172395D01*
X126325984Y-41177767D01*
X126325985Y-41177769D01*
X126356011Y-41286568D01*
X126383906Y-41387642D01*
X126386317Y-41392650D01*
X126386320Y-41392656D01*
X126478372Y-41583803D01*
X126480790Y-41588823D01*
X126612039Y-41769472D01*
X126616058Y-41773315D01*
X126616062Y-41773319D01*
X126735266Y-41887289D01*
X126773435Y-41923782D01*
X126959790Y-42046794D01*
X126964915Y-42048984D01*
X126964916Y-42048985D01*
X127077264Y-42097005D01*
X127165115Y-42134554D01*
X127382811Y-42184242D01*
X127605880Y-42194260D01*
X127827153Y-42164286D01*
X128039518Y-42095285D01*
X128236150Y-41989473D01*
X128375904Y-41878021D01*
X128430161Y-41853132D01*
X128489764Y-41856479D01*
X128540896Y-41887289D01*
X132313181Y-45659573D01*
X132340061Y-45699801D01*
X132349500Y-45747254D01*
X132349500Y-50354074D01*
X132340061Y-50401527D01*
X132320508Y-50430789D01*
X132321718Y-50431718D01*
X132230411Y-50550711D01*
X132230408Y-50550714D01*
X132225464Y-50557159D01*
X132222355Y-50564662D01*
X132222354Y-50564666D01*
X132168066Y-50695728D01*
X132168064Y-50695733D01*
X132164956Y-50703238D01*
X132163896Y-50711289D01*
X132163894Y-50711297D01*
X132145702Y-50849482D01*
X132144318Y-50860000D01*
X132145379Y-50868059D01*
X132163894Y-51008702D01*
X132163895Y-51008708D01*
X132164956Y-51016762D01*
X132225464Y-51162841D01*
X132321718Y-51288282D01*
X132328164Y-51293228D01*
X132400986Y-51349106D01*
X132436712Y-51392638D01*
X132449500Y-51447482D01*
X132449500Y-57386738D01*
X132436712Y-57441582D01*
X132400986Y-57485114D01*
X132327664Y-57541375D01*
X132327660Y-57541378D01*
X132321218Y-57546322D01*
X132316274Y-57552764D01*
X132316271Y-57552768D01*
X132229911Y-57665315D01*
X132229908Y-57665318D01*
X132224964Y-57671763D01*
X132221855Y-57679266D01*
X132221854Y-57679270D01*
X132167566Y-57810332D01*
X132167564Y-57810337D01*
X132164456Y-57817842D01*
X132163396Y-57825893D01*
X132163394Y-57825901D01*
X132146489Y-57954318D01*
X132143818Y-57974604D01*
X132144879Y-57982663D01*
X132163394Y-58123306D01*
X132163395Y-58123312D01*
X132164456Y-58131366D01*
X132224964Y-58277445D01*
X132321218Y-58402886D01*
X132446659Y-58499140D01*
X132592738Y-58559648D01*
X132749500Y-58580286D01*
X132906262Y-58559648D01*
X133052341Y-58499140D01*
X133177782Y-58402886D01*
X133274036Y-58277445D01*
X133334544Y-58131366D01*
X133355182Y-57974604D01*
X133334544Y-57817842D01*
X133274036Y-57671763D01*
X133177782Y-57546322D01*
X133099012Y-57485879D01*
X133063288Y-57442349D01*
X133050500Y-57387505D01*
X133050500Y-51447482D01*
X133063288Y-51392638D01*
X133099014Y-51349106D01*
X133178282Y-51288282D01*
X133274536Y-51162841D01*
X133335044Y-51016762D01*
X133355682Y-50860000D01*
X133335044Y-50703238D01*
X133274536Y-50557159D01*
X133178282Y-50431718D01*
X133179491Y-50430789D01*
X133159939Y-50401527D01*
X133150500Y-50354074D01*
X133150500Y-45498493D01*
X133150499Y-45498469D01*
X133150499Y-45476327D01*
X133150499Y-45466567D01*
X133143652Y-45445495D01*
X133139111Y-45426578D01*
X133135646Y-45404696D01*
X133125583Y-45384946D01*
X133118142Y-45366983D01*
X133111296Y-45345910D01*
X133098275Y-45327989D01*
X133088105Y-45311394D01*
X133078050Y-45291658D01*
X132988342Y-45201950D01*
X128826819Y-41040426D01*
X128803622Y-41005710D01*
X131389500Y-41005710D01*
X131389747Y-41008458D01*
X131389748Y-41008473D01*
X131404002Y-41166845D01*
X131404002Y-41166850D01*
X131404502Y-41172395D01*
X131405984Y-41177767D01*
X131405985Y-41177769D01*
X131436011Y-41286568D01*
X131463906Y-41387642D01*
X131466317Y-41392650D01*
X131466320Y-41392656D01*
X131558372Y-41583803D01*
X131560790Y-41588823D01*
X131692039Y-41769472D01*
X131696058Y-41773315D01*
X131696062Y-41773319D01*
X131815266Y-41887289D01*
X131853435Y-41923782D01*
X132039790Y-42046794D01*
X132044915Y-42048984D01*
X132044916Y-42048985D01*
X132157264Y-42097005D01*
X132245115Y-42134554D01*
X132462811Y-42184242D01*
X132685880Y-42194260D01*
X132907153Y-42164286D01*
X133119518Y-42095285D01*
X133316150Y-41989473D01*
X133455904Y-41878021D01*
X133510161Y-41853132D01*
X133569764Y-41856479D01*
X133620896Y-41887289D01*
X137354059Y-45620452D01*
X137380931Y-45660661D01*
X137387809Y-45695198D01*
X137389318Y-45695000D01*
X137408894Y-45843702D01*
X137408895Y-45843708D01*
X137409956Y-45851762D01*
X137413065Y-45859268D01*
X137413066Y-45859271D01*
X137457956Y-45967645D01*
X137470464Y-45997841D01*
X137566718Y-46123282D01*
X137573164Y-46128228D01*
X137578913Y-46133977D01*
X137577903Y-46134986D01*
X137606712Y-46170090D01*
X137619500Y-46224933D01*
X137619500Y-61529484D01*
X137612919Y-61569342D01*
X137593876Y-61604970D01*
X137520411Y-61700711D01*
X137520408Y-61700714D01*
X137515464Y-61707159D01*
X137512355Y-61714662D01*
X137512354Y-61714666D01*
X137458066Y-61845728D01*
X137458064Y-61845733D01*
X137454956Y-61853238D01*
X137453896Y-61861289D01*
X137453894Y-61861297D01*
X137436959Y-61989941D01*
X137434318Y-62010000D01*
X137435379Y-62018058D01*
X137435379Y-62018059D01*
X137453894Y-62158702D01*
X137453895Y-62158708D01*
X137454956Y-62166762D01*
X137458065Y-62174268D01*
X137458066Y-62174271D01*
X137510493Y-62300841D01*
X137515464Y-62312841D01*
X137611718Y-62438282D01*
X137737159Y-62534536D01*
X137883238Y-62595044D01*
X138040000Y-62615682D01*
X138139062Y-62602640D01*
X138195104Y-62608160D01*
X138242927Y-62637898D01*
X138620841Y-63015812D01*
X138623202Y-63018525D01*
X138626042Y-63024228D01*
X138634530Y-63031966D01*
X138634531Y-63031967D01*
X138660317Y-63055474D01*
X138664459Y-63059430D01*
X138677203Y-63072174D01*
X138681930Y-63075412D01*
X138682621Y-63075986D01*
X138686928Y-63079733D01*
X138709067Y-63099916D01*
X138719782Y-63104067D01*
X138726246Y-63108069D01*
X138730074Y-63110087D01*
X138737039Y-63113162D01*
X138746519Y-63119656D01*
X138757706Y-63122287D01*
X138772506Y-63125768D01*
X138788912Y-63130848D01*
X138803108Y-63136348D01*
X138803111Y-63136348D01*
X138813827Y-63140500D01*
X138825320Y-63140500D01*
X138832794Y-63141897D01*
X138837094Y-63142396D01*
X138844692Y-63142747D01*
X138855881Y-63145379D01*
X138882332Y-63141689D01*
X138899465Y-63140500D01*
X146558144Y-63140500D01*
X146561724Y-63140748D01*
X146567765Y-63142773D01*
X146614079Y-63140632D01*
X146619806Y-63140500D01*
X146632111Y-63140500D01*
X146637844Y-63140500D01*
X146643478Y-63139445D01*
X146644351Y-63139365D01*
X146650072Y-63138967D01*
X146679992Y-63137585D01*
X146690506Y-63132941D01*
X146697908Y-63131201D01*
X146702038Y-63129922D01*
X146709135Y-63127172D01*
X146720433Y-63125061D01*
X146743144Y-63110998D01*
X146758319Y-63102999D01*
X146782765Y-63092206D01*
X146790892Y-63084077D01*
X146797175Y-63079774D01*
X146800555Y-63077096D01*
X146806176Y-63071970D01*
X146815952Y-63065919D01*
X146832053Y-63044595D01*
X146843314Y-63031655D01*
X154970993Y-54903976D01*
X155029725Y-54871085D01*
X155096990Y-54873728D01*
X155152962Y-54911127D01*
X155181145Y-54972260D01*
X155173234Y-55039110D01*
X155158066Y-55075729D01*
X155154956Y-55083238D01*
X155153896Y-55091289D01*
X155153894Y-55091297D01*
X155137464Y-55216105D01*
X155134318Y-55240000D01*
X155135379Y-55248059D01*
X155153894Y-55388702D01*
X155153895Y-55388708D01*
X155154956Y-55396762D01*
X155215464Y-55542841D01*
X155311718Y-55668282D01*
X155318164Y-55673228D01*
X155390986Y-55729106D01*
X155426712Y-55772638D01*
X155439500Y-55827482D01*
X155439500Y-58687055D01*
X155430061Y-58734508D01*
X155403181Y-58774736D01*
X151444737Y-62733181D01*
X151404509Y-62760061D01*
X151357056Y-62769500D01*
X150187482Y-62769500D01*
X150132638Y-62756712D01*
X150089106Y-62720986D01*
X150033228Y-62648164D01*
X150028282Y-62641718D01*
X149902841Y-62545464D01*
X149888443Y-62539500D01*
X149764271Y-62488066D01*
X149764268Y-62488065D01*
X149756762Y-62484956D01*
X149748708Y-62483895D01*
X149748702Y-62483894D01*
X149608059Y-62465379D01*
X149600000Y-62464318D01*
X149591941Y-62465379D01*
X149451297Y-62483894D01*
X149451289Y-62483896D01*
X149443238Y-62484956D01*
X149435733Y-62488064D01*
X149435728Y-62488066D01*
X149304666Y-62542354D01*
X149304662Y-62542355D01*
X149297159Y-62545464D01*
X149290714Y-62550408D01*
X149290711Y-62550411D01*
X149178164Y-62636771D01*
X149178160Y-62636774D01*
X149171718Y-62641718D01*
X149166774Y-62648160D01*
X149166771Y-62648164D01*
X149080411Y-62760711D01*
X149080408Y-62760714D01*
X149075464Y-62767159D01*
X149072355Y-62774662D01*
X149072354Y-62774666D01*
X149018066Y-62905728D01*
X149018064Y-62905733D01*
X149014956Y-62913238D01*
X149013896Y-62921289D01*
X149013894Y-62921297D01*
X148999367Y-63031648D01*
X148994318Y-63070000D01*
X148995379Y-63078059D01*
X149013894Y-63218702D01*
X149013895Y-63218708D01*
X149014956Y-63226762D01*
X149018065Y-63234268D01*
X149018066Y-63234271D01*
X149072354Y-63365333D01*
X149075464Y-63372841D01*
X149171718Y-63498282D01*
X149297159Y-63594536D01*
X149443238Y-63655044D01*
X149600000Y-63675682D01*
X149756762Y-63655044D01*
X149902841Y-63594536D01*
X150028282Y-63498282D01*
X150089106Y-63419013D01*
X150132638Y-63383288D01*
X150187482Y-63370500D01*
X151481033Y-63370500D01*
X151484613Y-63370748D01*
X151490654Y-63372773D01*
X151536968Y-63370632D01*
X151542695Y-63370500D01*
X151555000Y-63370500D01*
X151560733Y-63370500D01*
X151566367Y-63369445D01*
X151567240Y-63369365D01*
X151572961Y-63368967D01*
X151602881Y-63367585D01*
X151613395Y-63362941D01*
X151620797Y-63361201D01*
X151624927Y-63359922D01*
X151632024Y-63357172D01*
X151643322Y-63355061D01*
X151666033Y-63340998D01*
X151681208Y-63332999D01*
X151705654Y-63322206D01*
X151713781Y-63314077D01*
X151720064Y-63309774D01*
X151723444Y-63307096D01*
X151729065Y-63301970D01*
X151738841Y-63295919D01*
X151754942Y-63274595D01*
X151766203Y-63261655D01*
X155915823Y-59112035D01*
X155918522Y-59109687D01*
X155924228Y-59106847D01*
X155955487Y-59072556D01*
X155959402Y-59068456D01*
X155972174Y-59055686D01*
X155975422Y-59050943D01*
X155975965Y-59050290D01*
X155979733Y-59045961D01*
X155992174Y-59032314D01*
X155992173Y-59032314D01*
X155999916Y-59023822D01*
X156004067Y-59013103D01*
X156008070Y-59006640D01*
X156010077Y-59002833D01*
X156013158Y-58995854D01*
X156019656Y-58986370D01*
X156025772Y-58960361D01*
X156030843Y-58943986D01*
X156040500Y-58919062D01*
X156040500Y-58907566D01*
X156041896Y-58900099D01*
X156042396Y-58895794D01*
X156042747Y-58888196D01*
X156045379Y-58877008D01*
X156041689Y-58850556D01*
X156040500Y-58833424D01*
X156040500Y-55827482D01*
X156053288Y-55772638D01*
X156089014Y-55729106D01*
X156168282Y-55668282D01*
X156264536Y-55542841D01*
X156325044Y-55396762D01*
X156345682Y-55240000D01*
X156325044Y-55083238D01*
X156264536Y-54937159D01*
X156168282Y-54811718D01*
X156042841Y-54715464D01*
X155959988Y-54681145D01*
X155904271Y-54658066D01*
X155904268Y-54658065D01*
X155896762Y-54654956D01*
X155888708Y-54653895D01*
X155888702Y-54653894D01*
X155748059Y-54635379D01*
X155740000Y-54634318D01*
X155731941Y-54635379D01*
X155591297Y-54653894D01*
X155591289Y-54653896D01*
X155583238Y-54654956D01*
X155575731Y-54658065D01*
X155575729Y-54658066D01*
X155539110Y-54673234D01*
X155472260Y-54681145D01*
X155411127Y-54652962D01*
X155373728Y-54596990D01*
X155371085Y-54529725D01*
X155403976Y-54470993D01*
X156137073Y-53737896D01*
X156184894Y-53708160D01*
X156240936Y-53702640D01*
X156340000Y-53715682D01*
X156496762Y-53695044D01*
X156642841Y-53634536D01*
X156768282Y-53538282D01*
X156864536Y-53412841D01*
X156925044Y-53266762D01*
X156945682Y-53110000D01*
X156925044Y-52953238D01*
X156864536Y-52807159D01*
X156768282Y-52681718D01*
X156642841Y-52585464D01*
X156628655Y-52579588D01*
X156504271Y-52528066D01*
X156504268Y-52528065D01*
X156496762Y-52524956D01*
X156488708Y-52523895D01*
X156488702Y-52523894D01*
X156348059Y-52505379D01*
X156340000Y-52504318D01*
X156331941Y-52505379D01*
X156191297Y-52523894D01*
X156191289Y-52523896D01*
X156183238Y-52524956D01*
X156175733Y-52528064D01*
X156175728Y-52528066D01*
X156044666Y-52582354D01*
X156044662Y-52582355D01*
X156037159Y-52585464D01*
X156030714Y-52590408D01*
X156030711Y-52590411D01*
X155918164Y-52676771D01*
X155918160Y-52676774D01*
X155911718Y-52681718D01*
X155906774Y-52688160D01*
X155906771Y-52688164D01*
X155820411Y-52800711D01*
X155820408Y-52800714D01*
X155815464Y-52807159D01*
X155812355Y-52814662D01*
X155812354Y-52814666D01*
X155758066Y-52945728D01*
X155758064Y-52945733D01*
X155754956Y-52953238D01*
X155753896Y-52961289D01*
X155753894Y-52961297D01*
X155735702Y-53099482D01*
X155734318Y-53110000D01*
X155735379Y-53118059D01*
X155747359Y-53209060D01*
X155741839Y-53265104D01*
X155712101Y-53312926D01*
X153756365Y-55268662D01*
X153703901Y-55299875D01*
X153642901Y-55302271D01*
X153588151Y-55275270D01*
X153552919Y-55225416D01*
X153545745Y-55164796D01*
X153548294Y-55145439D01*
X153527656Y-54988677D01*
X153467148Y-54842598D01*
X153370894Y-54717157D01*
X153245453Y-54620903D01*
X153187722Y-54596990D01*
X153106883Y-54563505D01*
X153106880Y-54563504D01*
X153099374Y-54560395D01*
X153091320Y-54559334D01*
X153091314Y-54559333D01*
X152950671Y-54540818D01*
X152942612Y-54539757D01*
X152934553Y-54540818D01*
X152793909Y-54559333D01*
X152793901Y-54559335D01*
X152785850Y-54560395D01*
X152778345Y-54563503D01*
X152778340Y-54563505D01*
X152647278Y-54617793D01*
X152647274Y-54617794D01*
X152639771Y-54620903D01*
X152633326Y-54625847D01*
X152633323Y-54625850D01*
X152520776Y-54712210D01*
X152520772Y-54712213D01*
X152514330Y-54717157D01*
X152509386Y-54723599D01*
X152509383Y-54723603D01*
X152423023Y-54836150D01*
X152423020Y-54836153D01*
X152418076Y-54842598D01*
X152414967Y-54850101D01*
X152414966Y-54850105D01*
X152360678Y-54981167D01*
X152360676Y-54981172D01*
X152357568Y-54988677D01*
X152356508Y-54996728D01*
X152356506Y-54996736D01*
X152344208Y-55090156D01*
X152336930Y-55145439D01*
X152337991Y-55153498D01*
X152349971Y-55244499D01*
X152344451Y-55300543D01*
X152314713Y-55348365D01*
X148197218Y-59465860D01*
X148146825Y-59496440D01*
X148088005Y-59500295D01*
X148034051Y-59476555D01*
X147960486Y-59420107D01*
X147954039Y-59415160D01*
X147946531Y-59412050D01*
X147815469Y-59357762D01*
X147815466Y-59357761D01*
X147807960Y-59354652D01*
X147799906Y-59353591D01*
X147799900Y-59353590D01*
X147659257Y-59335075D01*
X147651198Y-59334014D01*
X147643139Y-59335075D01*
X147502495Y-59353590D01*
X147502487Y-59353592D01*
X147494436Y-59354652D01*
X147486931Y-59357760D01*
X147486926Y-59357762D01*
X147355864Y-59412050D01*
X147355860Y-59412051D01*
X147348357Y-59415160D01*
X147341912Y-59420104D01*
X147341909Y-59420107D01*
X147229362Y-59506467D01*
X147229358Y-59506470D01*
X147222916Y-59511414D01*
X147217972Y-59517856D01*
X147217969Y-59517860D01*
X147131609Y-59630407D01*
X147131606Y-59630410D01*
X147126662Y-59636855D01*
X147123553Y-59644358D01*
X147123552Y-59644362D01*
X147069264Y-59775424D01*
X147069262Y-59775429D01*
X147066154Y-59782934D01*
X147065094Y-59790985D01*
X147065092Y-59790993D01*
X147046900Y-59929178D01*
X147045516Y-59939696D01*
X147046577Y-59947755D01*
X147065092Y-60088398D01*
X147065093Y-60088404D01*
X147066154Y-60096458D01*
X147069263Y-60103964D01*
X147069264Y-60103967D01*
X147119297Y-60224757D01*
X147126662Y-60242537D01*
X147222916Y-60367978D01*
X147348357Y-60464232D01*
X147494436Y-60524740D01*
X147651198Y-60545378D01*
X147807960Y-60524740D01*
X147954039Y-60464232D01*
X148079480Y-60367978D01*
X148146378Y-60280793D01*
X148177456Y-60252132D01*
X148211629Y-60237591D01*
X148218347Y-60237281D01*
X148228863Y-60232637D01*
X148236266Y-60230896D01*
X148240393Y-60229618D01*
X148247490Y-60226868D01*
X148258788Y-60224757D01*
X148281499Y-60210694D01*
X148296674Y-60202695D01*
X148321120Y-60191902D01*
X148329247Y-60183773D01*
X148335530Y-60179470D01*
X148338910Y-60176792D01*
X148344531Y-60171666D01*
X148354307Y-60165615D01*
X148370408Y-60144291D01*
X148381669Y-60131351D01*
X152739685Y-55773335D01*
X152787506Y-55743599D01*
X152843548Y-55738079D01*
X152942612Y-55751121D01*
X152961969Y-55748572D01*
X153022589Y-55755746D01*
X153072443Y-55790978D01*
X153099444Y-55845728D01*
X153097048Y-55906728D01*
X153065835Y-55959192D01*
X146521848Y-62503181D01*
X146481620Y-62530061D01*
X146434167Y-62539500D01*
X139045833Y-62539500D01*
X138998380Y-62530061D01*
X138958152Y-62503181D01*
X138667898Y-62212927D01*
X138638160Y-62165104D01*
X138632640Y-62109062D01*
X138645682Y-62010000D01*
X138625044Y-61853238D01*
X138564536Y-61707159D01*
X138468282Y-61581718D01*
X138461835Y-61576771D01*
X138456819Y-61571755D01*
X138429939Y-61531527D01*
X138420500Y-61484074D01*
X138420500Y-46169000D01*
X138427081Y-46129142D01*
X138446124Y-46093514D01*
X138482826Y-46045682D01*
X138519536Y-45997841D01*
X138580044Y-45851762D01*
X138600682Y-45695000D01*
X138580044Y-45538238D01*
X138519536Y-45392159D01*
X138423282Y-45266718D01*
X138297841Y-45170464D01*
X138259342Y-45154517D01*
X138159271Y-45113066D01*
X138159268Y-45113065D01*
X138151762Y-45109956D01*
X138143708Y-45108895D01*
X138143702Y-45108894D01*
X137995000Y-45089318D01*
X137995198Y-45087809D01*
X137960661Y-45080931D01*
X137920452Y-45054059D01*
X133906819Y-41040426D01*
X133883622Y-41005710D01*
X136469500Y-41005710D01*
X136469747Y-41008458D01*
X136469748Y-41008473D01*
X136484002Y-41166845D01*
X136484002Y-41166850D01*
X136484502Y-41172395D01*
X136485984Y-41177767D01*
X136485985Y-41177769D01*
X136516011Y-41286568D01*
X136543906Y-41387642D01*
X136546317Y-41392650D01*
X136546320Y-41392656D01*
X136638372Y-41583803D01*
X136640790Y-41588823D01*
X136772039Y-41769472D01*
X136776058Y-41773315D01*
X136776062Y-41773319D01*
X136895266Y-41887289D01*
X136933435Y-41923782D01*
X137119790Y-42046794D01*
X137124915Y-42048984D01*
X137124916Y-42048985D01*
X137237264Y-42097005D01*
X137325115Y-42134554D01*
X137542811Y-42184242D01*
X137765880Y-42194260D01*
X137987153Y-42164286D01*
X138199518Y-42095285D01*
X138396150Y-41989473D01*
X138570728Y-41850251D01*
X138658110Y-41750234D01*
X138714052Y-41713607D01*
X138780886Y-41711356D01*
X138839169Y-41744140D01*
X143748727Y-46653698D01*
X143778977Y-46703061D01*
X143783519Y-46760777D01*
X143761364Y-46814264D01*
X143717341Y-46851864D01*
X143663529Y-46864782D01*
X143660000Y-46864318D01*
X143651941Y-46865379D01*
X143511297Y-46883894D01*
X143511289Y-46883896D01*
X143503238Y-46884956D01*
X143495733Y-46888064D01*
X143495728Y-46888066D01*
X143364666Y-46942354D01*
X143364662Y-46942355D01*
X143357159Y-46945464D01*
X143350714Y-46950408D01*
X143350711Y-46950411D01*
X143238164Y-47036771D01*
X143238160Y-47036774D01*
X143231718Y-47041718D01*
X143226774Y-47048160D01*
X143226771Y-47048164D01*
X143140411Y-47160711D01*
X143140408Y-47160714D01*
X143135464Y-47167159D01*
X143132355Y-47174662D01*
X143132354Y-47174666D01*
X143078066Y-47305728D01*
X143078064Y-47305733D01*
X143074956Y-47313238D01*
X143073896Y-47321289D01*
X143073894Y-47321297D01*
X143064476Y-47392841D01*
X143054318Y-47470000D01*
X143055379Y-47478059D01*
X143073894Y-47618702D01*
X143073895Y-47618708D01*
X143074956Y-47626762D01*
X143078065Y-47634268D01*
X143078066Y-47634271D01*
X143132354Y-47765333D01*
X143135464Y-47772841D01*
X143231718Y-47898282D01*
X143238164Y-47903228D01*
X143310986Y-47959106D01*
X143346712Y-48002638D01*
X143359500Y-48057482D01*
X143359500Y-54454167D01*
X143350061Y-54501620D01*
X143323181Y-54541848D01*
X139932926Y-57932101D01*
X139885104Y-57961839D01*
X139829060Y-57967359D01*
X139738059Y-57955379D01*
X139730000Y-57954318D01*
X139721941Y-57955379D01*
X139581297Y-57973894D01*
X139581289Y-57973896D01*
X139573238Y-57974956D01*
X139565733Y-57978064D01*
X139565728Y-57978066D01*
X139434666Y-58032354D01*
X139434662Y-58032355D01*
X139427159Y-58035464D01*
X139420714Y-58040408D01*
X139420711Y-58040411D01*
X139308164Y-58126771D01*
X139308160Y-58126774D01*
X139301718Y-58131718D01*
X139296774Y-58138160D01*
X139296771Y-58138164D01*
X139210411Y-58250711D01*
X139210408Y-58250714D01*
X139205464Y-58257159D01*
X139202355Y-58264662D01*
X139202354Y-58264666D01*
X139148066Y-58395728D01*
X139148064Y-58395733D01*
X139144956Y-58403238D01*
X139143896Y-58411289D01*
X139143894Y-58411297D01*
X139132330Y-58499140D01*
X139124318Y-58560000D01*
X139125379Y-58568059D01*
X139143894Y-58708702D01*
X139143895Y-58708708D01*
X139144956Y-58716762D01*
X139148065Y-58724268D01*
X139148066Y-58724271D01*
X139193279Y-58833424D01*
X139205464Y-58862841D01*
X139301718Y-58988282D01*
X139427159Y-59084536D01*
X139573238Y-59145044D01*
X139730000Y-59165682D01*
X139886762Y-59145044D01*
X140032841Y-59084536D01*
X140158282Y-58988282D01*
X140254536Y-58862841D01*
X140315044Y-58716762D01*
X140335682Y-58560000D01*
X140322640Y-58460936D01*
X140328160Y-58404894D01*
X140357896Y-58357073D01*
X143712328Y-55002641D01*
X143773169Y-54969263D01*
X143842418Y-54973802D01*
X143898381Y-55014837D01*
X143931718Y-55058282D01*
X144057159Y-55154536D01*
X144203238Y-55215044D01*
X144360000Y-55235682D01*
X144516762Y-55215044D01*
X144662841Y-55154536D01*
X144730016Y-55102990D01*
X144793346Y-55077965D01*
X144860344Y-55090156D01*
X144910801Y-55135888D01*
X144929500Y-55201368D01*
X144929500Y-56065344D01*
X144916712Y-56120188D01*
X144880987Y-56163719D01*
X144791718Y-56232218D01*
X144786774Y-56238660D01*
X144786771Y-56238664D01*
X144700411Y-56351211D01*
X144700408Y-56351214D01*
X144695464Y-56357659D01*
X144692355Y-56365162D01*
X144692354Y-56365166D01*
X144638066Y-56496228D01*
X144638064Y-56496233D01*
X144634956Y-56503738D01*
X144633896Y-56511789D01*
X144633894Y-56511797D01*
X144615702Y-56649982D01*
X144614318Y-56660500D01*
X144615379Y-56668559D01*
X144633894Y-56809202D01*
X144633895Y-56809208D01*
X144634956Y-56817262D01*
X144695464Y-56963341D01*
X144791718Y-57088782D01*
X144917159Y-57185036D01*
X145063238Y-57245544D01*
X145220000Y-57266182D01*
X145376762Y-57245544D01*
X145522841Y-57185036D01*
X145648282Y-57088782D01*
X145744536Y-56963341D01*
X145805044Y-56817262D01*
X145825682Y-56660500D01*
X145805044Y-56503738D01*
X145744536Y-56357659D01*
X145648282Y-56232218D01*
X145579013Y-56179066D01*
X145543288Y-56135535D01*
X145530500Y-56080691D01*
X145530500Y-50157482D01*
X145543288Y-50102638D01*
X145579014Y-50059106D01*
X145658282Y-49998282D01*
X145754536Y-49872841D01*
X145815044Y-49726762D01*
X145835682Y-49570000D01*
X145815044Y-49413238D01*
X145754536Y-49267159D01*
X145658282Y-49141718D01*
X145532841Y-49045464D01*
X145419779Y-48998632D01*
X145394271Y-48988066D01*
X145394268Y-48988065D01*
X145386762Y-48984956D01*
X145378708Y-48983895D01*
X145378702Y-48983894D01*
X145238059Y-48965379D01*
X145230000Y-48964318D01*
X145221941Y-48965379D01*
X145081297Y-48983894D01*
X145081289Y-48983896D01*
X145073238Y-48984956D01*
X145065733Y-48988064D01*
X145065728Y-48988066D01*
X144934666Y-49042354D01*
X144934662Y-49042355D01*
X144927159Y-49045464D01*
X144859983Y-49097009D01*
X144796654Y-49122035D01*
X144729656Y-49109844D01*
X144679199Y-49064112D01*
X144660500Y-48998632D01*
X144660500Y-47090000D01*
X147554318Y-47090000D01*
X147555379Y-47098059D01*
X147573894Y-47238702D01*
X147573895Y-47238708D01*
X147574956Y-47246762D01*
X147578065Y-47254268D01*
X147578066Y-47254271D01*
X147602491Y-47313238D01*
X147635464Y-47392841D01*
X147731718Y-47518282D01*
X147857159Y-47614536D01*
X148003238Y-47675044D01*
X148160000Y-47695682D01*
X148316762Y-47675044D01*
X148462841Y-47614536D01*
X148588282Y-47518282D01*
X148684536Y-47392841D01*
X148745044Y-47246762D01*
X148765682Y-47090000D01*
X148767193Y-47090199D01*
X148774060Y-47055680D01*
X148800940Y-47015452D01*
X149919573Y-45896819D01*
X149959801Y-45869939D01*
X150007254Y-45860500D01*
X159869484Y-45860500D01*
X159909342Y-45867081D01*
X159944970Y-45886124D01*
X160047159Y-45964536D01*
X160193238Y-46025044D01*
X160350000Y-46045682D01*
X160506762Y-46025044D01*
X160652841Y-45964536D01*
X160778282Y-45868282D01*
X160874536Y-45742841D01*
X160935044Y-45596762D01*
X160955682Y-45440000D01*
X160935044Y-45283238D01*
X160874536Y-45137159D01*
X160778282Y-45011718D01*
X160652841Y-44915464D01*
X160621121Y-44902325D01*
X160514271Y-44858066D01*
X160514268Y-44858065D01*
X160506762Y-44854956D01*
X160498708Y-44853895D01*
X160498702Y-44853894D01*
X160358059Y-44835379D01*
X160350000Y-44834318D01*
X160341941Y-44835379D01*
X160201297Y-44853894D01*
X160201289Y-44853896D01*
X160193238Y-44854956D01*
X160185733Y-44858064D01*
X160185728Y-44858066D01*
X160054666Y-44912354D01*
X160054662Y-44912355D01*
X160047159Y-44915464D01*
X160040714Y-44920408D01*
X160040711Y-44920411D01*
X159928164Y-45006771D01*
X159928160Y-45006774D01*
X159921718Y-45011718D01*
X159916772Y-45018163D01*
X159911755Y-45023181D01*
X159871527Y-45050061D01*
X159824074Y-45059500D01*
X149853433Y-45059500D01*
X149726567Y-45059500D01*
X149717288Y-45062514D01*
X149717285Y-45062515D01*
X149705492Y-45066347D01*
X149686582Y-45070886D01*
X149664696Y-45074354D01*
X149656009Y-45078779D01*
X149656000Y-45078783D01*
X149644954Y-45084412D01*
X149626987Y-45091854D01*
X149615196Y-45095685D01*
X149615186Y-45095689D01*
X149605910Y-45098704D01*
X149598018Y-45104437D01*
X149598008Y-45104443D01*
X149587983Y-45111727D01*
X149571400Y-45121890D01*
X149560355Y-45127517D01*
X149560347Y-45127522D01*
X149551658Y-45131950D01*
X149544757Y-45138850D01*
X149544755Y-45138852D01*
X149529095Y-45154511D01*
X149529092Y-45154514D01*
X149529091Y-45154516D01*
X149529091Y-45154517D01*
X148234546Y-46449060D01*
X148194318Y-46475940D01*
X148159800Y-46482805D01*
X148160000Y-46484318D01*
X148011297Y-46503894D01*
X148011289Y-46503896D01*
X148003238Y-46504956D01*
X147995733Y-46508064D01*
X147995728Y-46508066D01*
X147864666Y-46562354D01*
X147864662Y-46562355D01*
X147857159Y-46565464D01*
X147850714Y-46570408D01*
X147850711Y-46570411D01*
X147738164Y-46656771D01*
X147738160Y-46656774D01*
X147731718Y-46661718D01*
X147726774Y-46668160D01*
X147726771Y-46668164D01*
X147640411Y-46780711D01*
X147640408Y-46780714D01*
X147635464Y-46787159D01*
X147632355Y-46794662D01*
X147632354Y-46794666D01*
X147578066Y-46925728D01*
X147578064Y-46925733D01*
X147574956Y-46933238D01*
X147573896Y-46941289D01*
X147573894Y-46941297D01*
X147560674Y-47041718D01*
X147554318Y-47090000D01*
X144660500Y-47090000D01*
X144660500Y-46891856D01*
X144660748Y-46888275D01*
X144662773Y-46882235D01*
X144660632Y-46835920D01*
X144660500Y-46830194D01*
X144660500Y-46817894D01*
X144660500Y-46812156D01*
X144659444Y-46806512D01*
X144659365Y-46805656D01*
X144658967Y-46799926D01*
X144658115Y-46781488D01*
X144657585Y-46770008D01*
X144652942Y-46759492D01*
X144651200Y-46752086D01*
X144649923Y-46747963D01*
X144647172Y-46740862D01*
X144645061Y-46729567D01*
X144639013Y-46719799D01*
X144639012Y-46719796D01*
X144631002Y-46706860D01*
X144622998Y-46691678D01*
X144612206Y-46667235D01*
X144604080Y-46659109D01*
X144599786Y-46652840D01*
X144597083Y-46649429D01*
X144591968Y-46643818D01*
X144585919Y-46634048D01*
X144564602Y-46617950D01*
X144551648Y-46606677D01*
X138986819Y-41041848D01*
X138962672Y-41005710D01*
X141549500Y-41005710D01*
X141549747Y-41008458D01*
X141549748Y-41008473D01*
X141564002Y-41166845D01*
X141564002Y-41166850D01*
X141564502Y-41172395D01*
X141565984Y-41177767D01*
X141565985Y-41177769D01*
X141596011Y-41286568D01*
X141623906Y-41387642D01*
X141626317Y-41392650D01*
X141626320Y-41392656D01*
X141718372Y-41583803D01*
X141720790Y-41588823D01*
X141852039Y-41769472D01*
X141856058Y-41773315D01*
X141856062Y-41773319D01*
X141975266Y-41887289D01*
X142013435Y-41923782D01*
X142199790Y-42046794D01*
X142204915Y-42048984D01*
X142204916Y-42048985D01*
X142317264Y-42097005D01*
X142405115Y-42134554D01*
X142622811Y-42184242D01*
X142845880Y-42194260D01*
X143067153Y-42164286D01*
X143279518Y-42095285D01*
X143476150Y-41989473D01*
X143650728Y-41850251D01*
X143797642Y-41682095D01*
X143912169Y-41490408D01*
X143990629Y-41281353D01*
X144030500Y-41061647D01*
X144030500Y-39374290D01*
X144015498Y-39207605D01*
X143956094Y-38992358D01*
X143859210Y-38791177D01*
X143727961Y-38610528D01*
X143723940Y-38606684D01*
X143723937Y-38606680D01*
X143570592Y-38460068D01*
X143570590Y-38460067D01*
X143566565Y-38456218D01*
X143380210Y-38333206D01*
X143375088Y-38331017D01*
X143375083Y-38331014D01*
X143180008Y-38247635D01*
X143180001Y-38247632D01*
X143174885Y-38245446D01*
X143169461Y-38244208D01*
X143169455Y-38244206D01*
X142962619Y-38196997D01*
X142962615Y-38196996D01*
X142957189Y-38195758D01*
X142951623Y-38195508D01*
X142739681Y-38185989D01*
X142739672Y-38185989D01*
X142734120Y-38185740D01*
X142728616Y-38186485D01*
X142728605Y-38186486D01*
X142518366Y-38214966D01*
X142518361Y-38214966D01*
X142512847Y-38215714D01*
X142507555Y-38217433D01*
X142507548Y-38217435D01*
X142305778Y-38282994D01*
X142305775Y-38282994D01*
X142300482Y-38284715D01*
X142295582Y-38287351D01*
X142295579Y-38287353D01*
X142108746Y-38387891D01*
X142108734Y-38387898D01*
X142103850Y-38390527D01*
X142099509Y-38393988D01*
X142099501Y-38393994D01*
X141933622Y-38526279D01*
X141933615Y-38526284D01*
X141929272Y-38529749D01*
X141925618Y-38533930D01*
X141925612Y-38533937D01*
X141786020Y-38693713D01*
X141782358Y-38697905D01*
X141779507Y-38702676D01*
X141779501Y-38702685D01*
X141670687Y-38884811D01*
X141667831Y-38889592D01*
X141665876Y-38894800D01*
X141665874Y-38894805D01*
X141591328Y-39093431D01*
X141591326Y-39093437D01*
X141589371Y-39098647D01*
X141588377Y-39104119D01*
X141588375Y-39104130D01*
X141550495Y-39312867D01*
X141550494Y-39312873D01*
X141549500Y-39318353D01*
X141549500Y-41005710D01*
X138962672Y-41005710D01*
X138959939Y-41001620D01*
X138950500Y-40954167D01*
X138950500Y-39377067D01*
X138950500Y-39374290D01*
X138935498Y-39207605D01*
X138876094Y-38992358D01*
X138779210Y-38791177D01*
X138647961Y-38610528D01*
X138643940Y-38606684D01*
X138643937Y-38606680D01*
X138490592Y-38460068D01*
X138490590Y-38460067D01*
X138486565Y-38456218D01*
X138300210Y-38333206D01*
X138295088Y-38331017D01*
X138295083Y-38331014D01*
X138100008Y-38247635D01*
X138100001Y-38247632D01*
X138094885Y-38245446D01*
X138089461Y-38244208D01*
X138089455Y-38244206D01*
X137882619Y-38196997D01*
X137882615Y-38196996D01*
X137877189Y-38195758D01*
X137871623Y-38195508D01*
X137659681Y-38185989D01*
X137659672Y-38185989D01*
X137654120Y-38185740D01*
X137648616Y-38186485D01*
X137648605Y-38186486D01*
X137438366Y-38214966D01*
X137438361Y-38214966D01*
X137432847Y-38215714D01*
X137427555Y-38217433D01*
X137427548Y-38217435D01*
X137225778Y-38282994D01*
X137225775Y-38282994D01*
X137220482Y-38284715D01*
X137215582Y-38287351D01*
X137215579Y-38287353D01*
X137028746Y-38387891D01*
X137028734Y-38387898D01*
X137023850Y-38390527D01*
X137019509Y-38393988D01*
X137019501Y-38393994D01*
X136853622Y-38526279D01*
X136853615Y-38526284D01*
X136849272Y-38529749D01*
X136845618Y-38533930D01*
X136845612Y-38533937D01*
X136706020Y-38693713D01*
X136702358Y-38697905D01*
X136699507Y-38702676D01*
X136699501Y-38702685D01*
X136590687Y-38884811D01*
X136587831Y-38889592D01*
X136585876Y-38894800D01*
X136585874Y-38894805D01*
X136511328Y-39093431D01*
X136511326Y-39093437D01*
X136509371Y-39098647D01*
X136508377Y-39104119D01*
X136508375Y-39104130D01*
X136470495Y-39312867D01*
X136470494Y-39312873D01*
X136469500Y-39318353D01*
X136469500Y-41005710D01*
X133883622Y-41005710D01*
X133879939Y-41000198D01*
X133870500Y-40952745D01*
X133870500Y-39377067D01*
X133870500Y-39374290D01*
X133855498Y-39207605D01*
X133796094Y-38992358D01*
X133699210Y-38791177D01*
X133567961Y-38610528D01*
X133563940Y-38606684D01*
X133563937Y-38606680D01*
X133410592Y-38460068D01*
X133410590Y-38460067D01*
X133406565Y-38456218D01*
X133220210Y-38333206D01*
X133215088Y-38331017D01*
X133215083Y-38331014D01*
X133020008Y-38247635D01*
X133020001Y-38247632D01*
X133014885Y-38245446D01*
X133009461Y-38244208D01*
X133009455Y-38244206D01*
X132802619Y-38196997D01*
X132802615Y-38196996D01*
X132797189Y-38195758D01*
X132791623Y-38195508D01*
X132579681Y-38185989D01*
X132579672Y-38185989D01*
X132574120Y-38185740D01*
X132568616Y-38186485D01*
X132568605Y-38186486D01*
X132358366Y-38214966D01*
X132358361Y-38214966D01*
X132352847Y-38215714D01*
X132347555Y-38217433D01*
X132347548Y-38217435D01*
X132145778Y-38282994D01*
X132145775Y-38282994D01*
X132140482Y-38284715D01*
X132135582Y-38287351D01*
X132135579Y-38287353D01*
X131948746Y-38387891D01*
X131948734Y-38387898D01*
X131943850Y-38390527D01*
X131939509Y-38393988D01*
X131939501Y-38393994D01*
X131773622Y-38526279D01*
X131773615Y-38526284D01*
X131769272Y-38529749D01*
X131765618Y-38533930D01*
X131765612Y-38533937D01*
X131626020Y-38693713D01*
X131622358Y-38697905D01*
X131619507Y-38702676D01*
X131619501Y-38702685D01*
X131510687Y-38884811D01*
X131507831Y-38889592D01*
X131505876Y-38894800D01*
X131505874Y-38894805D01*
X131431328Y-39093431D01*
X131431326Y-39093437D01*
X131429371Y-39098647D01*
X131428377Y-39104119D01*
X131428375Y-39104130D01*
X131390495Y-39312867D01*
X131390494Y-39312873D01*
X131389500Y-39318353D01*
X131389500Y-41005710D01*
X128803622Y-41005710D01*
X128799939Y-41000198D01*
X128790500Y-40952745D01*
X128790500Y-39377067D01*
X128790500Y-39374290D01*
X128775498Y-39207605D01*
X128716094Y-38992358D01*
X128619210Y-38791177D01*
X128487961Y-38610528D01*
X128483940Y-38606684D01*
X128483937Y-38606680D01*
X128330592Y-38460068D01*
X128330590Y-38460067D01*
X128326565Y-38456218D01*
X128140210Y-38333206D01*
X128135088Y-38331017D01*
X128135083Y-38331014D01*
X127940008Y-38247635D01*
X127940001Y-38247632D01*
X127934885Y-38245446D01*
X127929461Y-38244208D01*
X127929455Y-38244206D01*
X127722619Y-38196997D01*
X127722615Y-38196996D01*
X127717189Y-38195758D01*
X127711623Y-38195508D01*
X127499681Y-38185989D01*
X127499672Y-38185989D01*
X127494120Y-38185740D01*
X127488616Y-38186485D01*
X127488605Y-38186486D01*
X127278366Y-38214966D01*
X127278361Y-38214966D01*
X127272847Y-38215714D01*
X127267555Y-38217433D01*
X127267548Y-38217435D01*
X127065778Y-38282994D01*
X127065775Y-38282994D01*
X127060482Y-38284715D01*
X127055582Y-38287351D01*
X127055579Y-38287353D01*
X126868746Y-38387891D01*
X126868734Y-38387898D01*
X126863850Y-38390527D01*
X126859509Y-38393988D01*
X126859501Y-38393994D01*
X126693622Y-38526279D01*
X126693615Y-38526284D01*
X126689272Y-38529749D01*
X126685618Y-38533930D01*
X126685612Y-38533937D01*
X126546020Y-38693713D01*
X126542358Y-38697905D01*
X126539507Y-38702676D01*
X126539501Y-38702685D01*
X126430687Y-38884811D01*
X126427831Y-38889592D01*
X126425876Y-38894800D01*
X126425874Y-38894805D01*
X126351328Y-39093431D01*
X126351326Y-39093437D01*
X126349371Y-39098647D01*
X126348377Y-39104119D01*
X126348375Y-39104130D01*
X126310495Y-39312867D01*
X126310494Y-39312873D01*
X126309500Y-39318353D01*
X126309500Y-41005710D01*
X123710500Y-41005710D01*
X123710500Y-39374290D01*
X123695498Y-39207605D01*
X123636094Y-38992358D01*
X123539210Y-38791177D01*
X123407961Y-38610528D01*
X123403940Y-38606684D01*
X123403937Y-38606680D01*
X123250592Y-38460068D01*
X123250590Y-38460067D01*
X123246565Y-38456218D01*
X123060210Y-38333206D01*
X123055088Y-38331017D01*
X123055083Y-38331014D01*
X122860008Y-38247635D01*
X122860001Y-38247632D01*
X122854885Y-38245446D01*
X122849461Y-38244208D01*
X122849455Y-38244206D01*
X122642619Y-38196997D01*
X122642615Y-38196996D01*
X122637189Y-38195758D01*
X122631623Y-38195508D01*
X122419681Y-38185989D01*
X122419672Y-38185989D01*
X122414120Y-38185740D01*
X122408616Y-38186485D01*
X122408605Y-38186486D01*
X122198366Y-38214966D01*
X122198361Y-38214966D01*
X122192847Y-38215714D01*
X122187555Y-38217433D01*
X122187548Y-38217435D01*
X121985778Y-38282994D01*
X121985775Y-38282994D01*
X121980482Y-38284715D01*
X121975582Y-38287351D01*
X121975579Y-38287353D01*
X121788746Y-38387891D01*
X121788734Y-38387898D01*
X121783850Y-38390527D01*
X121779509Y-38393988D01*
X121779501Y-38393994D01*
X121613622Y-38526279D01*
X121613615Y-38526284D01*
X121609272Y-38529749D01*
X121605618Y-38533930D01*
X121605612Y-38533937D01*
X121466020Y-38693713D01*
X121462358Y-38697905D01*
X121459507Y-38702676D01*
X121459501Y-38702685D01*
X121350687Y-38884811D01*
X121347831Y-38889592D01*
X121345876Y-38894800D01*
X121345874Y-38894805D01*
X121271328Y-39093431D01*
X121271326Y-39093437D01*
X121269371Y-39098647D01*
X121268377Y-39104119D01*
X121268375Y-39104130D01*
X121230495Y-39312867D01*
X121230494Y-39312873D01*
X121229500Y-39318353D01*
X121229500Y-41005710D01*
X118630500Y-41005710D01*
X118630500Y-39374290D01*
X118615498Y-39207605D01*
X118556094Y-38992358D01*
X118459210Y-38791177D01*
X118327961Y-38610528D01*
X118323940Y-38606684D01*
X118323937Y-38606680D01*
X118170592Y-38460068D01*
X118170590Y-38460067D01*
X118166565Y-38456218D01*
X117980210Y-38333206D01*
X117975088Y-38331017D01*
X117975083Y-38331014D01*
X117780008Y-38247635D01*
X117780001Y-38247632D01*
X117774885Y-38245446D01*
X117769461Y-38244208D01*
X117769455Y-38244206D01*
X117562619Y-38196997D01*
X117562615Y-38196996D01*
X117557189Y-38195758D01*
X117551623Y-38195508D01*
X117339681Y-38185989D01*
X117339672Y-38185989D01*
X117334120Y-38185740D01*
X117328616Y-38186485D01*
X117328605Y-38186486D01*
X117118366Y-38214966D01*
X117118361Y-38214966D01*
X117112847Y-38215714D01*
X117107555Y-38217433D01*
X117107548Y-38217435D01*
X116905778Y-38282994D01*
X116905775Y-38282994D01*
X116900482Y-38284715D01*
X116895582Y-38287351D01*
X116895579Y-38287353D01*
X116708746Y-38387891D01*
X116708734Y-38387898D01*
X116703850Y-38390527D01*
X116699509Y-38393988D01*
X116699501Y-38393994D01*
X116533622Y-38526279D01*
X116533615Y-38526284D01*
X116529272Y-38529749D01*
X116525618Y-38533930D01*
X116525612Y-38533937D01*
X116386020Y-38693713D01*
X116382358Y-38697905D01*
X116379507Y-38702676D01*
X116379501Y-38702685D01*
X116270687Y-38884811D01*
X116267831Y-38889592D01*
X116265876Y-38894800D01*
X116265874Y-38894805D01*
X116191328Y-39093431D01*
X116191326Y-39093437D01*
X116189371Y-39098647D01*
X116188377Y-39104119D01*
X116188375Y-39104130D01*
X116150495Y-39312867D01*
X116150494Y-39312873D01*
X116149500Y-39318353D01*
X116149500Y-41005710D01*
X97984945Y-41005710D01*
X100781605Y-38209050D01*
X100785970Y-38204894D01*
X101019180Y-37993520D01*
X101028554Y-37985827D01*
X101278860Y-37800185D01*
X101288966Y-37793431D01*
X101556277Y-37633207D01*
X101566979Y-37627487D01*
X101848698Y-37494241D01*
X101859919Y-37489593D01*
X102153337Y-37384604D01*
X102164969Y-37381075D01*
X102467249Y-37305354D01*
X102479167Y-37302982D01*
X102787429Y-37257253D01*
X102799532Y-37256061D01*
X103113178Y-37240649D01*
X103119265Y-37240500D01*
X142788481Y-37240500D01*
X142835934Y-37249939D01*
X142876162Y-37276819D01*
X146427059Y-40827716D01*
X146432193Y-40833170D01*
X146467093Y-40872565D01*
X146467097Y-40872568D01*
X146472071Y-40878183D01*
X146478247Y-40882446D01*
X146521574Y-40912353D01*
X146527605Y-40916791D01*
X146574944Y-40953878D01*
X146576161Y-40954425D01*
X146614895Y-40992594D01*
X146633232Y-41047179D01*
X146644002Y-41166846D01*
X146644003Y-41166852D01*
X146644502Y-41172395D01*
X146645984Y-41177767D01*
X146645985Y-41177769D01*
X146676011Y-41286568D01*
X146703906Y-41387642D01*
X146706317Y-41392650D01*
X146706320Y-41392656D01*
X146798372Y-41583803D01*
X146800790Y-41588823D01*
X146932039Y-41769472D01*
X146936058Y-41773315D01*
X146936062Y-41773319D01*
X147055266Y-41887289D01*
X147093435Y-41923782D01*
X147279790Y-42046794D01*
X147284915Y-42048984D01*
X147284916Y-42048985D01*
X147397264Y-42097005D01*
X147485115Y-42134554D01*
X147702811Y-42184242D01*
X147925880Y-42194260D01*
X148147153Y-42164286D01*
X148359518Y-42095285D01*
X148556150Y-41989473D01*
X148730728Y-41850251D01*
X148877642Y-41682095D01*
X148992169Y-41490408D01*
X149070629Y-41281353D01*
X149110500Y-41061647D01*
X149110500Y-39374290D01*
X149095498Y-39207605D01*
X149036094Y-38992358D01*
X148939210Y-38791177D01*
X148807961Y-38610528D01*
X148803940Y-38606684D01*
X148803937Y-38606680D01*
X148650592Y-38460068D01*
X148650590Y-38460067D01*
X148646565Y-38456218D01*
X148460210Y-38333206D01*
X148455088Y-38331017D01*
X148455083Y-38331014D01*
X148260008Y-38247635D01*
X148260001Y-38247632D01*
X148254885Y-38245446D01*
X148249461Y-38244208D01*
X148249455Y-38244206D01*
X148042619Y-38196997D01*
X148042615Y-38196996D01*
X148037189Y-38195758D01*
X148031623Y-38195508D01*
X147819681Y-38185989D01*
X147819672Y-38185989D01*
X147814120Y-38185740D01*
X147808616Y-38186485D01*
X147808605Y-38186486D01*
X147598366Y-38214966D01*
X147598361Y-38214966D01*
X147592847Y-38215714D01*
X147587555Y-38217433D01*
X147587548Y-38217435D01*
X147385778Y-38282994D01*
X147385775Y-38282994D01*
X147380482Y-38284715D01*
X147375582Y-38287351D01*
X147375579Y-38287353D01*
X147188746Y-38387891D01*
X147188734Y-38387898D01*
X147183850Y-38390527D01*
X147179509Y-38393988D01*
X147179501Y-38393994D01*
X147013622Y-38526279D01*
X147013615Y-38526284D01*
X147009272Y-38529749D01*
X147005618Y-38533930D01*
X147005612Y-38533937D01*
X146866020Y-38693713D01*
X146862358Y-38697905D01*
X146859507Y-38702676D01*
X146859501Y-38702685D01*
X146750687Y-38884811D01*
X146747831Y-38889592D01*
X146745874Y-38894803D01*
X146745871Y-38894812D01*
X146739724Y-38911189D01*
X146704689Y-38961454D01*
X146649865Y-38988808D01*
X146588636Y-38986573D01*
X146535952Y-38955295D01*
X143642939Y-36062282D01*
X143637822Y-36056847D01*
X143597929Y-36011817D01*
X143548410Y-35977636D01*
X143542404Y-35973216D01*
X143500961Y-35940747D01*
X143500958Y-35940745D01*
X143495057Y-35936122D01*
X143488219Y-35933044D01*
X143488210Y-35933039D01*
X143485810Y-35931959D01*
X143466268Y-35920937D01*
X143464107Y-35919445D01*
X143464102Y-35919442D01*
X143457930Y-35915182D01*
X143401702Y-35893857D01*
X143394784Y-35890991D01*
X143346772Y-35869383D01*
X143346769Y-35869382D01*
X143339932Y-35866305D01*
X143332560Y-35864954D01*
X143332551Y-35864951D01*
X143329952Y-35864475D01*
X143308340Y-35858450D01*
X143305891Y-35857521D01*
X143305885Y-35857519D01*
X143298872Y-35854860D01*
X143291430Y-35853956D01*
X143291425Y-35853955D01*
X143239171Y-35847610D01*
X143231771Y-35846483D01*
X143179987Y-35836994D01*
X143179982Y-35836993D01*
X143172606Y-35835642D01*
X143165126Y-35836094D01*
X143165118Y-35836094D01*
X143112567Y-35839274D01*
X143105079Y-35839500D01*
X103116964Y-35839500D01*
X103116846Y-35839484D01*
X103116846Y-35839468D01*
X103116721Y-35839468D01*
X102934607Y-35839469D01*
X102934582Y-35839469D01*
X102932162Y-35839470D01*
X102929742Y-35839660D01*
X102929728Y-35839661D01*
X102566366Y-35868262D01*
X102566351Y-35868263D01*
X102563934Y-35868454D01*
X102561535Y-35868833D01*
X102561518Y-35868836D01*
X102201524Y-35925858D01*
X102201513Y-35925860D01*
X102199115Y-35926240D01*
X102196764Y-35926804D01*
X102196751Y-35926807D01*
X101842304Y-36011906D01*
X101842285Y-36011911D01*
X101839954Y-36012471D01*
X101837658Y-36013216D01*
X101837651Y-36013219D01*
X101490976Y-36125864D01*
X101490966Y-36125867D01*
X101488666Y-36126615D01*
X101486447Y-36127534D01*
X101486423Y-36127543D01*
X101149660Y-36267039D01*
X101149640Y-36267047D01*
X101147417Y-36267969D01*
X101145259Y-36269068D01*
X101145245Y-36269075D01*
X100820485Y-36434552D01*
X100820469Y-36434560D01*
X100818310Y-36435661D01*
X100816248Y-36436924D01*
X100816233Y-36436933D01*
X100505447Y-36627387D01*
X100505435Y-36627394D01*
X100503374Y-36628658D01*
X100501420Y-36630076D01*
X100501397Y-36630093D01*
X100206531Y-36844330D01*
X100206512Y-36844344D01*
X100204552Y-36845769D01*
X100202718Y-36847335D01*
X100202702Y-36847348D01*
X99925531Y-37084080D01*
X99923685Y-37085657D01*
X99921978Y-37087363D01*
X99921965Y-37087376D01*
X99823062Y-37186281D01*
X93102680Y-43906662D01*
X93102663Y-43906679D01*
X93102283Y-43907060D01*
X93102172Y-43907200D01*
X93101924Y-43907463D01*
X93001680Y-44007706D01*
X93000106Y-44009548D01*
X93000104Y-44009551D01*
X92763378Y-44286717D01*
X92763362Y-44286737D01*
X92761795Y-44288572D01*
X92760368Y-44290535D01*
X92760357Y-44290550D01*
X92546120Y-44585415D01*
X92546103Y-44585439D01*
X92544685Y-44587392D01*
X92543421Y-44589453D01*
X92543414Y-44589465D01*
X92352961Y-44900248D01*
X92352952Y-44900263D01*
X92351689Y-44902325D01*
X92350588Y-44904484D01*
X92350580Y-44904500D01*
X92185104Y-45229258D01*
X92185097Y-45229272D01*
X92183998Y-45231430D01*
X92183076Y-45233653D01*
X92183068Y-45233673D01*
X92043573Y-45570434D01*
X92043564Y-45570458D01*
X92042645Y-45572677D01*
X92041897Y-45574977D01*
X92041894Y-45574987D01*
X91946594Y-45868282D01*
X91928502Y-45923963D01*
X91927942Y-45926294D01*
X91927937Y-45926313D01*
X91842838Y-46280757D01*
X91842835Y-46280771D01*
X91842271Y-46283121D01*
X91841891Y-46285519D01*
X91841889Y-46285530D01*
X91784868Y-46645522D01*
X91784865Y-46645539D01*
X91784486Y-46647938D01*
X91784295Y-46650355D01*
X91784294Y-46650370D01*
X91755693Y-47013731D01*
X91755692Y-47013743D01*
X91755502Y-47016164D01*
X91755501Y-47018583D01*
X91755501Y-47018608D01*
X91755500Y-47158478D01*
X91755500Y-84041079D01*
X91755274Y-84048567D01*
X91752094Y-84101118D01*
X91752094Y-84101126D01*
X91751642Y-84108606D01*
X88138500Y-84108606D01*
X88138500Y-30128883D01*
X88155113Y-30066883D01*
X88200500Y-30021496D01*
X88262500Y-30004883D01*
X166034304Y-30004883D01*
X166096304Y-30021496D01*
G37*
G04 #@! TD.AperFunction*
D30*
X88138000Y-30004383D02*
X166158804Y-30004383D01*
X166158804Y-30004383D02*
X166158804Y-129944383D01*
X166158804Y-129944383D02*
X88138000Y-129944383D01*
X88138000Y-129944383D02*
X88138000Y-30004383D01*
M02*
