G04 #@! TF.GenerationSoftware,KiCad,Pcbnew,(7.0.0-0)*
G04 #@! TF.CreationDate,2023-05-10T16:18:41+02:00*
G04 #@! TF.ProjectId,Filter-forest-v3,46696c74-6572-42d6-966f-726573742d76,rev?*
G04 #@! TF.SameCoordinates,Original*
G04 #@! TF.FileFunction,Legend,Bot*
G04 #@! TF.FilePolarity,Positive*
%FSLAX46Y46*%
G04 Gerber Fmt 4.6, Leading zero omitted, Abs format (unit mm)*
G04 Created by KiCad (PCBNEW (7.0.0-0)) date 2023-05-10 16:18:41*
%MOMM*%
%LPD*%
G01*
G04 APERTURE LIST*
G04 Aperture macros list*
%AMRoundRect*
0 Rectangle with rounded corners*
0 $1 Rounding radius*
0 $2 $3 $4 $5 $6 $7 $8 $9 X,Y pos of 4 corners*
0 Add a 4 corners polygon primitive as box body*
4,1,4,$2,$3,$4,$5,$6,$7,$8,$9,$2,$3,0*
0 Add four circle primitives for the rounded corners*
1,1,$1+$1,$2,$3*
1,1,$1+$1,$4,$5*
1,1,$1+$1,$6,$7*
1,1,$1+$1,$8,$9*
0 Add four rect primitives between the rounded corners*
20,1,$1+$1,$2,$3,$4,$5,0*
20,1,$1+$1,$4,$5,$6,$7,0*
20,1,$1+$1,$6,$7,$8,$9,0*
20,1,$1+$1,$8,$9,$2,$3,0*%
G04 Aperture macros list end*
%ADD10C,0.150000*%
%ADD11C,0.120000*%
%ADD12C,2.000000*%
%ADD13C,1.500000*%
%ADD14C,0.200000*%
%ADD15R,2.600000X2.600000*%
%ADD16O,2.600000X2.600000*%
%ADD17C,0.610000*%
%ADD18C,2.500000*%
%ADD19C,3.500000*%
%ADD20C,5.600000*%
%ADD21R,4.200000X1.350000*%
%ADD22RoundRect,0.249999X0.790001X1.550001X-0.790001X1.550001X-0.790001X-1.550001X0.790001X-1.550001X0*%
%ADD23O,2.080000X3.600000*%
%ADD24C,2.610000*%
%ADD25O,1.800000X1.000000*%
G04 #@! TA.AperFunction,Profile*
%ADD26C,0.100000*%
G04 #@! TD*
G04 APERTURE END LIST*
D10*
X120290476Y-99912380D02*
X120623809Y-99436190D01*
X120861904Y-99912380D02*
X120861904Y-98912380D01*
X120861904Y-98912380D02*
X120480952Y-98912380D01*
X120480952Y-98912380D02*
X120385714Y-98960000D01*
X120385714Y-98960000D02*
X120338095Y-99007619D01*
X120338095Y-99007619D02*
X120290476Y-99102857D01*
X120290476Y-99102857D02*
X120290476Y-99245714D01*
X120290476Y-99245714D02*
X120338095Y-99340952D01*
X120338095Y-99340952D02*
X120385714Y-99388571D01*
X120385714Y-99388571D02*
X120480952Y-99436190D01*
X120480952Y-99436190D02*
X120861904Y-99436190D01*
X119528571Y-99388571D02*
X119861904Y-99388571D01*
X119861904Y-99912380D02*
X119861904Y-98912380D01*
X119861904Y-98912380D02*
X119385714Y-98912380D01*
X118214285Y-98912380D02*
X118023809Y-98912380D01*
X118023809Y-98912380D02*
X117928571Y-98960000D01*
X117928571Y-98960000D02*
X117833333Y-99055238D01*
X117833333Y-99055238D02*
X117785714Y-99245714D01*
X117785714Y-99245714D02*
X117785714Y-99579047D01*
X117785714Y-99579047D02*
X117833333Y-99769523D01*
X117833333Y-99769523D02*
X117928571Y-99864761D01*
X117928571Y-99864761D02*
X118023809Y-99912380D01*
X118023809Y-99912380D02*
X118214285Y-99912380D01*
X118214285Y-99912380D02*
X118309523Y-99864761D01*
X118309523Y-99864761D02*
X118404761Y-99769523D01*
X118404761Y-99769523D02*
X118452380Y-99579047D01*
X118452380Y-99579047D02*
X118452380Y-99245714D01*
X118452380Y-99245714D02*
X118404761Y-99055238D01*
X118404761Y-99055238D02*
X118309523Y-98960000D01*
X118309523Y-98960000D02*
X118214285Y-98912380D01*
X117357142Y-98912380D02*
X117357142Y-99721904D01*
X117357142Y-99721904D02*
X117309523Y-99817142D01*
X117309523Y-99817142D02*
X117261904Y-99864761D01*
X117261904Y-99864761D02*
X117166666Y-99912380D01*
X117166666Y-99912380D02*
X116976190Y-99912380D01*
X116976190Y-99912380D02*
X116880952Y-99864761D01*
X116880952Y-99864761D02*
X116833333Y-99817142D01*
X116833333Y-99817142D02*
X116785714Y-99721904D01*
X116785714Y-99721904D02*
X116785714Y-98912380D01*
X116452380Y-98912380D02*
X115880952Y-98912380D01*
X116166666Y-99912380D02*
X116166666Y-98912380D01*
X114423809Y-99912380D02*
X114995237Y-99912380D01*
X114709523Y-99912380D02*
X114709523Y-98912380D01*
X114709523Y-98912380D02*
X114804761Y-99055238D01*
X114804761Y-99055238D02*
X114899999Y-99150476D01*
X114899999Y-99150476D02*
X114995237Y-99198095D01*
X114042856Y-99007619D02*
X113995237Y-98960000D01*
X113995237Y-98960000D02*
X113899999Y-98912380D01*
X113899999Y-98912380D02*
X113661904Y-98912380D01*
X113661904Y-98912380D02*
X113566666Y-98960000D01*
X113566666Y-98960000D02*
X113519047Y-99007619D01*
X113519047Y-99007619D02*
X113471428Y-99102857D01*
X113471428Y-99102857D02*
X113471428Y-99198095D01*
X113471428Y-99198095D02*
X113519047Y-99340952D01*
X113519047Y-99340952D02*
X114090475Y-99912380D01*
X114090475Y-99912380D02*
X113471428Y-99912380D01*
X112995237Y-99912380D02*
X112804761Y-99912380D01*
X112804761Y-99912380D02*
X112709523Y-99864761D01*
X112709523Y-99864761D02*
X112661904Y-99817142D01*
X112661904Y-99817142D02*
X112566666Y-99674285D01*
X112566666Y-99674285D02*
X112519047Y-99483809D01*
X112519047Y-99483809D02*
X112519047Y-99102857D01*
X112519047Y-99102857D02*
X112566666Y-99007619D01*
X112566666Y-99007619D02*
X112614285Y-98960000D01*
X112614285Y-98960000D02*
X112709523Y-98912380D01*
X112709523Y-98912380D02*
X112899999Y-98912380D01*
X112899999Y-98912380D02*
X112995237Y-98960000D01*
X112995237Y-98960000D02*
X113042856Y-99007619D01*
X113042856Y-99007619D02*
X113090475Y-99102857D01*
X113090475Y-99102857D02*
X113090475Y-99340952D01*
X113090475Y-99340952D02*
X113042856Y-99436190D01*
X113042856Y-99436190D02*
X112995237Y-99483809D01*
X112995237Y-99483809D02*
X112899999Y-99531428D01*
X112899999Y-99531428D02*
X112709523Y-99531428D01*
X112709523Y-99531428D02*
X112614285Y-99483809D01*
X112614285Y-99483809D02*
X112566666Y-99436190D01*
X112566666Y-99436190D02*
X112519047Y-99340952D01*
X111661904Y-98912380D02*
X111852380Y-98912380D01*
X111852380Y-98912380D02*
X111947618Y-98960000D01*
X111947618Y-98960000D02*
X111995237Y-99007619D01*
X111995237Y-99007619D02*
X112090475Y-99150476D01*
X112090475Y-99150476D02*
X112138094Y-99340952D01*
X112138094Y-99340952D02*
X112138094Y-99721904D01*
X112138094Y-99721904D02*
X112090475Y-99817142D01*
X112090475Y-99817142D02*
X112042856Y-99864761D01*
X112042856Y-99864761D02*
X111947618Y-99912380D01*
X111947618Y-99912380D02*
X111757142Y-99912380D01*
X111757142Y-99912380D02*
X111661904Y-99864761D01*
X111661904Y-99864761D02*
X111614285Y-99817142D01*
X111614285Y-99817142D02*
X111566666Y-99721904D01*
X111566666Y-99721904D02*
X111566666Y-99483809D01*
X111566666Y-99483809D02*
X111614285Y-99388571D01*
X111614285Y-99388571D02*
X111661904Y-99340952D01*
X111661904Y-99340952D02*
X111757142Y-99293333D01*
X111757142Y-99293333D02*
X111947618Y-99293333D01*
X111947618Y-99293333D02*
X112042856Y-99340952D01*
X112042856Y-99340952D02*
X112090475Y-99388571D01*
X112090475Y-99388571D02*
X112138094Y-99483809D01*
X110538094Y-99912380D02*
X110538094Y-98912380D01*
X110538094Y-98912380D02*
X110204761Y-99626666D01*
X110204761Y-99626666D02*
X109871428Y-98912380D01*
X109871428Y-98912380D02*
X109871428Y-99912380D01*
X109395237Y-99912380D02*
X109395237Y-98912380D01*
X109395237Y-99388571D02*
X108823809Y-99388571D01*
X108823809Y-99912380D02*
X108823809Y-98912380D01*
X108442856Y-99245714D02*
X107919047Y-99245714D01*
X107919047Y-99245714D02*
X108442856Y-99912380D01*
X108442856Y-99912380D02*
X107919047Y-99912380D01*
X123629523Y-44504761D02*
X123486666Y-44552380D01*
X123486666Y-44552380D02*
X123248571Y-44552380D01*
X123248571Y-44552380D02*
X123153333Y-44504761D01*
X123153333Y-44504761D02*
X123105714Y-44457142D01*
X123105714Y-44457142D02*
X123058095Y-44361904D01*
X123058095Y-44361904D02*
X123058095Y-44266666D01*
X123058095Y-44266666D02*
X123105714Y-44171428D01*
X123105714Y-44171428D02*
X123153333Y-44123809D01*
X123153333Y-44123809D02*
X123248571Y-44076190D01*
X123248571Y-44076190D02*
X123439047Y-44028571D01*
X123439047Y-44028571D02*
X123534285Y-43980952D01*
X123534285Y-43980952D02*
X123581904Y-43933333D01*
X123581904Y-43933333D02*
X123629523Y-43838095D01*
X123629523Y-43838095D02*
X123629523Y-43742857D01*
X123629523Y-43742857D02*
X123581904Y-43647619D01*
X123581904Y-43647619D02*
X123534285Y-43600000D01*
X123534285Y-43600000D02*
X123439047Y-43552380D01*
X123439047Y-43552380D02*
X123200952Y-43552380D01*
X123200952Y-43552380D02*
X123058095Y-43600000D01*
X122058095Y-44457142D02*
X122105714Y-44504761D01*
X122105714Y-44504761D02*
X122248571Y-44552380D01*
X122248571Y-44552380D02*
X122343809Y-44552380D01*
X122343809Y-44552380D02*
X122486666Y-44504761D01*
X122486666Y-44504761D02*
X122581904Y-44409523D01*
X122581904Y-44409523D02*
X122629523Y-44314285D01*
X122629523Y-44314285D02*
X122677142Y-44123809D01*
X122677142Y-44123809D02*
X122677142Y-43980952D01*
X122677142Y-43980952D02*
X122629523Y-43790476D01*
X122629523Y-43790476D02*
X122581904Y-43695238D01*
X122581904Y-43695238D02*
X122486666Y-43600000D01*
X122486666Y-43600000D02*
X122343809Y-43552380D01*
X122343809Y-43552380D02*
X122248571Y-43552380D01*
X122248571Y-43552380D02*
X122105714Y-43600000D01*
X122105714Y-43600000D02*
X122058095Y-43647619D01*
X121153333Y-44552380D02*
X121629523Y-44552380D01*
X121629523Y-44552380D02*
X121629523Y-43552380D01*
X148280476Y-108072380D02*
X148613809Y-107596190D01*
X148851904Y-108072380D02*
X148851904Y-107072380D01*
X148851904Y-107072380D02*
X148470952Y-107072380D01*
X148470952Y-107072380D02*
X148375714Y-107120000D01*
X148375714Y-107120000D02*
X148328095Y-107167619D01*
X148328095Y-107167619D02*
X148280476Y-107262857D01*
X148280476Y-107262857D02*
X148280476Y-107405714D01*
X148280476Y-107405714D02*
X148328095Y-107500952D01*
X148328095Y-107500952D02*
X148375714Y-107548571D01*
X148375714Y-107548571D02*
X148470952Y-107596190D01*
X148470952Y-107596190D02*
X148851904Y-107596190D01*
X147518571Y-107548571D02*
X147851904Y-107548571D01*
X147851904Y-108072380D02*
X147851904Y-107072380D01*
X147851904Y-107072380D02*
X147375714Y-107072380D01*
X146204285Y-107072380D02*
X146013809Y-107072380D01*
X146013809Y-107072380D02*
X145918571Y-107120000D01*
X145918571Y-107120000D02*
X145823333Y-107215238D01*
X145823333Y-107215238D02*
X145775714Y-107405714D01*
X145775714Y-107405714D02*
X145775714Y-107739047D01*
X145775714Y-107739047D02*
X145823333Y-107929523D01*
X145823333Y-107929523D02*
X145918571Y-108024761D01*
X145918571Y-108024761D02*
X146013809Y-108072380D01*
X146013809Y-108072380D02*
X146204285Y-108072380D01*
X146204285Y-108072380D02*
X146299523Y-108024761D01*
X146299523Y-108024761D02*
X146394761Y-107929523D01*
X146394761Y-107929523D02*
X146442380Y-107739047D01*
X146442380Y-107739047D02*
X146442380Y-107405714D01*
X146442380Y-107405714D02*
X146394761Y-107215238D01*
X146394761Y-107215238D02*
X146299523Y-107120000D01*
X146299523Y-107120000D02*
X146204285Y-107072380D01*
X145347142Y-107072380D02*
X145347142Y-107881904D01*
X145347142Y-107881904D02*
X145299523Y-107977142D01*
X145299523Y-107977142D02*
X145251904Y-108024761D01*
X145251904Y-108024761D02*
X145156666Y-108072380D01*
X145156666Y-108072380D02*
X144966190Y-108072380D01*
X144966190Y-108072380D02*
X144870952Y-108024761D01*
X144870952Y-108024761D02*
X144823333Y-107977142D01*
X144823333Y-107977142D02*
X144775714Y-107881904D01*
X144775714Y-107881904D02*
X144775714Y-107072380D01*
X144442380Y-107072380D02*
X143870952Y-107072380D01*
X144156666Y-108072380D02*
X144156666Y-107072380D01*
X142509047Y-107405714D02*
X142509047Y-108072380D01*
X142747142Y-107024761D02*
X142985237Y-107739047D01*
X142985237Y-107739047D02*
X142366190Y-107739047D01*
X142080475Y-107072380D02*
X141461428Y-107072380D01*
X141461428Y-107072380D02*
X141794761Y-107453333D01*
X141794761Y-107453333D02*
X141651904Y-107453333D01*
X141651904Y-107453333D02*
X141556666Y-107500952D01*
X141556666Y-107500952D02*
X141509047Y-107548571D01*
X141509047Y-107548571D02*
X141461428Y-107643809D01*
X141461428Y-107643809D02*
X141461428Y-107881904D01*
X141461428Y-107881904D02*
X141509047Y-107977142D01*
X141509047Y-107977142D02*
X141556666Y-108024761D01*
X141556666Y-108024761D02*
X141651904Y-108072380D01*
X141651904Y-108072380D02*
X141937618Y-108072380D01*
X141937618Y-108072380D02*
X142032856Y-108024761D01*
X142032856Y-108024761D02*
X142080475Y-107977142D01*
X141080475Y-107167619D02*
X141032856Y-107120000D01*
X141032856Y-107120000D02*
X140937618Y-107072380D01*
X140937618Y-107072380D02*
X140699523Y-107072380D01*
X140699523Y-107072380D02*
X140604285Y-107120000D01*
X140604285Y-107120000D02*
X140556666Y-107167619D01*
X140556666Y-107167619D02*
X140509047Y-107262857D01*
X140509047Y-107262857D02*
X140509047Y-107358095D01*
X140509047Y-107358095D02*
X140556666Y-107500952D01*
X140556666Y-107500952D02*
X141128094Y-108072380D01*
X141128094Y-108072380D02*
X140509047Y-108072380D01*
X139480475Y-108072380D02*
X139480475Y-107072380D01*
X139480475Y-107072380D02*
X139147142Y-107786666D01*
X139147142Y-107786666D02*
X138813809Y-107072380D01*
X138813809Y-107072380D02*
X138813809Y-108072380D01*
X138337618Y-108072380D02*
X138337618Y-107072380D01*
X138337618Y-107548571D02*
X137766190Y-107548571D01*
X137766190Y-108072380D02*
X137766190Y-107072380D01*
X137385237Y-107405714D02*
X136861428Y-107405714D01*
X136861428Y-107405714D02*
X137385237Y-108072380D01*
X137385237Y-108072380D02*
X136861428Y-108072380D01*
X134150476Y-108112380D02*
X134483809Y-107636190D01*
X134721904Y-108112380D02*
X134721904Y-107112380D01*
X134721904Y-107112380D02*
X134340952Y-107112380D01*
X134340952Y-107112380D02*
X134245714Y-107160000D01*
X134245714Y-107160000D02*
X134198095Y-107207619D01*
X134198095Y-107207619D02*
X134150476Y-107302857D01*
X134150476Y-107302857D02*
X134150476Y-107445714D01*
X134150476Y-107445714D02*
X134198095Y-107540952D01*
X134198095Y-107540952D02*
X134245714Y-107588571D01*
X134245714Y-107588571D02*
X134340952Y-107636190D01*
X134340952Y-107636190D02*
X134721904Y-107636190D01*
X133388571Y-107588571D02*
X133721904Y-107588571D01*
X133721904Y-108112380D02*
X133721904Y-107112380D01*
X133721904Y-107112380D02*
X133245714Y-107112380D01*
X132074285Y-107112380D02*
X131883809Y-107112380D01*
X131883809Y-107112380D02*
X131788571Y-107160000D01*
X131788571Y-107160000D02*
X131693333Y-107255238D01*
X131693333Y-107255238D02*
X131645714Y-107445714D01*
X131645714Y-107445714D02*
X131645714Y-107779047D01*
X131645714Y-107779047D02*
X131693333Y-107969523D01*
X131693333Y-107969523D02*
X131788571Y-108064761D01*
X131788571Y-108064761D02*
X131883809Y-108112380D01*
X131883809Y-108112380D02*
X132074285Y-108112380D01*
X132074285Y-108112380D02*
X132169523Y-108064761D01*
X132169523Y-108064761D02*
X132264761Y-107969523D01*
X132264761Y-107969523D02*
X132312380Y-107779047D01*
X132312380Y-107779047D02*
X132312380Y-107445714D01*
X132312380Y-107445714D02*
X132264761Y-107255238D01*
X132264761Y-107255238D02*
X132169523Y-107160000D01*
X132169523Y-107160000D02*
X132074285Y-107112380D01*
X131217142Y-107112380D02*
X131217142Y-107921904D01*
X131217142Y-107921904D02*
X131169523Y-108017142D01*
X131169523Y-108017142D02*
X131121904Y-108064761D01*
X131121904Y-108064761D02*
X131026666Y-108112380D01*
X131026666Y-108112380D02*
X130836190Y-108112380D01*
X130836190Y-108112380D02*
X130740952Y-108064761D01*
X130740952Y-108064761D02*
X130693333Y-108017142D01*
X130693333Y-108017142D02*
X130645714Y-107921904D01*
X130645714Y-107921904D02*
X130645714Y-107112380D01*
X130312380Y-107112380D02*
X129740952Y-107112380D01*
X130026666Y-108112380D02*
X130026666Y-107112380D01*
X128283809Y-108112380D02*
X128855237Y-108112380D01*
X128569523Y-108112380D02*
X128569523Y-107112380D01*
X128569523Y-107112380D02*
X128664761Y-107255238D01*
X128664761Y-107255238D02*
X128759999Y-107350476D01*
X128759999Y-107350476D02*
X128855237Y-107398095D01*
X127426666Y-107445714D02*
X127426666Y-108112380D01*
X127664761Y-107064761D02*
X127902856Y-107779047D01*
X127902856Y-107779047D02*
X127283809Y-107779047D01*
X126474285Y-107445714D02*
X126474285Y-108112380D01*
X126712380Y-107064761D02*
X126950475Y-107779047D01*
X126950475Y-107779047D02*
X126331428Y-107779047D01*
X125350475Y-108112380D02*
X125350475Y-107112380D01*
X125350475Y-107112380D02*
X125017142Y-107826666D01*
X125017142Y-107826666D02*
X124683809Y-107112380D01*
X124683809Y-107112380D02*
X124683809Y-108112380D01*
X124207618Y-108112380D02*
X124207618Y-107112380D01*
X124207618Y-107588571D02*
X123636190Y-107588571D01*
X123636190Y-108112380D02*
X123636190Y-107112380D01*
X123255237Y-107445714D02*
X122731428Y-107445714D01*
X122731428Y-107445714D02*
X123255237Y-108112380D01*
X123255237Y-108112380D02*
X122731428Y-108112380D01*
X128794761Y-43552380D02*
X128461428Y-44552380D01*
X128461428Y-44552380D02*
X128128095Y-43552380D01*
X127223333Y-44457142D02*
X127270952Y-44504761D01*
X127270952Y-44504761D02*
X127413809Y-44552380D01*
X127413809Y-44552380D02*
X127509047Y-44552380D01*
X127509047Y-44552380D02*
X127651904Y-44504761D01*
X127651904Y-44504761D02*
X127747142Y-44409523D01*
X127747142Y-44409523D02*
X127794761Y-44314285D01*
X127794761Y-44314285D02*
X127842380Y-44123809D01*
X127842380Y-44123809D02*
X127842380Y-43980952D01*
X127842380Y-43980952D02*
X127794761Y-43790476D01*
X127794761Y-43790476D02*
X127747142Y-43695238D01*
X127747142Y-43695238D02*
X127651904Y-43600000D01*
X127651904Y-43600000D02*
X127509047Y-43552380D01*
X127509047Y-43552380D02*
X127413809Y-43552380D01*
X127413809Y-43552380D02*
X127270952Y-43600000D01*
X127270952Y-43600000D02*
X127223333Y-43647619D01*
X126270952Y-44552380D02*
X126842380Y-44552380D01*
X126556666Y-44552380D02*
X126556666Y-43552380D01*
X126556666Y-43552380D02*
X126651904Y-43695238D01*
X126651904Y-43695238D02*
X126747142Y-43790476D01*
X126747142Y-43790476D02*
X126842380Y-43838095D01*
X143510476Y-125032380D02*
X143843809Y-124556190D01*
X144081904Y-125032380D02*
X144081904Y-124032380D01*
X144081904Y-124032380D02*
X143700952Y-124032380D01*
X143700952Y-124032380D02*
X143605714Y-124080000D01*
X143605714Y-124080000D02*
X143558095Y-124127619D01*
X143558095Y-124127619D02*
X143510476Y-124222857D01*
X143510476Y-124222857D02*
X143510476Y-124365714D01*
X143510476Y-124365714D02*
X143558095Y-124460952D01*
X143558095Y-124460952D02*
X143605714Y-124508571D01*
X143605714Y-124508571D02*
X143700952Y-124556190D01*
X143700952Y-124556190D02*
X144081904Y-124556190D01*
X142748571Y-124508571D02*
X143081904Y-124508571D01*
X143081904Y-125032380D02*
X143081904Y-124032380D01*
X143081904Y-124032380D02*
X142605714Y-124032380D01*
X141434285Y-124032380D02*
X141243809Y-124032380D01*
X141243809Y-124032380D02*
X141148571Y-124080000D01*
X141148571Y-124080000D02*
X141053333Y-124175238D01*
X141053333Y-124175238D02*
X141005714Y-124365714D01*
X141005714Y-124365714D02*
X141005714Y-124699047D01*
X141005714Y-124699047D02*
X141053333Y-124889523D01*
X141053333Y-124889523D02*
X141148571Y-124984761D01*
X141148571Y-124984761D02*
X141243809Y-125032380D01*
X141243809Y-125032380D02*
X141434285Y-125032380D01*
X141434285Y-125032380D02*
X141529523Y-124984761D01*
X141529523Y-124984761D02*
X141624761Y-124889523D01*
X141624761Y-124889523D02*
X141672380Y-124699047D01*
X141672380Y-124699047D02*
X141672380Y-124365714D01*
X141672380Y-124365714D02*
X141624761Y-124175238D01*
X141624761Y-124175238D02*
X141529523Y-124080000D01*
X141529523Y-124080000D02*
X141434285Y-124032380D01*
X140577142Y-124032380D02*
X140577142Y-124841904D01*
X140577142Y-124841904D02*
X140529523Y-124937142D01*
X140529523Y-124937142D02*
X140481904Y-124984761D01*
X140481904Y-124984761D02*
X140386666Y-125032380D01*
X140386666Y-125032380D02*
X140196190Y-125032380D01*
X140196190Y-125032380D02*
X140100952Y-124984761D01*
X140100952Y-124984761D02*
X140053333Y-124937142D01*
X140053333Y-124937142D02*
X140005714Y-124841904D01*
X140005714Y-124841904D02*
X140005714Y-124032380D01*
X139672380Y-124032380D02*
X139100952Y-124032380D01*
X139386666Y-125032380D02*
X139386666Y-124032380D01*
X137691428Y-124032380D02*
X138167618Y-124032380D01*
X138167618Y-124032380D02*
X138215237Y-124508571D01*
X138215237Y-124508571D02*
X138167618Y-124460952D01*
X138167618Y-124460952D02*
X138072380Y-124413333D01*
X138072380Y-124413333D02*
X137834285Y-124413333D01*
X137834285Y-124413333D02*
X137739047Y-124460952D01*
X137739047Y-124460952D02*
X137691428Y-124508571D01*
X137691428Y-124508571D02*
X137643809Y-124603809D01*
X137643809Y-124603809D02*
X137643809Y-124841904D01*
X137643809Y-124841904D02*
X137691428Y-124937142D01*
X137691428Y-124937142D02*
X137739047Y-124984761D01*
X137739047Y-124984761D02*
X137834285Y-125032380D01*
X137834285Y-125032380D02*
X138072380Y-125032380D01*
X138072380Y-125032380D02*
X138167618Y-124984761D01*
X138167618Y-124984761D02*
X138215237Y-124937142D01*
X137024761Y-124032380D02*
X136929523Y-124032380D01*
X136929523Y-124032380D02*
X136834285Y-124080000D01*
X136834285Y-124080000D02*
X136786666Y-124127619D01*
X136786666Y-124127619D02*
X136739047Y-124222857D01*
X136739047Y-124222857D02*
X136691428Y-124413333D01*
X136691428Y-124413333D02*
X136691428Y-124651428D01*
X136691428Y-124651428D02*
X136739047Y-124841904D01*
X136739047Y-124841904D02*
X136786666Y-124937142D01*
X136786666Y-124937142D02*
X136834285Y-124984761D01*
X136834285Y-124984761D02*
X136929523Y-125032380D01*
X136929523Y-125032380D02*
X137024761Y-125032380D01*
X137024761Y-125032380D02*
X137119999Y-124984761D01*
X137119999Y-124984761D02*
X137167618Y-124937142D01*
X137167618Y-124937142D02*
X137215237Y-124841904D01*
X137215237Y-124841904D02*
X137262856Y-124651428D01*
X137262856Y-124651428D02*
X137262856Y-124413333D01*
X137262856Y-124413333D02*
X137215237Y-124222857D01*
X137215237Y-124222857D02*
X137167618Y-124127619D01*
X137167618Y-124127619D02*
X137119999Y-124080000D01*
X137119999Y-124080000D02*
X137024761Y-124032380D01*
X136262856Y-125032380D02*
X136262856Y-124032380D01*
X136262856Y-124032380D02*
X135929523Y-124746666D01*
X135929523Y-124746666D02*
X135596190Y-124032380D01*
X135596190Y-124032380D02*
X135596190Y-125032380D01*
X135119999Y-125032380D02*
X135119999Y-124032380D01*
X135119999Y-124508571D02*
X134548571Y-124508571D01*
X134548571Y-125032380D02*
X134548571Y-124032380D01*
X134167618Y-124365714D02*
X133643809Y-124365714D01*
X133643809Y-124365714D02*
X134167618Y-125032380D01*
X134167618Y-125032380D02*
X133643809Y-125032380D01*
X133934761Y-43482380D02*
X133601428Y-44482380D01*
X133601428Y-44482380D02*
X133268095Y-43482380D01*
X132363333Y-44387142D02*
X132410952Y-44434761D01*
X132410952Y-44434761D02*
X132553809Y-44482380D01*
X132553809Y-44482380D02*
X132649047Y-44482380D01*
X132649047Y-44482380D02*
X132791904Y-44434761D01*
X132791904Y-44434761D02*
X132887142Y-44339523D01*
X132887142Y-44339523D02*
X132934761Y-44244285D01*
X132934761Y-44244285D02*
X132982380Y-44053809D01*
X132982380Y-44053809D02*
X132982380Y-43910952D01*
X132982380Y-43910952D02*
X132934761Y-43720476D01*
X132934761Y-43720476D02*
X132887142Y-43625238D01*
X132887142Y-43625238D02*
X132791904Y-43530000D01*
X132791904Y-43530000D02*
X132649047Y-43482380D01*
X132649047Y-43482380D02*
X132553809Y-43482380D01*
X132553809Y-43482380D02*
X132410952Y-43530000D01*
X132410952Y-43530000D02*
X132363333Y-43577619D01*
X131982380Y-43577619D02*
X131934761Y-43530000D01*
X131934761Y-43530000D02*
X131839523Y-43482380D01*
X131839523Y-43482380D02*
X131601428Y-43482380D01*
X131601428Y-43482380D02*
X131506190Y-43530000D01*
X131506190Y-43530000D02*
X131458571Y-43577619D01*
X131458571Y-43577619D02*
X131410952Y-43672857D01*
X131410952Y-43672857D02*
X131410952Y-43768095D01*
X131410952Y-43768095D02*
X131458571Y-43910952D01*
X131458571Y-43910952D02*
X132029999Y-44482380D01*
X132029999Y-44482380D02*
X131410952Y-44482380D01*
X118679523Y-44634761D02*
X118536666Y-44682380D01*
X118536666Y-44682380D02*
X118298571Y-44682380D01*
X118298571Y-44682380D02*
X118203333Y-44634761D01*
X118203333Y-44634761D02*
X118155714Y-44587142D01*
X118155714Y-44587142D02*
X118108095Y-44491904D01*
X118108095Y-44491904D02*
X118108095Y-44396666D01*
X118108095Y-44396666D02*
X118155714Y-44301428D01*
X118155714Y-44301428D02*
X118203333Y-44253809D01*
X118203333Y-44253809D02*
X118298571Y-44206190D01*
X118298571Y-44206190D02*
X118489047Y-44158571D01*
X118489047Y-44158571D02*
X118584285Y-44110952D01*
X118584285Y-44110952D02*
X118631904Y-44063333D01*
X118631904Y-44063333D02*
X118679523Y-43968095D01*
X118679523Y-43968095D02*
X118679523Y-43872857D01*
X118679523Y-43872857D02*
X118631904Y-43777619D01*
X118631904Y-43777619D02*
X118584285Y-43730000D01*
X118584285Y-43730000D02*
X118489047Y-43682380D01*
X118489047Y-43682380D02*
X118250952Y-43682380D01*
X118250952Y-43682380D02*
X118108095Y-43730000D01*
X117679523Y-44682380D02*
X117679523Y-43682380D01*
X117679523Y-43682380D02*
X117441428Y-43682380D01*
X117441428Y-43682380D02*
X117298571Y-43730000D01*
X117298571Y-43730000D02*
X117203333Y-43825238D01*
X117203333Y-43825238D02*
X117155714Y-43920476D01*
X117155714Y-43920476D02*
X117108095Y-44110952D01*
X117108095Y-44110952D02*
X117108095Y-44253809D01*
X117108095Y-44253809D02*
X117155714Y-44444285D01*
X117155714Y-44444285D02*
X117203333Y-44539523D01*
X117203333Y-44539523D02*
X117298571Y-44634761D01*
X117298571Y-44634761D02*
X117441428Y-44682380D01*
X117441428Y-44682380D02*
X117679523Y-44682380D01*
X116727142Y-44396666D02*
X116250952Y-44396666D01*
X116822380Y-44682380D02*
X116489047Y-43682380D01*
X116489047Y-43682380D02*
X116155714Y-44682380D01*
X151957142Y-71499523D02*
X152004761Y-71451904D01*
X152004761Y-71451904D02*
X152052380Y-71309047D01*
X152052380Y-71309047D02*
X152052380Y-71213809D01*
X152052380Y-71213809D02*
X152004761Y-71070952D01*
X152004761Y-71070952D02*
X151909523Y-70975714D01*
X151909523Y-70975714D02*
X151814285Y-70928095D01*
X151814285Y-70928095D02*
X151623809Y-70880476D01*
X151623809Y-70880476D02*
X151480952Y-70880476D01*
X151480952Y-70880476D02*
X151290476Y-70928095D01*
X151290476Y-70928095D02*
X151195238Y-70975714D01*
X151195238Y-70975714D02*
X151100000Y-71070952D01*
X151100000Y-71070952D02*
X151052380Y-71213809D01*
X151052380Y-71213809D02*
X151052380Y-71309047D01*
X151052380Y-71309047D02*
X151100000Y-71451904D01*
X151100000Y-71451904D02*
X151147619Y-71499523D01*
X151052380Y-72118571D02*
X151052380Y-72309047D01*
X151052380Y-72309047D02*
X151100000Y-72404285D01*
X151100000Y-72404285D02*
X151195238Y-72499523D01*
X151195238Y-72499523D02*
X151385714Y-72547142D01*
X151385714Y-72547142D02*
X151719047Y-72547142D01*
X151719047Y-72547142D02*
X151909523Y-72499523D01*
X151909523Y-72499523D02*
X152004761Y-72404285D01*
X152004761Y-72404285D02*
X152052380Y-72309047D01*
X152052380Y-72309047D02*
X152052380Y-72118571D01*
X152052380Y-72118571D02*
X152004761Y-72023333D01*
X152004761Y-72023333D02*
X151909523Y-71928095D01*
X151909523Y-71928095D02*
X151719047Y-71880476D01*
X151719047Y-71880476D02*
X151385714Y-71880476D01*
X151385714Y-71880476D02*
X151195238Y-71928095D01*
X151195238Y-71928095D02*
X151100000Y-72023333D01*
X151100000Y-72023333D02*
X151052380Y-72118571D01*
X151052380Y-73166190D02*
X151052380Y-73356666D01*
X151052380Y-73356666D02*
X151100000Y-73451904D01*
X151100000Y-73451904D02*
X151195238Y-73547142D01*
X151195238Y-73547142D02*
X151385714Y-73594761D01*
X151385714Y-73594761D02*
X151719047Y-73594761D01*
X151719047Y-73594761D02*
X151909523Y-73547142D01*
X151909523Y-73547142D02*
X152004761Y-73451904D01*
X152004761Y-73451904D02*
X152052380Y-73356666D01*
X152052380Y-73356666D02*
X152052380Y-73166190D01*
X152052380Y-73166190D02*
X152004761Y-73070952D01*
X152004761Y-73070952D02*
X151909523Y-72975714D01*
X151909523Y-72975714D02*
X151719047Y-72928095D01*
X151719047Y-72928095D02*
X151385714Y-72928095D01*
X151385714Y-72928095D02*
X151195238Y-72975714D01*
X151195238Y-72975714D02*
X151100000Y-73070952D01*
X151100000Y-73070952D02*
X151052380Y-73166190D01*
X152052380Y-74499523D02*
X152052380Y-74023333D01*
X152052380Y-74023333D02*
X151052380Y-74023333D01*
X151528571Y-74832857D02*
X151528571Y-75166190D01*
X152052380Y-75309047D02*
X152052380Y-74832857D01*
X152052380Y-74832857D02*
X151052380Y-74832857D01*
X151052380Y-74832857D02*
X151052380Y-75309047D01*
X152052380Y-76309047D02*
X151576190Y-75975714D01*
X152052380Y-75737619D02*
X151052380Y-75737619D01*
X151052380Y-75737619D02*
X151052380Y-76118571D01*
X151052380Y-76118571D02*
X151100000Y-76213809D01*
X151100000Y-76213809D02*
X151147619Y-76261428D01*
X151147619Y-76261428D02*
X151242857Y-76309047D01*
X151242857Y-76309047D02*
X151385714Y-76309047D01*
X151385714Y-76309047D02*
X151480952Y-76261428D01*
X151480952Y-76261428D02*
X151528571Y-76213809D01*
X151528571Y-76213809D02*
X151576190Y-76118571D01*
X151576190Y-76118571D02*
X151576190Y-75737619D01*
X140294761Y-43602380D02*
X139723333Y-43602380D01*
X140009047Y-44602380D02*
X140009047Y-43602380D01*
X139485237Y-43602380D02*
X138818571Y-44602380D01*
X138818571Y-43602380D02*
X139485237Y-44602380D01*
X138437618Y-44078571D02*
X138104285Y-44078571D01*
X137961428Y-44602380D02*
X138437618Y-44602380D01*
X138437618Y-44602380D02*
X138437618Y-43602380D01*
X138437618Y-43602380D02*
X137961428Y-43602380D01*
X137532856Y-44602380D02*
X137532856Y-43602380D01*
X137532856Y-43602380D02*
X136961428Y-44602380D01*
X136961428Y-44602380D02*
X136961428Y-43602380D01*
X136723333Y-44697619D02*
X135961428Y-44697619D01*
X135247142Y-44602380D02*
X135723332Y-44602380D01*
X135723332Y-44602380D02*
X135723332Y-43602380D01*
X149741904Y-44261428D02*
X148980000Y-44261428D01*
X149360952Y-44642380D02*
X149360952Y-43880476D01*
X147980000Y-44642380D02*
X148551428Y-44642380D01*
X148265714Y-44642380D02*
X148265714Y-43642380D01*
X148265714Y-43642380D02*
X148360952Y-43785238D01*
X148360952Y-43785238D02*
X148456190Y-43880476D01*
X148456190Y-43880476D02*
X148551428Y-43928095D01*
X147075238Y-43642380D02*
X147551428Y-43642380D01*
X147551428Y-43642380D02*
X147599047Y-44118571D01*
X147599047Y-44118571D02*
X147551428Y-44070952D01*
X147551428Y-44070952D02*
X147456190Y-44023333D01*
X147456190Y-44023333D02*
X147218095Y-44023333D01*
X147218095Y-44023333D02*
X147122857Y-44070952D01*
X147122857Y-44070952D02*
X147075238Y-44118571D01*
X147075238Y-44118571D02*
X147027619Y-44213809D01*
X147027619Y-44213809D02*
X147027619Y-44451904D01*
X147027619Y-44451904D02*
X147075238Y-44547142D01*
X147075238Y-44547142D02*
X147122857Y-44594761D01*
X147122857Y-44594761D02*
X147218095Y-44642380D01*
X147218095Y-44642380D02*
X147456190Y-44642380D01*
X147456190Y-44642380D02*
X147551428Y-44594761D01*
X147551428Y-44594761D02*
X147599047Y-44547142D01*
X146741904Y-43642380D02*
X146408571Y-44642380D01*
X146408571Y-44642380D02*
X146075238Y-43642380D01*
X95070476Y-118007380D02*
X95403809Y-117531190D01*
X95641904Y-118007380D02*
X95641904Y-117007380D01*
X95641904Y-117007380D02*
X95260952Y-117007380D01*
X95260952Y-117007380D02*
X95165714Y-117055000D01*
X95165714Y-117055000D02*
X95118095Y-117102619D01*
X95118095Y-117102619D02*
X95070476Y-117197857D01*
X95070476Y-117197857D02*
X95070476Y-117340714D01*
X95070476Y-117340714D02*
X95118095Y-117435952D01*
X95118095Y-117435952D02*
X95165714Y-117483571D01*
X95165714Y-117483571D02*
X95260952Y-117531190D01*
X95260952Y-117531190D02*
X95641904Y-117531190D01*
X94308571Y-117483571D02*
X94641904Y-117483571D01*
X94641904Y-118007380D02*
X94641904Y-117007380D01*
X94641904Y-117007380D02*
X94165714Y-117007380D01*
X93184761Y-118007380D02*
X93184761Y-117007380D01*
X92708571Y-118007380D02*
X92708571Y-117007380D01*
X92708571Y-117007380D02*
X92137143Y-118007380D01*
X92137143Y-118007380D02*
X92137143Y-117007380D01*
X143771904Y-44512380D02*
X143771904Y-43512380D01*
X143771904Y-43512380D02*
X143200476Y-44512380D01*
X143200476Y-44512380D02*
X143200476Y-43512380D01*
X142152857Y-44417142D02*
X142200476Y-44464761D01*
X142200476Y-44464761D02*
X142343333Y-44512380D01*
X142343333Y-44512380D02*
X142438571Y-44512380D01*
X142438571Y-44512380D02*
X142581428Y-44464761D01*
X142581428Y-44464761D02*
X142676666Y-44369523D01*
X142676666Y-44369523D02*
X142724285Y-44274285D01*
X142724285Y-44274285D02*
X142771904Y-44083809D01*
X142771904Y-44083809D02*
X142771904Y-43940952D01*
X142771904Y-43940952D02*
X142724285Y-43750476D01*
X142724285Y-43750476D02*
X142676666Y-43655238D01*
X142676666Y-43655238D02*
X142581428Y-43560000D01*
X142581428Y-43560000D02*
X142438571Y-43512380D01*
X142438571Y-43512380D02*
X142343333Y-43512380D01*
X142343333Y-43512380D02*
X142200476Y-43560000D01*
X142200476Y-43560000D02*
X142152857Y-43607619D01*
X154008095Y-43730000D02*
X154103333Y-43682380D01*
X154103333Y-43682380D02*
X154246190Y-43682380D01*
X154246190Y-43682380D02*
X154389047Y-43730000D01*
X154389047Y-43730000D02*
X154484285Y-43825238D01*
X154484285Y-43825238D02*
X154531904Y-43920476D01*
X154531904Y-43920476D02*
X154579523Y-44110952D01*
X154579523Y-44110952D02*
X154579523Y-44253809D01*
X154579523Y-44253809D02*
X154531904Y-44444285D01*
X154531904Y-44444285D02*
X154484285Y-44539523D01*
X154484285Y-44539523D02*
X154389047Y-44634761D01*
X154389047Y-44634761D02*
X154246190Y-44682380D01*
X154246190Y-44682380D02*
X154150952Y-44682380D01*
X154150952Y-44682380D02*
X154008095Y-44634761D01*
X154008095Y-44634761D02*
X153960476Y-44587142D01*
X153960476Y-44587142D02*
X153960476Y-44253809D01*
X153960476Y-44253809D02*
X154150952Y-44253809D01*
X153531904Y-44682380D02*
X153531904Y-43682380D01*
X153531904Y-43682380D02*
X152960476Y-44682380D01*
X152960476Y-44682380D02*
X152960476Y-43682380D01*
X152484285Y-44682380D02*
X152484285Y-43682380D01*
X152484285Y-43682380D02*
X152246190Y-43682380D01*
X152246190Y-43682380D02*
X152103333Y-43730000D01*
X152103333Y-43730000D02*
X152008095Y-43825238D01*
X152008095Y-43825238D02*
X151960476Y-43920476D01*
X151960476Y-43920476D02*
X151912857Y-44110952D01*
X151912857Y-44110952D02*
X151912857Y-44253809D01*
X151912857Y-44253809D02*
X151960476Y-44444285D01*
X151960476Y-44444285D02*
X152008095Y-44539523D01*
X152008095Y-44539523D02*
X152103333Y-44634761D01*
X152103333Y-44634761D02*
X152246190Y-44682380D01*
X152246190Y-44682380D02*
X152484285Y-44682380D01*
X125920476Y-62063571D02*
X126253809Y-62063571D01*
X126253809Y-62587380D02*
X126253809Y-61587380D01*
X126253809Y-61587380D02*
X125777619Y-61587380D01*
X124920476Y-62587380D02*
X125396666Y-62587380D01*
X125396666Y-62587380D02*
X125396666Y-61587380D01*
X124063333Y-62587380D02*
X124634761Y-62587380D01*
X124349047Y-62587380D02*
X124349047Y-61587380D01*
X124349047Y-61587380D02*
X124444285Y-61730238D01*
X124444285Y-61730238D02*
X124539523Y-61825476D01*
X124539523Y-61825476D02*
X124634761Y-61873095D01*
X123444285Y-61587380D02*
X123349047Y-61587380D01*
X123349047Y-61587380D02*
X123253809Y-61635000D01*
X123253809Y-61635000D02*
X123206190Y-61682619D01*
X123206190Y-61682619D02*
X123158571Y-61777857D01*
X123158571Y-61777857D02*
X123110952Y-61968333D01*
X123110952Y-61968333D02*
X123110952Y-62206428D01*
X123110952Y-62206428D02*
X123158571Y-62396904D01*
X123158571Y-62396904D02*
X123206190Y-62492142D01*
X123206190Y-62492142D02*
X123253809Y-62539761D01*
X123253809Y-62539761D02*
X123349047Y-62587380D01*
X123349047Y-62587380D02*
X123444285Y-62587380D01*
X123444285Y-62587380D02*
X123539523Y-62539761D01*
X123539523Y-62539761D02*
X123587142Y-62492142D01*
X123587142Y-62492142D02*
X123634761Y-62396904D01*
X123634761Y-62396904D02*
X123682380Y-62206428D01*
X123682380Y-62206428D02*
X123682380Y-61968333D01*
X123682380Y-61968333D02*
X123634761Y-61777857D01*
X123634761Y-61777857D02*
X123587142Y-61682619D01*
X123587142Y-61682619D02*
X123539523Y-61635000D01*
X123539523Y-61635000D02*
X123444285Y-61587380D01*
X122158571Y-62587380D02*
X122729999Y-62587380D01*
X122444285Y-62587380D02*
X122444285Y-61587380D01*
X122444285Y-61587380D02*
X122539523Y-61730238D01*
X122539523Y-61730238D02*
X122634761Y-61825476D01*
X122634761Y-61825476D02*
X122729999Y-61873095D01*
D11*
X126230000Y-72330000D02*
X126230000Y-63130000D01*
X126230000Y-63130000D02*
X102130000Y-63130000D01*
X102130000Y-72230000D02*
X126230000Y-72330000D01*
X102130000Y-63130000D02*
X102130000Y-72230000D01*
%LPC*%
D12*
X89120000Y-30960000D02*
X165122978Y-30960000D01*
X165122978Y-30960000D02*
X165122978Y-128870000D01*
X165122978Y-128870000D02*
X89120000Y-128870000D01*
X89120000Y-128870000D02*
X89120000Y-30960000D01*
D13*
X126040000Y-69100000D02*
X126040000Y-71955000D01*
D14*
G36*
X149780000Y-78051166D02*
G01*
X149005646Y-78969585D01*
X141110000Y-78960000D01*
X141100000Y-78670000D01*
X141100000Y-69880000D01*
X141110000Y-66780000D01*
X144280000Y-66780000D01*
X149780000Y-66780000D01*
X149780000Y-78051166D01*
G37*
X149780000Y-78051166D02*
X149005646Y-78969585D01*
X141110000Y-78960000D01*
X141100000Y-78670000D01*
X141100000Y-69880000D01*
X141110000Y-66780000D01*
X144280000Y-66780000D01*
X149780000Y-66780000D01*
X149780000Y-78051166D01*
D10*
X97500000Y-64650000D02*
X97900000Y-64650000D01*
D13*
X103120000Y-66970000D02*
X103120000Y-63700000D01*
X103149375Y-63730000D02*
X122550625Y-63730000D01*
X126015000Y-71910000D02*
X106985000Y-71910000D01*
X121055000Y-59950000D02*
X106605000Y-59950000D01*
X106620000Y-59981000D02*
X106620000Y-53760000D01*
X124340000Y-57239000D02*
X124340000Y-50861000D01*
X110070000Y-50822000D02*
X124330000Y-50822000D01*
G36*
X128660000Y-97810000D02*
G01*
X127660000Y-97810000D01*
X126860000Y-98610000D01*
X126760000Y-99710000D01*
X122260000Y-99610000D01*
X122360000Y-93410000D01*
X128660000Y-93310000D01*
X128660000Y-97810000D01*
G37*
D11*
X128660000Y-97810000D02*
X127660000Y-97810000D01*
X126860000Y-98610000D01*
X126760000Y-99710000D01*
X122260000Y-99610000D01*
X122360000Y-93410000D01*
X128660000Y-93310000D01*
X128660000Y-97810000D01*
G36*
X126760000Y-100610000D02*
G01*
X127560000Y-101410000D01*
X128660000Y-101510000D01*
X128560000Y-106010000D01*
X122360000Y-105910000D01*
X122260000Y-99610000D01*
X126760000Y-99610000D01*
X126760000Y-100610000D01*
G37*
X126760000Y-100610000D02*
X127560000Y-101410000D01*
X128660000Y-101510000D01*
X128560000Y-106010000D01*
X122360000Y-105910000D01*
X122260000Y-99610000D01*
X126760000Y-99610000D01*
X126760000Y-100610000D01*
G36*
X134860000Y-93410000D02*
G01*
X134960000Y-99710000D01*
X130460000Y-99710000D01*
X130460000Y-98710000D01*
X129660000Y-97910000D01*
X128560000Y-97810000D01*
X128660000Y-93310000D01*
X134860000Y-93410000D01*
G37*
X134860000Y-93410000D02*
X134960000Y-99710000D01*
X130460000Y-99710000D01*
X130460000Y-98710000D01*
X129660000Y-97910000D01*
X128560000Y-97810000D01*
X128660000Y-93310000D01*
X134860000Y-93410000D01*
G36*
X135060000Y-99810000D02*
G01*
X134960000Y-106010000D01*
X128660000Y-106110000D01*
X128660000Y-101610000D01*
X129660000Y-101610000D01*
X130460000Y-100810000D01*
X130560000Y-99710000D01*
X135060000Y-99810000D01*
G37*
X135060000Y-99810000D02*
X134960000Y-106010000D01*
X128660000Y-106110000D01*
X128660000Y-101610000D01*
X129660000Y-101610000D01*
X130460000Y-100810000D01*
X130560000Y-99710000D01*
X135060000Y-99810000D01*
G36*
X114510000Y-89980000D02*
G01*
X113510000Y-89980000D01*
X112710000Y-90780000D01*
X112610000Y-91880000D01*
X108110000Y-91780000D01*
X108210000Y-85580000D01*
X114510000Y-85480000D01*
X114510000Y-89980000D01*
G37*
X114510000Y-89980000D02*
X113510000Y-89980000D01*
X112710000Y-90780000D01*
X112610000Y-91880000D01*
X108110000Y-91780000D01*
X108210000Y-85580000D01*
X114510000Y-85480000D01*
X114510000Y-89980000D01*
G36*
X112610000Y-92780000D02*
G01*
X113410000Y-93580000D01*
X114510000Y-93680000D01*
X114410000Y-98180000D01*
X108210000Y-98080000D01*
X108110000Y-91780000D01*
X112610000Y-91780000D01*
X112610000Y-92780000D01*
G37*
X112610000Y-92780000D02*
X113410000Y-93580000D01*
X114510000Y-93680000D01*
X114410000Y-98180000D01*
X108210000Y-98080000D01*
X108110000Y-91780000D01*
X112610000Y-91780000D01*
X112610000Y-92780000D01*
G36*
X120710000Y-85580000D02*
G01*
X120810000Y-91880000D01*
X116310000Y-91880000D01*
X116310000Y-90880000D01*
X115510000Y-90080000D01*
X114410000Y-89980000D01*
X114510000Y-85480000D01*
X120710000Y-85580000D01*
G37*
X120710000Y-85580000D02*
X120810000Y-91880000D01*
X116310000Y-91880000D01*
X116310000Y-90880000D01*
X115510000Y-90080000D01*
X114410000Y-89980000D01*
X114510000Y-85480000D01*
X120710000Y-85580000D01*
G36*
X120910000Y-91980000D02*
G01*
X120810000Y-98180000D01*
X114510000Y-98280000D01*
X114510000Y-93780000D01*
X115510000Y-93780000D01*
X116310000Y-92980000D01*
X116410000Y-91880000D01*
X120910000Y-91980000D01*
G37*
X120910000Y-91980000D02*
X120810000Y-98180000D01*
X114510000Y-98280000D01*
X114510000Y-93780000D01*
X115510000Y-93780000D01*
X116310000Y-92980000D01*
X116410000Y-91880000D01*
X120910000Y-91980000D01*
G36*
X138380000Y-115060000D02*
G01*
X137380000Y-115060000D01*
X136580000Y-115860000D01*
X136480000Y-116960000D01*
X131980000Y-116860000D01*
X132080000Y-110660000D01*
X138380000Y-110560000D01*
X138380000Y-115060000D01*
G37*
X138380000Y-115060000D02*
X137380000Y-115060000D01*
X136580000Y-115860000D01*
X136480000Y-116960000D01*
X131980000Y-116860000D01*
X132080000Y-110660000D01*
X138380000Y-110560000D01*
X138380000Y-115060000D01*
G36*
X136480000Y-117860000D02*
G01*
X137280000Y-118660000D01*
X138380000Y-118760000D01*
X138280000Y-123260000D01*
X132080000Y-123160000D01*
X131980000Y-116860000D01*
X136480000Y-116860000D01*
X136480000Y-117860000D01*
G37*
X136480000Y-117860000D02*
X137280000Y-118660000D01*
X138380000Y-118760000D01*
X138280000Y-123260000D01*
X132080000Y-123160000D01*
X131980000Y-116860000D01*
X136480000Y-116860000D01*
X136480000Y-117860000D01*
G36*
X144580000Y-110660000D02*
G01*
X144680000Y-116960000D01*
X140180000Y-116960000D01*
X140180000Y-115960000D01*
X139380000Y-115160000D01*
X138280000Y-115060000D01*
X138380000Y-110560000D01*
X144580000Y-110660000D01*
G37*
X144580000Y-110660000D02*
X144680000Y-116960000D01*
X140180000Y-116960000D01*
X140180000Y-115960000D01*
X139380000Y-115160000D01*
X138280000Y-115060000D01*
X138380000Y-110560000D01*
X144580000Y-110660000D01*
G36*
X144780000Y-117060000D02*
G01*
X144680000Y-123260000D01*
X138380000Y-123360000D01*
X138380000Y-118860000D01*
X139380000Y-118860000D01*
X140180000Y-118060000D01*
X140280000Y-116960000D01*
X144780000Y-117060000D01*
G37*
X144780000Y-117060000D02*
X144680000Y-123260000D01*
X138380000Y-123360000D01*
X138380000Y-118860000D01*
X139380000Y-118860000D01*
X140180000Y-118060000D01*
X140280000Y-116960000D01*
X144780000Y-117060000D01*
G36*
X142970000Y-97940000D02*
G01*
X141970000Y-97940000D01*
X141170000Y-98740000D01*
X141070000Y-99840000D01*
X136570000Y-99740000D01*
X136670000Y-93540000D01*
X142970000Y-93440000D01*
X142970000Y-97940000D01*
G37*
X142970000Y-97940000D02*
X141970000Y-97940000D01*
X141170000Y-98740000D01*
X141070000Y-99840000D01*
X136570000Y-99740000D01*
X136670000Y-93540000D01*
X142970000Y-93440000D01*
X142970000Y-97940000D01*
G36*
X141070000Y-100740000D02*
G01*
X141870000Y-101540000D01*
X142970000Y-101640000D01*
X142870000Y-106140000D01*
X136670000Y-106040000D01*
X136570000Y-99740000D01*
X141070000Y-99740000D01*
X141070000Y-100740000D01*
G37*
X141070000Y-100740000D02*
X141870000Y-101540000D01*
X142970000Y-101640000D01*
X142870000Y-106140000D01*
X136670000Y-106040000D01*
X136570000Y-99740000D01*
X141070000Y-99740000D01*
X141070000Y-100740000D01*
G36*
X149170000Y-93540000D02*
G01*
X149270000Y-99840000D01*
X144770000Y-99840000D01*
X144770000Y-98840000D01*
X143970000Y-98040000D01*
X142870000Y-97940000D01*
X142970000Y-93440000D01*
X149170000Y-93540000D01*
G37*
X149170000Y-93540000D02*
X149270000Y-99840000D01*
X144770000Y-99840000D01*
X144770000Y-98840000D01*
X143970000Y-98040000D01*
X142870000Y-97940000D01*
X142970000Y-93440000D01*
X149170000Y-93540000D01*
G36*
X149370000Y-99940000D02*
G01*
X149270000Y-106140000D01*
X142970000Y-106240000D01*
X142970000Y-101740000D01*
X143970000Y-101740000D01*
X144770000Y-100940000D01*
X144870000Y-99840000D01*
X149370000Y-99940000D01*
G37*
X149370000Y-99940000D02*
X149270000Y-106140000D01*
X142970000Y-106240000D01*
X142970000Y-101740000D01*
X143970000Y-101740000D01*
X144770000Y-100940000D01*
X144870000Y-99840000D01*
X149370000Y-99940000D01*
D15*
X94899999Y-86319999D03*
D16*
X94899999Y-101559999D03*
D17*
X113691000Y-48857000D03*
X113691000Y-46647000D03*
D18*
X128660000Y-99710000D03*
D19*
X124260000Y-95410000D03*
X124360000Y-103910000D03*
X132960000Y-95410000D03*
X132960000Y-104010000D03*
D18*
X114510000Y-91880000D03*
D19*
X110110000Y-87580000D03*
X110210000Y-96080000D03*
X118810000Y-87580000D03*
X118810000Y-96180000D03*
D17*
X123341000Y-48807000D03*
X123341000Y-46597000D03*
D20*
X162104404Y-34030000D03*
D18*
X138380000Y-116960000D03*
D19*
X133980000Y-112660000D03*
X134080000Y-121160000D03*
X142680000Y-112660000D03*
X142680000Y-121260000D03*
D20*
X91864000Y-34030000D03*
D18*
X142970000Y-99840000D03*
D19*
X138570000Y-95540000D03*
X138670000Y-104040000D03*
X147270000Y-95540000D03*
X147270000Y-104140000D03*
D21*
X90359999Y-110204999D03*
X90359999Y-115854999D03*
D22*
X152950000Y-40190000D03*
D23*
X147869999Y-40189999D03*
X142789999Y-40189999D03*
X137709999Y-40189999D03*
X132629999Y-40189999D03*
X127549999Y-40189999D03*
X122469999Y-40189999D03*
X117389999Y-40189999D03*
D20*
X91864000Y-125978000D03*
X162104404Y-125978000D03*
D24*
X124146480Y-69926160D03*
X104440000Y-69920000D03*
X104440000Y-65320000D03*
X124146480Y-65326160D03*
D25*
X121929999Y-63929999D03*
X121829999Y-71329999D03*
D24*
X116630000Y-65330000D03*
D25*
X114429999Y-63929999D03*
X114329999Y-71329999D03*
X106929999Y-63929999D03*
X106829999Y-71329999D03*
D26*
X88138000Y-30004383D02*
X166158804Y-30004383D01*
X166158804Y-30004383D02*
X166158804Y-129944383D01*
X166158804Y-129944383D02*
X88138000Y-129944383D01*
X88138000Y-129944383D02*
X88138000Y-30004383D01*
M02*
