M48
; DRILL file {KiCad (7.0.0-0)} date Friday, 05 May 2023 at 23:21:24
; FORMAT={-:-/ absolute / metric / decimal}
; #@! TF.CreationDate,2023-05-05T23:21:24+02:00
; #@! TF.GenerationSoftware,Kicad,Pcbnew,(7.0.0-0)
; #@! TF.FileFunction,Plated,1,2,PTH
FMAT,2
METRIC
; #@! TA.AperFunction,Plated,PTH,ComponentDrill
T1C0.300
; #@! TA.AperFunction,Plated,PTH,ComponentDrill
T2C0.330
; #@! TA.AperFunction,Plated,PTH,ViaDrill
T3C0.400
; #@! TA.AperFunction,Plated,PTH,ComponentDrill
T4C0.400
; #@! TA.AperFunction,Plated,PTH,ComponentDrill
T5C0.800
; #@! TA.AperFunction,Plated,PTH,ComponentDrill
T6C1.300
; #@! TA.AperFunction,Plated,PTH,ComponentDrill
T7C1.400
; #@! TA.AperFunction,Plated,PTH,ComponentDrill
T8C2.600
; #@! TA.AperFunction,Plated,PTH,ComponentDrill
T9C3.200
%
G90
G05
T1
X106.325Y-45.685
X106.325Y-47.895
X115.975Y-45.635
X115.975Y-47.845
X143.2Y-61.14
X143.2Y-61.69
X143.2Y-62.24
X143.75Y-61.14
X143.75Y-61.69
X143.75Y-62.24
X144.3Y-61.14
X144.3Y-61.69
X144.3Y-62.24
T2
X141.787Y-70.252
X141.787Y-71.035
X141.787Y-71.818
X141.787Y-72.602
X141.787Y-73.385
X141.787Y-74.168
X141.787Y-74.951
X141.787Y-75.734
X141.787Y-76.518
X141.787Y-77.301
X142.95Y-69.86
X142.95Y-77.692
X143.327Y-72.2
X143.338Y-73.51
X143.338Y-74.81
X143.725Y-67.511
X143.725Y-69.077
X143.725Y-72.885
X143.725Y-74.16
X143.725Y-75.46
X143.725Y-78.476
X143.925Y-68.294
X143.925Y-69.87
X144.112Y-72.21
X144.112Y-73.51
X144.112Y-74.81
X144.312Y-77.692
X144.5Y-72.86
X144.5Y-74.16
X144.5Y-75.46
X144.887Y-72.21
X144.887Y-73.51
X144.887Y-74.81
X145.275Y-72.86
X145.275Y-74.16
X145.275Y-75.46
X145.662Y-72.21
X145.662Y-73.51
X145.662Y-74.81
X146.05Y-72.86
X146.05Y-74.16
X146.05Y-75.46
X146.438Y-72.21
X146.438Y-73.51
X146.438Y-74.81
X146.825Y-72.86
X146.825Y-74.16
X146.825Y-75.46
X147.412Y-68.294
X147.412Y-69.87
X147.987Y-67.511
X147.987Y-69.077
X148.375Y-70.252
X148.375Y-71.035
X148.375Y-71.818
X148.375Y-72.602
X148.375Y-73.385
X148.375Y-74.168
X148.375Y-74.951
X148.375Y-75.734
X148.375Y-76.518
X148.375Y-77.301
X149.15Y-71.427
X149.15Y-72.21
X149.15Y-72.993
X149.15Y-73.776
X149.15Y-74.56
X149.15Y-75.343
X149.15Y-76.126
X149.15Y-76.909
T3
X78.9Y-63.51
X80.89Y-65.45
X82.28Y-91.51
X82.7Y-64.03
X82.71Y-67.39
X82.75Y-89.61
X83.02Y-68.83
X83.22Y-76.29
X90.27Y-71.44
X90.64Y-113.82
X94.43Y-113.85
X94.6Y-71.44
X99.72Y-107.67
X99.8Y-111.59
X100.34Y-117.13
X103.94Y-117.07
X127.45Y-70.94
X128.02Y-77.38
X132.749Y-57.975
X132.75Y-50.86
X133.34Y-62.05
X133.455Y-79.05
X133.62Y-67.67
X136.51Y-52.06
X137.55Y-67.39
X137.995Y-45.695
X138.04Y-62.01
X139.35Y-83.68
X139.38Y-49.6
X139.6Y-54.53
X139.73Y-58.56
X143.66Y-47.47
X144.36Y-54.63
X145.22Y-56.66
X145.23Y-49.57
X147.651Y-59.94
X148.16Y-47.09
X149.6Y-63.07
X150.27Y-79.36
X151.87Y-60.02
X152.82Y-65.816
X152.943Y-55.145
X154.53Y-57.79
X155.74Y-55.24
X156.34Y-53.11
X157.64Y-74.16
X158.19Y-57.78
X160.35Y-45.44
X161.317Y-74.132
T5
X97.904Y-66.286
X97.904Y-70.886
X105.42Y-66.29
X117.61Y-66.28
X117.61Y-70.88
T6
X83.37Y-84.55
X83.37Y-99.79
X114.51Y-91.88
X128.66Y-99.71
X138.38Y-116.96
X142.97Y-99.84
T7
X117.39Y-40.19
X122.47Y-40.19
X127.55Y-40.19
X132.63Y-40.19
X137.71Y-40.19
X142.79Y-40.19
X147.87Y-40.19
X152.95Y-40.19
T8
X110.11Y-87.58
X110.21Y-96.08
X118.81Y-87.58
X118.81Y-96.18
X124.26Y-95.41
X124.36Y-103.91
X132.96Y-95.41
X132.96Y-104.01
X133.98Y-112.66
X134.08Y-121.16
X138.57Y-95.54
X138.67Y-104.04
X142.68Y-112.66
X142.68Y-121.26
X147.27Y-95.54
X147.27Y-104.14
T9
X79.749Y-33.504
X79.749Y-126.504
X162.249Y-33.504
X162.249Y-126.504
T4
G00X99.82Y-64.89
M15
G01X100.42Y-64.89
M16
G05
G00X99.92Y-72.29
M15
G01X100.52Y-72.29
M16
G05
G00X107.32Y-64.89
M15
G01X107.92Y-64.89
M16
G05
G00X107.42Y-72.29
M15
G01X108.02Y-72.29
M16
G05
G00X114.82Y-64.89
M15
G01X115.42Y-64.89
M16
G05
G00X114.92Y-72.29
M15
G01X115.52Y-72.29
M16
G05
T0
M30
