%TF.GenerationSoftware,KiCad,Pcbnew,(7.0.0-0)*%
%TF.CreationDate,2023-05-05T23:20:31+02:00*%
%TF.ProjectId,Filter-forest-v3,46696c74-6572-42d6-966f-726573742d76,rev?*%
%TF.SameCoordinates,Original*%
%TF.FileFunction,Legend,Bot*%
%TF.FilePolarity,Positive*%
%FSLAX46Y46*%
G04 Gerber Fmt 4.6, Leading zero omitted, Abs format (unit mm)*
G04 Created by KiCad (PCBNEW (7.0.0-0)) date 2023-05-05 23:20:31*
%MOMM*%
%LPD*%
G01*
G04 APERTURE LIST*
%ADD10C,0.150000*%
%TA.AperFunction,Profile*%
%ADD11C,0.100000*%
%TD*%
G04 APERTURE END LIST*
D10*
X80044761Y-53900476D02*
X80092380Y-54043333D01*
X80092380Y-54043333D02*
X80092380Y-54281428D01*
X80092380Y-54281428D02*
X80044761Y-54376666D01*
X80044761Y-54376666D02*
X79997142Y-54424285D01*
X79997142Y-54424285D02*
X79901904Y-54471904D01*
X79901904Y-54471904D02*
X79806666Y-54471904D01*
X79806666Y-54471904D02*
X79711428Y-54424285D01*
X79711428Y-54424285D02*
X79663809Y-54376666D01*
X79663809Y-54376666D02*
X79616190Y-54281428D01*
X79616190Y-54281428D02*
X79568571Y-54090952D01*
X79568571Y-54090952D02*
X79520952Y-53995714D01*
X79520952Y-53995714D02*
X79473333Y-53948095D01*
X79473333Y-53948095D02*
X79378095Y-53900476D01*
X79378095Y-53900476D02*
X79282857Y-53900476D01*
X79282857Y-53900476D02*
X79187619Y-53948095D01*
X79187619Y-53948095D02*
X79140000Y-53995714D01*
X79140000Y-53995714D02*
X79092380Y-54090952D01*
X79092380Y-54090952D02*
X79092380Y-54329047D01*
X79092380Y-54329047D02*
X79140000Y-54471904D01*
X80092380Y-54900476D02*
X79092380Y-54900476D01*
X79092380Y-54900476D02*
X79806666Y-55233809D01*
X79806666Y-55233809D02*
X79092380Y-55567142D01*
X79092380Y-55567142D02*
X80092380Y-55567142D01*
X79092380Y-56471904D02*
X79092380Y-56281428D01*
X79092380Y-56281428D02*
X79140000Y-56186190D01*
X79140000Y-56186190D02*
X79187619Y-56138571D01*
X79187619Y-56138571D02*
X79330476Y-56043333D01*
X79330476Y-56043333D02*
X79520952Y-55995714D01*
X79520952Y-55995714D02*
X79901904Y-55995714D01*
X79901904Y-55995714D02*
X79997142Y-56043333D01*
X79997142Y-56043333D02*
X80044761Y-56090952D01*
X80044761Y-56090952D02*
X80092380Y-56186190D01*
X80092380Y-56186190D02*
X80092380Y-56376666D01*
X80092380Y-56376666D02*
X80044761Y-56471904D01*
X80044761Y-56471904D02*
X79997142Y-56519523D01*
X79997142Y-56519523D02*
X79901904Y-56567142D01*
X79901904Y-56567142D02*
X79663809Y-56567142D01*
X79663809Y-56567142D02*
X79568571Y-56519523D01*
X79568571Y-56519523D02*
X79520952Y-56471904D01*
X79520952Y-56471904D02*
X79473333Y-56376666D01*
X79473333Y-56376666D02*
X79473333Y-56186190D01*
X79473333Y-56186190D02*
X79520952Y-56090952D01*
X79520952Y-56090952D02*
X79568571Y-56043333D01*
X79568571Y-56043333D02*
X79663809Y-55995714D01*
X79568571Y-57329047D02*
X79568571Y-56995714D01*
X80092380Y-56995714D02*
X79092380Y-56995714D01*
X79092380Y-56995714D02*
X79092380Y-57471904D01*
X79568571Y-58186190D02*
X79616190Y-58329047D01*
X79616190Y-58329047D02*
X79663809Y-58376666D01*
X79663809Y-58376666D02*
X79759047Y-58424285D01*
X79759047Y-58424285D02*
X79901904Y-58424285D01*
X79901904Y-58424285D02*
X79997142Y-58376666D01*
X79997142Y-58376666D02*
X80044761Y-58329047D01*
X80044761Y-58329047D02*
X80092380Y-58233809D01*
X80092380Y-58233809D02*
X80092380Y-57852857D01*
X80092380Y-57852857D02*
X79092380Y-57852857D01*
X79092380Y-57852857D02*
X79092380Y-58186190D01*
X79092380Y-58186190D02*
X79140000Y-58281428D01*
X79140000Y-58281428D02*
X79187619Y-58329047D01*
X79187619Y-58329047D02*
X79282857Y-58376666D01*
X79282857Y-58376666D02*
X79378095Y-58376666D01*
X79378095Y-58376666D02*
X79473333Y-58329047D01*
X79473333Y-58329047D02*
X79520952Y-58281428D01*
X79520952Y-58281428D02*
X79568571Y-58186190D01*
X79568571Y-58186190D02*
X79568571Y-57852857D01*
X80187619Y-59519523D02*
X80140000Y-59424285D01*
X80140000Y-59424285D02*
X80044761Y-59329047D01*
X80044761Y-59329047D02*
X79901904Y-59186190D01*
X79901904Y-59186190D02*
X79854285Y-59090952D01*
X79854285Y-59090952D02*
X79854285Y-58995714D01*
X80092380Y-59043333D02*
X80044761Y-58948095D01*
X80044761Y-58948095D02*
X79949523Y-58852857D01*
X79949523Y-58852857D02*
X79759047Y-58805238D01*
X79759047Y-58805238D02*
X79425714Y-58805238D01*
X79425714Y-58805238D02*
X79235238Y-58852857D01*
X79235238Y-58852857D02*
X79140000Y-58948095D01*
X79140000Y-58948095D02*
X79092380Y-59043333D01*
X79092380Y-59043333D02*
X79092380Y-59233809D01*
X79092380Y-59233809D02*
X79140000Y-59329047D01*
X79140000Y-59329047D02*
X79235238Y-59424285D01*
X79235238Y-59424285D02*
X79425714Y-59471904D01*
X79425714Y-59471904D02*
X79759047Y-59471904D01*
X79759047Y-59471904D02*
X79949523Y-59424285D01*
X79949523Y-59424285D02*
X80044761Y-59329047D01*
X80044761Y-59329047D02*
X80092380Y-59233809D01*
X80092380Y-59233809D02*
X80092380Y-59043333D01*
X79092380Y-60976666D02*
X79092380Y-60500476D01*
X79092380Y-60500476D02*
X79568571Y-60452857D01*
X79568571Y-60452857D02*
X79520952Y-60500476D01*
X79520952Y-60500476D02*
X79473333Y-60595714D01*
X79473333Y-60595714D02*
X79473333Y-60833809D01*
X79473333Y-60833809D02*
X79520952Y-60929047D01*
X79520952Y-60929047D02*
X79568571Y-60976666D01*
X79568571Y-60976666D02*
X79663809Y-61024285D01*
X79663809Y-61024285D02*
X79901904Y-61024285D01*
X79901904Y-61024285D02*
X79997142Y-60976666D01*
X79997142Y-60976666D02*
X80044761Y-60929047D01*
X80044761Y-60929047D02*
X80092380Y-60833809D01*
X80092380Y-60833809D02*
X80092380Y-60595714D01*
X80092380Y-60595714D02*
X80044761Y-60500476D01*
X80044761Y-60500476D02*
X79997142Y-60452857D01*
X79092380Y-61643333D02*
X79092380Y-61738571D01*
X79092380Y-61738571D02*
X79140000Y-61833809D01*
X79140000Y-61833809D02*
X79187619Y-61881428D01*
X79187619Y-61881428D02*
X79282857Y-61929047D01*
X79282857Y-61929047D02*
X79473333Y-61976666D01*
X79473333Y-61976666D02*
X79711428Y-61976666D01*
X79711428Y-61976666D02*
X79901904Y-61929047D01*
X79901904Y-61929047D02*
X79997142Y-61881428D01*
X79997142Y-61881428D02*
X80044761Y-61833809D01*
X80044761Y-61833809D02*
X80092380Y-61738571D01*
X80092380Y-61738571D02*
X80092380Y-61643333D01*
X80092380Y-61643333D02*
X80044761Y-61548095D01*
X80044761Y-61548095D02*
X79997142Y-61500476D01*
X79997142Y-61500476D02*
X79901904Y-61452857D01*
X79901904Y-61452857D02*
X79711428Y-61405238D01*
X79711428Y-61405238D02*
X79473333Y-61405238D01*
X79473333Y-61405238D02*
X79282857Y-61452857D01*
X79282857Y-61452857D02*
X79187619Y-61500476D01*
X79187619Y-61500476D02*
X79140000Y-61548095D01*
X79140000Y-61548095D02*
X79092380Y-61643333D01*
X79711428Y-62405238D02*
X79711428Y-63167143D01*
X80092380Y-64167142D02*
X80092380Y-63595714D01*
X80092380Y-63881428D02*
X79092380Y-63881428D01*
X79092380Y-63881428D02*
X79235238Y-63786190D01*
X79235238Y-63786190D02*
X79330476Y-63690952D01*
X79330476Y-63690952D02*
X79378095Y-63595714D01*
X79425714Y-65024285D02*
X80092380Y-65024285D01*
X79044761Y-64786190D02*
X79759047Y-64548095D01*
X79759047Y-64548095D02*
X79759047Y-65167142D01*
X79425714Y-65976666D02*
X80092380Y-65976666D01*
X79044761Y-65738571D02*
X79759047Y-65500476D01*
X79759047Y-65500476D02*
X79759047Y-66119523D01*
X79711428Y-66500476D02*
X79711428Y-67262381D01*
X79425714Y-68167142D02*
X80092380Y-68167142D01*
X79044761Y-67929047D02*
X79759047Y-67690952D01*
X79759047Y-67690952D02*
X79759047Y-68309999D01*
X79092380Y-68595714D02*
X79092380Y-69214761D01*
X79092380Y-69214761D02*
X79473333Y-68881428D01*
X79473333Y-68881428D02*
X79473333Y-69024285D01*
X79473333Y-69024285D02*
X79520952Y-69119523D01*
X79520952Y-69119523D02*
X79568571Y-69167142D01*
X79568571Y-69167142D02*
X79663809Y-69214761D01*
X79663809Y-69214761D02*
X79901904Y-69214761D01*
X79901904Y-69214761D02*
X79997142Y-69167142D01*
X79997142Y-69167142D02*
X80044761Y-69119523D01*
X80044761Y-69119523D02*
X80092380Y-69024285D01*
X80092380Y-69024285D02*
X80092380Y-68738571D01*
X80092380Y-68738571D02*
X80044761Y-68643333D01*
X80044761Y-68643333D02*
X79997142Y-68595714D01*
X79187619Y-69595714D02*
X79140000Y-69643333D01*
X79140000Y-69643333D02*
X79092380Y-69738571D01*
X79092380Y-69738571D02*
X79092380Y-69976666D01*
X79092380Y-69976666D02*
X79140000Y-70071904D01*
X79140000Y-70071904D02*
X79187619Y-70119523D01*
X79187619Y-70119523D02*
X79282857Y-70167142D01*
X79282857Y-70167142D02*
X79378095Y-70167142D01*
X79378095Y-70167142D02*
X79520952Y-70119523D01*
X79520952Y-70119523D02*
X80092380Y-69548095D01*
X80092380Y-69548095D02*
X80092380Y-70167142D01*
X79711428Y-70595714D02*
X79711428Y-71357619D01*
X80092380Y-72357618D02*
X80092380Y-71786190D01*
X80092380Y-72071904D02*
X79092380Y-72071904D01*
X79092380Y-72071904D02*
X79235238Y-71976666D01*
X79235238Y-71976666D02*
X79330476Y-71881428D01*
X79330476Y-71881428D02*
X79378095Y-71786190D01*
X79187619Y-72738571D02*
X79140000Y-72786190D01*
X79140000Y-72786190D02*
X79092380Y-72881428D01*
X79092380Y-72881428D02*
X79092380Y-73119523D01*
X79092380Y-73119523D02*
X79140000Y-73214761D01*
X79140000Y-73214761D02*
X79187619Y-73262380D01*
X79187619Y-73262380D02*
X79282857Y-73309999D01*
X79282857Y-73309999D02*
X79378095Y-73309999D01*
X79378095Y-73309999D02*
X79520952Y-73262380D01*
X79520952Y-73262380D02*
X80092380Y-72690952D01*
X80092380Y-72690952D02*
X80092380Y-73309999D01*
X80092380Y-73786190D02*
X80092380Y-73976666D01*
X80092380Y-73976666D02*
X80044761Y-74071904D01*
X80044761Y-74071904D02*
X79997142Y-74119523D01*
X79997142Y-74119523D02*
X79854285Y-74214761D01*
X79854285Y-74214761D02*
X79663809Y-74262380D01*
X79663809Y-74262380D02*
X79282857Y-74262380D01*
X79282857Y-74262380D02*
X79187619Y-74214761D01*
X79187619Y-74214761D02*
X79140000Y-74167142D01*
X79140000Y-74167142D02*
X79092380Y-74071904D01*
X79092380Y-74071904D02*
X79092380Y-73881428D01*
X79092380Y-73881428D02*
X79140000Y-73786190D01*
X79140000Y-73786190D02*
X79187619Y-73738571D01*
X79187619Y-73738571D02*
X79282857Y-73690952D01*
X79282857Y-73690952D02*
X79520952Y-73690952D01*
X79520952Y-73690952D02*
X79616190Y-73738571D01*
X79616190Y-73738571D02*
X79663809Y-73786190D01*
X79663809Y-73786190D02*
X79711428Y-73881428D01*
X79711428Y-73881428D02*
X79711428Y-74071904D01*
X79711428Y-74071904D02*
X79663809Y-74167142D01*
X79663809Y-74167142D02*
X79616190Y-74214761D01*
X79616190Y-74214761D02*
X79520952Y-74262380D01*
X79092380Y-75119523D02*
X79092380Y-74929047D01*
X79092380Y-74929047D02*
X79140000Y-74833809D01*
X79140000Y-74833809D02*
X79187619Y-74786190D01*
X79187619Y-74786190D02*
X79330476Y-74690952D01*
X79330476Y-74690952D02*
X79520952Y-74643333D01*
X79520952Y-74643333D02*
X79901904Y-74643333D01*
X79901904Y-74643333D02*
X79997142Y-74690952D01*
X79997142Y-74690952D02*
X80044761Y-74738571D01*
X80044761Y-74738571D02*
X80092380Y-74833809D01*
X80092380Y-74833809D02*
X80092380Y-75024285D01*
X80092380Y-75024285D02*
X80044761Y-75119523D01*
X80044761Y-75119523D02*
X79997142Y-75167142D01*
X79997142Y-75167142D02*
X79901904Y-75214761D01*
X79901904Y-75214761D02*
X79663809Y-75214761D01*
X79663809Y-75214761D02*
X79568571Y-75167142D01*
X79568571Y-75167142D02*
X79520952Y-75119523D01*
X79520952Y-75119523D02*
X79473333Y-75024285D01*
X79473333Y-75024285D02*
X79473333Y-74833809D01*
X79473333Y-74833809D02*
X79520952Y-74738571D01*
X79520952Y-74738571D02*
X79568571Y-74690952D01*
X79568571Y-74690952D02*
X79663809Y-74643333D01*
X80092380Y-76243333D02*
X79092380Y-76243333D01*
X79092380Y-76243333D02*
X79806666Y-76576666D01*
X79806666Y-76576666D02*
X79092380Y-76909999D01*
X79092380Y-76909999D02*
X80092380Y-76909999D01*
X80092380Y-77386190D02*
X79092380Y-77386190D01*
X79568571Y-77386190D02*
X79568571Y-77957618D01*
X80092380Y-77957618D02*
X79092380Y-77957618D01*
X80092380Y-78338571D02*
X79425714Y-78862380D01*
X79425714Y-78338571D02*
X80092380Y-78862380D01*
X79092380Y-79700476D02*
X79092380Y-80271904D01*
X80092380Y-79986190D02*
X79092380Y-79986190D01*
X80092380Y-80605238D02*
X79425714Y-80605238D01*
X79616190Y-80605238D02*
X79520952Y-80652857D01*
X79520952Y-80652857D02*
X79473333Y-80700476D01*
X79473333Y-80700476D02*
X79425714Y-80795714D01*
X79425714Y-80795714D02*
X79425714Y-80890952D01*
X80092380Y-81652857D02*
X79568571Y-81652857D01*
X79568571Y-81652857D02*
X79473333Y-81605238D01*
X79473333Y-81605238D02*
X79425714Y-81510000D01*
X79425714Y-81510000D02*
X79425714Y-81319524D01*
X79425714Y-81319524D02*
X79473333Y-81224286D01*
X80044761Y-81652857D02*
X80092380Y-81557619D01*
X80092380Y-81557619D02*
X80092380Y-81319524D01*
X80092380Y-81319524D02*
X80044761Y-81224286D01*
X80044761Y-81224286D02*
X79949523Y-81176667D01*
X79949523Y-81176667D02*
X79854285Y-81176667D01*
X79854285Y-81176667D02*
X79759047Y-81224286D01*
X79759047Y-81224286D02*
X79711428Y-81319524D01*
X79711428Y-81319524D02*
X79711428Y-81557619D01*
X79711428Y-81557619D02*
X79663809Y-81652857D01*
X79425714Y-82129048D02*
X80092380Y-82129048D01*
X79520952Y-82129048D02*
X79473333Y-82176667D01*
X79473333Y-82176667D02*
X79425714Y-82271905D01*
X79425714Y-82271905D02*
X79425714Y-82414762D01*
X79425714Y-82414762D02*
X79473333Y-82510000D01*
X79473333Y-82510000D02*
X79568571Y-82557619D01*
X79568571Y-82557619D02*
X80092380Y-82557619D01*
X80044761Y-82986191D02*
X80092380Y-83081429D01*
X80092380Y-83081429D02*
X80092380Y-83271905D01*
X80092380Y-83271905D02*
X80044761Y-83367143D01*
X80044761Y-83367143D02*
X79949523Y-83414762D01*
X79949523Y-83414762D02*
X79901904Y-83414762D01*
X79901904Y-83414762D02*
X79806666Y-83367143D01*
X79806666Y-83367143D02*
X79759047Y-83271905D01*
X79759047Y-83271905D02*
X79759047Y-83129048D01*
X79759047Y-83129048D02*
X79711428Y-83033810D01*
X79711428Y-83033810D02*
X79616190Y-82986191D01*
X79616190Y-82986191D02*
X79568571Y-82986191D01*
X79568571Y-82986191D02*
X79473333Y-83033810D01*
X79473333Y-83033810D02*
X79425714Y-83129048D01*
X79425714Y-83129048D02*
X79425714Y-83271905D01*
X79425714Y-83271905D02*
X79473333Y-83367143D01*
X80092380Y-83843334D02*
X79425714Y-83843334D01*
X79520952Y-83843334D02*
X79473333Y-83890953D01*
X79473333Y-83890953D02*
X79425714Y-83986191D01*
X79425714Y-83986191D02*
X79425714Y-84129048D01*
X79425714Y-84129048D02*
X79473333Y-84224286D01*
X79473333Y-84224286D02*
X79568571Y-84271905D01*
X79568571Y-84271905D02*
X80092380Y-84271905D01*
X79568571Y-84271905D02*
X79473333Y-84319524D01*
X79473333Y-84319524D02*
X79425714Y-84414762D01*
X79425714Y-84414762D02*
X79425714Y-84557619D01*
X79425714Y-84557619D02*
X79473333Y-84652858D01*
X79473333Y-84652858D02*
X79568571Y-84700477D01*
X79568571Y-84700477D02*
X80092380Y-84700477D01*
X80092380Y-85176667D02*
X79425714Y-85176667D01*
X79092380Y-85176667D02*
X79140000Y-85129048D01*
X79140000Y-85129048D02*
X79187619Y-85176667D01*
X79187619Y-85176667D02*
X79140000Y-85224286D01*
X79140000Y-85224286D02*
X79092380Y-85176667D01*
X79092380Y-85176667D02*
X79187619Y-85176667D01*
X79425714Y-85510000D02*
X79425714Y-85890952D01*
X79092380Y-85652857D02*
X79949523Y-85652857D01*
X79949523Y-85652857D02*
X80044761Y-85700476D01*
X80044761Y-85700476D02*
X80092380Y-85795714D01*
X80092380Y-85795714D02*
X80092380Y-85890952D01*
X79806666Y-86776667D02*
X79806666Y-87252857D01*
X80092380Y-86681429D02*
X79092380Y-87014762D01*
X79092380Y-87014762D02*
X80092380Y-87348095D01*
X80092380Y-87681429D02*
X79425714Y-87681429D01*
X79520952Y-87681429D02*
X79473333Y-87729048D01*
X79473333Y-87729048D02*
X79425714Y-87824286D01*
X79425714Y-87824286D02*
X79425714Y-87967143D01*
X79425714Y-87967143D02*
X79473333Y-88062381D01*
X79473333Y-88062381D02*
X79568571Y-88110000D01*
X79568571Y-88110000D02*
X80092380Y-88110000D01*
X79568571Y-88110000D02*
X79473333Y-88157619D01*
X79473333Y-88157619D02*
X79425714Y-88252857D01*
X79425714Y-88252857D02*
X79425714Y-88395714D01*
X79425714Y-88395714D02*
X79473333Y-88490953D01*
X79473333Y-88490953D02*
X79568571Y-88538572D01*
X79568571Y-88538572D02*
X80092380Y-88538572D01*
X79425714Y-89014762D02*
X80425714Y-89014762D01*
X79473333Y-89014762D02*
X79425714Y-89110000D01*
X79425714Y-89110000D02*
X79425714Y-89300476D01*
X79425714Y-89300476D02*
X79473333Y-89395714D01*
X79473333Y-89395714D02*
X79520952Y-89443333D01*
X79520952Y-89443333D02*
X79616190Y-89490952D01*
X79616190Y-89490952D02*
X79901904Y-89490952D01*
X79901904Y-89490952D02*
X79997142Y-89443333D01*
X79997142Y-89443333D02*
X80044761Y-89395714D01*
X80044761Y-89395714D02*
X80092380Y-89300476D01*
X80092380Y-89300476D02*
X80092380Y-89110000D01*
X80092380Y-89110000D02*
X80044761Y-89014762D01*
X80092380Y-90062381D02*
X80044761Y-89967143D01*
X80044761Y-89967143D02*
X79949523Y-89919524D01*
X79949523Y-89919524D02*
X79092380Y-89919524D01*
X80092380Y-90443334D02*
X79425714Y-90443334D01*
X79092380Y-90443334D02*
X79140000Y-90395715D01*
X79140000Y-90395715D02*
X79187619Y-90443334D01*
X79187619Y-90443334D02*
X79140000Y-90490953D01*
X79140000Y-90490953D02*
X79092380Y-90443334D01*
X79092380Y-90443334D02*
X79187619Y-90443334D01*
X79425714Y-90776667D02*
X79425714Y-91157619D01*
X80092380Y-90919524D02*
X79235238Y-90919524D01*
X79235238Y-90919524D02*
X79140000Y-90967143D01*
X79140000Y-90967143D02*
X79092380Y-91062381D01*
X79092380Y-91062381D02*
X79092380Y-91157619D01*
X80092380Y-91490953D02*
X79425714Y-91490953D01*
X79092380Y-91490953D02*
X79140000Y-91443334D01*
X79140000Y-91443334D02*
X79187619Y-91490953D01*
X79187619Y-91490953D02*
X79140000Y-91538572D01*
X79140000Y-91538572D02*
X79092380Y-91490953D01*
X79092380Y-91490953D02*
X79187619Y-91490953D01*
X80044761Y-92348095D02*
X80092380Y-92252857D01*
X80092380Y-92252857D02*
X80092380Y-92062381D01*
X80092380Y-92062381D02*
X80044761Y-91967143D01*
X80044761Y-91967143D02*
X79949523Y-91919524D01*
X79949523Y-91919524D02*
X79568571Y-91919524D01*
X79568571Y-91919524D02*
X79473333Y-91967143D01*
X79473333Y-91967143D02*
X79425714Y-92062381D01*
X79425714Y-92062381D02*
X79425714Y-92252857D01*
X79425714Y-92252857D02*
X79473333Y-92348095D01*
X79473333Y-92348095D02*
X79568571Y-92395714D01*
X79568571Y-92395714D02*
X79663809Y-92395714D01*
X79663809Y-92395714D02*
X79759047Y-91919524D01*
X80092380Y-92824286D02*
X79425714Y-92824286D01*
X79616190Y-92824286D02*
X79520952Y-92871905D01*
X79520952Y-92871905D02*
X79473333Y-92919524D01*
X79473333Y-92919524D02*
X79425714Y-93014762D01*
X79425714Y-93014762D02*
X79425714Y-93110000D01*
X80092380Y-94471905D02*
X79568571Y-94471905D01*
X79568571Y-94471905D02*
X79473333Y-94424286D01*
X79473333Y-94424286D02*
X79425714Y-94329048D01*
X79425714Y-94329048D02*
X79425714Y-94138572D01*
X79425714Y-94138572D02*
X79473333Y-94043334D01*
X80044761Y-94471905D02*
X80092380Y-94376667D01*
X80092380Y-94376667D02*
X80092380Y-94138572D01*
X80092380Y-94138572D02*
X80044761Y-94043334D01*
X80044761Y-94043334D02*
X79949523Y-93995715D01*
X79949523Y-93995715D02*
X79854285Y-93995715D01*
X79854285Y-93995715D02*
X79759047Y-94043334D01*
X79759047Y-94043334D02*
X79711428Y-94138572D01*
X79711428Y-94138572D02*
X79711428Y-94376667D01*
X79711428Y-94376667D02*
X79663809Y-94471905D01*
X79425714Y-94948096D02*
X80092380Y-94948096D01*
X79520952Y-94948096D02*
X79473333Y-94995715D01*
X79473333Y-94995715D02*
X79425714Y-95090953D01*
X79425714Y-95090953D02*
X79425714Y-95233810D01*
X79425714Y-95233810D02*
X79473333Y-95329048D01*
X79473333Y-95329048D02*
X79568571Y-95376667D01*
X79568571Y-95376667D02*
X80092380Y-95376667D01*
X80092380Y-96281429D02*
X79092380Y-96281429D01*
X80044761Y-96281429D02*
X80092380Y-96186191D01*
X80092380Y-96186191D02*
X80092380Y-95995715D01*
X80092380Y-95995715D02*
X80044761Y-95900477D01*
X80044761Y-95900477D02*
X79997142Y-95852858D01*
X79997142Y-95852858D02*
X79901904Y-95805239D01*
X79901904Y-95805239D02*
X79616190Y-95805239D01*
X79616190Y-95805239D02*
X79520952Y-95852858D01*
X79520952Y-95852858D02*
X79473333Y-95900477D01*
X79473333Y-95900477D02*
X79425714Y-95995715D01*
X79425714Y-95995715D02*
X79425714Y-96186191D01*
X79425714Y-96186191D02*
X79473333Y-96281429D01*
X79568571Y-97690953D02*
X79568571Y-97357620D01*
X80092380Y-97357620D02*
X79092380Y-97357620D01*
X79092380Y-97357620D02*
X79092380Y-97833810D01*
X80092380Y-98214763D02*
X79425714Y-98214763D01*
X79092380Y-98214763D02*
X79140000Y-98167144D01*
X79140000Y-98167144D02*
X79187619Y-98214763D01*
X79187619Y-98214763D02*
X79140000Y-98262382D01*
X79140000Y-98262382D02*
X79092380Y-98214763D01*
X79092380Y-98214763D02*
X79187619Y-98214763D01*
X80092380Y-98833810D02*
X80044761Y-98738572D01*
X80044761Y-98738572D02*
X79949523Y-98690953D01*
X79949523Y-98690953D02*
X79092380Y-98690953D01*
X79425714Y-99071906D02*
X79425714Y-99452858D01*
X79092380Y-99214763D02*
X79949523Y-99214763D01*
X79949523Y-99214763D02*
X80044761Y-99262382D01*
X80044761Y-99262382D02*
X80092380Y-99357620D01*
X80092380Y-99357620D02*
X80092380Y-99452858D01*
X80044761Y-100167144D02*
X80092380Y-100071906D01*
X80092380Y-100071906D02*
X80092380Y-99881430D01*
X80092380Y-99881430D02*
X80044761Y-99786192D01*
X80044761Y-99786192D02*
X79949523Y-99738573D01*
X79949523Y-99738573D02*
X79568571Y-99738573D01*
X79568571Y-99738573D02*
X79473333Y-99786192D01*
X79473333Y-99786192D02*
X79425714Y-99881430D01*
X79425714Y-99881430D02*
X79425714Y-100071906D01*
X79425714Y-100071906D02*
X79473333Y-100167144D01*
X79473333Y-100167144D02*
X79568571Y-100214763D01*
X79568571Y-100214763D02*
X79663809Y-100214763D01*
X79663809Y-100214763D02*
X79759047Y-99738573D01*
X80092380Y-100643335D02*
X79425714Y-100643335D01*
X79616190Y-100643335D02*
X79520952Y-100690954D01*
X79520952Y-100690954D02*
X79473333Y-100738573D01*
X79473333Y-100738573D02*
X79425714Y-100833811D01*
X79425714Y-100833811D02*
X79425714Y-100929049D01*
X79997142Y-101262383D02*
X80044761Y-101310002D01*
X80044761Y-101310002D02*
X80092380Y-101262383D01*
X80092380Y-101262383D02*
X80044761Y-101214764D01*
X80044761Y-101214764D02*
X79997142Y-101262383D01*
X79997142Y-101262383D02*
X80092380Y-101262383D01*
X79092380Y-102195716D02*
X80092380Y-102529049D01*
X80092380Y-102529049D02*
X79092380Y-102862382D01*
X79092380Y-103100478D02*
X79092380Y-103719525D01*
X79092380Y-103719525D02*
X79473333Y-103386192D01*
X79473333Y-103386192D02*
X79473333Y-103529049D01*
X79473333Y-103529049D02*
X79520952Y-103624287D01*
X79520952Y-103624287D02*
X79568571Y-103671906D01*
X79568571Y-103671906D02*
X79663809Y-103719525D01*
X79663809Y-103719525D02*
X79901904Y-103719525D01*
X79901904Y-103719525D02*
X79997142Y-103671906D01*
X79997142Y-103671906D02*
X80044761Y-103624287D01*
X80044761Y-103624287D02*
X80092380Y-103529049D01*
X80092380Y-103529049D02*
X80092380Y-103243335D01*
X80092380Y-103243335D02*
X80044761Y-103148097D01*
X80044761Y-103148097D02*
X79997142Y-103100478D01*
X79997142Y-104148097D02*
X80044761Y-104195716D01*
X80044761Y-104195716D02*
X80092380Y-104148097D01*
X80092380Y-104148097D02*
X80044761Y-104100478D01*
X80044761Y-104100478D02*
X79997142Y-104148097D01*
X79997142Y-104148097D02*
X80092380Y-104148097D01*
X79092380Y-104814763D02*
X79092380Y-104910001D01*
X79092380Y-104910001D02*
X79140000Y-105005239D01*
X79140000Y-105005239D02*
X79187619Y-105052858D01*
X79187619Y-105052858D02*
X79282857Y-105100477D01*
X79282857Y-105100477D02*
X79473333Y-105148096D01*
X79473333Y-105148096D02*
X79711428Y-105148096D01*
X79711428Y-105148096D02*
X79901904Y-105100477D01*
X79901904Y-105100477D02*
X79997142Y-105052858D01*
X79997142Y-105052858D02*
X80044761Y-105005239D01*
X80044761Y-105005239D02*
X80092380Y-104910001D01*
X80092380Y-104910001D02*
X80092380Y-104814763D01*
X80092380Y-104814763D02*
X80044761Y-104719525D01*
X80044761Y-104719525D02*
X79997142Y-104671906D01*
X79997142Y-104671906D02*
X79901904Y-104624287D01*
X79901904Y-104624287D02*
X79711428Y-104576668D01*
X79711428Y-104576668D02*
X79473333Y-104576668D01*
X79473333Y-104576668D02*
X79282857Y-104624287D01*
X79282857Y-104624287D02*
X79187619Y-104671906D01*
X79187619Y-104671906D02*
X79140000Y-104719525D01*
X79140000Y-104719525D02*
X79092380Y-104814763D01*
X118679523Y-44634761D02*
X118536666Y-44682380D01*
X118536666Y-44682380D02*
X118298571Y-44682380D01*
X118298571Y-44682380D02*
X118203333Y-44634761D01*
X118203333Y-44634761D02*
X118155714Y-44587142D01*
X118155714Y-44587142D02*
X118108095Y-44491904D01*
X118108095Y-44491904D02*
X118108095Y-44396666D01*
X118108095Y-44396666D02*
X118155714Y-44301428D01*
X118155714Y-44301428D02*
X118203333Y-44253809D01*
X118203333Y-44253809D02*
X118298571Y-44206190D01*
X118298571Y-44206190D02*
X118489047Y-44158571D01*
X118489047Y-44158571D02*
X118584285Y-44110952D01*
X118584285Y-44110952D02*
X118631904Y-44063333D01*
X118631904Y-44063333D02*
X118679523Y-43968095D01*
X118679523Y-43968095D02*
X118679523Y-43872857D01*
X118679523Y-43872857D02*
X118631904Y-43777619D01*
X118631904Y-43777619D02*
X118584285Y-43730000D01*
X118584285Y-43730000D02*
X118489047Y-43682380D01*
X118489047Y-43682380D02*
X118250952Y-43682380D01*
X118250952Y-43682380D02*
X118108095Y-43730000D01*
X117679523Y-44682380D02*
X117679523Y-43682380D01*
X117679523Y-43682380D02*
X117441428Y-43682380D01*
X117441428Y-43682380D02*
X117298571Y-43730000D01*
X117298571Y-43730000D02*
X117203333Y-43825238D01*
X117203333Y-43825238D02*
X117155714Y-43920476D01*
X117155714Y-43920476D02*
X117108095Y-44110952D01*
X117108095Y-44110952D02*
X117108095Y-44253809D01*
X117108095Y-44253809D02*
X117155714Y-44444285D01*
X117155714Y-44444285D02*
X117203333Y-44539523D01*
X117203333Y-44539523D02*
X117298571Y-44634761D01*
X117298571Y-44634761D02*
X117441428Y-44682380D01*
X117441428Y-44682380D02*
X117679523Y-44682380D01*
X116727142Y-44396666D02*
X116250952Y-44396666D01*
X116822380Y-44682380D02*
X116489047Y-43682380D01*
X116489047Y-43682380D02*
X116155714Y-44682380D01*
X123629523Y-44504761D02*
X123486666Y-44552380D01*
X123486666Y-44552380D02*
X123248571Y-44552380D01*
X123248571Y-44552380D02*
X123153333Y-44504761D01*
X123153333Y-44504761D02*
X123105714Y-44457142D01*
X123105714Y-44457142D02*
X123058095Y-44361904D01*
X123058095Y-44361904D02*
X123058095Y-44266666D01*
X123058095Y-44266666D02*
X123105714Y-44171428D01*
X123105714Y-44171428D02*
X123153333Y-44123809D01*
X123153333Y-44123809D02*
X123248571Y-44076190D01*
X123248571Y-44076190D02*
X123439047Y-44028571D01*
X123439047Y-44028571D02*
X123534285Y-43980952D01*
X123534285Y-43980952D02*
X123581904Y-43933333D01*
X123581904Y-43933333D02*
X123629523Y-43838095D01*
X123629523Y-43838095D02*
X123629523Y-43742857D01*
X123629523Y-43742857D02*
X123581904Y-43647619D01*
X123581904Y-43647619D02*
X123534285Y-43600000D01*
X123534285Y-43600000D02*
X123439047Y-43552380D01*
X123439047Y-43552380D02*
X123200952Y-43552380D01*
X123200952Y-43552380D02*
X123058095Y-43600000D01*
X122058095Y-44457142D02*
X122105714Y-44504761D01*
X122105714Y-44504761D02*
X122248571Y-44552380D01*
X122248571Y-44552380D02*
X122343809Y-44552380D01*
X122343809Y-44552380D02*
X122486666Y-44504761D01*
X122486666Y-44504761D02*
X122581904Y-44409523D01*
X122581904Y-44409523D02*
X122629523Y-44314285D01*
X122629523Y-44314285D02*
X122677142Y-44123809D01*
X122677142Y-44123809D02*
X122677142Y-43980952D01*
X122677142Y-43980952D02*
X122629523Y-43790476D01*
X122629523Y-43790476D02*
X122581904Y-43695238D01*
X122581904Y-43695238D02*
X122486666Y-43600000D01*
X122486666Y-43600000D02*
X122343809Y-43552380D01*
X122343809Y-43552380D02*
X122248571Y-43552380D01*
X122248571Y-43552380D02*
X122105714Y-43600000D01*
X122105714Y-43600000D02*
X122058095Y-43647619D01*
X121153333Y-44552380D02*
X121629523Y-44552380D01*
X121629523Y-44552380D02*
X121629523Y-43552380D01*
X128794761Y-43552380D02*
X128461428Y-44552380D01*
X128461428Y-44552380D02*
X128128095Y-43552380D01*
X127223333Y-44457142D02*
X127270952Y-44504761D01*
X127270952Y-44504761D02*
X127413809Y-44552380D01*
X127413809Y-44552380D02*
X127509047Y-44552380D01*
X127509047Y-44552380D02*
X127651904Y-44504761D01*
X127651904Y-44504761D02*
X127747142Y-44409523D01*
X127747142Y-44409523D02*
X127794761Y-44314285D01*
X127794761Y-44314285D02*
X127842380Y-44123809D01*
X127842380Y-44123809D02*
X127842380Y-43980952D01*
X127842380Y-43980952D02*
X127794761Y-43790476D01*
X127794761Y-43790476D02*
X127747142Y-43695238D01*
X127747142Y-43695238D02*
X127651904Y-43600000D01*
X127651904Y-43600000D02*
X127509047Y-43552380D01*
X127509047Y-43552380D02*
X127413809Y-43552380D01*
X127413809Y-43552380D02*
X127270952Y-43600000D01*
X127270952Y-43600000D02*
X127223333Y-43647619D01*
X126270952Y-44552380D02*
X126842380Y-44552380D01*
X126556666Y-44552380D02*
X126556666Y-43552380D01*
X126556666Y-43552380D02*
X126651904Y-43695238D01*
X126651904Y-43695238D02*
X126747142Y-43790476D01*
X126747142Y-43790476D02*
X126842380Y-43838095D01*
X133934761Y-43482380D02*
X133601428Y-44482380D01*
X133601428Y-44482380D02*
X133268095Y-43482380D01*
X132363333Y-44387142D02*
X132410952Y-44434761D01*
X132410952Y-44434761D02*
X132553809Y-44482380D01*
X132553809Y-44482380D02*
X132649047Y-44482380D01*
X132649047Y-44482380D02*
X132791904Y-44434761D01*
X132791904Y-44434761D02*
X132887142Y-44339523D01*
X132887142Y-44339523D02*
X132934761Y-44244285D01*
X132934761Y-44244285D02*
X132982380Y-44053809D01*
X132982380Y-44053809D02*
X132982380Y-43910952D01*
X132982380Y-43910952D02*
X132934761Y-43720476D01*
X132934761Y-43720476D02*
X132887142Y-43625238D01*
X132887142Y-43625238D02*
X132791904Y-43530000D01*
X132791904Y-43530000D02*
X132649047Y-43482380D01*
X132649047Y-43482380D02*
X132553809Y-43482380D01*
X132553809Y-43482380D02*
X132410952Y-43530000D01*
X132410952Y-43530000D02*
X132363333Y-43577619D01*
X131982380Y-43577619D02*
X131934761Y-43530000D01*
X131934761Y-43530000D02*
X131839523Y-43482380D01*
X131839523Y-43482380D02*
X131601428Y-43482380D01*
X131601428Y-43482380D02*
X131506190Y-43530000D01*
X131506190Y-43530000D02*
X131458571Y-43577619D01*
X131458571Y-43577619D02*
X131410952Y-43672857D01*
X131410952Y-43672857D02*
X131410952Y-43768095D01*
X131410952Y-43768095D02*
X131458571Y-43910952D01*
X131458571Y-43910952D02*
X132029999Y-44482380D01*
X132029999Y-44482380D02*
X131410952Y-44482380D01*
X140294761Y-43602380D02*
X139723333Y-43602380D01*
X140009047Y-44602380D02*
X140009047Y-43602380D01*
X139485237Y-43602380D02*
X138818571Y-44602380D01*
X138818571Y-43602380D02*
X139485237Y-44602380D01*
X138437618Y-44078571D02*
X138104285Y-44078571D01*
X137961428Y-44602380D02*
X138437618Y-44602380D01*
X138437618Y-44602380D02*
X138437618Y-43602380D01*
X138437618Y-43602380D02*
X137961428Y-43602380D01*
X137532856Y-44602380D02*
X137532856Y-43602380D01*
X137532856Y-43602380D02*
X136961428Y-44602380D01*
X136961428Y-44602380D02*
X136961428Y-43602380D01*
X136723333Y-44697619D02*
X135961428Y-44697619D01*
X135247142Y-44602380D02*
X135723332Y-44602380D01*
X135723332Y-44602380D02*
X135723332Y-43602380D01*
X143771904Y-44512380D02*
X143771904Y-43512380D01*
X143771904Y-43512380D02*
X143200476Y-44512380D01*
X143200476Y-44512380D02*
X143200476Y-43512380D01*
X142152857Y-44417142D02*
X142200476Y-44464761D01*
X142200476Y-44464761D02*
X142343333Y-44512380D01*
X142343333Y-44512380D02*
X142438571Y-44512380D01*
X142438571Y-44512380D02*
X142581428Y-44464761D01*
X142581428Y-44464761D02*
X142676666Y-44369523D01*
X142676666Y-44369523D02*
X142724285Y-44274285D01*
X142724285Y-44274285D02*
X142771904Y-44083809D01*
X142771904Y-44083809D02*
X142771904Y-43940952D01*
X142771904Y-43940952D02*
X142724285Y-43750476D01*
X142724285Y-43750476D02*
X142676666Y-43655238D01*
X142676666Y-43655238D02*
X142581428Y-43560000D01*
X142581428Y-43560000D02*
X142438571Y-43512380D01*
X142438571Y-43512380D02*
X142343333Y-43512380D01*
X142343333Y-43512380D02*
X142200476Y-43560000D01*
X142200476Y-43560000D02*
X142152857Y-43607619D01*
X149741904Y-44261428D02*
X148980000Y-44261428D01*
X149360952Y-44642380D02*
X149360952Y-43880476D01*
X147980000Y-44642380D02*
X148551428Y-44642380D01*
X148265714Y-44642380D02*
X148265714Y-43642380D01*
X148265714Y-43642380D02*
X148360952Y-43785238D01*
X148360952Y-43785238D02*
X148456190Y-43880476D01*
X148456190Y-43880476D02*
X148551428Y-43928095D01*
X147075238Y-43642380D02*
X147551428Y-43642380D01*
X147551428Y-43642380D02*
X147599047Y-44118571D01*
X147599047Y-44118571D02*
X147551428Y-44070952D01*
X147551428Y-44070952D02*
X147456190Y-44023333D01*
X147456190Y-44023333D02*
X147218095Y-44023333D01*
X147218095Y-44023333D02*
X147122857Y-44070952D01*
X147122857Y-44070952D02*
X147075238Y-44118571D01*
X147075238Y-44118571D02*
X147027619Y-44213809D01*
X147027619Y-44213809D02*
X147027619Y-44451904D01*
X147027619Y-44451904D02*
X147075238Y-44547142D01*
X147075238Y-44547142D02*
X147122857Y-44594761D01*
X147122857Y-44594761D02*
X147218095Y-44642380D01*
X147218095Y-44642380D02*
X147456190Y-44642380D01*
X147456190Y-44642380D02*
X147551428Y-44594761D01*
X147551428Y-44594761D02*
X147599047Y-44547142D01*
X146741904Y-43642380D02*
X146408571Y-44642380D01*
X146408571Y-44642380D02*
X146075238Y-43642380D01*
X154008095Y-43730000D02*
X154103333Y-43682380D01*
X154103333Y-43682380D02*
X154246190Y-43682380D01*
X154246190Y-43682380D02*
X154389047Y-43730000D01*
X154389047Y-43730000D02*
X154484285Y-43825238D01*
X154484285Y-43825238D02*
X154531904Y-43920476D01*
X154531904Y-43920476D02*
X154579523Y-44110952D01*
X154579523Y-44110952D02*
X154579523Y-44253809D01*
X154579523Y-44253809D02*
X154531904Y-44444285D01*
X154531904Y-44444285D02*
X154484285Y-44539523D01*
X154484285Y-44539523D02*
X154389047Y-44634761D01*
X154389047Y-44634761D02*
X154246190Y-44682380D01*
X154246190Y-44682380D02*
X154150952Y-44682380D01*
X154150952Y-44682380D02*
X154008095Y-44634761D01*
X154008095Y-44634761D02*
X153960476Y-44587142D01*
X153960476Y-44587142D02*
X153960476Y-44253809D01*
X153960476Y-44253809D02*
X154150952Y-44253809D01*
X153531904Y-44682380D02*
X153531904Y-43682380D01*
X153531904Y-43682380D02*
X152960476Y-44682380D01*
X152960476Y-44682380D02*
X152960476Y-43682380D01*
X152484285Y-44682380D02*
X152484285Y-43682380D01*
X152484285Y-43682380D02*
X152246190Y-43682380D01*
X152246190Y-43682380D02*
X152103333Y-43730000D01*
X152103333Y-43730000D02*
X152008095Y-43825238D01*
X152008095Y-43825238D02*
X151960476Y-43920476D01*
X151960476Y-43920476D02*
X151912857Y-44110952D01*
X151912857Y-44110952D02*
X151912857Y-44253809D01*
X151912857Y-44253809D02*
X151960476Y-44444285D01*
X151960476Y-44444285D02*
X152008095Y-44539523D01*
X152008095Y-44539523D02*
X152103333Y-44634761D01*
X152103333Y-44634761D02*
X152246190Y-44682380D01*
X152246190Y-44682380D02*
X152484285Y-44682380D01*
X151957142Y-71499523D02*
X152004761Y-71451904D01*
X152004761Y-71451904D02*
X152052380Y-71309047D01*
X152052380Y-71309047D02*
X152052380Y-71213809D01*
X152052380Y-71213809D02*
X152004761Y-71070952D01*
X152004761Y-71070952D02*
X151909523Y-70975714D01*
X151909523Y-70975714D02*
X151814285Y-70928095D01*
X151814285Y-70928095D02*
X151623809Y-70880476D01*
X151623809Y-70880476D02*
X151480952Y-70880476D01*
X151480952Y-70880476D02*
X151290476Y-70928095D01*
X151290476Y-70928095D02*
X151195238Y-70975714D01*
X151195238Y-70975714D02*
X151100000Y-71070952D01*
X151100000Y-71070952D02*
X151052380Y-71213809D01*
X151052380Y-71213809D02*
X151052380Y-71309047D01*
X151052380Y-71309047D02*
X151100000Y-71451904D01*
X151100000Y-71451904D02*
X151147619Y-71499523D01*
X151052380Y-72118571D02*
X151052380Y-72309047D01*
X151052380Y-72309047D02*
X151100000Y-72404285D01*
X151100000Y-72404285D02*
X151195238Y-72499523D01*
X151195238Y-72499523D02*
X151385714Y-72547142D01*
X151385714Y-72547142D02*
X151719047Y-72547142D01*
X151719047Y-72547142D02*
X151909523Y-72499523D01*
X151909523Y-72499523D02*
X152004761Y-72404285D01*
X152004761Y-72404285D02*
X152052380Y-72309047D01*
X152052380Y-72309047D02*
X152052380Y-72118571D01*
X152052380Y-72118571D02*
X152004761Y-72023333D01*
X152004761Y-72023333D02*
X151909523Y-71928095D01*
X151909523Y-71928095D02*
X151719047Y-71880476D01*
X151719047Y-71880476D02*
X151385714Y-71880476D01*
X151385714Y-71880476D02*
X151195238Y-71928095D01*
X151195238Y-71928095D02*
X151100000Y-72023333D01*
X151100000Y-72023333D02*
X151052380Y-72118571D01*
X151052380Y-73166190D02*
X151052380Y-73356666D01*
X151052380Y-73356666D02*
X151100000Y-73451904D01*
X151100000Y-73451904D02*
X151195238Y-73547142D01*
X151195238Y-73547142D02*
X151385714Y-73594761D01*
X151385714Y-73594761D02*
X151719047Y-73594761D01*
X151719047Y-73594761D02*
X151909523Y-73547142D01*
X151909523Y-73547142D02*
X152004761Y-73451904D01*
X152004761Y-73451904D02*
X152052380Y-73356666D01*
X152052380Y-73356666D02*
X152052380Y-73166190D01*
X152052380Y-73166190D02*
X152004761Y-73070952D01*
X152004761Y-73070952D02*
X151909523Y-72975714D01*
X151909523Y-72975714D02*
X151719047Y-72928095D01*
X151719047Y-72928095D02*
X151385714Y-72928095D01*
X151385714Y-72928095D02*
X151195238Y-72975714D01*
X151195238Y-72975714D02*
X151100000Y-73070952D01*
X151100000Y-73070952D02*
X151052380Y-73166190D01*
X152052380Y-74499523D02*
X152052380Y-74023333D01*
X152052380Y-74023333D02*
X151052380Y-74023333D01*
X151528571Y-74832857D02*
X151528571Y-75166190D01*
X152052380Y-75309047D02*
X152052380Y-74832857D01*
X152052380Y-74832857D02*
X151052380Y-74832857D01*
X151052380Y-74832857D02*
X151052380Y-75309047D01*
X152052380Y-76309047D02*
X151576190Y-75975714D01*
X152052380Y-75737619D02*
X151052380Y-75737619D01*
X151052380Y-75737619D02*
X151052380Y-76118571D01*
X151052380Y-76118571D02*
X151100000Y-76213809D01*
X151100000Y-76213809D02*
X151147619Y-76261428D01*
X151147619Y-76261428D02*
X151242857Y-76309047D01*
X151242857Y-76309047D02*
X151385714Y-76309047D01*
X151385714Y-76309047D02*
X151480952Y-76261428D01*
X151480952Y-76261428D02*
X151528571Y-76213809D01*
X151528571Y-76213809D02*
X151576190Y-76118571D01*
X151576190Y-76118571D02*
X151576190Y-75737619D01*
X82732380Y-110039523D02*
X82256190Y-109706190D01*
X82732380Y-109468095D02*
X81732380Y-109468095D01*
X81732380Y-109468095D02*
X81732380Y-109849047D01*
X81732380Y-109849047D02*
X81780000Y-109944285D01*
X81780000Y-109944285D02*
X81827619Y-109991904D01*
X81827619Y-109991904D02*
X81922857Y-110039523D01*
X81922857Y-110039523D02*
X82065714Y-110039523D01*
X82065714Y-110039523D02*
X82160952Y-109991904D01*
X82160952Y-109991904D02*
X82208571Y-109944285D01*
X82208571Y-109944285D02*
X82256190Y-109849047D01*
X82256190Y-109849047D02*
X82256190Y-109468095D01*
X82208571Y-110801428D02*
X82208571Y-110468095D01*
X82732380Y-110468095D02*
X81732380Y-110468095D01*
X81732380Y-110468095D02*
X81732380Y-110944285D01*
X82732380Y-111925238D02*
X81732380Y-111925238D01*
X82732380Y-112401428D02*
X81732380Y-112401428D01*
X81732380Y-112401428D02*
X82732380Y-112972856D01*
X82732380Y-112972856D02*
X81732380Y-112972856D01*
X120290476Y-99912380D02*
X120623809Y-99436190D01*
X120861904Y-99912380D02*
X120861904Y-98912380D01*
X120861904Y-98912380D02*
X120480952Y-98912380D01*
X120480952Y-98912380D02*
X120385714Y-98960000D01*
X120385714Y-98960000D02*
X120338095Y-99007619D01*
X120338095Y-99007619D02*
X120290476Y-99102857D01*
X120290476Y-99102857D02*
X120290476Y-99245714D01*
X120290476Y-99245714D02*
X120338095Y-99340952D01*
X120338095Y-99340952D02*
X120385714Y-99388571D01*
X120385714Y-99388571D02*
X120480952Y-99436190D01*
X120480952Y-99436190D02*
X120861904Y-99436190D01*
X119528571Y-99388571D02*
X119861904Y-99388571D01*
X119861904Y-99912380D02*
X119861904Y-98912380D01*
X119861904Y-98912380D02*
X119385714Y-98912380D01*
X118214285Y-98912380D02*
X118023809Y-98912380D01*
X118023809Y-98912380D02*
X117928571Y-98960000D01*
X117928571Y-98960000D02*
X117833333Y-99055238D01*
X117833333Y-99055238D02*
X117785714Y-99245714D01*
X117785714Y-99245714D02*
X117785714Y-99579047D01*
X117785714Y-99579047D02*
X117833333Y-99769523D01*
X117833333Y-99769523D02*
X117928571Y-99864761D01*
X117928571Y-99864761D02*
X118023809Y-99912380D01*
X118023809Y-99912380D02*
X118214285Y-99912380D01*
X118214285Y-99912380D02*
X118309523Y-99864761D01*
X118309523Y-99864761D02*
X118404761Y-99769523D01*
X118404761Y-99769523D02*
X118452380Y-99579047D01*
X118452380Y-99579047D02*
X118452380Y-99245714D01*
X118452380Y-99245714D02*
X118404761Y-99055238D01*
X118404761Y-99055238D02*
X118309523Y-98960000D01*
X118309523Y-98960000D02*
X118214285Y-98912380D01*
X117357142Y-98912380D02*
X117357142Y-99721904D01*
X117357142Y-99721904D02*
X117309523Y-99817142D01*
X117309523Y-99817142D02*
X117261904Y-99864761D01*
X117261904Y-99864761D02*
X117166666Y-99912380D01*
X117166666Y-99912380D02*
X116976190Y-99912380D01*
X116976190Y-99912380D02*
X116880952Y-99864761D01*
X116880952Y-99864761D02*
X116833333Y-99817142D01*
X116833333Y-99817142D02*
X116785714Y-99721904D01*
X116785714Y-99721904D02*
X116785714Y-98912380D01*
X116452380Y-98912380D02*
X115880952Y-98912380D01*
X116166666Y-99912380D02*
X116166666Y-98912380D01*
X114423809Y-99912380D02*
X114995237Y-99912380D01*
X114709523Y-99912380D02*
X114709523Y-98912380D01*
X114709523Y-98912380D02*
X114804761Y-99055238D01*
X114804761Y-99055238D02*
X114899999Y-99150476D01*
X114899999Y-99150476D02*
X114995237Y-99198095D01*
X114042856Y-99007619D02*
X113995237Y-98960000D01*
X113995237Y-98960000D02*
X113899999Y-98912380D01*
X113899999Y-98912380D02*
X113661904Y-98912380D01*
X113661904Y-98912380D02*
X113566666Y-98960000D01*
X113566666Y-98960000D02*
X113519047Y-99007619D01*
X113519047Y-99007619D02*
X113471428Y-99102857D01*
X113471428Y-99102857D02*
X113471428Y-99198095D01*
X113471428Y-99198095D02*
X113519047Y-99340952D01*
X113519047Y-99340952D02*
X114090475Y-99912380D01*
X114090475Y-99912380D02*
X113471428Y-99912380D01*
X112995237Y-99912380D02*
X112804761Y-99912380D01*
X112804761Y-99912380D02*
X112709523Y-99864761D01*
X112709523Y-99864761D02*
X112661904Y-99817142D01*
X112661904Y-99817142D02*
X112566666Y-99674285D01*
X112566666Y-99674285D02*
X112519047Y-99483809D01*
X112519047Y-99483809D02*
X112519047Y-99102857D01*
X112519047Y-99102857D02*
X112566666Y-99007619D01*
X112566666Y-99007619D02*
X112614285Y-98960000D01*
X112614285Y-98960000D02*
X112709523Y-98912380D01*
X112709523Y-98912380D02*
X112899999Y-98912380D01*
X112899999Y-98912380D02*
X112995237Y-98960000D01*
X112995237Y-98960000D02*
X113042856Y-99007619D01*
X113042856Y-99007619D02*
X113090475Y-99102857D01*
X113090475Y-99102857D02*
X113090475Y-99340952D01*
X113090475Y-99340952D02*
X113042856Y-99436190D01*
X113042856Y-99436190D02*
X112995237Y-99483809D01*
X112995237Y-99483809D02*
X112899999Y-99531428D01*
X112899999Y-99531428D02*
X112709523Y-99531428D01*
X112709523Y-99531428D02*
X112614285Y-99483809D01*
X112614285Y-99483809D02*
X112566666Y-99436190D01*
X112566666Y-99436190D02*
X112519047Y-99340952D01*
X111661904Y-98912380D02*
X111852380Y-98912380D01*
X111852380Y-98912380D02*
X111947618Y-98960000D01*
X111947618Y-98960000D02*
X111995237Y-99007619D01*
X111995237Y-99007619D02*
X112090475Y-99150476D01*
X112090475Y-99150476D02*
X112138094Y-99340952D01*
X112138094Y-99340952D02*
X112138094Y-99721904D01*
X112138094Y-99721904D02*
X112090475Y-99817142D01*
X112090475Y-99817142D02*
X112042856Y-99864761D01*
X112042856Y-99864761D02*
X111947618Y-99912380D01*
X111947618Y-99912380D02*
X111757142Y-99912380D01*
X111757142Y-99912380D02*
X111661904Y-99864761D01*
X111661904Y-99864761D02*
X111614285Y-99817142D01*
X111614285Y-99817142D02*
X111566666Y-99721904D01*
X111566666Y-99721904D02*
X111566666Y-99483809D01*
X111566666Y-99483809D02*
X111614285Y-99388571D01*
X111614285Y-99388571D02*
X111661904Y-99340952D01*
X111661904Y-99340952D02*
X111757142Y-99293333D01*
X111757142Y-99293333D02*
X111947618Y-99293333D01*
X111947618Y-99293333D02*
X112042856Y-99340952D01*
X112042856Y-99340952D02*
X112090475Y-99388571D01*
X112090475Y-99388571D02*
X112138094Y-99483809D01*
X110538094Y-99912380D02*
X110538094Y-98912380D01*
X110538094Y-98912380D02*
X110204761Y-99626666D01*
X110204761Y-99626666D02*
X109871428Y-98912380D01*
X109871428Y-98912380D02*
X109871428Y-99912380D01*
X109395237Y-99912380D02*
X109395237Y-98912380D01*
X109395237Y-99388571D02*
X108823809Y-99388571D01*
X108823809Y-99912380D02*
X108823809Y-98912380D01*
X108442856Y-99245714D02*
X107919047Y-99245714D01*
X107919047Y-99245714D02*
X108442856Y-99912380D01*
X108442856Y-99912380D02*
X107919047Y-99912380D01*
X134150476Y-108112380D02*
X134483809Y-107636190D01*
X134721904Y-108112380D02*
X134721904Y-107112380D01*
X134721904Y-107112380D02*
X134340952Y-107112380D01*
X134340952Y-107112380D02*
X134245714Y-107160000D01*
X134245714Y-107160000D02*
X134198095Y-107207619D01*
X134198095Y-107207619D02*
X134150476Y-107302857D01*
X134150476Y-107302857D02*
X134150476Y-107445714D01*
X134150476Y-107445714D02*
X134198095Y-107540952D01*
X134198095Y-107540952D02*
X134245714Y-107588571D01*
X134245714Y-107588571D02*
X134340952Y-107636190D01*
X134340952Y-107636190D02*
X134721904Y-107636190D01*
X133388571Y-107588571D02*
X133721904Y-107588571D01*
X133721904Y-108112380D02*
X133721904Y-107112380D01*
X133721904Y-107112380D02*
X133245714Y-107112380D01*
X132074285Y-107112380D02*
X131883809Y-107112380D01*
X131883809Y-107112380D02*
X131788571Y-107160000D01*
X131788571Y-107160000D02*
X131693333Y-107255238D01*
X131693333Y-107255238D02*
X131645714Y-107445714D01*
X131645714Y-107445714D02*
X131645714Y-107779047D01*
X131645714Y-107779047D02*
X131693333Y-107969523D01*
X131693333Y-107969523D02*
X131788571Y-108064761D01*
X131788571Y-108064761D02*
X131883809Y-108112380D01*
X131883809Y-108112380D02*
X132074285Y-108112380D01*
X132074285Y-108112380D02*
X132169523Y-108064761D01*
X132169523Y-108064761D02*
X132264761Y-107969523D01*
X132264761Y-107969523D02*
X132312380Y-107779047D01*
X132312380Y-107779047D02*
X132312380Y-107445714D01*
X132312380Y-107445714D02*
X132264761Y-107255238D01*
X132264761Y-107255238D02*
X132169523Y-107160000D01*
X132169523Y-107160000D02*
X132074285Y-107112380D01*
X131217142Y-107112380D02*
X131217142Y-107921904D01*
X131217142Y-107921904D02*
X131169523Y-108017142D01*
X131169523Y-108017142D02*
X131121904Y-108064761D01*
X131121904Y-108064761D02*
X131026666Y-108112380D01*
X131026666Y-108112380D02*
X130836190Y-108112380D01*
X130836190Y-108112380D02*
X130740952Y-108064761D01*
X130740952Y-108064761D02*
X130693333Y-108017142D01*
X130693333Y-108017142D02*
X130645714Y-107921904D01*
X130645714Y-107921904D02*
X130645714Y-107112380D01*
X130312380Y-107112380D02*
X129740952Y-107112380D01*
X130026666Y-108112380D02*
X130026666Y-107112380D01*
X128283809Y-108112380D02*
X128855237Y-108112380D01*
X128569523Y-108112380D02*
X128569523Y-107112380D01*
X128569523Y-107112380D02*
X128664761Y-107255238D01*
X128664761Y-107255238D02*
X128759999Y-107350476D01*
X128759999Y-107350476D02*
X128855237Y-107398095D01*
X127426666Y-107445714D02*
X127426666Y-108112380D01*
X127664761Y-107064761D02*
X127902856Y-107779047D01*
X127902856Y-107779047D02*
X127283809Y-107779047D01*
X126474285Y-107445714D02*
X126474285Y-108112380D01*
X126712380Y-107064761D02*
X126950475Y-107779047D01*
X126950475Y-107779047D02*
X126331428Y-107779047D01*
X125350475Y-108112380D02*
X125350475Y-107112380D01*
X125350475Y-107112380D02*
X125017142Y-107826666D01*
X125017142Y-107826666D02*
X124683809Y-107112380D01*
X124683809Y-107112380D02*
X124683809Y-108112380D01*
X124207618Y-108112380D02*
X124207618Y-107112380D01*
X124207618Y-107588571D02*
X123636190Y-107588571D01*
X123636190Y-108112380D02*
X123636190Y-107112380D01*
X123255237Y-107445714D02*
X122731428Y-107445714D01*
X122731428Y-107445714D02*
X123255237Y-108112380D01*
X123255237Y-108112380D02*
X122731428Y-108112380D01*
X148280476Y-108072380D02*
X148613809Y-107596190D01*
X148851904Y-108072380D02*
X148851904Y-107072380D01*
X148851904Y-107072380D02*
X148470952Y-107072380D01*
X148470952Y-107072380D02*
X148375714Y-107120000D01*
X148375714Y-107120000D02*
X148328095Y-107167619D01*
X148328095Y-107167619D02*
X148280476Y-107262857D01*
X148280476Y-107262857D02*
X148280476Y-107405714D01*
X148280476Y-107405714D02*
X148328095Y-107500952D01*
X148328095Y-107500952D02*
X148375714Y-107548571D01*
X148375714Y-107548571D02*
X148470952Y-107596190D01*
X148470952Y-107596190D02*
X148851904Y-107596190D01*
X147518571Y-107548571D02*
X147851904Y-107548571D01*
X147851904Y-108072380D02*
X147851904Y-107072380D01*
X147851904Y-107072380D02*
X147375714Y-107072380D01*
X146204285Y-107072380D02*
X146013809Y-107072380D01*
X146013809Y-107072380D02*
X145918571Y-107120000D01*
X145918571Y-107120000D02*
X145823333Y-107215238D01*
X145823333Y-107215238D02*
X145775714Y-107405714D01*
X145775714Y-107405714D02*
X145775714Y-107739047D01*
X145775714Y-107739047D02*
X145823333Y-107929523D01*
X145823333Y-107929523D02*
X145918571Y-108024761D01*
X145918571Y-108024761D02*
X146013809Y-108072380D01*
X146013809Y-108072380D02*
X146204285Y-108072380D01*
X146204285Y-108072380D02*
X146299523Y-108024761D01*
X146299523Y-108024761D02*
X146394761Y-107929523D01*
X146394761Y-107929523D02*
X146442380Y-107739047D01*
X146442380Y-107739047D02*
X146442380Y-107405714D01*
X146442380Y-107405714D02*
X146394761Y-107215238D01*
X146394761Y-107215238D02*
X146299523Y-107120000D01*
X146299523Y-107120000D02*
X146204285Y-107072380D01*
X145347142Y-107072380D02*
X145347142Y-107881904D01*
X145347142Y-107881904D02*
X145299523Y-107977142D01*
X145299523Y-107977142D02*
X145251904Y-108024761D01*
X145251904Y-108024761D02*
X145156666Y-108072380D01*
X145156666Y-108072380D02*
X144966190Y-108072380D01*
X144966190Y-108072380D02*
X144870952Y-108024761D01*
X144870952Y-108024761D02*
X144823333Y-107977142D01*
X144823333Y-107977142D02*
X144775714Y-107881904D01*
X144775714Y-107881904D02*
X144775714Y-107072380D01*
X144442380Y-107072380D02*
X143870952Y-107072380D01*
X144156666Y-108072380D02*
X144156666Y-107072380D01*
X142509047Y-107405714D02*
X142509047Y-108072380D01*
X142747142Y-107024761D02*
X142985237Y-107739047D01*
X142985237Y-107739047D02*
X142366190Y-107739047D01*
X142080475Y-107072380D02*
X141461428Y-107072380D01*
X141461428Y-107072380D02*
X141794761Y-107453333D01*
X141794761Y-107453333D02*
X141651904Y-107453333D01*
X141651904Y-107453333D02*
X141556666Y-107500952D01*
X141556666Y-107500952D02*
X141509047Y-107548571D01*
X141509047Y-107548571D02*
X141461428Y-107643809D01*
X141461428Y-107643809D02*
X141461428Y-107881904D01*
X141461428Y-107881904D02*
X141509047Y-107977142D01*
X141509047Y-107977142D02*
X141556666Y-108024761D01*
X141556666Y-108024761D02*
X141651904Y-108072380D01*
X141651904Y-108072380D02*
X141937618Y-108072380D01*
X141937618Y-108072380D02*
X142032856Y-108024761D01*
X142032856Y-108024761D02*
X142080475Y-107977142D01*
X141080475Y-107167619D02*
X141032856Y-107120000D01*
X141032856Y-107120000D02*
X140937618Y-107072380D01*
X140937618Y-107072380D02*
X140699523Y-107072380D01*
X140699523Y-107072380D02*
X140604285Y-107120000D01*
X140604285Y-107120000D02*
X140556666Y-107167619D01*
X140556666Y-107167619D02*
X140509047Y-107262857D01*
X140509047Y-107262857D02*
X140509047Y-107358095D01*
X140509047Y-107358095D02*
X140556666Y-107500952D01*
X140556666Y-107500952D02*
X141128094Y-108072380D01*
X141128094Y-108072380D02*
X140509047Y-108072380D01*
X139480475Y-108072380D02*
X139480475Y-107072380D01*
X139480475Y-107072380D02*
X139147142Y-107786666D01*
X139147142Y-107786666D02*
X138813809Y-107072380D01*
X138813809Y-107072380D02*
X138813809Y-108072380D01*
X138337618Y-108072380D02*
X138337618Y-107072380D01*
X138337618Y-107548571D02*
X137766190Y-107548571D01*
X137766190Y-108072380D02*
X137766190Y-107072380D01*
X137385237Y-107405714D02*
X136861428Y-107405714D01*
X136861428Y-107405714D02*
X137385237Y-108072380D01*
X137385237Y-108072380D02*
X136861428Y-108072380D01*
X143510476Y-125032380D02*
X143843809Y-124556190D01*
X144081904Y-125032380D02*
X144081904Y-124032380D01*
X144081904Y-124032380D02*
X143700952Y-124032380D01*
X143700952Y-124032380D02*
X143605714Y-124080000D01*
X143605714Y-124080000D02*
X143558095Y-124127619D01*
X143558095Y-124127619D02*
X143510476Y-124222857D01*
X143510476Y-124222857D02*
X143510476Y-124365714D01*
X143510476Y-124365714D02*
X143558095Y-124460952D01*
X143558095Y-124460952D02*
X143605714Y-124508571D01*
X143605714Y-124508571D02*
X143700952Y-124556190D01*
X143700952Y-124556190D02*
X144081904Y-124556190D01*
X142748571Y-124508571D02*
X143081904Y-124508571D01*
X143081904Y-125032380D02*
X143081904Y-124032380D01*
X143081904Y-124032380D02*
X142605714Y-124032380D01*
X141434285Y-124032380D02*
X141243809Y-124032380D01*
X141243809Y-124032380D02*
X141148571Y-124080000D01*
X141148571Y-124080000D02*
X141053333Y-124175238D01*
X141053333Y-124175238D02*
X141005714Y-124365714D01*
X141005714Y-124365714D02*
X141005714Y-124699047D01*
X141005714Y-124699047D02*
X141053333Y-124889523D01*
X141053333Y-124889523D02*
X141148571Y-124984761D01*
X141148571Y-124984761D02*
X141243809Y-125032380D01*
X141243809Y-125032380D02*
X141434285Y-125032380D01*
X141434285Y-125032380D02*
X141529523Y-124984761D01*
X141529523Y-124984761D02*
X141624761Y-124889523D01*
X141624761Y-124889523D02*
X141672380Y-124699047D01*
X141672380Y-124699047D02*
X141672380Y-124365714D01*
X141672380Y-124365714D02*
X141624761Y-124175238D01*
X141624761Y-124175238D02*
X141529523Y-124080000D01*
X141529523Y-124080000D02*
X141434285Y-124032380D01*
X140577142Y-124032380D02*
X140577142Y-124841904D01*
X140577142Y-124841904D02*
X140529523Y-124937142D01*
X140529523Y-124937142D02*
X140481904Y-124984761D01*
X140481904Y-124984761D02*
X140386666Y-125032380D01*
X140386666Y-125032380D02*
X140196190Y-125032380D01*
X140196190Y-125032380D02*
X140100952Y-124984761D01*
X140100952Y-124984761D02*
X140053333Y-124937142D01*
X140053333Y-124937142D02*
X140005714Y-124841904D01*
X140005714Y-124841904D02*
X140005714Y-124032380D01*
X139672380Y-124032380D02*
X139100952Y-124032380D01*
X139386666Y-125032380D02*
X139386666Y-124032380D01*
X137691428Y-124032380D02*
X138167618Y-124032380D01*
X138167618Y-124032380D02*
X138215237Y-124508571D01*
X138215237Y-124508571D02*
X138167618Y-124460952D01*
X138167618Y-124460952D02*
X138072380Y-124413333D01*
X138072380Y-124413333D02*
X137834285Y-124413333D01*
X137834285Y-124413333D02*
X137739047Y-124460952D01*
X137739047Y-124460952D02*
X137691428Y-124508571D01*
X137691428Y-124508571D02*
X137643809Y-124603809D01*
X137643809Y-124603809D02*
X137643809Y-124841904D01*
X137643809Y-124841904D02*
X137691428Y-124937142D01*
X137691428Y-124937142D02*
X137739047Y-124984761D01*
X137739047Y-124984761D02*
X137834285Y-125032380D01*
X137834285Y-125032380D02*
X138072380Y-125032380D01*
X138072380Y-125032380D02*
X138167618Y-124984761D01*
X138167618Y-124984761D02*
X138215237Y-124937142D01*
X137024761Y-124032380D02*
X136929523Y-124032380D01*
X136929523Y-124032380D02*
X136834285Y-124080000D01*
X136834285Y-124080000D02*
X136786666Y-124127619D01*
X136786666Y-124127619D02*
X136739047Y-124222857D01*
X136739047Y-124222857D02*
X136691428Y-124413333D01*
X136691428Y-124413333D02*
X136691428Y-124651428D01*
X136691428Y-124651428D02*
X136739047Y-124841904D01*
X136739047Y-124841904D02*
X136786666Y-124937142D01*
X136786666Y-124937142D02*
X136834285Y-124984761D01*
X136834285Y-124984761D02*
X136929523Y-125032380D01*
X136929523Y-125032380D02*
X137024761Y-125032380D01*
X137024761Y-125032380D02*
X137119999Y-124984761D01*
X137119999Y-124984761D02*
X137167618Y-124937142D01*
X137167618Y-124937142D02*
X137215237Y-124841904D01*
X137215237Y-124841904D02*
X137262856Y-124651428D01*
X137262856Y-124651428D02*
X137262856Y-124413333D01*
X137262856Y-124413333D02*
X137215237Y-124222857D01*
X137215237Y-124222857D02*
X137167618Y-124127619D01*
X137167618Y-124127619D02*
X137119999Y-124080000D01*
X137119999Y-124080000D02*
X137024761Y-124032380D01*
X136262856Y-125032380D02*
X136262856Y-124032380D01*
X136262856Y-124032380D02*
X135929523Y-124746666D01*
X135929523Y-124746666D02*
X135596190Y-124032380D01*
X135596190Y-124032380D02*
X135596190Y-125032380D01*
X135119999Y-125032380D02*
X135119999Y-124032380D01*
X135119999Y-124508571D02*
X134548571Y-124508571D01*
X134548571Y-125032380D02*
X134548571Y-124032380D01*
X134167618Y-124365714D02*
X133643809Y-124365714D01*
X133643809Y-124365714D02*
X134167618Y-125032380D01*
X134167618Y-125032380D02*
X133643809Y-125032380D01*
D11*
X76228804Y-30004383D02*
X166158804Y-30004383D01*
X166158804Y-30004383D02*
X166158804Y-129944383D01*
X166158804Y-129944383D02*
X76228804Y-129944383D01*
X76228804Y-129944383D02*
X76228804Y-30004383D01*
M02*
