%TF.GenerationSoftware,KiCad,Pcbnew,(7.0.0-0)*%
%TF.CreationDate,2023-05-05T15:08:26+02:00*%
%TF.ProjectId,Filter-forest-v3,46696c74-6572-42d6-966f-726573742d76,rev?*%
%TF.SameCoordinates,Original*%
%TF.FileFunction,Copper,L2,Bot*%
%TF.FilePolarity,Positive*%
%FSLAX46Y46*%
G04 Gerber Fmt 4.6, Leading zero omitted, Abs format (unit mm)*
G04 Created by KiCad (PCBNEW (7.0.0-0)) date 2023-05-05 15:08:26*
%MOMM*%
%LPD*%
G01*
G04 APERTURE LIST*
G04 Aperture macros list*
%AMRoundRect*
0 Rectangle with rounded corners*
0 $1 Rounding radius*
0 $2 $3 $4 $5 $6 $7 $8 $9 X,Y pos of 4 corners*
0 Add a 4 corners polygon primitive as box body*
4,1,4,$2,$3,$4,$5,$6,$7,$8,$9,$2,$3,0*
0 Add four circle primitives for the rounded corners*
1,1,$1+$1,$2,$3*
1,1,$1+$1,$4,$5*
1,1,$1+$1,$6,$7*
1,1,$1+$1,$8,$9*
0 Add four rect primitives between the rounded corners*
20,1,$1+$1,$2,$3,$4,$5,0*
20,1,$1+$1,$4,$5,$6,$7,0*
20,1,$1+$1,$6,$7,$8,$9,0*
20,1,$1+$1,$8,$9,$2,$3,0*%
G04 Aperture macros list end*
%TA.AperFunction,ComponentPad*%
%ADD10C,0.600000*%
%TD*%
%TA.AperFunction,SMDPad,CuDef*%
%ADD11RoundRect,0.250000X-0.600000X-0.600000X0.600000X-0.600000X0.600000X0.600000X-0.600000X0.600000X0*%
%TD*%
%TA.AperFunction,ComponentPad*%
%ADD12R,2.600000X2.600000*%
%TD*%
%TA.AperFunction,ComponentPad*%
%ADD13O,2.600000X2.600000*%
%TD*%
%TA.AperFunction,ComponentPad*%
%ADD14C,0.610000*%
%TD*%
%TA.AperFunction,ComponentPad*%
%ADD15C,2.610000*%
%TD*%
%TA.AperFunction,ComponentPad*%
%ADD16O,1.800000X1.000000*%
%TD*%
%TA.AperFunction,ComponentPad*%
%ADD17C,2.500000*%
%TD*%
%TA.AperFunction,ComponentPad*%
%ADD18C,3.500000*%
%TD*%
%TA.AperFunction,ComponentPad*%
%ADD19C,5.600000*%
%TD*%
%TA.AperFunction,SMDPad,CuDef*%
%ADD20R,4.200000X1.350000*%
%TD*%
%TA.AperFunction,ComponentPad*%
%ADD21RoundRect,0.249999X0.790001X1.550001X-0.790001X1.550001X-0.790001X-1.550001X0.790001X-1.550001X0*%
%TD*%
%TA.AperFunction,ComponentPad*%
%ADD22O,2.080000X3.600000*%
%TD*%
%TA.AperFunction,ViaPad*%
%ADD23C,0.800000*%
%TD*%
%TA.AperFunction,Conductor*%
%ADD24C,0.400000*%
%TD*%
%TA.AperFunction,Conductor*%
%ADD25C,0.200000*%
%TD*%
%TA.AperFunction,Conductor*%
%ADD26C,1.000000*%
%TD*%
%TA.AperFunction,Profile*%
%ADD27C,0.100000*%
%TD*%
G04 APERTURE END LIST*
D10*
%TO.P,U106,17,GND*%
%TO.N,GND*%
X143750000Y-61690000D03*
X144300000Y-61690000D03*
X143200000Y-61690000D03*
D11*
X143750000Y-61690000D03*
D10*
X143750000Y-61140000D03*
X143750000Y-62240000D03*
X144300000Y-62240000D03*
X143200000Y-61140000D03*
X143200000Y-62240000D03*
X144300000Y-61140000D03*
%TD*%
D12*
%TO.P,D108,1,K*%
%TO.N,/+15V*%
X83369999Y-84549999D03*
D13*
%TO.P,D108,2,A*%
%TO.N,GND*%
X83369999Y-99789999D03*
%TD*%
D14*
%TO.P,FL104,2,GND*%
%TO.N,GND*%
X106325000Y-47895000D03*
%TO.P,FL104,4,GND*%
X106325000Y-45685000D03*
%TD*%
D15*
%TO.P,FL101,1,IN-*%
%TO.N,GND*%
X97903520Y-70886160D03*
%TO.P,FL101,2,OUT+*%
%TO.N,Net-(FL101-OUT+)*%
X117610000Y-70880000D03*
%TO.P,FL101,3,OUT-*%
%TO.N,GND*%
X117610000Y-66280000D03*
%TO.P,FL101,5,IN+*%
%TO.N,Net-(FL101-IN+)*%
X97903520Y-66286160D03*
D16*
%TO.P,FL101,GND,MID-*%
%TO.N,GND*%
X100119999Y-64889999D03*
X100219999Y-72289999D03*
D15*
X105420000Y-66290000D03*
D16*
X107619999Y-64889999D03*
X107719999Y-72289999D03*
X115119999Y-64889999D03*
X115219999Y-72289999D03*
%TD*%
D17*
%TO.P,J108,1,In*%
%TO.N,/RFOUT2*%
X128660000Y-99710000D03*
D18*
%TO.P,J108,2,Ext*%
%TO.N,GND*%
X124260000Y-95410000D03*
X124360000Y-103910000D03*
X132960000Y-95410000D03*
X132960000Y-104010000D03*
%TD*%
D17*
%TO.P,J106,1,In*%
%TO.N,/RFOUT23*%
X114510000Y-91880000D03*
D18*
%TO.P,J106,2,Ext*%
%TO.N,GND*%
X110110000Y-87580000D03*
X110210000Y-96080000D03*
X118810000Y-87580000D03*
X118810000Y-96180000D03*
%TD*%
D14*
%TO.P,FL105,2,GND*%
%TO.N,GND*%
X115975000Y-47845000D03*
%TO.P,FL105,4,GND*%
X115975000Y-45635000D03*
%TD*%
D19*
%TO.P,H102,1,1*%
%TO.N,GND*%
X162248804Y-33504383D03*
%TD*%
D17*
%TO.P,J110,1,In*%
%TO.N,/RFOUT6*%
X138380000Y-116960000D03*
D18*
%TO.P,J110,2,Ext*%
%TO.N,GND*%
X133980000Y-112660000D03*
X134080000Y-121160000D03*
X142680000Y-112660000D03*
X142680000Y-121260000D03*
%TD*%
D19*
%TO.P,H104,1,1*%
%TO.N,GND*%
X79748804Y-33504383D03*
%TD*%
D10*
%TO.P,U109,EP,EP*%
%TO.N,GND*%
X147987500Y-67510800D03*
X143725000Y-67510800D03*
X147412500Y-68294000D03*
X143925000Y-68294000D03*
X147987500Y-69077200D03*
X143725000Y-69077200D03*
X142950000Y-69860400D03*
X147412500Y-69870000D03*
X143925000Y-69870000D03*
X148375000Y-70252000D03*
X141787500Y-70252000D03*
X148375000Y-71035200D03*
X141787500Y-71035200D03*
X149150000Y-71426800D03*
X148375000Y-71818400D03*
X141787500Y-71818400D03*
X143327500Y-72200000D03*
X149150000Y-72210000D03*
X146437500Y-72210000D03*
X145662500Y-72210000D03*
X144887500Y-72210000D03*
X144112500Y-72210000D03*
X148375000Y-72601600D03*
X141787500Y-72601600D03*
X146825000Y-72860000D03*
X146050000Y-72860000D03*
X145275000Y-72860000D03*
X144500000Y-72860000D03*
X143725000Y-72885000D03*
X149150000Y-72993200D03*
X148375000Y-73384800D03*
X141787500Y-73384800D03*
X146437500Y-73510000D03*
X145662500Y-73510000D03*
X144887500Y-73510000D03*
X144112500Y-73510000D03*
X143337500Y-73510000D03*
X149150000Y-73776400D03*
X146825000Y-74160000D03*
X146050000Y-74160000D03*
X145275000Y-74160000D03*
X144500000Y-74160000D03*
X143725000Y-74160000D03*
X148375000Y-74168000D03*
X141787500Y-74168000D03*
X149150000Y-74559600D03*
X146437500Y-74810000D03*
X145662500Y-74810000D03*
X144887500Y-74810000D03*
X144112500Y-74810000D03*
X143337500Y-74810000D03*
X148375000Y-74951200D03*
X141787500Y-74951200D03*
X149150000Y-75342800D03*
X146825000Y-75460000D03*
X146050000Y-75460000D03*
X145275000Y-75460000D03*
X144500000Y-75460000D03*
X143725000Y-75460000D03*
X148375000Y-75734400D03*
X141787500Y-75734400D03*
X149150000Y-76126000D03*
X148375000Y-76517600D03*
X141787500Y-76517600D03*
X149150000Y-76909200D03*
X148375000Y-77300800D03*
X141787500Y-77300800D03*
X144312500Y-77692400D03*
X142950000Y-77692400D03*
X143725000Y-78475600D03*
%TD*%
D17*
%TO.P,J109,1,In*%
%TO.N,/RFOUT70*%
X142970000Y-99840000D03*
D18*
%TO.P,J109,2,Ext*%
%TO.N,GND*%
X138570000Y-95540000D03*
X138670000Y-104040000D03*
X147270000Y-95540000D03*
X147270000Y-104140000D03*
%TD*%
D20*
%TO.P,J102,2,Ext*%
%TO.N,GND*%
X78332499Y-108254999D03*
X78332499Y-113904999D03*
%TD*%
D21*
%TO.P,J112,1,Pin_1*%
%TO.N,GND*%
X152950000Y-40190000D03*
D22*
%TO.P,J112,2,Pin_2*%
%TO.N,/+15V*%
X147869999Y-40189999D03*
%TO.P,J112,3,Pin_3*%
%TO.N,unconnected-(J112-Pin_3-Pad3)*%
X142789999Y-40189999D03*
%TO.P,J112,4,Pin_4*%
%TO.N,/TXEN_L*%
X137709999Y-40189999D03*
%TO.P,J112,5,Pin_5*%
%TO.N,VC2*%
X132629999Y-40189999D03*
%TO.P,J112,6,Pin_6*%
%TO.N,VC1*%
X127549999Y-40189999D03*
%TO.P,J112,7,Pin_7*%
%TO.N,/SCL*%
X122469999Y-40189999D03*
%TO.P,J112,8,Pin_8*%
%TO.N,/SDA*%
X117389999Y-40189999D03*
%TD*%
D19*
%TO.P,H101,1,1*%
%TO.N,GND*%
X79748804Y-126504383D03*
%TD*%
%TO.P,H103,1,1*%
%TO.N,GND*%
X162248804Y-126504383D03*
%TD*%
D23*
%TO.N,GND*%
X94600000Y-71440000D03*
X90270000Y-71440000D03*
X151870000Y-60020000D03*
X139380000Y-49600000D03*
%TO.N,Net-(U101-P3)*%
X152942612Y-55145439D03*
X147651198Y-59939696D03*
%TO.N,Net-(U101-P2)*%
X155740000Y-55240000D03*
X149600000Y-63070000D03*
%TO.N,VC2*%
X156340000Y-53110000D03*
%TO.N,GND*%
X94430000Y-113850000D03*
X103940000Y-117070000D03*
X157640000Y-74160000D03*
X161317000Y-74132447D03*
X158190000Y-57780000D03*
X133340000Y-62050000D03*
X127450000Y-70940000D03*
X78900000Y-63510000D03*
X90640000Y-113820000D03*
X82280000Y-91510000D03*
X99800000Y-111590000D03*
X80890000Y-65450000D03*
X128020000Y-77380000D03*
X99720000Y-107670000D03*
X154530000Y-57790000D03*
X83220000Y-76290000D03*
X139600000Y-54530000D03*
X83020000Y-68830000D03*
X100340000Y-117130000D03*
%TO.N,VDD*%
X160350000Y-45440000D03*
X148160000Y-47090000D03*
%TO.N,Net-(Q102-G)*%
X133454891Y-79049963D03*
X152820000Y-65815731D03*
%TO.N,Net-(Q105-G)*%
X139350000Y-83680000D03*
X150270000Y-79360000D03*
%TO.N,/TXEN_L*%
X144360000Y-54630000D03*
%TO.N,VC1*%
X132750000Y-50860000D03*
X132749500Y-57974604D03*
X82700000Y-64030000D03*
X82710000Y-67390000D03*
%TO.N,VC2*%
X138040000Y-62010000D03*
X137995000Y-45695000D03*
%TO.N,VC2_L*%
X139730000Y-58560000D03*
X143660000Y-47470000D03*
%TO.N,VC1_L*%
X82750000Y-89610000D03*
X137550000Y-67390000D03*
X133620000Y-67670000D03*
X136510000Y-52060000D03*
%TO.N,Net-(Q110-G)*%
X145220000Y-56660500D03*
X145230000Y-49570000D03*
%TD*%
D24*
%TO.N,VC2*%
X138020000Y-45720000D02*
X137995000Y-45695000D01*
D25*
%TO.N,VC1_L*%
X135931000Y-67390000D02*
X135651000Y-67670000D01*
X135651000Y-67670000D02*
X133620000Y-67670000D01*
X137550000Y-67390000D02*
X135931000Y-67390000D01*
X135931000Y-67390000D02*
X135931000Y-67091000D01*
X82750000Y-89610000D02*
X87950000Y-84410000D01*
X87950000Y-84410000D02*
X124700000Y-84410000D01*
X124700000Y-84410000D02*
X133620000Y-75490000D01*
X133620000Y-75490000D02*
X133620000Y-67670000D01*
%TO.N,Net-(U101-P3)*%
X148148355Y-59939696D02*
X147651198Y-59939696D01*
X152942612Y-55145439D02*
X148148355Y-59939696D01*
%TO.N,Net-(U101-P2)*%
X155740000Y-58862889D02*
X151532889Y-63070000D01*
X155740000Y-55240000D02*
X155740000Y-58862889D01*
X151532889Y-63070000D02*
X149600000Y-63070000D01*
%TO.N,Net-(Q102-G)*%
X139300000Y-66230000D02*
X139714269Y-65815731D01*
X139714269Y-65815731D02*
X152820000Y-65815731D01*
X139300000Y-73204854D02*
X139300000Y-66230000D01*
X133454891Y-79049963D02*
X139300000Y-73204854D01*
%TO.N,VC2_L*%
X143660000Y-54630000D02*
X139730000Y-58560000D01*
X143660000Y-47470000D02*
X143660000Y-54630000D01*
%TO.N,VC2*%
X138040000Y-62010000D02*
X138870000Y-62840000D01*
X146610000Y-62840000D02*
X156340000Y-53110000D01*
X138870000Y-62840000D02*
X146610000Y-62840000D01*
%TO.N,Net-(Q110-G)*%
X145230000Y-56650500D02*
X145220000Y-56660500D01*
X145230000Y-49570000D02*
X145230000Y-56650500D01*
%TO.N,VDD*%
X160330000Y-45460000D02*
X160350000Y-45440000D01*
D24*
X149790000Y-45460000D02*
X160330000Y-45460000D01*
X148160000Y-47090000D02*
X149790000Y-45460000D01*
D26*
%TO.N,/+15V*%
X88450000Y-49550000D02*
X88450000Y-78350000D01*
X88450000Y-78350000D02*
X83040000Y-83760000D01*
X143130000Y-36540000D02*
X101460000Y-36540000D01*
X101460000Y-36540000D02*
X88450000Y-49550000D01*
X146940000Y-40350000D02*
X143130000Y-36540000D01*
X147890000Y-40350000D02*
X146940000Y-40350000D01*
D25*
%TO.N,Net-(Q105-G)*%
X150021422Y-84830000D02*
X150270000Y-84581422D01*
X139350000Y-83680000D02*
X140500000Y-84830000D01*
X150270000Y-84581422D02*
X150270000Y-79360000D01*
X140500000Y-84830000D02*
X150021422Y-84830000D01*
%TO.N,/TXEN_L*%
X144360000Y-46840000D02*
X137710000Y-40190000D01*
X144360000Y-54630000D02*
X144360000Y-46840000D01*
D24*
%TO.N,VC1*%
X132750000Y-45530000D02*
X132750000Y-50860000D01*
D25*
X82710000Y-64060000D02*
X82700000Y-64070000D01*
X82740000Y-64030000D02*
X82730000Y-64040000D01*
X82700000Y-64030000D02*
X82740000Y-64030000D01*
X132749500Y-57974604D02*
X132750000Y-57974104D01*
X132750000Y-57974104D02*
X132750000Y-50860000D01*
D24*
X127570000Y-40350000D02*
X132750000Y-45530000D01*
D25*
X82700000Y-64070000D02*
X82700000Y-64030000D01*
X82710000Y-67390000D02*
X82710000Y-64060000D01*
D24*
%TO.N,VC2*%
X138020000Y-45720000D02*
X138020000Y-61970000D01*
X132650000Y-40350000D02*
X138020000Y-45720000D01*
X138020000Y-61970000D02*
X138060000Y-62010000D01*
D25*
%TO.N,VC1_L*%
X135931000Y-52639000D02*
X136510000Y-52060000D01*
X135931000Y-67091000D02*
X135931000Y-52639000D01*
%TD*%
%TA.AperFunction,Conductor*%
%TO.N,GND*%
G36*
X166096304Y-30021496D02*
G01*
X166141691Y-30066883D01*
X166158304Y-30128883D01*
X166158304Y-129819883D01*
X166141691Y-129881883D01*
X166096304Y-129927270D01*
X166034304Y-129943883D01*
X76353304Y-129943883D01*
X76291304Y-129927270D01*
X76245917Y-129881883D01*
X76229304Y-129819883D01*
X76229304Y-116960000D01*
X136744458Y-116960000D01*
X136764594Y-117215855D01*
X136765729Y-117220584D01*
X136765730Y-117220588D01*
X136823369Y-117460673D01*
X136823371Y-117460681D01*
X136824507Y-117465410D01*
X136922721Y-117702521D01*
X136925268Y-117706678D01*
X136925269Y-117706679D01*
X137054271Y-117917190D01*
X137054274Y-117917194D01*
X137056819Y-117921347D01*
X137223497Y-118116503D01*
X137418653Y-118283181D01*
X137637479Y-118417279D01*
X137874590Y-118515493D01*
X138124145Y-118575406D01*
X138380000Y-118595542D01*
X138635855Y-118575406D01*
X138885410Y-118515493D01*
X139122521Y-118417279D01*
X139341347Y-118283181D01*
X139536503Y-118116503D01*
X139703181Y-117921347D01*
X139837279Y-117702521D01*
X139935493Y-117465410D01*
X139995406Y-117215855D01*
X140015542Y-116960000D01*
X139995406Y-116704145D01*
X139935493Y-116454590D01*
X139837279Y-116217479D01*
X139703181Y-115998653D01*
X139536503Y-115803497D01*
X139341347Y-115636819D01*
X139337194Y-115634274D01*
X139337190Y-115634271D01*
X139126679Y-115505269D01*
X139126678Y-115505268D01*
X139122521Y-115502721D01*
X138885410Y-115404507D01*
X138880681Y-115403371D01*
X138880673Y-115403369D01*
X138640588Y-115345730D01*
X138640584Y-115345729D01*
X138635855Y-115344594D01*
X138631004Y-115344212D01*
X138631003Y-115344212D01*
X138384854Y-115324840D01*
X138380000Y-115324458D01*
X138375146Y-115324840D01*
X138128996Y-115344212D01*
X138128993Y-115344212D01*
X138124145Y-115344594D01*
X138119417Y-115345728D01*
X138119411Y-115345730D01*
X137879326Y-115403369D01*
X137879314Y-115403372D01*
X137874590Y-115404507D01*
X137870093Y-115406369D01*
X137870089Y-115406371D01*
X137641983Y-115500855D01*
X137641978Y-115500857D01*
X137637479Y-115502721D01*
X137633326Y-115505265D01*
X137633320Y-115505269D01*
X137422809Y-115634271D01*
X137422798Y-115634278D01*
X137418653Y-115636819D01*
X137414956Y-115639976D01*
X137414947Y-115639983D01*
X137227197Y-115800336D01*
X137227190Y-115800342D01*
X137223497Y-115803497D01*
X137220342Y-115807190D01*
X137220336Y-115807197D01*
X137059983Y-115994947D01*
X137059976Y-115994956D01*
X137056819Y-115998653D01*
X137054278Y-116002798D01*
X137054271Y-116002809D01*
X136925269Y-116213320D01*
X136925265Y-116213326D01*
X136922721Y-116217479D01*
X136824507Y-116454590D01*
X136823372Y-116459314D01*
X136823369Y-116459326D01*
X136765730Y-116699411D01*
X136765728Y-116699417D01*
X136764594Y-116704145D01*
X136744458Y-116960000D01*
X76229304Y-116960000D01*
X76229304Y-99710000D01*
X127024458Y-99710000D01*
X127044594Y-99965855D01*
X127045729Y-99970584D01*
X127045730Y-99970588D01*
X127103369Y-100210673D01*
X127103371Y-100210681D01*
X127104507Y-100215410D01*
X127202721Y-100452521D01*
X127205268Y-100456678D01*
X127205269Y-100456679D01*
X127334271Y-100667190D01*
X127334274Y-100667194D01*
X127336819Y-100671347D01*
X127503497Y-100866503D01*
X127698653Y-101033181D01*
X127917479Y-101167279D01*
X128154590Y-101265493D01*
X128404145Y-101325406D01*
X128660000Y-101345542D01*
X128915855Y-101325406D01*
X129165410Y-101265493D01*
X129402521Y-101167279D01*
X129621347Y-101033181D01*
X129816503Y-100866503D01*
X129983181Y-100671347D01*
X130117279Y-100452521D01*
X130215493Y-100215410D01*
X130275406Y-99965855D01*
X130285311Y-99840000D01*
X141334458Y-99840000D01*
X141354594Y-100095855D01*
X141355729Y-100100584D01*
X141355730Y-100100588D01*
X141413369Y-100340673D01*
X141413371Y-100340681D01*
X141414507Y-100345410D01*
X141512721Y-100582521D01*
X141515268Y-100586678D01*
X141515269Y-100586679D01*
X141644271Y-100797190D01*
X141644274Y-100797194D01*
X141646819Y-100801347D01*
X141813497Y-100996503D01*
X142008653Y-101163181D01*
X142012807Y-101165726D01*
X142012809Y-101165728D01*
X142084961Y-101209943D01*
X142227479Y-101297279D01*
X142464590Y-101395493D01*
X142714145Y-101455406D01*
X142970000Y-101475542D01*
X143225855Y-101455406D01*
X143475410Y-101395493D01*
X143712521Y-101297279D01*
X143931347Y-101163181D01*
X144126503Y-100996503D01*
X144293181Y-100801347D01*
X144427279Y-100582521D01*
X144525493Y-100345410D01*
X144585406Y-100095855D01*
X144605542Y-99840000D01*
X144585406Y-99584145D01*
X144525493Y-99334590D01*
X144427279Y-99097479D01*
X144293181Y-98878653D01*
X144126503Y-98683497D01*
X143931347Y-98516819D01*
X143927194Y-98514274D01*
X143927190Y-98514271D01*
X143716679Y-98385269D01*
X143716678Y-98385268D01*
X143712521Y-98382721D01*
X143475410Y-98284507D01*
X143470681Y-98283371D01*
X143470673Y-98283369D01*
X143230588Y-98225730D01*
X143230584Y-98225729D01*
X143225855Y-98224594D01*
X143221004Y-98224212D01*
X143221003Y-98224212D01*
X142974854Y-98204840D01*
X142970000Y-98204458D01*
X142965146Y-98204840D01*
X142718996Y-98224212D01*
X142718993Y-98224212D01*
X142714145Y-98224594D01*
X142709417Y-98225728D01*
X142709411Y-98225730D01*
X142469326Y-98283369D01*
X142469314Y-98283372D01*
X142464590Y-98284507D01*
X142460093Y-98286369D01*
X142460089Y-98286371D01*
X142231983Y-98380855D01*
X142231978Y-98380857D01*
X142227479Y-98382721D01*
X142223326Y-98385265D01*
X142223320Y-98385269D01*
X142012809Y-98514271D01*
X142012798Y-98514278D01*
X142008653Y-98516819D01*
X142004956Y-98519976D01*
X142004947Y-98519983D01*
X141817197Y-98680336D01*
X141817190Y-98680342D01*
X141813497Y-98683497D01*
X141810342Y-98687190D01*
X141810336Y-98687197D01*
X141649983Y-98874947D01*
X141649976Y-98874956D01*
X141646819Y-98878653D01*
X141644278Y-98882798D01*
X141644271Y-98882809D01*
X141515269Y-99093320D01*
X141515265Y-99093326D01*
X141512721Y-99097479D01*
X141510857Y-99101978D01*
X141510855Y-99101983D01*
X141416371Y-99330089D01*
X141414507Y-99334590D01*
X141413372Y-99339314D01*
X141413369Y-99339326D01*
X141355730Y-99579411D01*
X141355728Y-99579417D01*
X141354594Y-99584145D01*
X141334458Y-99840000D01*
X130285311Y-99840000D01*
X130295542Y-99710000D01*
X130275406Y-99454145D01*
X130215493Y-99204590D01*
X130117279Y-98967479D01*
X129983181Y-98748653D01*
X129816503Y-98553497D01*
X129621347Y-98386819D01*
X129617194Y-98384274D01*
X129617190Y-98384271D01*
X129406679Y-98255269D01*
X129406678Y-98255268D01*
X129402521Y-98252721D01*
X129165410Y-98154507D01*
X129160681Y-98153371D01*
X129160673Y-98153369D01*
X128920588Y-98095730D01*
X128920584Y-98095729D01*
X128915855Y-98094594D01*
X128911004Y-98094212D01*
X128911003Y-98094212D01*
X128664854Y-98074840D01*
X128660000Y-98074458D01*
X128655146Y-98074840D01*
X128408996Y-98094212D01*
X128408993Y-98094212D01*
X128404145Y-98094594D01*
X128399417Y-98095728D01*
X128399411Y-98095730D01*
X128159326Y-98153369D01*
X128159314Y-98153372D01*
X128154590Y-98154507D01*
X128150093Y-98156369D01*
X128150089Y-98156371D01*
X127921983Y-98250855D01*
X127921978Y-98250857D01*
X127917479Y-98252721D01*
X127913326Y-98255265D01*
X127913320Y-98255269D01*
X127702809Y-98384271D01*
X127702798Y-98384278D01*
X127698653Y-98386819D01*
X127694956Y-98389976D01*
X127694947Y-98389983D01*
X127507197Y-98550336D01*
X127507190Y-98550342D01*
X127503497Y-98553497D01*
X127500342Y-98557190D01*
X127500336Y-98557197D01*
X127339983Y-98744947D01*
X127339976Y-98744956D01*
X127336819Y-98748653D01*
X127334278Y-98752798D01*
X127334271Y-98752809D01*
X127205269Y-98963320D01*
X127205265Y-98963326D01*
X127202721Y-98967479D01*
X127200857Y-98971978D01*
X127200855Y-98971983D01*
X127147008Y-99101983D01*
X127104507Y-99204590D01*
X127103372Y-99209314D01*
X127103369Y-99209326D01*
X127045730Y-99449411D01*
X127045728Y-99449417D01*
X127044594Y-99454145D01*
X127024458Y-99710000D01*
X76229304Y-99710000D01*
X76229304Y-91880000D01*
X112874458Y-91880000D01*
X112894594Y-92135855D01*
X112895729Y-92140584D01*
X112895730Y-92140588D01*
X112953369Y-92380673D01*
X112953371Y-92380681D01*
X112954507Y-92385410D01*
X113052721Y-92622521D01*
X113055268Y-92626678D01*
X113055269Y-92626679D01*
X113184271Y-92837190D01*
X113184274Y-92837194D01*
X113186819Y-92841347D01*
X113353497Y-93036503D01*
X113548653Y-93203181D01*
X113767479Y-93337279D01*
X114004590Y-93435493D01*
X114254145Y-93495406D01*
X114510000Y-93515542D01*
X114765855Y-93495406D01*
X115015410Y-93435493D01*
X115252521Y-93337279D01*
X115471347Y-93203181D01*
X115666503Y-93036503D01*
X115833181Y-92841347D01*
X115967279Y-92622521D01*
X116065493Y-92385410D01*
X116125406Y-92135855D01*
X116145542Y-91880000D01*
X116125406Y-91624145D01*
X116065493Y-91374590D01*
X115967279Y-91137479D01*
X115833181Y-90918653D01*
X115666503Y-90723497D01*
X115471347Y-90556819D01*
X115467194Y-90554274D01*
X115467190Y-90554271D01*
X115256679Y-90425269D01*
X115256678Y-90425268D01*
X115252521Y-90422721D01*
X115015410Y-90324507D01*
X115010681Y-90323371D01*
X115010673Y-90323369D01*
X114770588Y-90265730D01*
X114770584Y-90265729D01*
X114765855Y-90264594D01*
X114761004Y-90264212D01*
X114761003Y-90264212D01*
X114514854Y-90244840D01*
X114510000Y-90244458D01*
X114505146Y-90244840D01*
X114258996Y-90264212D01*
X114258993Y-90264212D01*
X114254145Y-90264594D01*
X114249417Y-90265728D01*
X114249411Y-90265730D01*
X114009326Y-90323369D01*
X114009314Y-90323372D01*
X114004590Y-90324507D01*
X114000093Y-90326369D01*
X114000089Y-90326371D01*
X113771983Y-90420855D01*
X113771978Y-90420857D01*
X113767479Y-90422721D01*
X113763326Y-90425265D01*
X113763320Y-90425269D01*
X113552809Y-90554271D01*
X113552798Y-90554278D01*
X113548653Y-90556819D01*
X113544956Y-90559976D01*
X113544947Y-90559983D01*
X113357197Y-90720336D01*
X113357190Y-90720342D01*
X113353497Y-90723497D01*
X113350342Y-90727190D01*
X113350336Y-90727197D01*
X113189983Y-90914947D01*
X113189976Y-90914956D01*
X113186819Y-90918653D01*
X113184278Y-90922798D01*
X113184271Y-90922809D01*
X113055269Y-91133320D01*
X113055265Y-91133326D01*
X113052721Y-91137479D01*
X112954507Y-91374590D01*
X112953372Y-91379314D01*
X112953369Y-91379326D01*
X112895730Y-91619411D01*
X112895728Y-91619417D01*
X112894594Y-91624145D01*
X112874458Y-91880000D01*
X76229304Y-91880000D01*
X76229304Y-85894578D01*
X81569500Y-85894578D01*
X81569501Y-85897872D01*
X81569853Y-85901150D01*
X81569854Y-85901161D01*
X81575079Y-85949768D01*
X81575080Y-85949773D01*
X81575909Y-85957483D01*
X81578619Y-85964749D01*
X81578620Y-85964753D01*
X81608216Y-86044103D01*
X81626204Y-86092331D01*
X81631518Y-86099430D01*
X81631519Y-86099431D01*
X81684324Y-86169970D01*
X81712454Y-86207546D01*
X81827669Y-86293796D01*
X81962517Y-86344091D01*
X82022127Y-86350500D01*
X84717872Y-86350499D01*
X84777483Y-86344091D01*
X84864106Y-86311782D01*
X84930324Y-86306096D01*
X84989970Y-86335421D01*
X85025903Y-86391335D01*
X85027801Y-86457772D01*
X84995118Y-86515646D01*
X82837584Y-88673181D01*
X82797356Y-88700061D01*
X82749903Y-88709500D01*
X82655354Y-88709500D01*
X82648995Y-88710851D01*
X82648991Y-88710852D01*
X82476559Y-88747503D01*
X82476552Y-88747505D01*
X82470197Y-88748856D01*
X82464262Y-88751498D01*
X82464254Y-88751501D01*
X82303207Y-88823205D01*
X82303202Y-88823207D01*
X82297270Y-88825849D01*
X82292016Y-88829665D01*
X82292011Y-88829669D01*
X82149388Y-88933290D01*
X82149381Y-88933295D01*
X82144129Y-88937112D01*
X82139784Y-88941937D01*
X82139779Y-88941942D01*
X82021813Y-89072956D01*
X82021808Y-89072962D01*
X82017467Y-89077784D01*
X82014222Y-89083404D01*
X82014218Y-89083410D01*
X81926069Y-89236089D01*
X81926066Y-89236094D01*
X81922821Y-89241716D01*
X81920815Y-89247888D01*
X81920813Y-89247894D01*
X81866333Y-89415564D01*
X81866331Y-89415573D01*
X81864326Y-89421744D01*
X81863648Y-89428194D01*
X81863646Y-89428204D01*
X81854195Y-89518134D01*
X81844540Y-89610000D01*
X81845219Y-89616460D01*
X81863646Y-89791795D01*
X81863647Y-89791803D01*
X81864326Y-89798256D01*
X81866331Y-89804428D01*
X81866333Y-89804435D01*
X81920813Y-89972105D01*
X81922821Y-89978284D01*
X82017467Y-90142216D01*
X82144129Y-90282888D01*
X82149387Y-90286708D01*
X82149388Y-90286709D01*
X82201413Y-90324507D01*
X82297270Y-90394151D01*
X82470197Y-90471144D01*
X82655354Y-90510500D01*
X82838143Y-90510500D01*
X82844646Y-90510500D01*
X83029803Y-90471144D01*
X83202730Y-90394151D01*
X83355871Y-90282888D01*
X83482533Y-90142216D01*
X83577179Y-89978284D01*
X83635674Y-89798256D01*
X83655460Y-89610000D01*
X83654937Y-89605028D01*
X83664220Y-89558362D01*
X83691100Y-89518134D01*
X88162416Y-85046819D01*
X88202644Y-85019939D01*
X88250097Y-85010500D01*
X124652513Y-85010500D01*
X124668698Y-85011561D01*
X124700000Y-85015682D01*
X124856762Y-84995044D01*
X125002841Y-84934536D01*
X125091901Y-84866198D01*
X125128282Y-84838282D01*
X125147510Y-84813222D01*
X125158189Y-84801044D01*
X126279233Y-83680000D01*
X138444540Y-83680000D01*
X138445219Y-83686460D01*
X138463646Y-83861795D01*
X138463647Y-83861803D01*
X138464326Y-83868256D01*
X138466331Y-83874428D01*
X138466333Y-83874435D01*
X138509549Y-84007437D01*
X138522821Y-84048284D01*
X138617467Y-84212216D01*
X138621811Y-84217041D01*
X138621813Y-84217043D01*
X138739779Y-84348057D01*
X138744129Y-84352888D01*
X138897270Y-84464151D01*
X139070197Y-84541144D01*
X139255354Y-84580500D01*
X139349903Y-84580500D01*
X139397356Y-84589939D01*
X139437584Y-84616819D01*
X140041799Y-85221034D01*
X140052489Y-85233222D01*
X140071718Y-85258282D01*
X140197158Y-85354535D01*
X140197159Y-85354536D01*
X140343238Y-85415044D01*
X140500000Y-85435682D01*
X140508059Y-85434621D01*
X140531302Y-85431561D01*
X140547487Y-85430500D01*
X149973935Y-85430500D01*
X149990120Y-85431561D01*
X150021422Y-85435682D01*
X150178184Y-85415044D01*
X150324263Y-85354536D01*
X150324263Y-85354535D01*
X150449704Y-85258282D01*
X150468932Y-85233222D01*
X150479611Y-85221044D01*
X150661044Y-85039611D01*
X150673222Y-85028932D01*
X150698282Y-85009704D01*
X150794536Y-84884263D01*
X150855044Y-84738184D01*
X150870500Y-84620783D01*
X150875682Y-84581422D01*
X150871561Y-84550120D01*
X150870500Y-84533935D01*
X150870500Y-80086452D01*
X150878736Y-80042014D01*
X150902350Y-80003480D01*
X150951305Y-79949110D01*
X151002533Y-79892216D01*
X151097179Y-79728284D01*
X151155674Y-79548256D01*
X151175460Y-79360000D01*
X151155674Y-79171744D01*
X151097179Y-78991716D01*
X151002533Y-78827784D01*
X150875871Y-78687112D01*
X150870613Y-78683292D01*
X150870611Y-78683290D01*
X150727988Y-78579669D01*
X150727987Y-78579668D01*
X150722730Y-78575849D01*
X150716792Y-78573205D01*
X150555745Y-78501501D01*
X150555740Y-78501499D01*
X150549803Y-78498856D01*
X150543444Y-78497504D01*
X150543440Y-78497503D01*
X150371008Y-78460852D01*
X150371005Y-78460851D01*
X150364646Y-78459500D01*
X150175354Y-78459500D01*
X150168995Y-78460851D01*
X150168991Y-78460852D01*
X149996559Y-78497503D01*
X149996552Y-78497505D01*
X149990197Y-78498856D01*
X149984262Y-78501498D01*
X149984254Y-78501501D01*
X149823207Y-78573205D01*
X149823202Y-78573207D01*
X149817270Y-78575849D01*
X149812016Y-78579665D01*
X149812011Y-78579669D01*
X149669388Y-78683290D01*
X149669381Y-78683295D01*
X149664129Y-78687112D01*
X149659784Y-78691937D01*
X149659779Y-78691942D01*
X149541813Y-78822956D01*
X149541808Y-78822962D01*
X149537467Y-78827784D01*
X149534222Y-78833404D01*
X149534218Y-78833410D01*
X149446069Y-78986089D01*
X149446066Y-78986094D01*
X149442821Y-78991716D01*
X149440815Y-78997888D01*
X149440813Y-78997894D01*
X149386333Y-79165564D01*
X149386331Y-79165573D01*
X149384326Y-79171744D01*
X149383648Y-79178194D01*
X149383646Y-79178204D01*
X149365962Y-79346464D01*
X149364540Y-79360000D01*
X149365219Y-79366460D01*
X149383646Y-79541795D01*
X149383647Y-79541803D01*
X149384326Y-79548256D01*
X149386331Y-79554428D01*
X149386333Y-79554435D01*
X149419881Y-79657682D01*
X149424423Y-79715398D01*
X149402268Y-79768885D01*
X149358245Y-79806485D01*
X149301950Y-79820000D01*
X141440000Y-79820000D01*
X140920000Y-79820000D01*
X140920000Y-83840000D01*
X141080883Y-83964509D01*
X141136351Y-84007437D01*
X141173905Y-84055439D01*
X141184052Y-84115535D01*
X141164342Y-84173207D01*
X141119537Y-84214522D01*
X141060459Y-84229500D01*
X140800097Y-84229500D01*
X140752644Y-84220061D01*
X140712416Y-84193181D01*
X140291100Y-83771865D01*
X140264220Y-83731637D01*
X140254937Y-83684970D01*
X140255460Y-83680000D01*
X140235674Y-83491744D01*
X140177179Y-83311716D01*
X140082533Y-83147784D01*
X140072331Y-83136454D01*
X139960220Y-83011942D01*
X139960219Y-83011941D01*
X139955871Y-83007112D01*
X139950613Y-83003292D01*
X139950611Y-83003290D01*
X139807988Y-82899669D01*
X139807987Y-82899668D01*
X139802730Y-82895849D01*
X139783172Y-82887141D01*
X139635745Y-82821501D01*
X139635740Y-82821499D01*
X139629803Y-82818856D01*
X139623444Y-82817504D01*
X139623440Y-82817503D01*
X139451008Y-82780852D01*
X139451005Y-82780851D01*
X139444646Y-82779500D01*
X139255354Y-82779500D01*
X139248995Y-82780851D01*
X139248991Y-82780852D01*
X139076559Y-82817503D01*
X139076552Y-82817505D01*
X139070197Y-82818856D01*
X139064262Y-82821498D01*
X139064254Y-82821501D01*
X138903207Y-82893205D01*
X138903202Y-82893207D01*
X138897270Y-82895849D01*
X138892016Y-82899665D01*
X138892011Y-82899669D01*
X138749388Y-83003290D01*
X138749381Y-83003295D01*
X138744129Y-83007112D01*
X138739784Y-83011937D01*
X138739779Y-83011942D01*
X138621813Y-83142956D01*
X138621808Y-83142962D01*
X138617467Y-83147784D01*
X138614222Y-83153404D01*
X138614218Y-83153410D01*
X138526069Y-83306089D01*
X138526066Y-83306094D01*
X138522821Y-83311716D01*
X138520815Y-83317888D01*
X138520813Y-83317894D01*
X138466333Y-83485564D01*
X138466331Y-83485573D01*
X138464326Y-83491744D01*
X138463648Y-83498194D01*
X138463646Y-83498204D01*
X138445962Y-83666464D01*
X138444540Y-83680000D01*
X126279233Y-83680000D01*
X130909270Y-79049963D01*
X132549431Y-79049963D01*
X132550110Y-79056423D01*
X132568537Y-79231758D01*
X132568538Y-79231766D01*
X132569217Y-79238219D01*
X132571222Y-79244391D01*
X132571224Y-79244398D01*
X132606687Y-79353540D01*
X132627712Y-79418247D01*
X132630959Y-79423871D01*
X132630960Y-79423873D01*
X132702772Y-79548256D01*
X132722358Y-79582179D01*
X132849020Y-79722851D01*
X133002161Y-79834114D01*
X133175088Y-79911107D01*
X133360245Y-79950463D01*
X133543034Y-79950463D01*
X133549537Y-79950463D01*
X133734694Y-79911107D01*
X133907621Y-79834114D01*
X134060762Y-79722851D01*
X134187424Y-79582179D01*
X134282070Y-79418247D01*
X134340565Y-79238219D01*
X134360351Y-79049963D01*
X134359828Y-79044991D01*
X134369111Y-78998325D01*
X134395991Y-78958097D01*
X135469871Y-77884217D01*
X139691044Y-73663043D01*
X139703222Y-73652364D01*
X139728282Y-73633136D01*
X139824536Y-73507695D01*
X139885044Y-73361616D01*
X139900500Y-73244215D01*
X139905682Y-73204854D01*
X139901561Y-73173552D01*
X139900500Y-73157367D01*
X139900500Y-66540231D01*
X139917113Y-66478231D01*
X139962500Y-66432844D01*
X140024500Y-66416231D01*
X152093741Y-66416231D01*
X152144176Y-66426951D01*
X152185890Y-66457258D01*
X152209776Y-66483786D01*
X152209782Y-66483792D01*
X152214129Y-66488619D01*
X152367270Y-66599882D01*
X152540197Y-66676875D01*
X152725354Y-66716231D01*
X152908143Y-66716231D01*
X152914646Y-66716231D01*
X153099803Y-66676875D01*
X153272730Y-66599882D01*
X153425871Y-66488619D01*
X153552533Y-66347947D01*
X153647179Y-66184015D01*
X153705674Y-66003987D01*
X153725460Y-65815731D01*
X153705674Y-65627475D01*
X153647179Y-65447447D01*
X153552533Y-65283515D01*
X153425871Y-65142843D01*
X153420612Y-65139022D01*
X153420611Y-65139021D01*
X153277988Y-65035400D01*
X153277987Y-65035399D01*
X153272730Y-65031580D01*
X153266792Y-65028936D01*
X153105745Y-64957232D01*
X153105740Y-64957230D01*
X153099803Y-64954587D01*
X153093444Y-64953235D01*
X153093440Y-64953234D01*
X152921008Y-64916583D01*
X152921005Y-64916582D01*
X152914646Y-64915231D01*
X152725354Y-64915231D01*
X152718995Y-64916582D01*
X152718991Y-64916583D01*
X152546559Y-64953234D01*
X152546552Y-64953236D01*
X152540197Y-64954587D01*
X152534262Y-64957229D01*
X152534254Y-64957232D01*
X152373207Y-65028936D01*
X152373202Y-65028938D01*
X152367270Y-65031580D01*
X152362016Y-65035396D01*
X152362011Y-65035400D01*
X152219387Y-65139022D01*
X152219382Y-65139026D01*
X152214129Y-65142843D01*
X152209787Y-65147664D01*
X152209776Y-65147675D01*
X152185890Y-65174204D01*
X152144176Y-65204511D01*
X152093741Y-65215231D01*
X139761756Y-65215231D01*
X139745571Y-65214170D01*
X139722328Y-65211110D01*
X139714269Y-65210049D01*
X139706210Y-65211110D01*
X139674908Y-65215231D01*
X139565566Y-65229625D01*
X139565558Y-65229627D01*
X139557507Y-65230687D01*
X139550002Y-65233795D01*
X139549997Y-65233797D01*
X139418935Y-65288085D01*
X139418931Y-65288086D01*
X139411428Y-65291195D01*
X139404983Y-65296139D01*
X139404980Y-65296142D01*
X139292432Y-65382503D01*
X139292429Y-65382505D01*
X139285987Y-65387449D01*
X139281042Y-65393892D01*
X139281039Y-65393896D01*
X139266759Y-65412505D01*
X139256067Y-65424696D01*
X138908965Y-65771798D01*
X138896774Y-65782490D01*
X138878165Y-65796770D01*
X138878161Y-65796773D01*
X138871718Y-65801718D01*
X138866774Y-65808160D01*
X138866772Y-65808163D01*
X138847550Y-65833215D01*
X138780411Y-65920711D01*
X138780408Y-65920714D01*
X138775464Y-65927159D01*
X138772355Y-65934663D01*
X138772353Y-65934668D01*
X138718066Y-66065728D01*
X138718064Y-66065733D01*
X138714956Y-66073238D01*
X138713896Y-66081289D01*
X138713894Y-66081297D01*
X138701185Y-66177836D01*
X138694318Y-66230000D01*
X138695379Y-66238059D01*
X138698439Y-66261302D01*
X138699500Y-66277487D01*
X138699500Y-67345822D01*
X138688074Y-67390000D01*
X138699500Y-67434178D01*
X138699500Y-72904757D01*
X138690061Y-72952210D01*
X138663181Y-72992438D01*
X133542475Y-78113144D01*
X133502247Y-78140024D01*
X133454794Y-78149463D01*
X133360245Y-78149463D01*
X133353886Y-78150814D01*
X133353882Y-78150815D01*
X133181450Y-78187466D01*
X133181443Y-78187468D01*
X133175088Y-78188819D01*
X133169153Y-78191461D01*
X133169145Y-78191464D01*
X133008098Y-78263168D01*
X133008093Y-78263170D01*
X133002161Y-78265812D01*
X132996907Y-78269628D01*
X132996902Y-78269632D01*
X132854279Y-78373253D01*
X132854272Y-78373258D01*
X132849020Y-78377075D01*
X132844675Y-78381900D01*
X132844670Y-78381905D01*
X132726704Y-78512919D01*
X132726699Y-78512925D01*
X132722358Y-78517747D01*
X132719113Y-78523367D01*
X132719109Y-78523373D01*
X132630960Y-78676052D01*
X132630957Y-78676057D01*
X132627712Y-78681679D01*
X132625706Y-78687851D01*
X132625704Y-78687857D01*
X132571224Y-78855527D01*
X132571222Y-78855536D01*
X132569217Y-78861707D01*
X132568539Y-78868157D01*
X132568537Y-78868167D01*
X132554150Y-79005059D01*
X132549431Y-79049963D01*
X130909270Y-79049963D01*
X134011044Y-75948189D01*
X134023222Y-75937510D01*
X134048282Y-75918282D01*
X134144536Y-75792841D01*
X134205044Y-75646762D01*
X134220500Y-75529361D01*
X134225682Y-75490000D01*
X134221561Y-75458698D01*
X134220500Y-75442513D01*
X134220500Y-70360862D01*
X134229939Y-70313409D01*
X134256819Y-70273181D01*
X135104000Y-69426000D01*
X136070000Y-68460000D01*
X136070000Y-68152469D01*
X136076578Y-68112620D01*
X136095609Y-68077002D01*
X136098502Y-68073232D01*
X136109188Y-68061045D01*
X136132917Y-68037317D01*
X136143419Y-68026816D01*
X136183647Y-67999938D01*
X136231098Y-67990500D01*
X136823741Y-67990500D01*
X136874176Y-68001220D01*
X136915890Y-68031527D01*
X136939776Y-68058055D01*
X136939782Y-68058061D01*
X136944129Y-68062888D01*
X137097270Y-68174151D01*
X137270197Y-68251144D01*
X137455354Y-68290500D01*
X137638143Y-68290500D01*
X137644646Y-68290500D01*
X137829803Y-68251144D01*
X138002730Y-68174151D01*
X138155871Y-68062888D01*
X138282533Y-67922216D01*
X138377179Y-67758284D01*
X138435674Y-67578256D01*
X138452179Y-67421216D01*
X138463850Y-67389999D01*
X138452179Y-67358783D01*
X138446640Y-67306086D01*
X138435674Y-67201744D01*
X138377179Y-67021716D01*
X138282533Y-66857784D01*
X138240859Y-66811501D01*
X138160220Y-66721942D01*
X138160219Y-66721941D01*
X138155871Y-66717112D01*
X138150612Y-66713291D01*
X138150611Y-66713290D01*
X138007988Y-66609669D01*
X138007987Y-66609668D01*
X138002730Y-66605849D01*
X137996792Y-66603205D01*
X137835745Y-66531501D01*
X137835740Y-66531499D01*
X137829803Y-66528856D01*
X137823444Y-66527504D01*
X137823440Y-66527503D01*
X137651008Y-66490852D01*
X137651005Y-66490851D01*
X137644646Y-66489500D01*
X137455354Y-66489500D01*
X137448995Y-66490851D01*
X137448991Y-66490852D01*
X137276559Y-66527503D01*
X137276552Y-66527505D01*
X137270197Y-66528856D01*
X137264262Y-66531498D01*
X137264254Y-66531501D01*
X137103207Y-66603205D01*
X137103202Y-66603207D01*
X137097270Y-66605849D01*
X137092016Y-66609665D01*
X137092011Y-66609669D01*
X136949387Y-66713291D01*
X136949382Y-66713295D01*
X136944129Y-66717112D01*
X136939787Y-66721933D01*
X136939776Y-66721944D01*
X136915890Y-66748473D01*
X136874176Y-66778780D01*
X136823741Y-66789500D01*
X136655500Y-66789500D01*
X136593500Y-66772887D01*
X136548113Y-66727500D01*
X136531500Y-66665500D01*
X136531500Y-53076461D01*
X136544050Y-53022103D01*
X136579158Y-52978748D01*
X136629719Y-52955171D01*
X136697702Y-52940720D01*
X136789803Y-52921144D01*
X136962730Y-52844151D01*
X137115871Y-52732888D01*
X137116004Y-52733071D01*
X137162156Y-52707701D01*
X137218737Y-52705331D01*
X137270471Y-52728365D01*
X137306569Y-52772000D01*
X137319500Y-52827134D01*
X137319500Y-61423717D01*
X137302887Y-61485717D01*
X137216069Y-61636089D01*
X137216066Y-61636094D01*
X137212821Y-61641716D01*
X137210815Y-61647888D01*
X137210813Y-61647894D01*
X137156333Y-61815564D01*
X137156331Y-61815573D01*
X137154326Y-61821744D01*
X137153648Y-61828194D01*
X137153646Y-61828204D01*
X137135962Y-61996464D01*
X137134540Y-62010000D01*
X137135219Y-62016460D01*
X137153646Y-62191795D01*
X137153647Y-62191803D01*
X137154326Y-62198256D01*
X137156331Y-62204428D01*
X137156333Y-62204435D01*
X137184028Y-62289669D01*
X137212821Y-62378284D01*
X137216068Y-62383908D01*
X137216069Y-62383910D01*
X137302120Y-62532956D01*
X137307467Y-62542216D01*
X137434129Y-62682888D01*
X137439387Y-62686708D01*
X137439388Y-62686709D01*
X137468547Y-62707894D01*
X137587270Y-62794151D01*
X137760197Y-62871144D01*
X137945354Y-62910500D01*
X138039903Y-62910500D01*
X138087356Y-62919939D01*
X138127584Y-62946819D01*
X138411799Y-63231034D01*
X138422489Y-63243222D01*
X138441718Y-63268282D01*
X138521499Y-63329500D01*
X138567159Y-63364536D01*
X138713238Y-63425044D01*
X138870000Y-63445682D01*
X138878059Y-63444621D01*
X138901302Y-63441561D01*
X138917487Y-63440500D01*
X146562513Y-63440500D01*
X146578698Y-63441561D01*
X146610000Y-63445682D01*
X146766762Y-63425044D01*
X146912841Y-63364536D01*
X146958501Y-63329500D01*
X147038282Y-63268282D01*
X147057510Y-63243222D01*
X147068189Y-63231044D01*
X154717409Y-55581824D01*
X154768315Y-55551085D01*
X154827681Y-55547583D01*
X154881851Y-55572124D01*
X154910859Y-55609416D01*
X154912821Y-55608284D01*
X155007467Y-55772216D01*
X155011811Y-55777041D01*
X155011813Y-55777043D01*
X155107650Y-55883480D01*
X155131264Y-55922014D01*
X155139500Y-55966452D01*
X155139500Y-58562792D01*
X155130061Y-58610245D01*
X155103181Y-58650473D01*
X151320473Y-62433181D01*
X151280245Y-62460061D01*
X151232792Y-62469500D01*
X150326259Y-62469500D01*
X150275824Y-62458780D01*
X150234110Y-62428473D01*
X150210223Y-62401944D01*
X150210216Y-62401938D01*
X150205871Y-62397112D01*
X150200612Y-62393291D01*
X150057988Y-62289669D01*
X150057987Y-62289668D01*
X150052730Y-62285849D01*
X150046792Y-62283205D01*
X149885745Y-62211501D01*
X149885740Y-62211499D01*
X149879803Y-62208856D01*
X149873444Y-62207504D01*
X149873440Y-62207503D01*
X149701008Y-62170852D01*
X149701005Y-62170851D01*
X149694646Y-62169500D01*
X149505354Y-62169500D01*
X149498995Y-62170851D01*
X149498991Y-62170852D01*
X149326559Y-62207503D01*
X149326552Y-62207505D01*
X149320197Y-62208856D01*
X149314262Y-62211498D01*
X149314254Y-62211501D01*
X149153207Y-62283205D01*
X149153202Y-62283207D01*
X149147270Y-62285849D01*
X149142016Y-62289665D01*
X149142011Y-62289669D01*
X148999388Y-62393290D01*
X148999381Y-62393295D01*
X148994129Y-62397112D01*
X148989784Y-62401937D01*
X148989779Y-62401942D01*
X148871813Y-62532956D01*
X148871808Y-62532962D01*
X148867467Y-62537784D01*
X148864222Y-62543404D01*
X148864218Y-62543410D01*
X148776069Y-62696089D01*
X148776066Y-62696094D01*
X148772821Y-62701716D01*
X148770815Y-62707888D01*
X148770813Y-62707894D01*
X148716333Y-62875564D01*
X148716331Y-62875573D01*
X148714326Y-62881744D01*
X148713648Y-62888194D01*
X148713646Y-62888204D01*
X148695962Y-63056464D01*
X148694540Y-63070000D01*
X148695219Y-63076460D01*
X148713646Y-63251795D01*
X148713647Y-63251803D01*
X148714326Y-63258256D01*
X148716331Y-63264428D01*
X148716333Y-63264435D01*
X148770813Y-63432105D01*
X148772821Y-63438284D01*
X148776068Y-63443908D01*
X148776069Y-63443910D01*
X148803738Y-63491835D01*
X148867467Y-63602216D01*
X148871811Y-63607041D01*
X148871813Y-63607043D01*
X148932661Y-63674621D01*
X148994129Y-63742888D01*
X149147270Y-63854151D01*
X149320197Y-63931144D01*
X149505354Y-63970500D01*
X149688143Y-63970500D01*
X149694646Y-63970500D01*
X149879803Y-63931144D01*
X150052730Y-63854151D01*
X150205871Y-63742888D01*
X150210223Y-63738055D01*
X150234110Y-63711527D01*
X150275824Y-63681220D01*
X150326259Y-63670500D01*
X151485402Y-63670500D01*
X151501587Y-63671561D01*
X151532889Y-63675682D01*
X151689651Y-63655044D01*
X151835730Y-63594536D01*
X151878039Y-63562071D01*
X151961171Y-63498282D01*
X151980399Y-63473222D01*
X151991078Y-63461044D01*
X156131044Y-59321078D01*
X156143222Y-59310399D01*
X156168282Y-59291171D01*
X156264536Y-59165730D01*
X156325044Y-59019651D01*
X156340500Y-58902250D01*
X156345682Y-58862889D01*
X156341561Y-58831587D01*
X156340500Y-58815402D01*
X156340500Y-55966452D01*
X156348736Y-55922014D01*
X156372350Y-55883480D01*
X156472533Y-55772216D01*
X156567179Y-55608284D01*
X156625674Y-55428256D01*
X156645460Y-55240000D01*
X156625674Y-55051744D01*
X156567179Y-54871716D01*
X156472533Y-54707784D01*
X156383042Y-54608395D01*
X156350220Y-54571942D01*
X156350219Y-54571941D01*
X156345871Y-54567112D01*
X156340613Y-54563292D01*
X156340611Y-54563290D01*
X156197988Y-54459669D01*
X156197987Y-54459668D01*
X156192730Y-54455849D01*
X156115829Y-54421610D01*
X156068885Y-54385098D01*
X156044341Y-54330928D01*
X156047843Y-54271559D01*
X156078584Y-54220650D01*
X156252416Y-54046819D01*
X156292644Y-54019939D01*
X156340097Y-54010500D01*
X156428143Y-54010500D01*
X156434646Y-54010500D01*
X156619803Y-53971144D01*
X156792730Y-53894151D01*
X156945871Y-53782888D01*
X157072533Y-53642216D01*
X157167179Y-53478284D01*
X157225674Y-53298256D01*
X157245460Y-53110000D01*
X157225674Y-52921744D01*
X157167179Y-52741716D01*
X157072533Y-52577784D01*
X156945871Y-52437112D01*
X156940613Y-52433292D01*
X156940611Y-52433290D01*
X156797988Y-52329669D01*
X156797987Y-52329668D01*
X156792730Y-52325849D01*
X156786792Y-52323205D01*
X156625745Y-52251501D01*
X156625740Y-52251499D01*
X156619803Y-52248856D01*
X156613444Y-52247504D01*
X156613440Y-52247503D01*
X156441008Y-52210852D01*
X156441005Y-52210851D01*
X156434646Y-52209500D01*
X156245354Y-52209500D01*
X156238995Y-52210851D01*
X156238991Y-52210852D01*
X156066559Y-52247503D01*
X156066552Y-52247505D01*
X156060197Y-52248856D01*
X156054262Y-52251498D01*
X156054254Y-52251501D01*
X155893207Y-52323205D01*
X155893202Y-52323207D01*
X155887270Y-52325849D01*
X155882016Y-52329665D01*
X155882011Y-52329669D01*
X155739388Y-52433290D01*
X155739381Y-52433295D01*
X155734129Y-52437112D01*
X155729784Y-52441937D01*
X155729779Y-52441942D01*
X155611813Y-52572956D01*
X155611808Y-52572962D01*
X155607467Y-52577784D01*
X155604222Y-52583404D01*
X155604218Y-52583410D01*
X155516069Y-52736089D01*
X155516066Y-52736094D01*
X155512821Y-52741716D01*
X155510815Y-52747888D01*
X155510813Y-52747894D01*
X155456333Y-52915564D01*
X155456331Y-52915573D01*
X155454326Y-52921744D01*
X155453648Y-52928194D01*
X155453646Y-52928204D01*
X155443778Y-53022103D01*
X155434540Y-53110000D01*
X155435062Y-53114970D01*
X155425780Y-53161636D01*
X155398900Y-53201864D01*
X153903758Y-54697005D01*
X153855936Y-54726743D01*
X153799892Y-54732263D01*
X153747187Y-54712426D01*
X153708690Y-54671325D01*
X153675145Y-54613223D01*
X153548483Y-54472551D01*
X153543225Y-54468731D01*
X153543223Y-54468729D01*
X153400600Y-54365108D01*
X153400599Y-54365107D01*
X153395342Y-54361288D01*
X153389404Y-54358644D01*
X153228357Y-54286940D01*
X153228352Y-54286938D01*
X153222415Y-54284295D01*
X153216056Y-54282943D01*
X153216052Y-54282942D01*
X153043620Y-54246291D01*
X153043617Y-54246290D01*
X153037258Y-54244939D01*
X152847966Y-54244939D01*
X152841607Y-54246290D01*
X152841603Y-54246291D01*
X152669171Y-54282942D01*
X152669164Y-54282944D01*
X152662809Y-54284295D01*
X152656874Y-54286937D01*
X152656866Y-54286940D01*
X152495819Y-54358644D01*
X152495814Y-54358646D01*
X152489882Y-54361288D01*
X152484628Y-54365104D01*
X152484623Y-54365108D01*
X152342000Y-54468729D01*
X152341993Y-54468734D01*
X152336741Y-54472551D01*
X152332396Y-54477376D01*
X152332391Y-54477381D01*
X152214425Y-54608395D01*
X152214420Y-54608401D01*
X152210079Y-54613223D01*
X152206834Y-54618843D01*
X152206830Y-54618849D01*
X152118681Y-54771528D01*
X152118678Y-54771533D01*
X152115433Y-54777155D01*
X152113427Y-54783327D01*
X152113425Y-54783333D01*
X152058945Y-54951003D01*
X152058943Y-54951012D01*
X152056938Y-54957183D01*
X152056260Y-54963633D01*
X152056258Y-54963643D01*
X152038574Y-55131903D01*
X152037152Y-55145439D01*
X152037674Y-55150409D01*
X152028392Y-55197075D01*
X152001512Y-55237303D01*
X148149895Y-59088919D01*
X148108665Y-59116209D01*
X148060049Y-59125219D01*
X148011779Y-59114517D01*
X147931001Y-59078552D01*
X147924642Y-59077200D01*
X147924638Y-59077199D01*
X147752206Y-59040548D01*
X147752203Y-59040547D01*
X147745844Y-59039196D01*
X147556552Y-59039196D01*
X147550193Y-59040547D01*
X147550189Y-59040548D01*
X147377757Y-59077199D01*
X147377750Y-59077201D01*
X147371395Y-59078552D01*
X147365460Y-59081194D01*
X147365452Y-59081197D01*
X147204405Y-59152901D01*
X147204400Y-59152903D01*
X147198468Y-59155545D01*
X147193214Y-59159361D01*
X147193209Y-59159365D01*
X147050586Y-59262986D01*
X147050579Y-59262991D01*
X147045327Y-59266808D01*
X147040982Y-59271633D01*
X147040977Y-59271638D01*
X146923011Y-59402652D01*
X146923006Y-59402658D01*
X146918665Y-59407480D01*
X146915420Y-59413100D01*
X146915416Y-59413106D01*
X146827267Y-59565785D01*
X146827264Y-59565790D01*
X146824019Y-59571412D01*
X146822013Y-59577584D01*
X146822011Y-59577590D01*
X146767531Y-59745260D01*
X146767529Y-59745269D01*
X146765524Y-59751440D01*
X146764846Y-59757890D01*
X146764844Y-59757900D01*
X146747160Y-59926160D01*
X146745738Y-59939696D01*
X146746417Y-59946156D01*
X146764844Y-60121491D01*
X146764845Y-60121499D01*
X146765524Y-60127952D01*
X146767529Y-60134124D01*
X146767531Y-60134131D01*
X146822011Y-60301801D01*
X146824019Y-60307980D01*
X146918665Y-60471912D01*
X147045327Y-60612584D01*
X147198468Y-60723847D01*
X147371395Y-60800840D01*
X147501416Y-60828476D01*
X147559806Y-60858710D01*
X147594529Y-60914548D01*
X147595820Y-60980289D01*
X147563316Y-61037447D01*
X146397584Y-62203181D01*
X146357356Y-62230061D01*
X146309903Y-62239500D01*
X139170097Y-62239500D01*
X139122644Y-62230061D01*
X139082416Y-62203181D01*
X138981100Y-62101865D01*
X138954220Y-62061637D01*
X138944937Y-62014970D01*
X138945460Y-62010000D01*
X138925674Y-61821744D01*
X138867179Y-61641716D01*
X138772533Y-61477784D01*
X138768188Y-61472959D01*
X138768182Y-61472950D01*
X138752351Y-61455369D01*
X138728736Y-61416834D01*
X138720500Y-61372396D01*
X138720500Y-59075269D01*
X138737113Y-59013269D01*
X138782500Y-58967882D01*
X138844500Y-58951269D01*
X138906500Y-58967882D01*
X138951887Y-59013269D01*
X138987682Y-59075269D01*
X138997467Y-59092216D01*
X139001811Y-59097041D01*
X139001813Y-59097043D01*
X139052108Y-59152901D01*
X139124129Y-59232888D01*
X139129387Y-59236708D01*
X139129388Y-59236709D01*
X139170816Y-59266808D01*
X139277270Y-59344151D01*
X139450197Y-59421144D01*
X139635354Y-59460500D01*
X139818143Y-59460500D01*
X139824646Y-59460500D01*
X140009803Y-59421144D01*
X140182730Y-59344151D01*
X140335871Y-59232888D01*
X140462533Y-59092216D01*
X140557179Y-58928284D01*
X140615674Y-58748256D01*
X140635460Y-58560000D01*
X140634937Y-58555028D01*
X140644220Y-58508362D01*
X140671100Y-58468134D01*
X142116629Y-57022605D01*
X143726863Y-55412370D01*
X143776224Y-55382122D01*
X143833940Y-55377580D01*
X143887427Y-55399735D01*
X143902010Y-55410330D01*
X143902014Y-55410332D01*
X143907270Y-55414151D01*
X144080197Y-55491144D01*
X144265354Y-55530500D01*
X144448143Y-55530500D01*
X144454646Y-55530500D01*
X144479721Y-55525170D01*
X144534449Y-55525887D01*
X144583537Y-55550096D01*
X144617421Y-55593078D01*
X144629500Y-55646461D01*
X144629500Y-55922942D01*
X144621264Y-55967380D01*
X144597650Y-56005914D01*
X144491813Y-56123456D01*
X144491808Y-56123462D01*
X144487467Y-56128284D01*
X144484222Y-56133904D01*
X144484218Y-56133910D01*
X144396069Y-56286589D01*
X144396066Y-56286594D01*
X144392821Y-56292216D01*
X144390815Y-56298388D01*
X144390813Y-56298394D01*
X144336333Y-56466064D01*
X144336331Y-56466073D01*
X144334326Y-56472244D01*
X144333648Y-56478694D01*
X144333646Y-56478704D01*
X144315962Y-56646964D01*
X144314540Y-56660500D01*
X144315219Y-56666960D01*
X144333646Y-56842295D01*
X144333647Y-56842303D01*
X144334326Y-56848756D01*
X144336331Y-56854928D01*
X144336333Y-56854935D01*
X144390813Y-57022605D01*
X144392821Y-57028784D01*
X144487467Y-57192716D01*
X144491811Y-57197541D01*
X144491813Y-57197543D01*
X144576894Y-57292035D01*
X144614129Y-57333388D01*
X144767270Y-57444651D01*
X144940197Y-57521644D01*
X145125354Y-57561000D01*
X145308143Y-57561000D01*
X145314646Y-57561000D01*
X145499803Y-57521644D01*
X145672730Y-57444651D01*
X145825871Y-57333388D01*
X145952533Y-57192716D01*
X146047179Y-57028784D01*
X146105674Y-56848756D01*
X146125460Y-56660500D01*
X146105674Y-56472244D01*
X146047179Y-56292216D01*
X145952533Y-56128284D01*
X145862349Y-56028125D01*
X145838736Y-55989592D01*
X145830500Y-55945154D01*
X145830500Y-50296452D01*
X145838736Y-50252014D01*
X145862350Y-50213480D01*
X145962533Y-50102216D01*
X146057179Y-49938284D01*
X146115674Y-49758256D01*
X146135460Y-49570000D01*
X146115674Y-49381744D01*
X146057179Y-49201716D01*
X145962533Y-49037784D01*
X145835871Y-48897112D01*
X145830613Y-48893292D01*
X145830611Y-48893290D01*
X145687988Y-48789669D01*
X145687987Y-48789668D01*
X145682730Y-48785849D01*
X145676792Y-48783205D01*
X145515745Y-48711501D01*
X145515740Y-48711499D01*
X145509803Y-48708856D01*
X145503444Y-48707504D01*
X145503440Y-48707503D01*
X145331008Y-48670852D01*
X145331005Y-48670851D01*
X145324646Y-48669500D01*
X145135354Y-48669500D01*
X145129000Y-48670850D01*
X145128995Y-48670851D01*
X145114708Y-48673888D01*
X145110278Y-48674829D01*
X145055551Y-48674113D01*
X145006463Y-48649904D01*
X144972579Y-48606922D01*
X144960500Y-48553539D01*
X144960500Y-47090000D01*
X147254540Y-47090000D01*
X147255219Y-47096460D01*
X147273646Y-47271795D01*
X147273647Y-47271803D01*
X147274326Y-47278256D01*
X147276331Y-47284428D01*
X147276333Y-47284435D01*
X147277558Y-47288204D01*
X147332821Y-47458284D01*
X147427467Y-47622216D01*
X147431811Y-47627041D01*
X147431813Y-47627043D01*
X147465481Y-47664435D01*
X147554129Y-47762888D01*
X147707270Y-47874151D01*
X147880197Y-47951144D01*
X148065354Y-47990500D01*
X148248143Y-47990500D01*
X148254646Y-47990500D01*
X148439803Y-47951144D01*
X148612730Y-47874151D01*
X148765871Y-47762888D01*
X148892533Y-47622216D01*
X148987179Y-47458284D01*
X149045674Y-47278256D01*
X149050864Y-47228870D01*
X149062264Y-47188449D01*
X149086501Y-47154154D01*
X150043837Y-46196819D01*
X150084066Y-46169939D01*
X150131519Y-46160500D01*
X159769372Y-46160500D01*
X159807690Y-46166569D01*
X159842258Y-46184182D01*
X159897270Y-46224151D01*
X160070197Y-46301144D01*
X160255354Y-46340500D01*
X160438143Y-46340500D01*
X160444646Y-46340500D01*
X160629803Y-46301144D01*
X160802730Y-46224151D01*
X160955871Y-46112888D01*
X161082533Y-45972216D01*
X161177179Y-45808284D01*
X161235674Y-45628256D01*
X161255460Y-45440000D01*
X161235674Y-45251744D01*
X161177179Y-45071716D01*
X161082533Y-44907784D01*
X161073407Y-44897649D01*
X160960220Y-44771942D01*
X160960219Y-44771941D01*
X160955871Y-44767112D01*
X160950613Y-44763292D01*
X160950611Y-44763290D01*
X160807988Y-44659669D01*
X160807987Y-44659668D01*
X160802730Y-44655849D01*
X160796792Y-44653205D01*
X160635745Y-44581501D01*
X160635740Y-44581499D01*
X160629803Y-44578856D01*
X160623444Y-44577504D01*
X160623440Y-44577503D01*
X160451008Y-44540852D01*
X160451005Y-44540851D01*
X160444646Y-44539500D01*
X160255354Y-44539500D01*
X160248995Y-44540851D01*
X160248991Y-44540852D01*
X160076559Y-44577503D01*
X160076552Y-44577505D01*
X160070197Y-44578856D01*
X160064262Y-44581498D01*
X160064254Y-44581501D01*
X159903207Y-44653205D01*
X159903202Y-44653207D01*
X159897270Y-44655849D01*
X159892016Y-44659665D01*
X159892011Y-44659669D01*
X159787202Y-44735818D01*
X159752635Y-44753431D01*
X159714317Y-44759500D01*
X149814910Y-44759500D01*
X149807423Y-44759274D01*
X149754881Y-44756095D01*
X149754873Y-44756095D01*
X149747394Y-44755643D01*
X149740019Y-44756994D01*
X149740009Y-44756995D01*
X149688242Y-44766481D01*
X149680843Y-44767608D01*
X149628567Y-44773956D01*
X149628561Y-44773957D01*
X149621128Y-44774860D01*
X149614123Y-44777516D01*
X149614112Y-44777519D01*
X149611639Y-44778457D01*
X149590041Y-44784478D01*
X149587451Y-44784952D01*
X149587444Y-44784954D01*
X149580068Y-44786306D01*
X149573227Y-44789384D01*
X149573223Y-44789386D01*
X149525228Y-44810986D01*
X149518313Y-44813850D01*
X149469081Y-44832522D01*
X149469073Y-44832525D01*
X149462070Y-44835182D01*
X149455909Y-44839434D01*
X149455898Y-44839440D01*
X149453725Y-44840941D01*
X149434188Y-44851960D01*
X149431778Y-44853044D01*
X149431768Y-44853049D01*
X149424943Y-44856122D01*
X149419048Y-44860739D01*
X149419040Y-44860745D01*
X149377597Y-44893213D01*
X149371568Y-44897649D01*
X149328248Y-44927551D01*
X149328236Y-44927560D01*
X149322071Y-44931817D01*
X149317102Y-44937425D01*
X149317096Y-44937431D01*
X149282184Y-44976838D01*
X149277051Y-44982290D01*
X148097027Y-46162315D01*
X148068514Y-46183607D01*
X148035128Y-46195924D01*
X147886557Y-46227504D01*
X147886555Y-46227504D01*
X147880197Y-46228856D01*
X147874262Y-46231498D01*
X147874254Y-46231501D01*
X147713207Y-46303205D01*
X147713202Y-46303207D01*
X147707270Y-46305849D01*
X147702016Y-46309665D01*
X147702011Y-46309669D01*
X147559388Y-46413290D01*
X147559381Y-46413295D01*
X147554129Y-46417112D01*
X147549784Y-46421937D01*
X147549779Y-46421942D01*
X147431813Y-46552956D01*
X147431808Y-46552962D01*
X147427467Y-46557784D01*
X147424222Y-46563404D01*
X147424218Y-46563410D01*
X147336069Y-46716089D01*
X147336066Y-46716094D01*
X147332821Y-46721716D01*
X147330815Y-46727888D01*
X147330813Y-46727894D01*
X147276333Y-46895564D01*
X147276331Y-46895573D01*
X147274326Y-46901744D01*
X147273648Y-46908194D01*
X147273646Y-46908204D01*
X147255962Y-47076464D01*
X147254540Y-47090000D01*
X144960500Y-47090000D01*
X144960500Y-46887487D01*
X144961561Y-46871302D01*
X144964621Y-46848059D01*
X144965682Y-46840000D01*
X144945044Y-46683238D01*
X144884536Y-46537159D01*
X144812450Y-46443215D01*
X144788282Y-46411718D01*
X144763222Y-46392489D01*
X144751034Y-46381799D01*
X139286819Y-40917584D01*
X139259939Y-40877356D01*
X139250500Y-40829903D01*
X139250500Y-39370400D01*
X139250500Y-39367915D01*
X139235498Y-39182082D01*
X139175974Y-38940586D01*
X139078483Y-38711765D01*
X138945548Y-38501546D01*
X138780614Y-38315373D01*
X138587951Y-38158069D01*
X138583627Y-38155573D01*
X138583622Y-38155569D01*
X138376884Y-38036210D01*
X138376885Y-38036210D01*
X138372549Y-38033707D01*
X138139988Y-37945508D01*
X138135100Y-37944510D01*
X138135093Y-37944508D01*
X137901186Y-37896756D01*
X137901182Y-37896755D01*
X137896291Y-37895757D01*
X137891304Y-37895556D01*
X137891296Y-37895555D01*
X137652770Y-37885942D01*
X137652763Y-37885942D01*
X137647769Y-37885741D01*
X137642803Y-37886343D01*
X137642802Y-37886344D01*
X137405824Y-37915118D01*
X137405811Y-37915120D01*
X137400858Y-37915722D01*
X137396057Y-37917112D01*
X137396050Y-37917114D01*
X137166757Y-37983529D01*
X137166748Y-37983532D01*
X137161954Y-37984921D01*
X137157451Y-37987057D01*
X137157437Y-37987063D01*
X136941761Y-38089403D01*
X136941754Y-38089406D01*
X136937244Y-38091547D01*
X136933137Y-38094381D01*
X136933128Y-38094387D01*
X136736659Y-38230001D01*
X136736656Y-38230003D01*
X136732548Y-38232839D01*
X136728950Y-38236294D01*
X136728945Y-38236299D01*
X136556767Y-38401678D01*
X136556760Y-38401685D01*
X136553168Y-38405136D01*
X136550173Y-38409120D01*
X136550169Y-38409126D01*
X136473868Y-38510665D01*
X136403749Y-38603977D01*
X136401426Y-38608401D01*
X136401424Y-38608406D01*
X136290482Y-38819787D01*
X136290478Y-38819796D01*
X136288161Y-38824211D01*
X136286584Y-38828934D01*
X136286580Y-38828944D01*
X136210979Y-39055396D01*
X136210975Y-39055408D01*
X136209398Y-39060135D01*
X136208597Y-39065058D01*
X136208595Y-39065070D01*
X136170302Y-39300701D01*
X136169500Y-39305638D01*
X136169500Y-41012085D01*
X136169698Y-41014540D01*
X136169699Y-41014560D01*
X136181035Y-41154976D01*
X136184502Y-41197918D01*
X136185695Y-41202758D01*
X136185696Y-41202764D01*
X136215727Y-41324603D01*
X136244026Y-41439414D01*
X136245980Y-41444000D01*
X136339558Y-41663639D01*
X136339562Y-41663647D01*
X136341517Y-41668235D01*
X136344189Y-41672461D01*
X136344190Y-41672462D01*
X136471779Y-41874228D01*
X136471782Y-41874233D01*
X136474452Y-41878454D01*
X136639386Y-42064627D01*
X136832049Y-42221931D01*
X136836374Y-42224428D01*
X136836377Y-42224430D01*
X136893574Y-42257452D01*
X137047451Y-42346293D01*
X137280012Y-42434492D01*
X137523709Y-42484243D01*
X137772231Y-42494259D01*
X138019142Y-42464278D01*
X138258046Y-42395079D01*
X138482756Y-42288453D01*
X138679598Y-42152582D01*
X138732613Y-42131863D01*
X138789303Y-42137014D01*
X138837717Y-42166952D01*
X143191107Y-46520342D01*
X143219762Y-46565104D01*
X143227044Y-46617752D01*
X143211616Y-46668612D01*
X143176311Y-46708341D01*
X143054129Y-46797112D01*
X143049784Y-46801937D01*
X143049779Y-46801942D01*
X142931813Y-46932956D01*
X142931808Y-46932962D01*
X142927467Y-46937784D01*
X142924222Y-46943404D01*
X142924218Y-46943410D01*
X142836069Y-47096089D01*
X142836066Y-47096094D01*
X142832821Y-47101716D01*
X142830815Y-47107888D01*
X142830813Y-47107894D01*
X142776333Y-47275564D01*
X142776331Y-47275573D01*
X142774326Y-47281744D01*
X142773648Y-47288194D01*
X142773646Y-47288204D01*
X142756421Y-47452105D01*
X142754540Y-47470000D01*
X142755219Y-47476460D01*
X142773646Y-47651795D01*
X142773647Y-47651803D01*
X142774326Y-47658256D01*
X142776331Y-47664428D01*
X142776333Y-47664435D01*
X142830813Y-47832105D01*
X142832821Y-47838284D01*
X142836068Y-47843908D01*
X142836069Y-47843910D01*
X142919921Y-47989147D01*
X142927467Y-48002216D01*
X142931811Y-48007041D01*
X142931813Y-48007043D01*
X143027650Y-48113480D01*
X143051264Y-48152014D01*
X143059500Y-48196452D01*
X143059500Y-54329903D01*
X143050061Y-54377356D01*
X143023181Y-54417584D01*
X139817584Y-57623181D01*
X139777356Y-57650061D01*
X139729903Y-57659500D01*
X139635354Y-57659500D01*
X139628995Y-57660851D01*
X139628991Y-57660852D01*
X139456559Y-57697503D01*
X139456552Y-57697505D01*
X139450197Y-57698856D01*
X139444262Y-57701498D01*
X139444254Y-57701501D01*
X139283207Y-57773205D01*
X139283202Y-57773207D01*
X139277270Y-57775849D01*
X139272016Y-57779665D01*
X139272011Y-57779669D01*
X139129388Y-57883290D01*
X139129381Y-57883295D01*
X139124129Y-57887112D01*
X139119784Y-57891937D01*
X139119779Y-57891942D01*
X139001813Y-58022956D01*
X139001808Y-58022962D01*
X138997467Y-58027784D01*
X138994222Y-58033404D01*
X138994218Y-58033410D01*
X138951887Y-58106731D01*
X138906500Y-58152118D01*
X138844500Y-58168731D01*
X138782500Y-58152118D01*
X138737113Y-58106731D01*
X138720500Y-58044731D01*
X138720500Y-46272623D01*
X138737113Y-46210623D01*
X138752379Y-46184182D01*
X138822179Y-46063284D01*
X138880674Y-45883256D01*
X138900460Y-45695000D01*
X138880674Y-45506744D01*
X138822179Y-45326716D01*
X138727533Y-45162784D01*
X138651097Y-45077894D01*
X138605220Y-45026942D01*
X138605219Y-45026941D01*
X138600871Y-45022112D01*
X138595613Y-45018292D01*
X138595611Y-45018290D01*
X138452988Y-44914669D01*
X138452987Y-44914668D01*
X138447730Y-44910849D01*
X138440846Y-44907784D01*
X138280745Y-44836501D01*
X138280740Y-44836499D01*
X138274803Y-44833856D01*
X138268444Y-44832504D01*
X138268440Y-44832503D01*
X138119872Y-44800924D01*
X138086485Y-44788607D01*
X138057972Y-44767315D01*
X134206819Y-40916162D01*
X134179939Y-40875934D01*
X134170500Y-40828481D01*
X134170500Y-39370400D01*
X134170500Y-39367915D01*
X134155498Y-39182082D01*
X134095974Y-38940586D01*
X133998483Y-38711765D01*
X133865548Y-38501546D01*
X133700614Y-38315373D01*
X133507951Y-38158069D01*
X133503627Y-38155573D01*
X133503622Y-38155569D01*
X133296884Y-38036210D01*
X133296885Y-38036210D01*
X133292549Y-38033707D01*
X133059988Y-37945508D01*
X133055100Y-37944510D01*
X133055093Y-37944508D01*
X132821186Y-37896756D01*
X132821182Y-37896755D01*
X132816291Y-37895757D01*
X132811304Y-37895556D01*
X132811296Y-37895555D01*
X132572770Y-37885942D01*
X132572763Y-37885942D01*
X132567769Y-37885741D01*
X132562803Y-37886343D01*
X132562802Y-37886344D01*
X132325824Y-37915118D01*
X132325811Y-37915120D01*
X132320858Y-37915722D01*
X132316057Y-37917112D01*
X132316050Y-37917114D01*
X132086757Y-37983529D01*
X132086748Y-37983532D01*
X132081954Y-37984921D01*
X132077451Y-37987057D01*
X132077437Y-37987063D01*
X131861761Y-38089403D01*
X131861754Y-38089406D01*
X131857244Y-38091547D01*
X131853137Y-38094381D01*
X131853128Y-38094387D01*
X131656659Y-38230001D01*
X131656656Y-38230003D01*
X131652548Y-38232839D01*
X131648950Y-38236294D01*
X131648945Y-38236299D01*
X131476767Y-38401678D01*
X131476760Y-38401685D01*
X131473168Y-38405136D01*
X131470173Y-38409120D01*
X131470169Y-38409126D01*
X131393868Y-38510665D01*
X131323749Y-38603977D01*
X131321426Y-38608401D01*
X131321424Y-38608406D01*
X131210482Y-38819787D01*
X131210478Y-38819796D01*
X131208161Y-38824211D01*
X131206584Y-38828934D01*
X131206580Y-38828944D01*
X131130979Y-39055396D01*
X131130975Y-39055408D01*
X131129398Y-39060135D01*
X131128597Y-39065058D01*
X131128595Y-39065070D01*
X131090302Y-39300701D01*
X131089500Y-39305638D01*
X131089500Y-41012085D01*
X131089698Y-41014540D01*
X131089699Y-41014560D01*
X131101035Y-41154976D01*
X131104502Y-41197918D01*
X131105695Y-41202758D01*
X131105696Y-41202764D01*
X131135727Y-41324603D01*
X131164026Y-41439414D01*
X131165980Y-41444000D01*
X131259558Y-41663639D01*
X131259562Y-41663647D01*
X131261517Y-41668235D01*
X131264189Y-41672461D01*
X131264190Y-41672462D01*
X131391779Y-41874228D01*
X131391782Y-41874233D01*
X131394452Y-41878454D01*
X131559386Y-42064627D01*
X131752049Y-42221931D01*
X131756374Y-42224428D01*
X131756377Y-42224430D01*
X131813574Y-42257452D01*
X131967451Y-42346293D01*
X132200012Y-42434492D01*
X132443709Y-42484243D01*
X132692231Y-42494259D01*
X132939142Y-42464278D01*
X133178046Y-42395079D01*
X133402756Y-42288453D01*
X133433100Y-42267507D01*
X133486115Y-42246788D01*
X133542805Y-42251939D01*
X133591220Y-42281877D01*
X137068495Y-45759152D01*
X137092734Y-45793449D01*
X137104135Y-45833870D01*
X137108646Y-45876795D01*
X137108647Y-45876803D01*
X137109326Y-45883256D01*
X137167821Y-46063284D01*
X137171068Y-46068908D01*
X137171069Y-46068910D01*
X137244917Y-46196819D01*
X137262467Y-46227216D01*
X137266809Y-46232039D01*
X137266817Y-46232049D01*
X137287649Y-46255184D01*
X137311264Y-46293719D01*
X137319500Y-46338157D01*
X137319500Y-51292866D01*
X137306569Y-51348000D01*
X137270471Y-51391635D01*
X137218737Y-51414669D01*
X137162156Y-51412299D01*
X137116004Y-51386928D01*
X137115871Y-51387112D01*
X137114415Y-51386054D01*
X137114414Y-51386053D01*
X137110612Y-51383291D01*
X136967988Y-51279669D01*
X136967987Y-51279668D01*
X136962730Y-51275849D01*
X136956792Y-51273205D01*
X136795745Y-51201501D01*
X136795740Y-51201499D01*
X136789803Y-51198856D01*
X136783444Y-51197504D01*
X136783440Y-51197503D01*
X136611008Y-51160852D01*
X136611005Y-51160851D01*
X136604646Y-51159500D01*
X136415354Y-51159500D01*
X136408995Y-51160851D01*
X136408991Y-51160852D01*
X136236559Y-51197503D01*
X136236552Y-51197505D01*
X136230197Y-51198856D01*
X136224262Y-51201498D01*
X136224254Y-51201501D01*
X136063207Y-51273205D01*
X136063202Y-51273207D01*
X136057270Y-51275849D01*
X136052016Y-51279665D01*
X136052011Y-51279669D01*
X135909388Y-51383290D01*
X135909381Y-51383295D01*
X135904129Y-51387112D01*
X135899784Y-51391937D01*
X135899779Y-51391942D01*
X135781813Y-51522956D01*
X135781808Y-51522962D01*
X135777467Y-51527784D01*
X135774222Y-51533404D01*
X135774218Y-51533410D01*
X135686069Y-51686089D01*
X135686066Y-51686094D01*
X135682821Y-51691716D01*
X135680815Y-51697888D01*
X135680813Y-51697894D01*
X135626333Y-51865564D01*
X135626331Y-51865573D01*
X135624326Y-51871744D01*
X135623648Y-51878194D01*
X135623646Y-51878204D01*
X135605962Y-52046464D01*
X135604540Y-52060000D01*
X135605062Y-52064970D01*
X135595780Y-52111637D01*
X135568901Y-52151862D01*
X135539963Y-52180800D01*
X135539964Y-52180800D01*
X135527774Y-52191490D01*
X135509165Y-52205770D01*
X135509161Y-52205773D01*
X135502718Y-52210718D01*
X135497774Y-52217160D01*
X135497772Y-52217163D01*
X135473454Y-52248856D01*
X135411411Y-52329711D01*
X135411408Y-52329714D01*
X135406464Y-52336159D01*
X135403355Y-52343662D01*
X135403354Y-52343666D01*
X135349066Y-52474728D01*
X135349064Y-52474733D01*
X135345956Y-52482238D01*
X135344896Y-52490289D01*
X135344894Y-52490297D01*
X135331477Y-52592216D01*
X135325318Y-52639000D01*
X135326379Y-52647059D01*
X135329439Y-52670302D01*
X135330500Y-52686487D01*
X135330500Y-63726000D01*
X135313887Y-63788000D01*
X135268500Y-63833387D01*
X135206500Y-63850000D01*
X134620000Y-63850000D01*
X134610000Y-63860000D01*
X134610000Y-63872211D01*
X134610000Y-66945500D01*
X134593387Y-67007500D01*
X134548000Y-67052887D01*
X134486000Y-67069500D01*
X134346259Y-67069500D01*
X134295824Y-67058780D01*
X134254110Y-67028473D01*
X134230223Y-67001944D01*
X134230216Y-67001938D01*
X134225871Y-66997112D01*
X134220612Y-66993291D01*
X134077988Y-66889669D01*
X134077987Y-66889668D01*
X134072730Y-66885849D01*
X134009696Y-66857784D01*
X133905745Y-66811501D01*
X133905740Y-66811499D01*
X133899803Y-66808856D01*
X133893444Y-66807504D01*
X133893440Y-66807503D01*
X133721008Y-66770852D01*
X133721005Y-66770851D01*
X133714646Y-66769500D01*
X133525354Y-66769500D01*
X133518995Y-66770851D01*
X133518991Y-66770852D01*
X133346559Y-66807503D01*
X133346552Y-66807505D01*
X133340197Y-66808856D01*
X133334262Y-66811498D01*
X133334254Y-66811501D01*
X133173207Y-66883205D01*
X133173202Y-66883207D01*
X133167270Y-66885849D01*
X133162016Y-66889665D01*
X133162011Y-66889669D01*
X133019388Y-66993290D01*
X133019381Y-66993295D01*
X133014129Y-66997112D01*
X133009784Y-67001937D01*
X133009779Y-67001942D01*
X132891813Y-67132956D01*
X132891808Y-67132962D01*
X132887467Y-67137784D01*
X132884222Y-67143404D01*
X132884218Y-67143410D01*
X132796069Y-67296089D01*
X132796066Y-67296094D01*
X132792821Y-67301716D01*
X132790815Y-67307888D01*
X132790813Y-67307894D01*
X132736333Y-67475564D01*
X132736331Y-67475573D01*
X132734326Y-67481744D01*
X132733648Y-67488194D01*
X132733646Y-67488204D01*
X132724861Y-67571795D01*
X132714540Y-67670000D01*
X132715219Y-67676460D01*
X132733646Y-67851795D01*
X132733647Y-67851803D01*
X132734326Y-67858256D01*
X132736331Y-67864428D01*
X132736333Y-67864435D01*
X132790813Y-68032105D01*
X132792821Y-68038284D01*
X132796068Y-68043908D01*
X132796069Y-68043910D01*
X132872789Y-68176794D01*
X132887467Y-68202216D01*
X132966958Y-68290500D01*
X132987650Y-68313480D01*
X133011264Y-68352014D01*
X133019500Y-68396452D01*
X133019500Y-69426000D01*
X133002887Y-69488000D01*
X132957500Y-69533387D01*
X132895500Y-69550000D01*
X132070000Y-69550000D01*
X132061364Y-69558635D01*
X132061361Y-69558638D01*
X131548638Y-70071361D01*
X131548635Y-70071364D01*
X131540000Y-70080000D01*
X131540000Y-70940000D01*
X131570000Y-70970000D01*
X132895500Y-70970000D01*
X132957500Y-70986613D01*
X133002887Y-71032000D01*
X133019500Y-71094000D01*
X133019500Y-75189903D01*
X133010061Y-75237356D01*
X132983181Y-75277584D01*
X124487584Y-83773181D01*
X124447356Y-83800061D01*
X124399903Y-83809500D01*
X87997494Y-83809500D01*
X87981308Y-83808439D01*
X87958059Y-83805378D01*
X87950000Y-83804317D01*
X87941941Y-83805378D01*
X87808737Y-83822915D01*
X87808735Y-83822915D01*
X87793237Y-83824956D01*
X87793238Y-83824956D01*
X87779127Y-83830800D01*
X87779125Y-83830801D01*
X87654666Y-83882354D01*
X87654662Y-83882355D01*
X87647159Y-83885464D01*
X87640714Y-83890408D01*
X87640711Y-83890411D01*
X87528164Y-83976771D01*
X87528160Y-83976774D01*
X87521718Y-83981718D01*
X87516774Y-83988160D01*
X87516771Y-83988164D01*
X87502494Y-84006771D01*
X87491800Y-84018964D01*
X85335646Y-86175118D01*
X85277772Y-86207801D01*
X85211335Y-86205903D01*
X85155421Y-86169970D01*
X85126096Y-86110324D01*
X85131782Y-86044106D01*
X85164091Y-85957483D01*
X85170500Y-85897873D01*
X85170499Y-83202128D01*
X85164091Y-83142517D01*
X85161674Y-83136037D01*
X85163058Y-83074067D01*
X85194659Y-83020260D01*
X89147409Y-79067510D01*
X89149579Y-79065394D01*
X89213053Y-79005059D01*
X89246750Y-78956644D01*
X89252426Y-78949116D01*
X89289698Y-78903407D01*
X89303782Y-78876444D01*
X89311919Y-78863013D01*
X89325704Y-78843208D01*
X89325703Y-78843208D01*
X89329295Y-78838049D01*
X89352568Y-78783815D01*
X89356598Y-78775331D01*
X89380997Y-78728624D01*
X89380997Y-78728622D01*
X89383909Y-78723049D01*
X89392275Y-78693808D01*
X89397539Y-78679019D01*
X89409540Y-78651058D01*
X89421421Y-78593238D01*
X89423650Y-78584155D01*
X89439886Y-78527418D01*
X89442195Y-78497082D01*
X89444376Y-78481539D01*
X89449234Y-78457901D01*
X89449233Y-78457901D01*
X89450500Y-78451741D01*
X89450500Y-78392756D01*
X89450858Y-78383340D01*
X89451626Y-78373253D01*
X89455337Y-78324524D01*
X89451493Y-78294348D01*
X89450500Y-78278683D01*
X89450500Y-70880000D01*
X115799437Y-70880000D01*
X115799784Y-70884630D01*
X115815473Y-71094000D01*
X115819659Y-71149850D01*
X115879875Y-71413673D01*
X115881570Y-71417991D01*
X115881571Y-71417995D01*
X115977041Y-71661249D01*
X115977044Y-71661255D01*
X115978739Y-71665574D01*
X115981057Y-71669589D01*
X115981060Y-71669595D01*
X116111721Y-71895905D01*
X116114043Y-71899926D01*
X116116939Y-71903557D01*
X116279870Y-72107869D01*
X116279874Y-72107873D01*
X116282763Y-72111496D01*
X116481132Y-72295555D01*
X116704719Y-72447994D01*
X116948527Y-72565406D01*
X117207112Y-72645168D01*
X117474696Y-72685500D01*
X117740667Y-72685500D01*
X117745304Y-72685500D01*
X118012888Y-72645168D01*
X118271473Y-72565406D01*
X118515282Y-72447994D01*
X118738868Y-72295555D01*
X118937237Y-72111496D01*
X119105957Y-71899926D01*
X119241261Y-71665574D01*
X119340125Y-71413673D01*
X119400341Y-71149850D01*
X119420563Y-70880000D01*
X119400341Y-70610150D01*
X119340125Y-70346327D01*
X119241261Y-70094426D01*
X119105957Y-69860074D01*
X118937237Y-69648504D01*
X118738868Y-69464445D01*
X118735040Y-69461835D01*
X118735035Y-69461831D01*
X118519118Y-69314621D01*
X118519114Y-69314619D01*
X118515282Y-69312006D01*
X118511096Y-69309990D01*
X118275656Y-69196608D01*
X118275651Y-69196606D01*
X118271473Y-69194594D01*
X118267040Y-69193226D01*
X118267036Y-69193225D01*
X118017324Y-69116200D01*
X118017320Y-69116199D01*
X118012888Y-69114832D01*
X118008300Y-69114140D01*
X118008298Y-69114140D01*
X117749889Y-69075191D01*
X117749887Y-69075190D01*
X117745304Y-69074500D01*
X117474696Y-69074500D01*
X117470113Y-69075190D01*
X117470110Y-69075191D01*
X117211701Y-69114140D01*
X117211696Y-69114140D01*
X117207112Y-69114832D01*
X117202682Y-69116198D01*
X117202675Y-69116200D01*
X116952964Y-69193225D01*
X116952959Y-69193226D01*
X116948527Y-69194594D01*
X116944348Y-69196606D01*
X116944344Y-69196608D01*
X116708904Y-69309990D01*
X116708897Y-69309993D01*
X116704719Y-69312006D01*
X116481132Y-69464445D01*
X116477740Y-69467591D01*
X116477734Y-69467597D01*
X116286160Y-69645351D01*
X116286152Y-69645358D01*
X116282763Y-69648504D01*
X116279879Y-69652119D01*
X116279870Y-69652130D01*
X116116939Y-69856442D01*
X116114043Y-69860074D01*
X116111727Y-69864084D01*
X116111721Y-69864094D01*
X115981060Y-70090404D01*
X115981054Y-70090415D01*
X115978739Y-70094426D01*
X115977046Y-70098739D01*
X115977041Y-70098750D01*
X115881571Y-70342004D01*
X115881568Y-70342011D01*
X115879875Y-70346327D01*
X115878843Y-70350845D01*
X115878842Y-70350851D01*
X115820690Y-70605630D01*
X115820688Y-70605638D01*
X115819659Y-70610150D01*
X115799437Y-70880000D01*
X89450500Y-70880000D01*
X89450500Y-66286160D01*
X96092957Y-66286160D01*
X96093304Y-66290790D01*
X96111996Y-66540231D01*
X96113179Y-66556010D01*
X96114209Y-66560523D01*
X96114210Y-66560529D01*
X96171493Y-66811501D01*
X96173395Y-66819833D01*
X96175090Y-66824151D01*
X96175091Y-66824155D01*
X96270561Y-67067409D01*
X96270564Y-67067415D01*
X96272259Y-67071734D01*
X96274577Y-67075749D01*
X96274580Y-67075755D01*
X96351050Y-67208204D01*
X96407563Y-67306086D01*
X96410459Y-67309717D01*
X96573390Y-67514029D01*
X96573394Y-67514033D01*
X96576283Y-67517656D01*
X96774652Y-67701715D01*
X96998239Y-67854154D01*
X97242047Y-67971566D01*
X97500632Y-68051328D01*
X97768216Y-68091660D01*
X98034187Y-68091660D01*
X98038824Y-68091660D01*
X98306408Y-68051328D01*
X98564993Y-67971566D01*
X98808802Y-67854154D01*
X99032388Y-67701715D01*
X99230757Y-67517656D01*
X99399477Y-67306086D01*
X99534781Y-67071734D01*
X99633645Y-66819833D01*
X99693861Y-66556010D01*
X99714083Y-66286160D01*
X99693861Y-66016310D01*
X99633645Y-65752487D01*
X99534781Y-65500586D01*
X99487646Y-65418947D01*
X99401798Y-65270254D01*
X99401797Y-65270253D01*
X99399477Y-65266234D01*
X99230757Y-65054664D01*
X99032388Y-64870605D01*
X99028560Y-64867995D01*
X99028555Y-64867991D01*
X98812638Y-64720781D01*
X98812634Y-64720779D01*
X98808802Y-64718166D01*
X98804616Y-64716150D01*
X98569176Y-64602768D01*
X98569171Y-64602766D01*
X98564993Y-64600754D01*
X98560560Y-64599386D01*
X98560556Y-64599385D01*
X98310844Y-64522360D01*
X98310840Y-64522359D01*
X98306408Y-64520992D01*
X98301820Y-64520300D01*
X98301818Y-64520300D01*
X98043409Y-64481351D01*
X98043407Y-64481350D01*
X98038824Y-64480660D01*
X97768216Y-64480660D01*
X97763633Y-64481350D01*
X97763630Y-64481351D01*
X97505221Y-64520300D01*
X97505216Y-64520300D01*
X97500632Y-64520992D01*
X97496202Y-64522358D01*
X97496195Y-64522360D01*
X97246484Y-64599385D01*
X97246479Y-64599386D01*
X97242047Y-64600754D01*
X97237868Y-64602766D01*
X97237864Y-64602768D01*
X97002424Y-64716150D01*
X97002417Y-64716153D01*
X96998239Y-64718166D01*
X96994406Y-64720779D01*
X96994403Y-64720781D01*
X96958373Y-64745346D01*
X96774652Y-64870605D01*
X96771260Y-64873751D01*
X96771254Y-64873757D01*
X96579680Y-65051511D01*
X96579672Y-65051518D01*
X96576283Y-65054664D01*
X96573399Y-65058279D01*
X96573390Y-65058290D01*
X96433430Y-65233797D01*
X96407563Y-65266234D01*
X96405247Y-65270244D01*
X96405241Y-65270254D01*
X96274580Y-65496564D01*
X96274574Y-65496575D01*
X96272259Y-65500586D01*
X96270566Y-65504899D01*
X96270561Y-65504910D01*
X96175091Y-65748164D01*
X96175088Y-65748171D01*
X96173395Y-65752487D01*
X96172363Y-65757005D01*
X96172362Y-65757011D01*
X96114210Y-66011790D01*
X96114208Y-66011798D01*
X96113179Y-66016310D01*
X96112832Y-66020929D01*
X96112832Y-66020935D01*
X96096562Y-66238059D01*
X96092957Y-66286160D01*
X89450500Y-66286160D01*
X89450500Y-50015783D01*
X89459939Y-49968330D01*
X89486819Y-49928102D01*
X98402836Y-41012085D01*
X115849500Y-41012085D01*
X115849698Y-41014540D01*
X115849699Y-41014560D01*
X115861035Y-41154976D01*
X115864502Y-41197918D01*
X115865695Y-41202758D01*
X115865696Y-41202764D01*
X115895727Y-41324603D01*
X115924026Y-41439414D01*
X115925980Y-41444000D01*
X116019558Y-41663639D01*
X116019562Y-41663647D01*
X116021517Y-41668235D01*
X116024189Y-41672461D01*
X116024190Y-41672462D01*
X116151779Y-41874228D01*
X116151782Y-41874233D01*
X116154452Y-41878454D01*
X116319386Y-42064627D01*
X116512049Y-42221931D01*
X116516374Y-42224428D01*
X116516377Y-42224430D01*
X116573574Y-42257452D01*
X116727451Y-42346293D01*
X116960012Y-42434492D01*
X117203709Y-42484243D01*
X117452231Y-42494259D01*
X117699142Y-42464278D01*
X117938046Y-42395079D01*
X118162756Y-42288453D01*
X118367452Y-42147161D01*
X118546832Y-41974864D01*
X118696251Y-41776023D01*
X118811839Y-41555789D01*
X118890602Y-41319865D01*
X118930500Y-41074362D01*
X118930500Y-41012085D01*
X120929500Y-41012085D01*
X120929698Y-41014540D01*
X120929699Y-41014560D01*
X120941035Y-41154976D01*
X120944502Y-41197918D01*
X120945695Y-41202758D01*
X120945696Y-41202764D01*
X120975727Y-41324603D01*
X121004026Y-41439414D01*
X121005980Y-41444000D01*
X121099558Y-41663639D01*
X121099562Y-41663647D01*
X121101517Y-41668235D01*
X121104189Y-41672461D01*
X121104190Y-41672462D01*
X121231779Y-41874228D01*
X121231782Y-41874233D01*
X121234452Y-41878454D01*
X121399386Y-42064627D01*
X121592049Y-42221931D01*
X121596374Y-42224428D01*
X121596377Y-42224430D01*
X121653574Y-42257452D01*
X121807451Y-42346293D01*
X122040012Y-42434492D01*
X122283709Y-42484243D01*
X122532231Y-42494259D01*
X122779142Y-42464278D01*
X123018046Y-42395079D01*
X123242756Y-42288453D01*
X123447452Y-42147161D01*
X123626832Y-41974864D01*
X123776251Y-41776023D01*
X123891839Y-41555789D01*
X123970602Y-41319865D01*
X124010500Y-41074362D01*
X124010500Y-41012085D01*
X126009500Y-41012085D01*
X126009698Y-41014540D01*
X126009699Y-41014560D01*
X126021035Y-41154976D01*
X126024502Y-41197918D01*
X126025695Y-41202758D01*
X126025696Y-41202764D01*
X126055727Y-41324603D01*
X126084026Y-41439414D01*
X126085980Y-41444000D01*
X126179558Y-41663639D01*
X126179562Y-41663647D01*
X126181517Y-41668235D01*
X126184189Y-41672461D01*
X126184190Y-41672462D01*
X126311779Y-41874228D01*
X126311782Y-41874233D01*
X126314452Y-41878454D01*
X126479386Y-42064627D01*
X126672049Y-42221931D01*
X126676374Y-42224428D01*
X126676377Y-42224430D01*
X126733574Y-42257452D01*
X126887451Y-42346293D01*
X127120012Y-42434492D01*
X127363709Y-42484243D01*
X127612231Y-42494259D01*
X127859142Y-42464278D01*
X128098046Y-42395079D01*
X128322756Y-42288453D01*
X128353100Y-42267507D01*
X128406115Y-42246788D01*
X128462805Y-42251939D01*
X128511220Y-42281877D01*
X132013181Y-45783838D01*
X132040061Y-45824066D01*
X132049500Y-45871519D01*
X132049500Y-50244608D01*
X132041251Y-50289080D01*
X132024296Y-50316720D01*
X132025637Y-50317694D01*
X132021812Y-50322957D01*
X132017467Y-50327784D01*
X132014220Y-50333407D01*
X132014217Y-50333412D01*
X131926069Y-50486089D01*
X131926066Y-50486094D01*
X131922821Y-50491716D01*
X131920815Y-50497888D01*
X131920813Y-50497894D01*
X131866333Y-50665564D01*
X131866331Y-50665573D01*
X131864326Y-50671744D01*
X131863648Y-50678194D01*
X131863646Y-50678204D01*
X131845962Y-50846464D01*
X131844540Y-50860000D01*
X131845219Y-50866460D01*
X131863646Y-51041795D01*
X131863647Y-51041803D01*
X131864326Y-51048256D01*
X131866331Y-51054428D01*
X131866333Y-51054435D01*
X131920813Y-51222105D01*
X131922821Y-51228284D01*
X131926068Y-51233908D01*
X131926069Y-51233910D01*
X132012313Y-51383290D01*
X132017467Y-51392216D01*
X132021811Y-51397041D01*
X132021813Y-51397043D01*
X132117650Y-51503480D01*
X132141264Y-51542014D01*
X132149500Y-51586452D01*
X132149500Y-57247597D01*
X132141264Y-57292035D01*
X132117652Y-57330565D01*
X132016967Y-57442388D01*
X132013722Y-57448008D01*
X132013718Y-57448014D01*
X131925569Y-57600693D01*
X131925566Y-57600698D01*
X131922321Y-57606320D01*
X131920315Y-57612492D01*
X131920313Y-57612498D01*
X131865833Y-57780168D01*
X131865831Y-57780177D01*
X131863826Y-57786348D01*
X131863148Y-57792798D01*
X131863146Y-57792808D01*
X131845462Y-57961068D01*
X131844040Y-57974604D01*
X131844719Y-57981064D01*
X131863146Y-58156399D01*
X131863147Y-58156407D01*
X131863826Y-58162860D01*
X131865831Y-58169032D01*
X131865833Y-58169039D01*
X131920313Y-58336709D01*
X131922321Y-58342888D01*
X131925568Y-58348512D01*
X131925569Y-58348514D01*
X131994631Y-58468134D01*
X132016967Y-58506820D01*
X132021311Y-58511645D01*
X132021313Y-58511647D01*
X132113611Y-58614154D01*
X132143629Y-58647492D01*
X132296770Y-58758755D01*
X132469697Y-58835748D01*
X132654854Y-58875104D01*
X132837643Y-58875104D01*
X132844146Y-58875104D01*
X133029303Y-58835748D01*
X133202230Y-58758755D01*
X133355371Y-58647492D01*
X133482033Y-58506820D01*
X133576679Y-58342888D01*
X133635174Y-58162860D01*
X133654960Y-57974604D01*
X133635174Y-57786348D01*
X133576679Y-57606320D01*
X133482033Y-57442388D01*
X133382350Y-57331679D01*
X133358736Y-57293145D01*
X133350500Y-57248707D01*
X133350500Y-51586452D01*
X133358736Y-51542014D01*
X133382350Y-51503480D01*
X133462316Y-51414669D01*
X133482533Y-51392216D01*
X133577179Y-51228284D01*
X133635674Y-51048256D01*
X133655460Y-50860000D01*
X133635674Y-50671744D01*
X133577179Y-50491716D01*
X133482533Y-50327784D01*
X133478185Y-50322955D01*
X133474363Y-50317694D01*
X133475703Y-50316720D01*
X133458749Y-50289080D01*
X133450500Y-50244608D01*
X133450500Y-45554910D01*
X133450726Y-45547423D01*
X133452796Y-45513204D01*
X133454357Y-45487394D01*
X133443516Y-45428235D01*
X133442389Y-45420830D01*
X133442118Y-45418602D01*
X133435140Y-45361128D01*
X133432480Y-45354116D01*
X133432480Y-45354113D01*
X133431547Y-45351653D01*
X133425520Y-45330035D01*
X133423694Y-45320068D01*
X133399012Y-45265228D01*
X133396145Y-45258306D01*
X133377479Y-45209087D01*
X133374818Y-45202070D01*
X133370556Y-45195896D01*
X133370552Y-45195888D01*
X133369058Y-45193724D01*
X133358032Y-45174175D01*
X133356956Y-45171785D01*
X133353877Y-45164943D01*
X133316788Y-45117602D01*
X133312349Y-45111569D01*
X133282442Y-45068241D01*
X133282441Y-45068240D01*
X133278183Y-45062071D01*
X133233170Y-45022193D01*
X133227716Y-45017059D01*
X129126819Y-40916162D01*
X129099939Y-40875934D01*
X129090500Y-40828481D01*
X129090500Y-39370400D01*
X129090500Y-39367915D01*
X129075498Y-39182082D01*
X129015974Y-38940586D01*
X128918483Y-38711765D01*
X128785548Y-38501546D01*
X128620614Y-38315373D01*
X128427951Y-38158069D01*
X128423627Y-38155573D01*
X128423622Y-38155569D01*
X128216884Y-38036210D01*
X128216885Y-38036210D01*
X128212549Y-38033707D01*
X127979988Y-37945508D01*
X127975100Y-37944510D01*
X127975093Y-37944508D01*
X127741186Y-37896756D01*
X127741182Y-37896755D01*
X127736291Y-37895757D01*
X127731304Y-37895556D01*
X127731296Y-37895555D01*
X127492770Y-37885942D01*
X127492763Y-37885942D01*
X127487769Y-37885741D01*
X127482803Y-37886343D01*
X127482802Y-37886344D01*
X127245824Y-37915118D01*
X127245811Y-37915120D01*
X127240858Y-37915722D01*
X127236057Y-37917112D01*
X127236050Y-37917114D01*
X127006757Y-37983529D01*
X127006748Y-37983532D01*
X127001954Y-37984921D01*
X126997451Y-37987057D01*
X126997437Y-37987063D01*
X126781761Y-38089403D01*
X126781754Y-38089406D01*
X126777244Y-38091547D01*
X126773137Y-38094381D01*
X126773128Y-38094387D01*
X126576659Y-38230001D01*
X126576656Y-38230003D01*
X126572548Y-38232839D01*
X126568950Y-38236294D01*
X126568945Y-38236299D01*
X126396767Y-38401678D01*
X126396760Y-38401685D01*
X126393168Y-38405136D01*
X126390173Y-38409120D01*
X126390169Y-38409126D01*
X126313868Y-38510665D01*
X126243749Y-38603977D01*
X126241426Y-38608401D01*
X126241424Y-38608406D01*
X126130482Y-38819787D01*
X126130478Y-38819796D01*
X126128161Y-38824211D01*
X126126584Y-38828934D01*
X126126580Y-38828944D01*
X126050979Y-39055396D01*
X126050975Y-39055408D01*
X126049398Y-39060135D01*
X126048597Y-39065058D01*
X126048595Y-39065070D01*
X126010302Y-39300701D01*
X126009500Y-39305638D01*
X126009500Y-41012085D01*
X124010500Y-41012085D01*
X124010500Y-39367915D01*
X123995498Y-39182082D01*
X123935974Y-38940586D01*
X123838483Y-38711765D01*
X123705548Y-38501546D01*
X123540614Y-38315373D01*
X123347951Y-38158069D01*
X123343627Y-38155573D01*
X123343622Y-38155569D01*
X123136884Y-38036210D01*
X123136885Y-38036210D01*
X123132549Y-38033707D01*
X122899988Y-37945508D01*
X122895100Y-37944510D01*
X122895093Y-37944508D01*
X122661186Y-37896756D01*
X122661182Y-37896755D01*
X122656291Y-37895757D01*
X122651304Y-37895556D01*
X122651296Y-37895555D01*
X122412770Y-37885942D01*
X122412763Y-37885942D01*
X122407769Y-37885741D01*
X122402803Y-37886343D01*
X122402802Y-37886344D01*
X122165824Y-37915118D01*
X122165811Y-37915120D01*
X122160858Y-37915722D01*
X122156057Y-37917112D01*
X122156050Y-37917114D01*
X121926757Y-37983529D01*
X121926748Y-37983532D01*
X121921954Y-37984921D01*
X121917451Y-37987057D01*
X121917437Y-37987063D01*
X121701761Y-38089403D01*
X121701754Y-38089406D01*
X121697244Y-38091547D01*
X121693137Y-38094381D01*
X121693128Y-38094387D01*
X121496659Y-38230001D01*
X121496656Y-38230003D01*
X121492548Y-38232839D01*
X121488950Y-38236294D01*
X121488945Y-38236299D01*
X121316767Y-38401678D01*
X121316760Y-38401685D01*
X121313168Y-38405136D01*
X121310173Y-38409120D01*
X121310169Y-38409126D01*
X121233868Y-38510665D01*
X121163749Y-38603977D01*
X121161426Y-38608401D01*
X121161424Y-38608406D01*
X121050482Y-38819787D01*
X121050478Y-38819796D01*
X121048161Y-38824211D01*
X121046584Y-38828934D01*
X121046580Y-38828944D01*
X120970979Y-39055396D01*
X120970975Y-39055408D01*
X120969398Y-39060135D01*
X120968597Y-39065058D01*
X120968595Y-39065070D01*
X120930302Y-39300701D01*
X120929500Y-39305638D01*
X120929500Y-41012085D01*
X118930500Y-41012085D01*
X118930500Y-39367915D01*
X118915498Y-39182082D01*
X118855974Y-38940586D01*
X118758483Y-38711765D01*
X118625548Y-38501546D01*
X118460614Y-38315373D01*
X118267951Y-38158069D01*
X118263627Y-38155573D01*
X118263622Y-38155569D01*
X118056884Y-38036210D01*
X118056885Y-38036210D01*
X118052549Y-38033707D01*
X117819988Y-37945508D01*
X117815100Y-37944510D01*
X117815093Y-37944508D01*
X117581186Y-37896756D01*
X117581182Y-37896755D01*
X117576291Y-37895757D01*
X117571304Y-37895556D01*
X117571296Y-37895555D01*
X117332770Y-37885942D01*
X117332763Y-37885942D01*
X117327769Y-37885741D01*
X117322803Y-37886343D01*
X117322802Y-37886344D01*
X117085824Y-37915118D01*
X117085811Y-37915120D01*
X117080858Y-37915722D01*
X117076057Y-37917112D01*
X117076050Y-37917114D01*
X116846757Y-37983529D01*
X116846748Y-37983532D01*
X116841954Y-37984921D01*
X116837451Y-37987057D01*
X116837437Y-37987063D01*
X116621761Y-38089403D01*
X116621754Y-38089406D01*
X116617244Y-38091547D01*
X116613137Y-38094381D01*
X116613128Y-38094387D01*
X116416659Y-38230001D01*
X116416656Y-38230003D01*
X116412548Y-38232839D01*
X116408950Y-38236294D01*
X116408945Y-38236299D01*
X116236767Y-38401678D01*
X116236760Y-38401685D01*
X116233168Y-38405136D01*
X116230173Y-38409120D01*
X116230169Y-38409126D01*
X116153868Y-38510665D01*
X116083749Y-38603977D01*
X116081426Y-38608401D01*
X116081424Y-38608406D01*
X115970482Y-38819787D01*
X115970478Y-38819796D01*
X115968161Y-38824211D01*
X115966584Y-38828934D01*
X115966580Y-38828944D01*
X115890979Y-39055396D01*
X115890975Y-39055408D01*
X115889398Y-39060135D01*
X115888597Y-39065058D01*
X115888595Y-39065070D01*
X115850302Y-39300701D01*
X115849500Y-39305638D01*
X115849500Y-41012085D01*
X98402836Y-41012085D01*
X101838102Y-37576819D01*
X101878330Y-37549939D01*
X101925783Y-37540500D01*
X142664217Y-37540500D01*
X142711670Y-37549939D01*
X142751898Y-37576819D01*
X142850449Y-37675370D01*
X142881004Y-37725684D01*
X142884913Y-37784419D01*
X142861296Y-37838339D01*
X142815475Y-37875292D01*
X142757776Y-37886950D01*
X142732772Y-37885942D01*
X142732764Y-37885942D01*
X142727769Y-37885741D01*
X142722803Y-37886343D01*
X142722802Y-37886344D01*
X142485824Y-37915118D01*
X142485811Y-37915120D01*
X142480858Y-37915722D01*
X142476057Y-37917112D01*
X142476050Y-37917114D01*
X142246757Y-37983529D01*
X142246748Y-37983532D01*
X142241954Y-37984921D01*
X142237451Y-37987057D01*
X142237437Y-37987063D01*
X142021761Y-38089403D01*
X142021754Y-38089406D01*
X142017244Y-38091547D01*
X142013137Y-38094381D01*
X142013128Y-38094387D01*
X141816659Y-38230001D01*
X141816656Y-38230003D01*
X141812548Y-38232839D01*
X141808950Y-38236294D01*
X141808945Y-38236299D01*
X141636767Y-38401678D01*
X141636760Y-38401685D01*
X141633168Y-38405136D01*
X141630173Y-38409120D01*
X141630169Y-38409126D01*
X141553868Y-38510665D01*
X141483749Y-38603977D01*
X141481426Y-38608401D01*
X141481424Y-38608406D01*
X141370482Y-38819787D01*
X141370478Y-38819796D01*
X141368161Y-38824211D01*
X141366584Y-38828934D01*
X141366580Y-38828944D01*
X141290979Y-39055396D01*
X141290975Y-39055408D01*
X141289398Y-39060135D01*
X141288597Y-39065058D01*
X141288595Y-39065070D01*
X141250302Y-39300701D01*
X141249500Y-39305638D01*
X141249500Y-41012085D01*
X141249698Y-41014540D01*
X141249699Y-41014560D01*
X141261035Y-41154976D01*
X141264502Y-41197918D01*
X141265695Y-41202758D01*
X141265696Y-41202764D01*
X141295727Y-41324603D01*
X141324026Y-41439414D01*
X141325980Y-41444000D01*
X141419558Y-41663639D01*
X141419562Y-41663647D01*
X141421517Y-41668235D01*
X141424189Y-41672461D01*
X141424190Y-41672462D01*
X141551779Y-41874228D01*
X141551782Y-41874233D01*
X141554452Y-41878454D01*
X141719386Y-42064627D01*
X141912049Y-42221931D01*
X141916374Y-42224428D01*
X141916377Y-42224430D01*
X141973574Y-42257452D01*
X142127451Y-42346293D01*
X142360012Y-42434492D01*
X142603709Y-42484243D01*
X142852231Y-42494259D01*
X143099142Y-42464278D01*
X143338046Y-42395079D01*
X143562756Y-42288453D01*
X143767452Y-42147161D01*
X143946832Y-41974864D01*
X144096251Y-41776023D01*
X144211839Y-41555789D01*
X144290602Y-41319865D01*
X144330500Y-41074362D01*
X144330500Y-39454783D01*
X144344015Y-39398488D01*
X144381615Y-39354465D01*
X144435102Y-39332310D01*
X144492818Y-39336852D01*
X144542181Y-39367102D01*
X146222450Y-41047371D01*
X146224643Y-41049620D01*
X146280603Y-41108490D01*
X146280605Y-41108492D01*
X146284941Y-41113053D01*
X146293879Y-41119274D01*
X146327972Y-41154976D01*
X146344236Y-41197983D01*
X146344502Y-41197918D01*
X146345045Y-41200124D01*
X146345047Y-41200129D01*
X146345693Y-41202752D01*
X146345695Y-41202761D01*
X146375727Y-41324603D01*
X146404026Y-41439414D01*
X146405980Y-41444000D01*
X146499558Y-41663639D01*
X146499562Y-41663647D01*
X146501517Y-41668235D01*
X146504189Y-41672461D01*
X146504190Y-41672462D01*
X146631779Y-41874228D01*
X146631782Y-41874233D01*
X146634452Y-41878454D01*
X146799386Y-42064627D01*
X146992049Y-42221931D01*
X146996374Y-42224428D01*
X146996377Y-42224430D01*
X147053574Y-42257452D01*
X147207451Y-42346293D01*
X147440012Y-42434492D01*
X147683709Y-42484243D01*
X147932231Y-42494259D01*
X148179142Y-42464278D01*
X148418046Y-42395079D01*
X148642756Y-42288453D01*
X148847452Y-42147161D01*
X149026832Y-41974864D01*
X149176251Y-41776023D01*
X149291839Y-41555789D01*
X149370602Y-41319865D01*
X149410500Y-41074362D01*
X149410500Y-39367915D01*
X149395498Y-39182082D01*
X149335974Y-38940586D01*
X149238483Y-38711765D01*
X149105548Y-38501546D01*
X148940614Y-38315373D01*
X148747951Y-38158069D01*
X148743627Y-38155573D01*
X148743622Y-38155569D01*
X148536884Y-38036210D01*
X148536885Y-38036210D01*
X148532549Y-38033707D01*
X148299988Y-37945508D01*
X148295100Y-37944510D01*
X148295093Y-37944508D01*
X148061186Y-37896756D01*
X148061182Y-37896755D01*
X148056291Y-37895757D01*
X148051304Y-37895556D01*
X148051296Y-37895555D01*
X147812770Y-37885942D01*
X147812763Y-37885942D01*
X147807769Y-37885741D01*
X147802803Y-37886343D01*
X147802802Y-37886344D01*
X147565824Y-37915118D01*
X147565811Y-37915120D01*
X147560858Y-37915722D01*
X147556057Y-37917112D01*
X147556050Y-37917114D01*
X147326757Y-37983529D01*
X147326748Y-37983532D01*
X147321954Y-37984921D01*
X147317451Y-37987057D01*
X147317437Y-37987063D01*
X147101761Y-38089403D01*
X147101754Y-38089406D01*
X147097244Y-38091547D01*
X147093137Y-38094381D01*
X147093128Y-38094387D01*
X146896659Y-38230001D01*
X146896656Y-38230003D01*
X146892548Y-38232839D01*
X146888950Y-38236294D01*
X146888945Y-38236299D01*
X146716767Y-38401678D01*
X146716760Y-38401685D01*
X146713168Y-38405136D01*
X146710174Y-38409119D01*
X146710167Y-38409128D01*
X146668927Y-38464008D01*
X146612988Y-38505750D01*
X146543364Y-38510665D01*
X146482116Y-38477196D01*
X143847567Y-35842647D01*
X143845374Y-35840398D01*
X143789390Y-35781503D01*
X143789389Y-35781502D01*
X143785059Y-35776947D01*
X143779897Y-35773354D01*
X143736642Y-35743247D01*
X143729119Y-35737575D01*
X143688280Y-35704275D01*
X143688277Y-35704273D01*
X143683407Y-35700302D01*
X143656437Y-35686213D01*
X143643024Y-35678087D01*
X143618049Y-35660705D01*
X143563817Y-35637432D01*
X143555351Y-35633411D01*
X143503049Y-35606091D01*
X143473802Y-35597722D01*
X143459021Y-35592459D01*
X143436841Y-35582941D01*
X143436835Y-35582939D01*
X143431058Y-35580460D01*
X143424905Y-35579195D01*
X143424891Y-35579191D01*
X143373273Y-35568583D01*
X143364126Y-35566338D01*
X143313465Y-35551842D01*
X143313453Y-35551839D01*
X143307418Y-35550113D01*
X143301154Y-35549635D01*
X143301149Y-35549635D01*
X143277075Y-35547802D01*
X143261533Y-35545622D01*
X143237902Y-35540766D01*
X143237901Y-35540765D01*
X143231741Y-35539500D01*
X143225452Y-35539500D01*
X143172759Y-35539500D01*
X143163344Y-35539142D01*
X143110794Y-35535140D01*
X143110789Y-35535140D01*
X143104524Y-35534663D01*
X143098290Y-35535456D01*
X143098284Y-35535457D01*
X143074349Y-35538506D01*
X143058683Y-35539500D01*
X101474237Y-35539500D01*
X101471096Y-35539460D01*
X101389923Y-35537403D01*
X101389920Y-35537403D01*
X101383636Y-35537244D01*
X101377453Y-35538352D01*
X101377441Y-35538353D01*
X101325581Y-35547648D01*
X101316254Y-35548957D01*
X101263815Y-35554290D01*
X101263813Y-35554290D01*
X101257562Y-35554926D01*
X101251573Y-35556804D01*
X101251563Y-35556807D01*
X101228526Y-35564035D01*
X101213289Y-35567774D01*
X101189538Y-35572031D01*
X101189525Y-35572034D01*
X101183347Y-35573142D01*
X101177520Y-35575469D01*
X101177504Y-35575474D01*
X101128567Y-35595021D01*
X101119697Y-35598179D01*
X101069411Y-35613957D01*
X101069396Y-35613963D01*
X101063412Y-35615841D01*
X101057922Y-35618887D01*
X101057915Y-35618891D01*
X101036809Y-35630605D01*
X101022640Y-35637334D01*
X101000223Y-35646289D01*
X101000213Y-35646293D01*
X100994383Y-35648623D01*
X100989140Y-35652078D01*
X100989131Y-35652083D01*
X100945123Y-35681086D01*
X100937073Y-35685963D01*
X100885498Y-35714591D01*
X100880729Y-35718684D01*
X100880726Y-35718687D01*
X100862414Y-35734407D01*
X100849887Y-35743852D01*
X100829731Y-35757136D01*
X100829719Y-35757145D01*
X100824481Y-35760598D01*
X100820039Y-35765039D01*
X100820035Y-35765043D01*
X100782774Y-35802303D01*
X100775868Y-35808704D01*
X100735873Y-35843040D01*
X100735869Y-35843043D01*
X100731105Y-35847134D01*
X100727260Y-35852100D01*
X100727260Y-35852101D01*
X100712480Y-35871194D01*
X100702108Y-35882969D01*
X87752646Y-48832432D01*
X87750398Y-48834624D01*
X87686947Y-48894941D01*
X87683359Y-48900095D01*
X87683352Y-48900104D01*
X87653244Y-48943361D01*
X87647574Y-48950881D01*
X87614274Y-48991721D01*
X87614271Y-48991724D01*
X87610302Y-48996593D01*
X87607396Y-49002155D01*
X87607388Y-49002168D01*
X87596210Y-49023566D01*
X87588082Y-49036982D01*
X87574300Y-49056784D01*
X87574295Y-49056792D01*
X87570705Y-49061951D01*
X87568228Y-49067721D01*
X87568225Y-49067728D01*
X87547439Y-49116165D01*
X87543399Y-49124671D01*
X87516091Y-49176951D01*
X87514363Y-49182989D01*
X87514360Y-49182997D01*
X87507720Y-49206201D01*
X87502459Y-49220978D01*
X87492942Y-49243157D01*
X87490460Y-49248942D01*
X87489194Y-49255097D01*
X87489192Y-49255107D01*
X87478587Y-49306712D01*
X87476342Y-49315859D01*
X87461842Y-49366534D01*
X87461839Y-49366547D01*
X87460113Y-49372582D01*
X87459636Y-49378842D01*
X87459635Y-49378849D01*
X87457801Y-49402929D01*
X87455622Y-49418463D01*
X87450766Y-49442097D01*
X87449500Y-49448259D01*
X87449500Y-49454550D01*
X87449500Y-49507241D01*
X87449142Y-49516656D01*
X87445140Y-49569205D01*
X87445140Y-49569210D01*
X87444663Y-49575476D01*
X87445456Y-49581709D01*
X87445457Y-49581715D01*
X87448506Y-49605651D01*
X87449500Y-49621317D01*
X87449500Y-77884217D01*
X87440061Y-77931670D01*
X87413181Y-77971898D01*
X82671897Y-82713181D01*
X82631669Y-82740061D01*
X82584216Y-82749500D01*
X82025439Y-82749500D01*
X82025420Y-82749500D01*
X82022128Y-82749501D01*
X82018850Y-82749853D01*
X82018838Y-82749854D01*
X81970231Y-82755079D01*
X81970225Y-82755080D01*
X81962517Y-82755909D01*
X81955252Y-82758618D01*
X81955246Y-82758620D01*
X81835980Y-82803104D01*
X81835978Y-82803104D01*
X81827669Y-82806204D01*
X81820572Y-82811516D01*
X81820568Y-82811519D01*
X81719550Y-82887141D01*
X81719546Y-82887144D01*
X81712454Y-82892454D01*
X81707144Y-82899546D01*
X81707141Y-82899550D01*
X81631519Y-83000568D01*
X81631516Y-83000572D01*
X81626204Y-83007669D01*
X81623104Y-83015978D01*
X81623104Y-83015980D01*
X81578620Y-83135247D01*
X81578619Y-83135250D01*
X81575909Y-83142517D01*
X81575079Y-83150227D01*
X81575079Y-83150232D01*
X81569855Y-83198819D01*
X81569854Y-83198831D01*
X81569500Y-83202127D01*
X81569500Y-83205448D01*
X81569500Y-83205449D01*
X81569500Y-85894560D01*
X81569500Y-85894578D01*
X76229304Y-85894578D01*
X76229304Y-64030000D01*
X81794540Y-64030000D01*
X81795219Y-64036460D01*
X81813646Y-64211795D01*
X81813647Y-64211803D01*
X81814326Y-64218256D01*
X81816331Y-64224428D01*
X81816333Y-64224435D01*
X81870813Y-64392105D01*
X81872821Y-64398284D01*
X81876068Y-64403908D01*
X81876069Y-64403910D01*
X81920779Y-64481351D01*
X81967467Y-64562216D01*
X81971811Y-64567041D01*
X81971813Y-64567043D01*
X82077650Y-64684586D01*
X82101264Y-64723120D01*
X82109500Y-64767558D01*
X82109500Y-66663548D01*
X82101264Y-66707986D01*
X82077650Y-66746520D01*
X81981813Y-66852956D01*
X81981808Y-66852962D01*
X81977467Y-66857784D01*
X81974222Y-66863404D01*
X81974218Y-66863410D01*
X81886069Y-67016089D01*
X81886066Y-67016094D01*
X81882821Y-67021716D01*
X81880815Y-67027888D01*
X81880813Y-67027894D01*
X81826333Y-67195564D01*
X81826331Y-67195573D01*
X81824326Y-67201744D01*
X81823648Y-67208194D01*
X81823646Y-67208204D01*
X81809183Y-67345822D01*
X81804540Y-67390000D01*
X81805219Y-67396460D01*
X81823646Y-67571795D01*
X81823647Y-67571803D01*
X81824326Y-67578256D01*
X81826331Y-67584428D01*
X81826333Y-67584435D01*
X81880813Y-67752105D01*
X81882821Y-67758284D01*
X81977467Y-67922216D01*
X81981811Y-67927041D01*
X81981813Y-67927043D01*
X82093720Y-68051328D01*
X82104129Y-68062888D01*
X82109387Y-68066708D01*
X82109388Y-68066709D01*
X82180699Y-68118519D01*
X82257270Y-68174151D01*
X82430197Y-68251144D01*
X82615354Y-68290500D01*
X82798143Y-68290500D01*
X82804646Y-68290500D01*
X82989803Y-68251144D01*
X83162730Y-68174151D01*
X83315871Y-68062888D01*
X83442533Y-67922216D01*
X83537179Y-67758284D01*
X83595674Y-67578256D01*
X83615460Y-67390000D01*
X83595674Y-67201744D01*
X83537179Y-67021716D01*
X83442533Y-66857784D01*
X83400859Y-66811501D01*
X83364259Y-66770852D01*
X83342349Y-66746519D01*
X83318736Y-66707986D01*
X83310500Y-66663548D01*
X83310500Y-64745346D01*
X83318736Y-64700908D01*
X83342350Y-64662374D01*
X83432533Y-64562216D01*
X83527179Y-64398284D01*
X83585674Y-64218256D01*
X83605460Y-64030000D01*
X83586978Y-63854151D01*
X83586353Y-63848204D01*
X83586352Y-63848203D01*
X83585674Y-63841744D01*
X83527179Y-63661716D01*
X83432533Y-63497784D01*
X83427176Y-63491835D01*
X83310220Y-63361942D01*
X83310219Y-63361941D01*
X83305871Y-63357112D01*
X83300613Y-63353292D01*
X83300611Y-63353290D01*
X83157988Y-63249669D01*
X83157987Y-63249668D01*
X83152730Y-63245849D01*
X83119460Y-63231036D01*
X82985745Y-63171501D01*
X82985740Y-63171499D01*
X82979803Y-63168856D01*
X82973444Y-63167504D01*
X82973440Y-63167503D01*
X82801008Y-63130852D01*
X82801005Y-63130851D01*
X82794646Y-63129500D01*
X82605354Y-63129500D01*
X82598995Y-63130851D01*
X82598991Y-63130852D01*
X82426559Y-63167503D01*
X82426552Y-63167505D01*
X82420197Y-63168856D01*
X82414262Y-63171498D01*
X82414254Y-63171501D01*
X82253207Y-63243205D01*
X82253202Y-63243207D01*
X82247270Y-63245849D01*
X82242016Y-63249665D01*
X82242011Y-63249669D01*
X82099388Y-63353290D01*
X82099381Y-63353295D01*
X82094129Y-63357112D01*
X82089784Y-63361937D01*
X82089779Y-63361942D01*
X81971813Y-63492956D01*
X81971808Y-63492962D01*
X81967467Y-63497784D01*
X81964222Y-63503404D01*
X81964218Y-63503410D01*
X81876069Y-63656089D01*
X81876066Y-63656094D01*
X81872821Y-63661716D01*
X81870815Y-63667888D01*
X81870813Y-63667894D01*
X81816333Y-63835564D01*
X81816331Y-63835573D01*
X81814326Y-63841744D01*
X81813648Y-63848194D01*
X81813646Y-63848204D01*
X81795962Y-64016464D01*
X81794540Y-64030000D01*
X76229304Y-64030000D01*
X76229304Y-30128883D01*
X76245917Y-30066883D01*
X76291304Y-30021496D01*
X76353304Y-30004883D01*
X166034304Y-30004883D01*
X166096304Y-30021496D01*
G37*
%TD.AperFunction*%
%TD*%
D27*
X76228804Y-30004383D02*
X166158804Y-30004383D01*
X166158804Y-30004383D02*
X166158804Y-129944383D01*
X166158804Y-129944383D02*
X76228804Y-129944383D01*
X76228804Y-129944383D02*
X76228804Y-30004383D01*
M02*
