%TF.GenerationSoftware,KiCad,Pcbnew,(7.0.0-0)*%
%TF.CreationDate,2023-05-05T21:57:13+02:00*%
%TF.ProjectId,Filter-forest-v3,46696c74-6572-42d6-966f-726573742d76,rev?*%
%TF.SameCoordinates,Original*%
%TF.FileFunction,Soldermask,Top*%
%TF.FilePolarity,Negative*%
%FSLAX46Y46*%
G04 Gerber Fmt 4.6, Leading zero omitted, Abs format (unit mm)*
G04 Created by KiCad (PCBNEW (7.0.0-0)) date 2023-05-05 21:57:13*
%MOMM*%
%LPD*%
G01*
G04 APERTURE LIST*
G04 Aperture macros list*
%AMRoundRect*
0 Rectangle with rounded corners*
0 $1 Rounding radius*
0 $2 $3 $4 $5 $6 $7 $8 $9 X,Y pos of 4 corners*
0 Add a 4 corners polygon primitive as box body*
4,1,4,$2,$3,$4,$5,$6,$7,$8,$9,$2,$3,0*
0 Add four circle primitives for the rounded corners*
1,1,$1+$1,$2,$3*
1,1,$1+$1,$4,$5*
1,1,$1+$1,$6,$7*
1,1,$1+$1,$8,$9*
0 Add four rect primitives between the rounded corners*
20,1,$1+$1,$2,$3,$4,$5,0*
20,1,$1+$1,$4,$5,$6,$7,0*
20,1,$1+$1,$6,$7,$8,$9,0*
20,1,$1+$1,$8,$9,$2,$3,0*%
%AMFreePoly0*
4,1,9,3.862500,-0.866500,0.737500,-0.866500,0.737500,-0.450000,-0.737500,-0.450000,-0.737500,0.450000,0.737500,0.450000,0.737500,0.866500,3.862500,0.866500,3.862500,-0.866500,3.862500,-0.866500,$1*%
G04 Aperture macros list end*
%ADD10C,2.000000*%
%ADD11RoundRect,0.250000X-0.375000X-0.850000X0.375000X-0.850000X0.375000X0.850000X-0.375000X0.850000X0*%
%ADD12RoundRect,0.250000X-0.600000X-0.600000X0.600000X-0.600000X0.600000X0.600000X-0.600000X0.600000X0*%
%ADD13RoundRect,0.062500X-0.062500X-0.337500X0.062500X-0.337500X0.062500X0.337500X-0.062500X0.337500X0*%
%ADD14RoundRect,0.062500X-0.337500X-0.062500X0.337500X-0.062500X0.337500X0.062500X-0.337500X0.062500X0*%
%ADD15RoundRect,0.250000X-0.475000X0.250000X-0.475000X-0.250000X0.475000X-0.250000X0.475000X0.250000X0*%
%ADD16RoundRect,0.250000X0.159099X-0.512652X0.512652X-0.159099X-0.159099X0.512652X-0.512652X0.159099X0*%
%ADD17RoundRect,0.225000X-0.225000X-0.250000X0.225000X-0.250000X0.225000X0.250000X-0.225000X0.250000X0*%
%ADD18R,2.700000X1.150000*%
%ADD19RoundRect,0.250000X-1.025305X-0.494975X-0.494975X-1.025305X1.025305X0.494975X0.494975X1.025305X0*%
%ADD20RoundRect,0.250000X-1.075000X0.375000X-1.075000X-0.375000X1.075000X-0.375000X1.075000X0.375000X0*%
%ADD21RoundRect,0.250000X0.375000X1.075000X-0.375000X1.075000X-0.375000X-1.075000X0.375000X-1.075000X0*%
%ADD22RoundRect,0.250000X1.075000X-0.375000X1.075000X0.375000X-1.075000X0.375000X-1.075000X-0.375000X0*%
%ADD23RoundRect,0.250000X0.250000X0.475000X-0.250000X0.475000X-0.250000X-0.475000X0.250000X-0.475000X0*%
%ADD24RoundRect,0.250000X-0.250000X-0.475000X0.250000X-0.475000X0.250000X0.475000X-0.250000X0.475000X0*%
%ADD25R,0.650000X0.400000*%
%ADD26RoundRect,0.250000X0.625000X-0.312500X0.625000X0.312500X-0.625000X0.312500X-0.625000X-0.312500X0*%
%ADD27RoundRect,0.150000X-0.825000X-0.150000X0.825000X-0.150000X0.825000X0.150000X-0.825000X0.150000X0*%
%ADD28R,2.600000X2.600000*%
%ADD29O,2.600000X2.600000*%
%ADD30RoundRect,0.249600X-0.270400X-0.650400X0.270400X-0.650400X0.270400X0.650400X-0.270400X0.650400X0*%
%ADD31RoundRect,0.152500X-0.152500X-0.470000X0.152500X-0.470000X0.152500X0.470000X-0.152500X0.470000X0*%
%ADD32C,0.610000*%
%ADD33C,2.610000*%
%ADD34O,1.800000X1.000000*%
%ADD35RoundRect,0.250000X-0.625000X0.312500X-0.625000X-0.312500X0.625000X-0.312500X0.625000X0.312500X0*%
%ADD36RoundRect,0.150000X0.587500X0.150000X-0.587500X0.150000X-0.587500X-0.150000X0.587500X-0.150000X0*%
%ADD37C,2.500000*%
%ADD38C,3.500000*%
%ADD39RoundRect,0.150000X-0.309359X-0.521491X0.521491X0.309359X0.309359X0.521491X-0.521491X-0.309359X0*%
%ADD40RoundRect,0.225000X0.225000X0.250000X-0.225000X0.250000X-0.225000X-0.250000X0.225000X-0.250000X0*%
%ADD41RoundRect,0.225000X0.250000X-0.225000X0.250000X0.225000X-0.250000X0.225000X-0.250000X-0.225000X0*%
%ADD42RoundRect,0.218750X0.218750X0.381250X-0.218750X0.381250X-0.218750X-0.381250X0.218750X-0.381250X0*%
%ADD43RoundRect,0.250000X0.450000X-0.262500X0.450000X0.262500X-0.450000X0.262500X-0.450000X-0.262500X0*%
%ADD44R,1.000000X0.850000*%
%ADD45R,0.850000X1.000000*%
%ADD46RoundRect,0.250000X0.250000X0.250000X-0.250000X0.250000X-0.250000X-0.250000X0.250000X-0.250000X0*%
%ADD47RoundRect,0.225000X-0.250000X0.225000X-0.250000X-0.225000X0.250000X-0.225000X0.250000X0.225000X0*%
%ADD48RoundRect,0.250000X0.475000X-0.250000X0.475000X0.250000X-0.475000X0.250000X-0.475000X-0.250000X0*%
%ADD49RoundRect,0.250000X-2.050000X-0.300000X2.050000X-0.300000X2.050000X0.300000X-2.050000X0.300000X0*%
%ADD50RoundRect,0.250002X-4.449998X-5.149998X4.449998X-5.149998X4.449998X5.149998X-4.449998X5.149998X0*%
%ADD51C,5.600000*%
%ADD52RoundRect,0.250000X0.312500X0.625000X-0.312500X0.625000X-0.312500X-0.625000X0.312500X-0.625000X0*%
%ADD53RoundRect,0.250000X1.087500X2.900000X-1.087500X2.900000X-1.087500X-2.900000X1.087500X-2.900000X0*%
%ADD54RoundRect,0.250000X0.000000X-0.353553X0.353553X0.000000X0.000000X0.353553X-0.353553X0.000000X0*%
%ADD55RoundRect,0.225000X0.017678X-0.335876X0.335876X-0.017678X-0.017678X0.335876X-0.335876X0.017678X0*%
%ADD56R,0.510000X1.020000*%
%ADD57RoundRect,0.001000X-2.100000X2.010000X-2.100000X-2.010000X2.100000X-2.010000X2.100000X2.010000X0*%
%ADD58RoundRect,0.150000X-0.587500X-0.150000X0.587500X-0.150000X0.587500X0.150000X-0.587500X0.150000X0*%
%ADD59RoundRect,0.218750X0.381250X-0.218750X0.381250X0.218750X-0.381250X0.218750X-0.381250X-0.218750X0*%
%ADD60R,3.600000X1.270000*%
%ADD61R,4.200000X1.350000*%
%ADD62RoundRect,0.250000X-1.069499X-0.486136X-0.486136X-1.069499X1.069499X0.486136X0.486136X1.069499X0*%
%ADD63RoundRect,0.225000X-0.069856X-0.329006X0.319856X-0.104006X0.069856X0.329006X-0.319856X0.104006X0*%
%ADD64R,1.200000X1.600000*%
%ADD65RoundRect,0.250000X-0.250000X-0.250000X0.250000X-0.250000X0.250000X0.250000X-0.250000X0.250000X0*%
%ADD66RoundRect,0.150000X0.150000X-0.587500X0.150000X0.587500X-0.150000X0.587500X-0.150000X-0.587500X0*%
%ADD67RoundRect,0.249999X0.790001X1.550001X-0.790001X1.550001X-0.790001X-1.550001X0.790001X-1.550001X0*%
%ADD68O,2.080000X3.600000*%
%ADD69RoundRect,0.250000X0.353553X0.000000X0.000000X0.353553X-0.353553X0.000000X0.000000X-0.353553X0*%
%ADD70RoundRect,0.150000X-0.875000X-0.150000X0.875000X-0.150000X0.875000X0.150000X-0.875000X0.150000X0*%
%ADD71RoundRect,0.150000X-0.837500X-0.150000X0.837500X-0.150000X0.837500X0.150000X-0.837500X0.150000X0*%
%ADD72R,1.300000X0.900000*%
%ADD73FreePoly0,180.000000*%
%ADD74R,1.500000X2.000000*%
%ADD75R,3.800000X2.000000*%
%TA.AperFunction,Profile*%
%ADD76C,0.100000*%
%TD*%
G04 APERTURE END LIST*
D10*
X77210000Y-30980000D02*
X165342500Y-30980000D01*
X77237500Y-129080000D02*
X165170000Y-129080000D01*
X165110000Y-128910000D02*
X165110000Y-30810000D01*
X77240000Y-112925000D02*
X77240000Y-128990000D01*
X77250000Y-108816250D02*
X77250000Y-30990000D01*
D11*
%TO.C,L116*%
X135032500Y-81000000D03*
X137182500Y-81000000D03*
%TD*%
D12*
%TO.C,U106*%
X143750000Y-61690000D03*
D13*
X143000000Y-60240000D03*
X143500000Y-60240000D03*
X144000000Y-60240000D03*
X144500000Y-60240000D03*
D14*
X145200000Y-60940000D03*
X145200000Y-61440000D03*
X145200000Y-61940000D03*
X145200000Y-62440000D03*
D13*
X144500000Y-63140000D03*
X144000000Y-63140000D03*
X143500000Y-63140000D03*
X143000000Y-63140000D03*
D14*
X142300000Y-62440000D03*
X142300000Y-61940000D03*
X142300000Y-61440000D03*
X142300000Y-60940000D03*
%TD*%
D15*
%TO.C,C119*%
X147640000Y-61440000D03*
X147640000Y-63340000D03*
%TD*%
D16*
%TO.C,C118*%
X139078249Y-63381751D03*
X140421751Y-62038249D03*
%TD*%
D17*
%TO.C,C117*%
X141435000Y-65100000D03*
X142985000Y-65100000D03*
%TD*%
D18*
%TO.C,L111*%
X85579999Y-116349999D03*
X85579999Y-113049999D03*
%TD*%
D19*
%TO.C,L119*%
X137300051Y-85290051D03*
X139279949Y-87269949D03*
%TD*%
D20*
%TO.C,L105*%
X145710000Y-84317500D03*
X145710000Y-87117500D03*
%TD*%
D21*
%TO.C,L121*%
X156500000Y-81050000D03*
X153700000Y-81050000D03*
%TD*%
D22*
%TO.C,L120*%
X151520000Y-90702500D03*
X151520000Y-87902500D03*
%TD*%
D23*
%TO.C,C109*%
X98580000Y-80100000D03*
X96680000Y-80100000D03*
%TD*%
D24*
%TO.C,C107*%
X92640000Y-80090000D03*
X94540000Y-80090000D03*
%TD*%
D25*
%TO.C,U107*%
X86119999Y-66149999D03*
X86119999Y-65499999D03*
X86119999Y-64849999D03*
X84219999Y-64849999D03*
X84219999Y-65499999D03*
X84219999Y-66149999D03*
%TD*%
D26*
%TO.C,R106*%
X126040000Y-77322500D03*
X126040000Y-74397500D03*
%TD*%
D27*
%TO.C,U105*%
X141975000Y-48280000D03*
X141975000Y-49550000D03*
X141975000Y-50820000D03*
X141975000Y-52090000D03*
X141975000Y-53360000D03*
X141975000Y-54630000D03*
X141975000Y-55900000D03*
X146925000Y-55900000D03*
X146925000Y-54630000D03*
X146925000Y-53360000D03*
X146925000Y-52090000D03*
X146925000Y-50820000D03*
X146925000Y-49550000D03*
X146925000Y-48280000D03*
%TD*%
D28*
%TO.C,D108*%
X83369999Y-84549999D03*
D29*
X83369999Y-99789999D03*
%TD*%
D30*
%TO.C,FL104*%
X104700000Y-46790000D03*
D31*
X106325000Y-47717500D03*
D32*
X106325000Y-47895000D03*
D30*
X107950000Y-46790000D03*
D32*
X106325000Y-45685000D03*
D31*
X106325000Y-45862500D03*
%TD*%
D33*
%TO.C,FL101*%
X97903520Y-70886160D03*
X117610000Y-70880000D03*
X117610000Y-66280000D03*
X97903520Y-66286160D03*
D34*
X100119999Y-64889999D03*
X100219999Y-72289999D03*
D33*
X105420000Y-66290000D03*
D34*
X107619999Y-64889999D03*
X107719999Y-72289999D03*
X115119999Y-64889999D03*
X115219999Y-72289999D03*
%TD*%
D35*
%TO.C,R107*%
X104900000Y-95927500D03*
X104900000Y-98852500D03*
%TD*%
D36*
%TO.C,Q108*%
X160477500Y-79680000D03*
X160477500Y-77780000D03*
X158602500Y-78730000D03*
%TD*%
D37*
%TO.C,J108*%
X128660000Y-99710000D03*
D38*
X124260000Y-95410000D03*
X124360000Y-103910000D03*
X132960000Y-95410000D03*
X132960000Y-104010000D03*
%TD*%
D39*
%TO.C,Q105*%
X132225336Y-86921161D03*
X133568839Y-88264664D03*
X134222913Y-86267087D03*
%TD*%
D40*
%TO.C,C150*%
X130652500Y-76290000D03*
X129102500Y-76290000D03*
%TD*%
D35*
%TO.C,R108*%
X102300000Y-95927500D03*
X102300000Y-98852500D03*
%TD*%
D41*
%TO.C,C137*%
X83500000Y-121215000D03*
X83500000Y-119665000D03*
%TD*%
D42*
%TO.C,L102*%
X98732500Y-81960000D03*
X96607500Y-81960000D03*
%TD*%
D43*
%TO.C,L112*%
X89680000Y-104002500D03*
X89680000Y-102177500D03*
%TD*%
D44*
%TO.C,C102*%
X89509999Y-78344999D03*
X89509999Y-74194999D03*
%TD*%
D23*
%TO.C,C113*%
X116560000Y-80700000D03*
X114660000Y-80700000D03*
%TD*%
D44*
%TO.C,C104*%
X102459999Y-74254999D03*
X102459999Y-78404999D03*
%TD*%
D25*
%TO.C,U115*%
X128389999Y-57569999D03*
X128389999Y-58219999D03*
X128389999Y-58869999D03*
X130289999Y-58869999D03*
X130289999Y-58219999D03*
X130289999Y-57569999D03*
%TD*%
D41*
%TO.C,C153*%
X96837500Y-111445000D03*
X96837500Y-109895000D03*
%TD*%
D45*
%TO.C,C105*%
X113124999Y-79059999D03*
X108974999Y-79059999D03*
%TD*%
D17*
%TO.C,C129*%
X84070000Y-111160000D03*
X85620000Y-111160000D03*
%TD*%
D46*
%TO.C,D109*%
X151780000Y-81620000D03*
X149280000Y-81620000D03*
%TD*%
D37*
%TO.C,J106*%
X114510000Y-91880000D03*
D38*
X110110000Y-87580000D03*
X110210000Y-96080000D03*
X118810000Y-87580000D03*
X118810000Y-96180000D03*
%TD*%
D35*
%TO.C,R105*%
X99470000Y-95927500D03*
X99470000Y-98852500D03*
%TD*%
D47*
%TO.C,C143*%
X145750000Y-78895000D03*
X145750000Y-80445000D03*
%TD*%
D36*
%TO.C,Q110*%
X138297500Y-73860000D03*
X138297500Y-71960000D03*
X136422500Y-72910000D03*
%TD*%
D35*
%TO.C,R102*%
X85480000Y-118267500D03*
X85480000Y-121192500D03*
%TD*%
D17*
%TO.C,C115*%
X121085000Y-58870000D03*
X122635000Y-58870000D03*
%TD*%
D48*
%TO.C,C111*%
X111290000Y-76220000D03*
X111290000Y-74320000D03*
%TD*%
D49*
%TO.C,U112*%
X100670000Y-104690000D03*
D50*
X109820000Y-107230000D03*
D49*
X100670000Y-109770000D03*
%TD*%
D44*
%TO.C,C106*%
X121459999Y-76744999D03*
X121459999Y-80894999D03*
%TD*%
D23*
%TO.C,C152*%
X98572500Y-119000000D03*
X96672500Y-119000000D03*
%TD*%
D36*
%TO.C,Q102*%
X131147500Y-79760000D03*
X131147500Y-77860000D03*
X129272500Y-78810000D03*
%TD*%
D17*
%TO.C,C131*%
X92275000Y-68250000D03*
X93825000Y-68250000D03*
%TD*%
D30*
%TO.C,FL105*%
X114350000Y-46740000D03*
D31*
X115975000Y-47667500D03*
D32*
X115975000Y-47845000D03*
D30*
X117600000Y-46740000D03*
D32*
X115975000Y-45635000D03*
D31*
X115975000Y-45812500D03*
%TD*%
D51*
%TO.C,H102*%
X162248804Y-33504383D03*
%TD*%
D41*
%TO.C,C157*%
X150610000Y-94047500D03*
X150610000Y-92497500D03*
%TD*%
D25*
%TO.C,U104*%
X80929999Y-68269999D03*
X80929999Y-67619999D03*
X80929999Y-66969999D03*
X79029999Y-66969999D03*
X79029999Y-67619999D03*
X79029999Y-68269999D03*
%TD*%
D44*
%TO.C,C112*%
X106279999Y-74264999D03*
X106279999Y-78414999D03*
%TD*%
D37*
%TO.C,J110*%
X138380000Y-116960000D03*
D38*
X133980000Y-112660000D03*
X134080000Y-121160000D03*
X142680000Y-112660000D03*
X142680000Y-121260000D03*
%TD*%
D52*
%TO.C,R104*%
X142732500Y-90240000D03*
X139807500Y-90240000D03*
%TD*%
D51*
%TO.C,H104*%
X79748804Y-33504383D03*
%TD*%
D25*
%TO.C,U114*%
X135259999Y-62849999D03*
X135259999Y-63499999D03*
X135259999Y-64149999D03*
X137159999Y-64149999D03*
X137159999Y-63499999D03*
X137159999Y-62849999D03*
%TD*%
D53*
%TO.C,C151*%
X98152500Y-124580000D03*
X92277500Y-124580000D03*
%TD*%
%TO.C,C154*%
X104992500Y-91110000D03*
X99117500Y-91110000D03*
%TD*%
D54*
%TO.C,D106*%
X141046117Y-85588883D03*
X142813883Y-83821117D03*
%TD*%
D55*
%TO.C,C149*%
X135251992Y-88838008D03*
X136348008Y-87741992D03*
%TD*%
D56*
%TO.C,U109*%
X146992499Y-71104999D03*
X144452499Y-71104999D03*
X143182499Y-71104999D03*
D57*
X145087500Y-73860000D03*
D56*
X146992499Y-76614999D03*
X144452499Y-76614999D03*
X143182499Y-76614999D03*
X145727499Y-70979999D03*
X145727499Y-76759999D03*
%TD*%
D42*
%TO.C,L101*%
X91012500Y-80050000D03*
X88887500Y-80050000D03*
%TD*%
D40*
%TO.C,C158*%
X159855000Y-81220000D03*
X158305000Y-81220000D03*
%TD*%
D25*
%TO.C,U113*%
X130489999Y-69949999D03*
X130489999Y-70599999D03*
X130489999Y-71249999D03*
X132389999Y-71249999D03*
X132389999Y-70599999D03*
X132389999Y-69949999D03*
%TD*%
D58*
%TO.C,Q104*%
X132410000Y-74370000D03*
X132410000Y-76270000D03*
X134285000Y-75320000D03*
%TD*%
D17*
%TO.C,C144*%
X128355000Y-81320000D03*
X129905000Y-81320000D03*
%TD*%
D59*
%TO.C,L103*%
X109140000Y-76332500D03*
X109140000Y-74207500D03*
%TD*%
D47*
%TO.C,C116*%
X126480000Y-56015000D03*
X126480000Y-57565000D03*
%TD*%
D37*
%TO.C,J109*%
X142970000Y-99840000D03*
D38*
X138570000Y-95540000D03*
X138670000Y-104040000D03*
X147270000Y-95540000D03*
X147270000Y-104140000D03*
%TD*%
D25*
%TO.C,U108*%
X86059999Y-71269999D03*
X86059999Y-70619999D03*
X86059999Y-69969999D03*
X84159999Y-69969999D03*
X84159999Y-70619999D03*
X84159999Y-71269999D03*
%TD*%
D44*
%TO.C,C103*%
X98599999Y-78374999D03*
X98599999Y-74224999D03*
%TD*%
D60*
%TO.C,J102*%
X78132499Y-111079999D03*
D61*
X78332499Y-108254999D03*
X78332499Y-113904999D03*
%TD*%
D62*
%TO.C,L117*%
X138345146Y-76595146D03*
X140554854Y-78804854D03*
%TD*%
D63*
%TO.C,C133*%
X94098830Y-60637500D03*
X95441170Y-59862500D03*
%TD*%
D64*
%TO.C,FL109*%
X101939999Y-51459999D03*
X101939999Y-51459999D03*
X101939999Y-58859999D03*
X101939999Y-58859999D03*
X116439999Y-58859999D03*
X116439999Y-51459999D03*
X105139999Y-51459999D03*
X105139999Y-58859999D03*
X107589999Y-51459999D03*
X107589999Y-58859999D03*
X110789999Y-51459999D03*
X110789999Y-58859999D03*
X113239999Y-51459999D03*
X113239999Y-58859999D03*
%TD*%
D65*
%TO.C,D104*%
X139390000Y-81605000D03*
X141890000Y-81605000D03*
%TD*%
D48*
%TO.C,C155*%
X94357500Y-111780000D03*
X94357500Y-109880000D03*
%TD*%
%TO.C,C156*%
X97050000Y-103020000D03*
X97050000Y-101120000D03*
%TD*%
D66*
%TO.C,Q107*%
X152190000Y-94682500D03*
X154090000Y-94682500D03*
X153140000Y-92807500D03*
%TD*%
D67*
%TO.C,J112*%
X152950000Y-40190000D03*
D68*
X147869999Y-40189999D03*
X142789999Y-40189999D03*
X137709999Y-40189999D03*
X132629999Y-40189999D03*
X127549999Y-40189999D03*
X122469999Y-40189999D03*
X117389999Y-40189999D03*
%TD*%
D51*
%TO.C,H101*%
X79748804Y-126504383D03*
%TD*%
D69*
%TO.C,D107*%
X150343883Y-85623883D03*
X148576117Y-83856117D03*
%TD*%
D41*
%TO.C,C130*%
X87700000Y-102085000D03*
X87700000Y-100535000D03*
%TD*%
D70*
%TO.C,U101*%
X151140000Y-47100000D03*
X151140000Y-48370000D03*
X151140000Y-49640000D03*
X151140000Y-50910000D03*
X151140000Y-52180000D03*
X151140000Y-53450000D03*
X151140000Y-54720000D03*
X151140000Y-55990000D03*
X160440000Y-55990000D03*
X160440000Y-54720000D03*
X160440000Y-53450000D03*
X160440000Y-52180000D03*
X160440000Y-50910000D03*
X160440000Y-49640000D03*
X160440000Y-48370000D03*
X160440000Y-47100000D03*
%TD*%
D71*
%TO.C,U102*%
X154980000Y-62380000D03*
X154980000Y-63650000D03*
X154980000Y-64920000D03*
X154980000Y-66190000D03*
X154980000Y-67460000D03*
X154980000Y-68730000D03*
X154980000Y-70000000D03*
X154980000Y-71270000D03*
X161905000Y-71270000D03*
X161905000Y-70000000D03*
X161905000Y-68730000D03*
X161905000Y-67460000D03*
X161905000Y-66190000D03*
X161905000Y-64920000D03*
X161905000Y-63650000D03*
X161905000Y-62380000D03*
%TD*%
D59*
%TO.C,L104*%
X118620000Y-80912500D03*
X118620000Y-78787500D03*
%TD*%
D45*
%TO.C,C110*%
X100379999Y-81109999D03*
X104529999Y-81109999D03*
%TD*%
D52*
%TO.C,R103*%
X94532500Y-106170000D03*
X91607500Y-106170000D03*
%TD*%
D17*
%TO.C,C101*%
X124165000Y-69950000D03*
X125715000Y-69950000D03*
%TD*%
D72*
%TO.C,U103*%
X87659999Y-106979999D03*
D73*
X87572500Y-105480000D03*
D72*
X87659999Y-103979999D03*
%TD*%
D44*
%TO.C,C108*%
X93729999Y-78344999D03*
X93729999Y-74194999D03*
%TD*%
%TO.C,C114*%
X115749999Y-79014999D03*
X115749999Y-74864999D03*
%TD*%
D36*
%TO.C,Q101*%
X93637500Y-103200000D03*
X93637500Y-101300000D03*
X91762500Y-102250000D03*
%TD*%
D17*
%TO.C,C141*%
X141585000Y-88090000D03*
X143135000Y-88090000D03*
%TD*%
D55*
%TO.C,C138*%
X93651992Y-54028008D03*
X94748008Y-52931992D03*
%TD*%
D17*
%TO.C,C147*%
X133022500Y-77820000D03*
X134572500Y-77820000D03*
%TD*%
D74*
%TO.C,U111*%
X106772499Y-120259999D03*
X104472499Y-120259999D03*
D75*
X104472499Y-126559999D03*
D74*
X102172499Y-120259999D03*
%TD*%
D51*
%TO.C,H103*%
X162248804Y-126504383D03*
%TD*%
D76*
X76228804Y-30004383D02*
X166158804Y-30004383D01*
X166158804Y-30004383D02*
X166158804Y-129944383D01*
X166158804Y-129944383D02*
X76228804Y-129944383D01*
X76228804Y-129944383D02*
X76228804Y-30004383D01*
M02*
